<svg width="195" height="52" viewBox="0 0 195 52" fill="none" xmlns="http://www.w3.org/2000/svg">
<g clip-path="url(#clip0_579_2617)">
<path d="M47.3306 4.6662C46.9516 4.6662 46.9024 4.6662 46.8533 5.07256C46.6708 6.64195 45.7864 6.67698 45.6741 6.67698C45.2459 6.67698 45.0845 6.31966 45.0845 6.08846C45.0845 5.82923 45.1827 5.6821 45.5126 5.30377C45.9548 4.82734 46.2005 4.18978 46.2005 3.48916C46.2005 3.34203 46.2005 3.24394 46.2848 3.24394C46.383 3.24394 46.5936 3.67132 46.6638 3.81845C46.8463 4.17577 46.8744 4.24583 47.1551 4.24583H54.0269C54.3358 4.24583 54.3849 4.13373 54.8341 3.11783C55.0307 2.64141 55.1781 2.10193 55.1781 1.96882C55.1781 1.73761 55.0166 1.7236 54.8482 1.7236C54.6516 1.7236 53.7812 1.80767 53.5987 1.82169C52.96 1.85672 52.2862 1.91977 52.0054 1.91977C51.9703 1.91977 51.872 1.91977 51.872 1.98283C51.872 2.08091 52.2651 2.37517 52.3283 2.43823C52.5739 2.66944 52.8687 3.04076 52.8687 3.44012C52.8687 3.83947 52.4406 4.02864 52.2932 4.02864C51.8369 4.02864 51.8018 3.47515 51.7878 2.99873C51.7738 2.71848 51.6544 2.22804 51.5913 2.09493C51.5281 1.9478 51.3807 1.9478 51.2333 1.9478C51.2192 1.9478 49.4153 1.99684 48.938 2.03187C48.8538 2.03187 48.8538 2.0669 48.8538 2.09493C48.8538 2.14397 48.9169 2.15798 48.9871 2.19301C49.2328 2.2911 50.0892 2.69746 50.0892 3.45413C50.0892 3.81144 49.7943 4.14074 49.6329 4.14074C49.3732 4.14074 49.3381 4.04265 48.9801 3.15987C48.7836 2.65542 48.5379 2.04588 48.0957 2.04588C47.9483 2.04588 47.2604 2.08091 47.113 2.08091C46.9797 2.08091 45.5548 2.08091 45.5548 1.9478C45.5548 1.89875 45.6039 1.8357 45.7513 1.8357C45.8004 1.8357 50.1313 1.44335 51.9001 1.23316C53.7883 1.00196 55.5922 0.511526 56.1186 0.203254C56.1678 0.168223 56.3643 0.00708008 56.4134 0.00708008C56.5257 0.00708008 58.1331 1.07202 58.3156 1.20514C58.3788 1.25418 58.4139 1.30323 58.4139 1.35227C58.4139 1.53443 58.1051 1.53443 57.9577 1.53443C57.8454 1.53443 57.368 1.4994 57.2698 1.4994C57.1575 1.4994 55.7256 1.63252 55.6764 1.64653C55.6132 1.66054 55.5782 1.69557 55.5782 1.74462C55.5782 1.8427 55.9081 2.10193 56.0555 2.22104C56.61 2.64842 56.6802 2.69746 56.6802 2.82357C56.6802 2.94968 56.0274 3.13184 55.9221 3.18089C55.5641 3.36305 54.6235 4.03564 54.6235 4.18277C54.6235 4.24583 54.6867 4.24583 54.7359 4.24583H57.361C57.6418 4.24583 57.7681 4.23182 57.9506 3.93756C58.1472 3.59425 58.1612 3.54521 58.2103 3.54521C58.3227 3.54521 58.9825 4.11972 59.1299 4.24583C59.6352 4.68722 59.6844 4.73626 59.6844 4.89741C59.6844 5.17765 59.1579 5.19167 58.7649 5.19167C58.1753 5.19167 57.368 5.74516 57.2206 5.82923C57.1855 5.84324 57.0592 5.94133 57.0241 5.94133C56.989 5.94133 56.989 5.9063 56.989 5.87827C56.989 5.76617 57.5786 4.94645 57.5786 4.81333C57.5786 4.6662 57.4453 4.6662 57.347 4.6662H47.3236H47.3306ZM54.1743 9.94187C54.2866 9.94187 54.4551 9.94187 54.6516 9.73168C54.8131 9.54952 54.8622 9.48647 54.9605 9.48647C54.9956 9.48647 55.536 9.79474 55.5992 9.82977C55.6975 9.87881 56.1537 10.124 56.252 10.1731C56.266 10.1871 56.3503 10.2852 56.3503 10.3342C56.3503 10.4954 56.1397 10.5164 56.0906 10.5164C55.7958 10.5514 55.6834 10.6145 55.515 10.7756C54.4972 11.8405 54.434 11.9036 54.1041 12.1488C53.8444 12.359 53.8093 12.38 53.8093 12.4571C53.8093 12.6883 55.9572 13.2768 58.1893 13.2768C58.8982 13.2768 59.3545 13.1927 59.4527 13.1787C59.4668 13.1787 59.5651 13.1437 59.5861 13.1437C59.6072 13.1437 59.6352 13.1437 59.6352 13.1927C59.6352 13.2418 59.6001 13.2768 59.551 13.3048C58.828 13.8303 58.7508 13.8583 58.5473 14.1876C58.3016 14.58 58.2876 14.615 58.1191 14.615C57.9366 14.615 56.968 14.4819 56.1327 14.2857C54.806 13.9915 53.9006 13.5991 53.1987 13.2068C53.0021 13.0947 52.9389 13.0736 52.8547 13.0736C52.7424 13.0736 52.6441 13.1087 52.4967 13.1857C50.3489 14.2997 47.2464 14.9233 45.997 14.9233C45.9829 14.9233 45.9127 14.9233 45.9127 14.8742C45.9127 14.8252 46.1935 14.7621 46.1935 14.7621C47.1271 14.5519 48.7555 14.0405 49.6189 13.6832C49.8154 13.5991 51.9633 12.7163 51.9633 12.4571C51.9633 12.359 51.9282 12.345 51.6334 12.0788C51.2403 11.7355 50.7981 11.196 50.7139 11.0979C50.4191 10.7055 50.384 10.6705 50.2717 10.6705C50.1874 10.6705 49.9768 10.8667 49.8645 10.9788C48.8468 11.9456 46.5866 13.2068 45.4354 13.2068C45.4003 13.2068 45.3372 13.2068 45.3372 13.1227C45.3372 13.1087 45.3372 13.0736 45.3723 13.0596C45.4214 13.0456 45.6179 12.9966 45.653 12.9615C48.7555 11.8616 50.391 9.14316 50.391 8.75081C50.391 8.56865 50.2085 8.54063 50.033 8.5056C49.654 8.45655 49.31 8.22535 49.2118 7.81899C49.1977 7.76995 49.1977 6.42476 49.1977 6.26361C49.1977 5.75917 49.1977 5.71012 49.1626 5.54198C49.1486 5.50695 49.0293 5.35982 49.0293 5.33179C49.0293 5.2337 49.1275 5.2337 49.1767 5.2337C49.2258 5.2337 50.5524 5.54198 50.5524 5.85725C50.5524 5.92031 50.2576 6.16553 50.2436 6.23559C50.2295 6.2496 50.2295 7.13939 50.2295 7.20244C50.2295 7.44766 50.2295 7.65785 51.872 7.65785C52.3283 7.65785 53.7742 7.62282 54.1392 7.42664C54.5674 7.21646 54.778 6.65596 54.8482 6.16553C54.8833 5.95534 54.8973 5.95534 54.9324 5.95534C54.9464 5.95534 55.0166 5.95534 55.0166 6.06744C55.0307 6.21457 55.1149 6.54386 55.2132 6.66997C55.6554 7.27251 55.7185 7.35658 55.7185 7.50371C55.7185 8.00816 54.7499 8.66674 52.6512 8.66674C52.4687 8.66674 51.6193 8.65273 51.4228 8.65273C51.3737 8.65273 51.3386 8.68776 51.3386 8.71578C51.3386 8.81387 51.8439 8.97501 51.8439 9.0731C51.8439 9.22023 51.5632 9.31832 51.486 9.33233C51.1771 9.43042 51.0297 9.71066 51.0297 9.78773C51.0297 9.92085 51.1631 9.92085 51.2754 9.92085H54.1813L54.1743 9.94187ZM48.1729 6.53686C48.1729 8.56865 47.0428 8.56865 46.9446 8.56865C46.5655 8.56865 46.4181 8.22535 46.4181 7.99414C46.4181 7.7139 46.4813 7.65084 47.2043 6.9292C47.4359 6.698 47.6465 6.4738 47.7307 6.20756C47.7939 6.01139 47.8921 5.65408 47.9413 5.60503C48.1378 5.40886 48.1729 6.41074 48.1729 6.53686ZM51.0297 10.3692C50.9665 10.3692 50.7981 10.3692 50.7981 10.5304C50.7981 10.7266 52.3423 12.0017 52.7494 12.0017C53.0934 12.0017 54.2936 10.6915 54.2936 10.5304C54.2936 10.3692 54.1813 10.3692 53.9988 10.3692H51.0297ZM51.507 5.03052C51.6404 5.03052 52.3774 5.32478 52.8336 5.61904C53.1636 5.81522 53.311 6.0254 53.311 6.34068C53.311 6.68399 53.0793 6.9292 52.9179 6.9292C52.7845 6.9292 52.7564 6.88016 52.5108 6.53686C52.1809 6.09547 51.7387 5.4579 51.5281 5.21268C51.493 5.17765 51.4439 5.12861 51.4439 5.10059C51.4298 5.05154 51.4789 5.03753 51.507 5.03753V5.03052ZM55.6413 5.26173C55.6413 5.26173 58.2525 6.43877 58.2525 7.84701C58.2525 8.37248 57.9436 8.68075 57.6979 8.68075C57.4031 8.68075 57.3189 8.48458 57.0732 7.826C56.7644 6.95723 56.6451 6.8101 55.6975 5.51395C55.6132 5.40185 55.5852 5.35281 55.5852 5.28275C55.5852 5.24772 55.6203 5.24772 55.6483 5.24772L55.6413 5.26173Z" fill="#EB6EA5"/>
<path d="M74.2347 2.8655C74.2347 2.91454 74.2698 2.9776 74.2698 3.04766C74.333 3.57312 74.4312 4.09859 74.4312 4.81322C74.4312 5.91319 74.1856 7.43354 72.7396 9.61247C71.427 11.6092 70.5917 12.0016 69.9319 12.0016C68.851 12.0016 67.8823 10.3131 67.8823 8.31632C67.8823 7.44755 68.0648 5.79409 69.7003 4.14063C71.785 2.01074 73.982 2.01074 74.9366 2.01074C76.4317 2.01074 77.1196 2.305 77.5758 2.53621C79.3447 3.40498 80.4326 5.15653 80.4326 7.30042C80.4326 9.44432 79.2043 12.0506 76.2983 13.0665C74.9015 13.557 73.8206 13.6691 73.5749 13.6691C73.5117 13.6691 73.4134 13.655 73.4134 13.557C73.4134 13.5079 73.4485 13.4939 73.8557 13.3258C75.5613 12.6532 79.12 11.2449 79.12 7.1673C79.12 6.52974 79.0569 2.63429 74.5786 2.63429C74.2487 2.63429 74.2347 2.76741 74.2347 2.8655ZM68.9001 7.89595C68.9001 8.96089 69.3283 10.4182 70.325 10.4182C70.8023 10.4182 71.1954 10.222 72.3255 8.5195C73.1958 7.19533 73.9329 5.37372 73.9329 3.75529C73.9329 2.77442 73.8697 2.69034 73.6521 2.69034C72.0938 2.69034 68.8931 4.79921 68.8931 7.89595H68.9001Z" fill="black"/>
<path d="M89.5927 3.68536C89.9226 3.7344 90.2806 3.74841 90.6246 3.74841C92.0845 3.74841 96.9559 2.97773 97.4191 2.79557C97.5314 2.74653 97.9947 2.41724 98.093 2.41724C98.472 2.41724 100.03 3.98662 100.03 4.54712C100.03 4.65922 100.03 4.84138 99.4547 4.9745C98.8791 5.0866 96.3733 6.00441 96.0293 6.46682C95.8328 6.74707 95.7696 6.94324 95.194 8.56167C94.8992 9.41643 93.9657 12.0157 91.0597 13.6201C90.5193 13.9144 90.042 14.0966 89.9297 14.0966C89.8665 14.0966 89.8314 14.0615 89.8314 14.0125C89.8314 13.9634 89.8665 13.9284 90.1613 13.7042C91.0808 13.0316 92.2109 12.0648 93.0953 10.6565C94.0008 9.21325 94.3237 7.82602 94.3237 7.06935C94.3237 6.71204 94.2605 6.39676 94.1131 6.1025C93.9797 5.84327 93.9657 5.80824 93.9657 5.74518C93.9657 5.61206 94.2114 5.59805 94.3096 5.59805C94.5904 5.59805 94.7869 5.61206 95.194 5.74518C95.2923 5.78021 95.7345 5.95537 95.8328 5.95537C96.289 5.95537 97.8683 4.38598 97.8683 3.9586C97.8683 3.8465 97.7701 3.71338 97.5595 3.71338C97.2998 3.71338 94.3307 3.94459 91.7055 4.72928C91.4739 4.79234 90.5403 5.2057 90.3297 5.2057C89.9367 5.2057 88.6592 4.15477 88.6592 3.58727C88.6592 3.55224 88.6943 3.52422 88.7715 3.52422C88.8206 3.52422 89.4734 3.67135 89.6068 3.68536H89.5927Z" fill="black"/>
<path d="M112.827 5.9132C113.465 6.30555 113.536 6.36861 113.536 6.51574C113.536 6.61382 113.353 7.06923 113.339 7.16731C113.276 7.46157 113.241 7.80488 113.241 10.0679C113.241 10.5093 113.255 11.3921 113.29 12.0296C113.304 12.2258 113.402 13.1786 113.402 13.3888C113.402 13.55 113.402 14.1105 113.009 14.1105C112.553 14.1105 111.991 13.4028 111.991 12.9614C111.991 12.8003 112.153 12.0787 112.174 11.9105C112.272 11.0277 112.335 9.76661 112.335 8.89784C112.335 8.30932 112.335 6.5858 111.907 6.5858C111.823 6.5858 111.76 6.64886 111.626 6.78197C110.019 8.32334 107.26 9.90674 106.966 9.90674C106.916 9.90674 106.881 9.87171 106.881 9.80865C106.881 9.75961 106.895 9.72458 106.93 9.69655C107.359 9.31822 107.815 8.93988 108.082 8.71568C111.956 5.40876 113.234 2.6273 113.234 2.16489C113.234 2.00375 113.185 1.85662 113.1 1.70949C113.086 1.67445 112.988 1.47828 112.988 1.45026C112.988 1.3872 113.072 1.31714 113.149 1.31714C113.395 1.31714 115.052 2.00375 115.052 2.6273C115.052 2.78844 114.967 2.90755 114.904 2.95659C114.462 3.3139 114.399 3.41199 113.788 4.30178C113.507 4.69413 112.981 5.28265 112.672 5.67499C112.672 5.77308 112.721 5.83614 112.82 5.9062L112.827 5.9132Z" fill="black"/>
<path d="M131.61 7.6017C131.61 7.7138 131.217 8.02908 131.168 8.10615C131.118 8.16921 130.494 9.67554 130.346 9.95579C128.774 13.1156 126.212 14.1665 126.001 14.1665C125.938 14.1665 125.903 14.1315 125.903 14.0824C125.903 14.0334 126.64 13.3818 126.774 13.2627C129.483 10.6774 129.988 7.32146 129.988 7.09025C129.988 6.89408 129.953 6.59982 129.595 6.59982C129.167 6.59982 127.658 6.92911 126.984 7.09025C126.802 7.13929 125.98 7.38451 125.805 7.38451C124.984 7.38451 124.506 6.50173 124.506 6.13741C124.506 6.03932 124.541 5.97627 124.619 5.97627C124.654 5.97627 124.829 6.03932 124.864 6.06034C125.096 6.1234 125.587 6.17244 125.896 6.17244C126.949 6.17244 131.196 5.71704 132.347 5.54889C132.543 5.51386 133.4 5.25463 133.575 5.25463C133.772 5.25463 135.639 5.61194 135.639 6.28454C135.639 6.5788 135.379 6.67689 135.161 6.67689C134.979 6.67689 134.179 6.54377 134.01 6.52976C133.666 6.49472 133.203 6.44568 132.845 6.44568C132.291 6.44568 131.301 6.44568 131.189 6.49472C131.076 6.55778 131.041 6.65587 131.076 6.73994C131.09 6.78898 131.603 7.44056 131.603 7.5947L131.61 7.6017ZM127.967 2.78845C128.472 2.78845 128.655 2.7394 130.297 2.38209C130.725 2.284 131.252 2.18591 131.61 2.18591C131.968 2.18591 132.543 2.24897 132.543 2.72539C132.543 3.20181 132.263 3.22984 131.294 3.32792C130.459 3.42601 129.357 3.6362 129.111 3.68524C129.027 3.69925 128.388 3.83237 128.339 3.83237C127.532 3.83237 127.026 2.68335 127.11 2.65533C127.11 2.65533 127.833 2.78845 127.967 2.78845ZM136.762 4.50496C136.762 4.75018 136.565 5.12852 136.27 5.12852C136.039 5.12852 135.891 4.9954 135.435 4.37185C135.239 4.11262 135.091 3.94447 134.319 3.35595C134.256 3.3069 134.088 3.15977 134.088 3.09672C134.088 3.03366 134.235 2.9636 134.368 2.9636C135.842 2.9636 136.762 3.93046 136.762 4.50496ZM138.208 2.90055C138.208 3.09672 138.074 3.39098 137.78 3.39098C137.436 3.39098 137.225 3.11073 136.944 2.7324C136.734 2.42412 136.088 1.96172 135.569 1.73051C135.407 1.66745 135.372 1.59739 135.372 1.54835C135.372 1.38721 135.863 1.38721 135.976 1.38721C136.86 1.38721 138.208 1.9407 138.208 2.89354V2.90055Z" fill="black"/>
<path d="M146.687 3.68536C147.017 3.7344 147.375 3.74841 147.719 3.74841C149.179 3.74841 154.05 2.97773 154.513 2.79557C154.626 2.74653 155.089 2.41724 155.187 2.41724C155.566 2.41724 157.125 3.98662 157.125 4.54712C157.125 4.65922 157.125 4.84138 156.549 4.9745C155.973 5.0866 153.468 6.00441 153.124 6.46682C152.927 6.74707 152.864 6.94324 152.288 8.56167C151.993 9.41643 151.06 12.0157 148.154 13.6201C147.614 13.9144 147.136 14.0966 147.024 14.0966C146.961 14.0966 146.926 14.0615 146.926 14.0125C146.926 13.9634 146.961 13.9284 147.256 13.7042C148.175 13.0316 149.305 12.0648 150.19 10.6565C151.095 9.21325 151.418 7.82602 151.418 7.06935C151.418 6.71204 151.355 6.39676 151.207 6.1025C151.074 5.84327 151.06 5.80824 151.06 5.74518C151.06 5.61206 151.306 5.59805 151.404 5.59805C151.685 5.59805 151.881 5.61206 152.288 5.74518C152.387 5.78021 152.829 5.95537 152.927 5.95537C153.383 5.95537 154.963 4.38598 154.963 3.9586C154.963 3.8465 154.864 3.71338 154.654 3.71338C154.394 3.71338 151.425 3.94459 148.8 4.72928C148.568 4.79234 147.635 5.2057 147.424 5.2057C147.031 5.2057 145.753 4.15477 145.753 3.58727C145.753 3.55224 145.789 3.52422 145.866 3.52422C145.915 3.52422 146.568 3.67135 146.701 3.68536H146.687Z" fill="black"/>
<path d="M54.3914 40.6639L50.187 38.0015C48.9375 37.2168 48.2777 36.4461 48.2777 35.7735C48.2777 35.171 48.4813 34.6666 48.9024 34.2322C49.3166 33.8048 49.8149 33.5946 50.4116 33.5946C51.0503 33.5946 51.5346 33.8048 51.8996 34.2322C52.2857 34.6876 52.4752 35.2341 52.4752 35.8996V36.3761H56.4761V35.8996C56.4761 34.1481 55.9006 32.6418 54.7775 31.4367C53.6404 30.2176 52.1734 29.6011 50.4186 29.6011C48.6638 29.6011 47.281 30.2316 46.0878 31.4717C44.9085 32.7048 44.3049 34.1901 44.3049 35.8786C44.3049 37.5671 45.1542 39.1856 46.8177 40.5097L46.8669 40.5448C48.1023 41.3084 49.3587 42.0651 50.5871 42.7937C52.6226 44.209 52.9315 45.0357 52.9315 45.4071C52.9315 46.1007 52.6928 46.6682 52.1944 47.1376C51.6891 47.614 51.0924 47.8452 50.3624 47.8452C49.6324 47.8452 49.0779 47.6 48.5866 47.1026C48.0882 46.5981 47.8496 46.0166 47.8496 45.309V44.5523H43.8486V45.33C43.8486 47.1446 44.4874 48.693 45.7368 49.9471C46.9932 51.2012 48.5445 51.8317 50.3624 51.8317C52.1804 51.8317 53.7176 51.1942 54.9881 49.9331C56.2586 48.6719 56.9043 47.1236 56.9043 45.33C56.9043 43.5364 56.062 42.0161 54.3914 40.6779V40.6639Z" fill="black"/>
<path d="M75.0912 29.8462L66.9419 51.5654H71.2938L71.3991 51.2852L72.9293 47.0604H81.0645L82.7491 51.5724H87.0378L78.8885 29.8532H75.0771L75.0912 29.8462ZM74.4173 42.9688L76.9442 36.0046L79.5484 42.9688H74.4173Z" fill="black"/>
<path d="M136.116 29.8462L127.967 51.5654H132.319L132.424 51.2852L133.954 47.0604H142.089L143.774 51.5724H148.063L139.913 29.8532H136.102L136.116 29.8462ZM135.442 42.9688L137.969 36.0046L140.573 42.9688H135.442Z" fill="black"/>
<path d="M168.79 43.3331L162.27 29.8462H158.542V51.5654H162.543V39.5988L166.608 48.0063H170.966L175.031 39.5988V51.5654H179.031V29.8462H175.304L168.79 43.3331Z" fill="black"/>
<path d="M195 29.8462H190.999V51.5654H195V29.8462Z" fill="black"/>
<path d="M118.954 39.8652H108.425V44.146H114.027C112.756 46.479 110.342 47.9223 107.674 47.9223C103.687 47.9223 100.452 44.6855 100.452 40.7129C100.452 36.7404 103.694 33.5036 107.674 33.5036C110.047 33.5036 112.265 34.6736 113.62 36.6283L113.655 36.6774H118.238L118.175 36.5092C116.441 32.2004 112.314 29.4189 107.674 29.4189C101.434 29.4189 96.3594 34.4844 96.3594 40.7129C96.3594 46.9414 101.434 52.0069 107.674 52.0069C113.914 52.0069 118.989 46.9414 118.989 40.7129C118.989 40.4887 118.982 40.2505 118.961 39.9843V39.8722L118.954 39.8652Z" fill="black"/>
<path d="M17.7095 49.1133C17.7095 50.6336 16.4741 51.8667 14.9509 51.8667C13.4278 51.8667 12.1924 50.6336 12.1924 49.1133C12.1924 47.593 13.4278 46.3599 14.9509 46.3599C16.4741 46.3599 17.7095 47.593 17.7095 49.1133Z" fill="#EB6EA5"/>
<path d="M17.0354 29.8462H12.873V43.1229H17.0354V29.8462Z" fill="#EB6EA5"/>
<path d="M0 29.8462L2.45671 43.1229H6.62611L4.16238 29.8462H0Z" fill="#EB6EA5"/>
<path d="M23.2827 43.1229L25.7394 29.8462H29.9088L27.4451 43.1229H23.2827Z" fill="#EB6EA5"/>
</g>
<defs>
<clipPath id="clip0_579_2617">
<rect width="195" height="52" fill="white"/>
</clipPath>
</defs>
</svg>
