<?xml version="1.0" encoding="utf-8"?>
<!-- Generator: Adobe Illustrator 25.3.1, SVG Export Plug-In . SVG Version: 6.00 Build 0)  -->
<svg version="1.1" id="レイヤー_1" xmlns="http://www.w3.org/2000/svg" xmlns:xlink="http://www.w3.org/1999/xlink" x="0px"
	 y="0px" viewBox="0 0 94 60" style="enable-background:new 0 0 94 60;" xml:space="preserve">
<style type="text/css">
	.st0{fill:#FFFFFF;stroke:#FFFFFF;stroke-width:0.5373;}
	.st1{fill:#040000;}
	.st2{fill:#D70C18;}
</style>
<g>
	<g>
		<path class="st0" d="M47,50.5l1.9,1.4c4.5,3.2,9.8,4.8,15.3,4.8c14.7,0,26.7-12,26.7-26.7c0-14.7-12-26.7-26.7-26.7
			c-5.5,0-10.8,1.7-15.3,4.8L47,9.5l-1.8-1.4C40.6,5,35.3,3.3,29.8,3.3C15.1,3.3,3.1,15.3,3.1,30c0,14.7,12,26.7,26.7,26.7
			c5.5,0,10.8-1.7,15.3-4.8L47,50.5z"/>
		<g>
			<rect x="15.5" y="12.4" class="st1" width="9" height="35.8"/>
			<polygon class="st2" points="81,12.4 47,12.4 47,19 59.7,19 59.7,48.2 68.7,48.2 68.7,19 81,19 			"/>
			<path class="st1" d="M33.4,28.8c0-6.9,4.7-12,13.6-16.5H33.8c-6.4,4.4-9.3,10.4-9.3,16.9c0,10.9,13.2,19,13.2,19h14.4
				C40.4,42.2,33.4,35.6,33.4,28.8z"/>
			<path class="st1" d="M47,50.5l-1.8,1.4c-4.5,3.2-9.8,4.8-15.3,4.8c-14.7,0-26.7-12-26.7-26.7c0-14.7,12-26.7,26.7-26.7
				c5.5,0,10.8,1.7,15.3,4.8L47,9.5V5.9c-5-3.6-11-5.5-17.2-5.5C13.5,0.4,0.3,13.7,0.3,30c0,16.3,13.3,29.6,29.6,29.6
				c6.2,0,12.1-1.9,17.2-5.5V50.5z"/>
			<path class="st2" d="M47,50.5l1.9,1.4c4.5,3.2,9.8,4.8,15.3,4.8c14.7,0,26.7-12,26.7-26.7c0-14.7-12-26.7-26.7-26.7
				c-5.5,0-10.8,1.7-15.3,4.8L47,9.5V5.9c5-3.6,11-5.5,17.2-5.5c16.3,0,29.6,13.3,29.6,29.6c0,16.3-13.3,29.6-29.6,29.6
				C58,59.6,52,57.7,47,54.1V50.5z"/>
		</g>
	</g>
	<g>
		<path class="st1" d="M85.5,59.6v-4.4h-1.7v-0.6h4v0.6h-1.7v4.4H85.5z"/>
		<path class="st1" d="M88.5,54.6h1.2l1.4,4.1l1.4-4.1h1.1v5h-0.7v-4.5l-1.6,4.5h-0.7l-1.6-4.5v4.5h-0.7V54.6z"/>
	</g>
</g>
</svg>
