<?xml version="1.0" encoding="UTF-8"?>
<svg version="1.1" xmlns="http://www.w3.org/2000/svg" width="250" height="127">
<path d="M0 0 C10.12600311 7.44916918 19.22033595 16.16848814 28.24072266 24.89624023 C29.26431885 25.87765991 29.26431885 25.87765991 30.30859375 26.87890625 C30.91074707 27.46236816 31.51290039 28.04583008 32.13330078 28.64697266 C33.97061682 30.18999781 35.74327163 31.17372879 37.92578125 32.15234375 C39.78075135 29.84048447 41.63476731 27.52787009 43.48828125 25.21484375 C44.00197266 24.57482422 44.51566406 23.93480469 45.04492188 23.27539062 C45.56376953 22.62763672 46.08261719 21.97988281 46.6171875 21.3125 C47.16318604 20.64806885 47.70918457 19.9836377 48.27172852 19.29907227 C49.98715579 17.15156671 49.98715579 17.15156671 51.45288086 14.65991211 C55.40261967 8.53887304 55.40261967 8.53887304 59.72827148 7.44116211 C62.98616259 7.26664584 66.10911435 7.36388676 69.36328125 7.58984375 C70.47638672 7.63044922 71.58949219 7.67105469 72.73632812 7.71289062 C75.47069255 7.81850985 78.19593037 7.96597862 80.92578125 8.15234375 C80.28824973 13.0020947 78.27372707 16.91442376 76.12109375 21.23828125 C75.73017548 22.03533478 75.3392572 22.83238831 74.93649292 23.65359497 C73.64654731 26.28081698 72.34859762 28.90400216 71.05078125 31.52734375 C70.14650421 33.36622619 69.24286727 35.20542354 68.33984375 37.04492188 C66.46886277 40.85502312 64.59524842 44.66381175 62.71972656 48.47167969 C58.83255608 56.36876633 54.97596151 64.28071669 51.12265015 72.19436646 C49.93361131 74.63626338 48.74381317 77.0777893 47.55395508 79.51928711 C41.29273044 92.37220932 35.08468313 105.25003633 28.92578125 118.15234375 C24.96468715 116.83197905 24.56060439 115.28773689 22.51171875 111.6953125 C22.18497665 111.12932846 21.85823456 110.56334442 21.52159119 109.98020935 C20.81276392 108.75059151 20.10794124 107.51865855 19.40664673 106.284729 C17.51636133 102.9602847 15.59577085 99.65336879 13.6796875 96.34375 C13.28571274 95.66137268 12.89173798 94.97899536 12.48582458 94.27593994 C8.49987145 87.38401705 4.38608254 80.57275124 0.23828125 73.77734375 C-0.29051132 72.91082184 -0.29051132 72.91082184 -0.82998657 72.02679443 C-2.5757649 69.16670335 -4.32227818 66.3070638 -6.06933594 63.44775391 C-8.00412351 60.26755875 -9.92120909 57.07745251 -11.83203125 53.8828125 C-17.19968353 44.9294462 -22.63688554 36.07437294 -28.63671875 27.52734375 C-29.35178589 26.5060437 -29.35178589 26.5060437 -30.08129883 25.46411133 C-32.80603058 21.66384033 -35.67291688 18.36297589 -39.07421875 15.15234375 C-43.26959406 19.17552082 -46.92992602 23.50368572 -50.57421875 28.02734375 C-51.12980469 28.70925781 -51.68539062 29.39117187 -52.2578125 30.09375 C-55.41198891 33.80412671 -55.41198891 33.80412671 -57.92082214 37.93696594 C-59.11120371 40.16567103 -60.09914249 41.55850183 -62.07421875 43.15234375 C-66.46390603 44.14930853 -70.7689749 43.96619616 -75.25 43.8359375 C-77.1704438 43.82108055 -77.1704438 43.82108055 -79.12968445 43.80592346 C-82.52215432 43.77928396 -85.91250268 43.71060717 -89.30413818 43.63299561 C-92.76952412 43.5611915 -96.23525535 43.52937598 -99.70117188 43.49414062 C-106.49310484 43.41698639 -113.28346954 43.29986796 -120.07421875 43.15234375 C-116.7245118 39.63066097 -113.36979207 36.81754357 -109.3125 34.1484375 C-108.76913498 33.78852219 -108.22576996 33.42860687 -107.66593933 33.05778503 C-105.90977586 31.89627615 -104.1483731 30.74300368 -102.38671875 29.58984375 C-101.16108661 28.78165067 -99.93582912 27.97288918 -98.7109375 27.16357422 C-96.27976585 25.55792632 -93.84683373 23.95500159 -91.41259766 22.35400391 C-87.83272877 19.99308116 -84.27018836 17.60773709 -80.71264648 15.21337891 C-77.89891649 13.32385272 -75.07339862 11.45260225 -72.24414062 9.58642578 C-70.72703664 8.58378527 -69.21295059 7.57657004 -67.70117188 6.56591797 C-45.45642647 -8.25948812 -24.06330826 -16.09893183 0 0 Z " fill="#16618B" transform="translate(169.07421875,8.84765625)"/>
<path d="M0 0 C-0.58928186 3.02871123 -1.44239024 4.88071677 -3.40625 7.25 C-3.90382813 7.85972656 -4.40140625 8.46945313 -4.9140625 9.09765625 C-5.43742187 9.72542969 -5.96078125 10.35320313 -6.5 11 C-7.51262701 12.22734635 -8.52297026 13.45657981 -9.53125 14.6875 C-10.38891968 15.66928223 -10.38891968 15.66928223 -11.26391602 16.67089844 C-13.14859061 19.01547442 -13.14859061 19.01547442 -14.37475586 22.14941406 C-16.35962212 26.04374641 -18.11413782 28.94210633 -22 31 C-30.96514754 32.95309047 -40.39357462 32.18612005 -49.50457764 31.82397461 C-52.94292647 31.70037883 -56.38232772 31.64623852 -59.82226562 31.5859375 C-66.55092904 31.45404907 -73.27488275 31.2536026 -80 31 C-76.60295029 27.42063157 -73.18514327 24.59529734 -69.0625 21.890625 C-68.22041992 21.33396149 -68.22041992 21.33396149 -67.36132812 20.76605225 C-65.57781493 19.58846198 -63.78922496 18.41888917 -62 17.25 C-60.24829328 16.09905913 -58.49773746 14.94639614 -56.74781799 13.79273987 C-55.5827028 13.0247271 -54.41679797 12.25791091 -53.25010681 11.49229431 C-50.28277312 9.53815487 -47.3436478 7.55345326 -44.43969727 5.50610352 C-43.57387024 4.89668915 -43.57387024 4.89668915 -42.69055176 4.27496338 C-41.10449641 3.15317675 -39.52385884 2.02374127 -37.94360352 0.89379883 C-26.19495239 -6.66482163 -11.8077127 -7.87180847 0 0 Z " fill="#221F1F" transform="translate(129,21)"/>
<path d="M0 0 C1.68319336 0.04060547 1.68319336 0.04060547 3.40039062 0.08203125 C6.16472459 0.15260999 8.92512415 0.25115512 11.6875 0.375 C10.69319942 6.30939747 8.19899144 11.38454763 5.6875 16.8125 C5.02041016 18.34874023 5.02041016 18.34874023 4.33984375 19.91601562 C1.12089966 26.84257359 -2.27222292 31.14856388 -9.3125 34.375 C-15.54181555 36.10491095 -20.64936775 35.52118458 -26.3125 32.375 C-28.47534067 30.8208906 -30.35059261 29.18976433 -32.3125 27.375 C-30.95603503 24.4733024 -29.40060821 22.01352528 -27.44921875 19.4765625 C-26.89169922 18.74953125 -26.33417969 18.0225 -25.75976562 17.2734375 C-25.17904297 16.52320312 -24.59832031 15.77296875 -24 15 C-23.43087891 14.2575 -22.86175781 13.515 -22.27539062 12.75 C-21.15129839 11.28906726 -20.0141503 9.83807773 -18.86352539 8.39794922 C-17.30913174 6.45472133 -17.30913174 6.45472133 -16.21264648 4.51220703 C-12.38274478 -1.5246811 -6.32707326 -0.28843467 0 0 Z " fill="#2488BC" transform="translate(238.3125,16.625)"/>
<path d="M0 0 C8 0 8 0 10.6875 2.125 C11.450625 3.07375 12.21375 4.0225 13 5 C13.93667703 6.10486489 14.87416689 7.20904123 15.8125 8.3125 C16.534375 9.199375 17.25625 10.08625 18 11 C18.33 7.37 18.66 3.74 19 0 C21.31 0 23.62 0 26 0 C26 7.26 26 14.52 26 22 C15.86574479 20.87397164 15.86574479 20.87397164 12 16.0625 C11.2575 15.16660156 10.515 14.27070312 9.75 13.34765625 C8 11 8 11 7 9 C6.67 13.29 6.34 17.58 6 22 C4.02 22 2.04 22 0 22 C0 14.74 0 7.48 0 0 Z " fill="#221E1E" transform="translate(0,76)"/>
<path d="M0 0 C2.21484375 -0.38818359 2.21484375 -0.38818359 4.9375 -0.3984375 C5.91460937 -0.40230469 6.89171875 -0.40617187 7.8984375 -0.41015625 C8.92195313 -0.39855469 9.94546875 -0.38695313 11 -0.375 C12.53527344 -0.39240234 12.53527344 -0.39240234 14.1015625 -0.41015625 C15.56722656 -0.40435547 15.56722656 -0.40435547 17.0625 -0.3984375 C18.41021484 -0.39336182 18.41021484 -0.39336182 19.78515625 -0.38818359 C20.51605469 -0.26008301 21.24695313 -0.13198242 22 0 C24.42161179 3.63241769 24.26331995 6.30995016 24.1875 10.5 C24.18685547 11.17675781 24.18621094 11.85351562 24.18554688 12.55078125 C24.15821603 15.63005603 23.98032509 18.05902474 23 21 C20.62384014 22.18807993 19.1488258 22.12914522 16.5 22.1328125 C15.1696875 22.13474609 15.1696875 22.13474609 13.8125 22.13671875 C12.884375 22.13285156 11.95625 22.12898438 11 22.125 C9.6078125 22.13080078 9.6078125 22.13080078 8.1875 22.13671875 C7.300625 22.13542969 6.41375 22.13414063 5.5 22.1328125 C4.6853125 22.13168457 3.870625 22.13055664 3.03125 22.12939453 C1 22 1 22 -1 21 C-2.18430188 17.44709436 -2.18397858 14.19749544 -2.1875 10.5 C-2.19974609 9.82324219 -2.21199219 9.14648438 -2.22460938 8.44921875 C-2.23559396 4.73642956 -2.11344616 3.17016924 0 0 Z M5 5 C4.92755947 7.01964199 4.91622812 9.04167124 4.9375 11.0625 C4.94652344 12.16722656 4.95554687 13.27195312 4.96484375 14.41015625 C4.97644531 15.26480469 4.98804687 16.11945313 5 17 C6.81242052 17.02687279 8.62495233 17.04633715 10.4375 17.0625 C11.95150391 17.07990234 11.95150391 17.07990234 13.49609375 17.09765625 C15.94021067 17.28612676 15.94021067 17.28612676 17 16 C17.09851171 14.16884117 17.12972629 12.33380067 17.125 10.5 C17.12757813 9.4996875 17.13015625 8.499375 17.1328125 7.46875 C17.27870382 5.05600378 17.27870382 5.05600378 16 4 C14.33570949 3.90176063 12.66718069 3.87026369 11 3.875 C10.0925 3.87242188 9.185 3.86984375 8.25 3.8671875 C6.03033389 3.74826221 6.03033389 3.74826221 5 5 Z " fill="#221E1E" transform="translate(114,76)"/>
<path d="M0 0 C6.35051546 -0.36637589 6.35051546 -0.36637589 9.4375 1.375 C11 3 11 3 11 5 C11.845625 4.175 12.69125 3.35 13.5625 2.5 C16.32453135 0.15985411 17.00048191 -0.00003886 20.875 -0.3125 C21.90625 -0.209375 22.9375 -0.10625 24 0 C22.35371179 4.68558952 22.35371179 4.68558952 20.3125 6.5 C18.76218952 7.95026115 18.76218952 7.95026115 18.9375 10.25 C20.25715847 13.66558663 22.23090069 15.80502638 24.72265625 18.44921875 C26 20 26 20 26 22 C17.78678038 21.80695424 17.78678038 21.80695424 14.5625 18.5 C14.046875 17.675 13.53125 16.85 13 16 C12.34 15.67 11.68 15.34 11 15 C10.773125 15.598125 10.54625 16.19625 10.3125 16.8125 C8.60689234 19.65517943 6.99031944 20.60915375 4 22 C1.1875 22.1875 1.1875 22.1875 -1 22 C0.4859916 17.40693504 2.85014682 14.56430755 6 11 C4.8642559 8.44457577 3.65127473 6.56922172 1.875 4.375 C0 2 0 2 0 0 Z " fill="#221E1E" transform="translate(57,76)"/>
<path d="M0 0 C6.6 0 13.2 0 20 0 C20 1.32 20 2.64 20 4 C15.38 4 10.76 4 6 4 C6 5.32 6 6.64 6 8 C9.96 8 13.92 8 18 8 C18 9.65 18 11.3 18 13 C14.04 13 10.08 13 6 13 C6 14.32 6 15.64 6 17 C10.62 17 15.24 17 20 17 C20 18.65 20 20.3 20 22 C16.87517438 22.08687496 13.75065754 22.14034568 10.625 22.1875 C9.73554687 22.21263672 8.84609375 22.23777344 7.9296875 22.26367188 C6.65351562 22.27817383 6.65351562 22.27817383 5.3515625 22.29296875 C4.17327881 22.31653442 4.17327881 22.31653442 2.97119141 22.34057617 C2.32069824 22.22818604 1.67020508 22.1157959 1 22 C-2.2083571 17.18746435 -2.29548694 12.71274747 -2 7 C-1.34 4.69 -0.68 2.38 0 0 Z " fill="#221E1E" transform="translate(33,76)"/>
<path d="M0 0 C6.6 0 13.2 0 20 0 C20 1.32 20 2.64 20 4 C15.38 4 10.76 4 6 4 C6 8.29 6 12.58 6 17 C10.62 17 15.24 17 20 17 C20 18.65 20 20.3 20 22 C16.87507749 22.05791844 13.75029234 22.09356746 10.625 22.125 C9.73554687 22.14175781 8.84609375 22.15851563 7.9296875 22.17578125 C7.07890625 22.18222656 6.228125 22.18867187 5.3515625 22.1953125 C4.17327881 22.21102295 4.17327881 22.21102295 2.97119141 22.22705078 C1 22 1 22 -1 20 C-3.10412136 13.05639951 -2.24985981 6.74957944 0 0 Z " fill="#221E1E" transform="translate(87,76)"/>
<path d="M0 0 C5.61 0 11.22 0 17 0 C17 0.99 17 1.98 17 3 C15.35 3 13.7 3 12 3 C12 3.66 12 4.32 12 5 C13.65 5 15.3 5 17 5 C17.02686553 6.97909398 17.04633375 8.95828971 17.0625 10.9375 C17.07410156 12.03964844 17.08570312 13.14179687 17.09765625 14.27734375 C17 17 17 17 16 18 C13.48863896 18.09975032 11.01096585 18.13882183 8.5 18.125 C7.79746094 18.12886719 7.09492187 18.13273437 6.37109375 18.13671875 C1.12661378 18.12661378 1.12661378 18.12661378 0 17 C-0.07244053 14.98035801 -0.08377188 12.95832876 -0.0625 10.9375 C-0.05347656 9.83277344 -0.04445312 8.72804688 -0.03515625 7.58984375 C-0.02355469 6.73519531 -0.01195312 5.88054687 0 5 C1.65 5 3.3 5 5 5 C5 4.34 5 3.68 5 3 C3.35 3 1.7 3 0 3 C0 2.01 0 1.02 0 0 Z M8 3 C9 5 9 5 9 5 Z M3 7 C3 8.32 3 9.64 3 11 C3.66 11 4.32 11 5 11 C5 9.68 5 8.36 5 7 C4.34 7 3.68 7 3 7 Z M8 7 C7.67 9.31 7.34 11.62 7 14 C5.68 14.33 4.36 14.66 3 15 C6.63 15 10.26 15 14 15 C12.68 14.34 11.36 13.68 10 13 C9.25 9.875 9.25 9.875 9 7 C8.67 7 8.34 7 8 7 Z M12 7 C12 8.32 12 9.64 12 11 C12.66 11 13.32 11 14 11 C14 9.68 14 8.36 14 7 C13.34 7 12.68 7 12 7 Z " fill="#221E1E" transform="translate(34,107)"/>
<path d="M0 0 C0.99 0 1.98 0 3 0 C3 0.99 3 1.98 3 3 C5.31 3 7.62 3 10 3 C10 3.99 10 4.98 10 6 C8.35 6 6.7 6 5 6 C5.3609375 6.53109375 5.721875 7.0621875 6.09375 7.609375 C6.5578125 8.31578125 7.021875 9.0221875 7.5 9.75 C7.9640625 10.44609375 8.428125 11.1421875 8.90625 11.859375 C10 14 10 14 10 18 C7.69 17.67 5.38 17.34 3 17 C3 17.66 3 18.32 3 19 C2.01 19 1.02 19 0 19 C0 18.34 0 17.68 0 17 C-2.31 17.33 -4.62 17.66 -7 18 C-6.42365861 13.24518354 -4.44931479 10.02951788 -2 6 C-3.65 6 -5.3 6 -7 6 C-7 5.01 -7 4.02 -7 3 C-4.69 3 -2.38 3 0 3 C0 2.01 0 1.02 0 0 Z M-1 11 C-1.33 11.99 -1.66 12.98 -2 14 C-1.34 14 -0.68 14 0 14 C-0.33 13.01 -0.66 12.02 -1 11 Z M3 11 C3 11.99 3 12.98 3 14 C3.66 13.67 4.32 13.34 5 13 C4.34 12.34 3.68 11.68 3 11 Z " fill="#221E1E" transform="translate(94,106)"/>
<path d="M0 0 C10.05859375 -0.09765625 10.05859375 -0.09765625 13 0 C14 1 14 1 14.09765625 4.81640625 C14.09098089 6.39846682 14.07901875 7.98051159 14.0625 9.5625 C14.05798828 10.36880859 14.05347656 11.17511719 14.04882812 12.00585938 C14.03700518 14.00393756 14.01906914 16.00197783 14 18 C9.38 18 4.76 18 0 18 C0 12.06 0 6.12 0 0 Z M3 3 C3 4.65 3 6.3 3 8 C5.64 8 8.28 8 11 8 C11 6.35 11 4.7 11 3 C8.36 3 5.72 3 3 3 Z M3 10 C3 11.65 3 13.3 3 15 C5.64 15 8.28 15 11 15 C11 13.35 11 11.7 11 10 C8.36 10 5.72 10 3 10 Z " fill="#221E1E" transform="translate(62,107)"/>
</svg>
