<?xml version="1.0" encoding="utf-8"?>
<!-- Generator: Adobe Illustrator 21.1.0, SVG Export Plug-In . SVG Version: 6.00 Build 0)  -->
<svg version="1.1" id="レイヤー_1" xmlns="http://www.w3.org/2000/svg" xmlns:xlink="http://www.w3.org/1999/xlink" x="0px"
	 y="0px" viewBox="0 0 128 46" style="enable-background:new 0 0 128 46;" xml:space="preserve">
<style type="text/css">
	.st0{clip-path:url(#SVGID_2_);}
	.st1{clip-path:url(#SVGID_4_);fill:#00add3;}
	.st2{clip-path:url(#SVGID_4_);fill:#355864;}
	.st3{clip-path:url(#SVGID_4_);fill:#FDEDE1;}
	.st4{clip-path:url(#SVGID_4_);fill:#231815;}
	.st5{clip-path:url(#SVGID_4_);fill:#00ADD2;}
	.st6{clip-path:url(#SVGID_4_);fill:#AF2024;}
	.st7{clip-path:url(#SVGID_6_);fill:#00add3;}
	.st8{clip-path:url(#SVGID_6_);}
	.st9{clip-path:url(#SVGID_8_);fill:#00add3;}
</style>
<g id="logo-text">
	<g>
		<defs>
			<rect id="SVGID_5_" y="0.4" width="128" height="45.2"/>
		</defs>
		<clipPath id="SVGID_2_">
			<use xlink:href="#SVGID_5_"  style="overflow:visible;"/>
		</clipPath>
		<polygon style="clip-path:url(#SVGID_2_);fill:#00add3;" points="97.6,26.5 93.3,26.5 87.3,26.5 87.3,29.6 93.3,29.6 93.3,45.1 
			97.6,45.1 97.6,29.6 103.7,29.6 103.7,26.5 		"/>
		<polygon style="clip-path:url(#SVGID_2_);fill:#00add3;" points="75.7,26.5 71.4,26.5 68.2,26.5 68.2,29.3 71.4,29.3 71.4,42.4 
			68.2,42.4 68.2,45.1 71.4,45.1 75.7,45.1 78.9,45.1 78.9,42.4 75.7,42.4 75.7,29.3 78.9,29.3 78.9,26.5 		"/>
		<polygon style="clip-path:url(#SVGID_2_);fill:#00add3;" points="34.2,26.5 29.9,26.5 26.7,26.5 26.7,29.3 29.9,29.3 29.9,42.4 
			26.7,42.4 26.7,45.1 29.9,45.1 34.2,45.1 37.4,45.1 37.4,42.4 34.2,42.4 34.2,29.3 37.4,29.3 37.4,26.5 		"/>
		<polygon style="clip-path:url(#SVGID_2_);fill:#00add3;" points="56.5,26.5 56.5,38.3 49,26.5 47.5,26.5 46.8,26.5 43.5,26.5 
			43.5,45.1 47.5,45.1 47.5,31.1 56.2,45.1 56.5,45.1 57.6,45.1 60.5,45.1 60.5,26.5 		"/>
		<polygon style="clip-path:url(#SVGID_2_);fill:#00add3;" points="15.9,27 15.8,27 14.9,27 10.3,37.1 5.8,27 5.5,27 4.9,27 4.7,27 
			4.5,27 0.5,27 0.5,45.6 4.9,45.6 4.9,32.1 8.7,41.1 8.9,41.1 10.1,41.1 10.3,41.1 11.7,41.1 15.8,31.5 15.8,45.6 20.1,45.6 
			20.1,27 		"/>
		<polygon style="clip-path:url(#SVGID_2_);fill:#00add3;" points="81.7,0.7 75.7,0.7 71.4,0.7 65.4,0.7 65.4,3.8 71.4,3.8 
			71.4,19.4 75.7,19.4 75.7,3.8 81.7,3.8 		"/>
		<polygon style="clip-path:url(#SVGID_2_);fill:#00add3;" points="37.4,3.5 37.4,0.7 34.2,0.7 29.9,0.7 26.7,0.7 26.7,3.5 
			29.9,3.5 29.9,16.6 26.7,16.6 26.7,19.4 29.9,19.4 34.2,19.4 37.4,19.4 37.4,16.6 34.2,16.6 34.2,3.5 		"/>
		<polygon style="clip-path:url(#SVGID_2_);fill:#00add3;" points="15.4,0.7 15.2,0.7 14.3,0.7 9.8,10.8 5.2,0.7 5,0.7 4.3,0.7 
			4.2,0.7 3.9,0.7 0,0.7 0,19.3 4.3,19.3 4.3,5.8 8.2,14.8 8.4,14.8 9.5,14.8 9.8,14.8 11.1,14.8 15.2,5.2 15.2,19.3 19.6,19.3 
			19.6,0.7 		"/>
		<g class="st0">
			<defs>
				<rect id="SVGID_7_" y="0.4" width="128" height="45.2"/>
			</defs>
			<clipPath id="SVGID_4_">
				<use xlink:href="#SVGID_7_"  style="overflow:visible;"/>
			</clipPath>
			<path class="st1" d="M121.7,11c3.8-1.8,3.9-4.1,4-5.4c0-1.3-0.3-2.9-2-4c-1.7-1.2-3.6-1.1-4-1.1c-0.4,0-2.5,0-2.5,0h-1h-1.6h-0.2
				h-4.2v18.6h4.3V12h2.8l5.3,7.1h5.2L121.7,11z M121.3,6.3c0,0.2,0,0.9-0.4,1.5c-0.4,0.5-0.7,0.8-0.7,0.8c-0.5,0.3-0.9,0.5-1.8,0.6
				c-0.9,0.1-3.1,0.1-3.1,0.1h-0.5V3.3c0.4,0,2.1,0,2.6,0c0.6,0,1.7,0,2.5,0.4c0.8,0.4,1.1,0.8,1.2,1.3
				C121.3,5.5,121.3,6.1,121.3,6.3"/>
			<polygon class="st1" points="93.2,16.3 93.2,10.9 101.5,10.9 101.5,7.8 93.2,7.8 93.2,3.8 102.1,3.8 102.1,0.7 93.2,0.7 
				93.2,0.7 88.9,0.7 88.9,19.4 92.7,19.4 92.7,19.4 102.2,19.4 102.2,16.3 			"/>
			<path class="st1" d="M59.2,5.5L59.2,5.5c-0.1,0-1.4-1-3.2-1.6c-1.8-0.6-3.3-0.6-3.9-0.5c-0.6,0-2.7,0.2-3.3,1.6
				c0,0-0.4,1.1,0.5,1.9c0,0,0.4,0.4,2.2,0.9c1.8,0.4,3.7,0.6,5.9,1.7c2.2,1.1,2.7,3,2.6,4.5c-0.1,1.5-0.5,2.8-2.3,4.1
				c-1.8,1.3-4.3,1.8-7.1,1.7c-2.9-0.1-5.2-0.9-6.4-1.4l0-4.1l0.1,0c0,0,1,0.8,1.9,1.2c0.9,0.4,1.8,0.8,3.1,1.1
				c1.3,0.3,2.2,0.3,2.7,0.2c0.5,0,1.5-0.1,2.1-0.4c0.6-0.3,1.2-0.6,1.4-1.3c0.2-0.7,0.1-1.5-0.8-2.1c0,0-0.5-0.4-2-0.7
				c-1.5-0.3-3.4-0.7-4.3-1c-0.9-0.4-2-0.7-3-1.8c-1-1.1-1.1-2.7-1.1-3.2c0-0.5,0-1.9,1.2-3.3c1.2-1.4,3.4-2.2,5.3-2.4
				c2-0.2,3.7,0,5.2,0.2c1.5,0.3,2.7,0.7,3.1,0.9L59.2,5.5z"/>
		</g>
	</g>
</g>
</svg>
