<?xml version="1.0" encoding="utf-8"?>
<!-- Generator: Adobe Illustrator 26.0.3, SVG Export Plug-In . SVG Version: 6.00 Build 0)  -->
<svg version="1.1" id="レイヤー_1" xmlns="http://www.w3.org/2000/svg" xmlns:xlink="http://www.w3.org/1999/xlink" x="0px"
	 y="0px" viewBox="0 0 141 42" style="enable-background:new 0 0 141 42;" xml:space="preserve">
<style type="text/css">
	.st0{fill:#231815;}
</style>
<g>
	<path d="M17.5,20.5c0.1-0.2,0.2-0.4,0.2-0.7c-2.7-0.6-6.5-0.6-6.5-0.6l5.7,5.9c-0.1-0.4-0.1-0.8-0.1-1.2
		C16.9,22.8,17.1,21.7,17.5,20.5z"/>
	<path d="M33.2,22.5L37.6,7c-5.2,1-19.5,7.9-19.5,17c0,4.8,5.3,8.9,8,10.9c-1.1-1.9-2.5-3.9-2.5-6C23.5,24.7,27.6,23,33.2,22.5z
		 M22.2,26.8c-1.6-3.7,1.5-10.1,9-11.7L30.5,20C30,20,23.2,21.6,22.2,26.8z"/>
	<g>
		<g>
			<g>
				<path d="M90.3,17.4h-5.5L80.4,35H85l0.5-2.5h4L90,35h4.7L90.3,17.4z M86.2,29l1.3-6.4l1.3,6.4H86.2z"/>
			</g>
			<g>
				<polygon points="73.2,35 73.2,21.5 69.9,21.5 69.9,17.4 81.7,17.4 81.7,21.5 78.4,21.5 78.4,35 				"/>
			</g>
			<g>
				<path d="M66.8,17.4h-5.5L56.9,35h4.7l0.5-2.5h4l0.5,2.5h4.7L66.8,17.4z M62.7,29l1.3-6.4l1.3,6.4H62.7z"/>
			</g>
			<g>
				<path d="M103.2,30.9c-1.2,0-2.2-0.7-3-1.5c-0.8-0.9-1.2-2-1.2-3.1c0-1.2,0.4-2.3,1.2-3.1c0.8-0.9,1.9-1.4,3-1.5
					c0.7,0,1.5,0.2,2.2,0.5v-4.1c-0.7-0.3-1.5-0.5-2.3-0.5c-2.2,0.1-4.3,1.1-5.8,2.8c-1.5,1.6-2.4,3.8-2.4,6c0,2.2,0.8,4.4,2.4,6
					c1.5,1.6,3.6,2.6,5.8,2.8c0.8,0,1.6-0.2,2.3-0.5v-4.1C104.7,30.7,103.9,30.9,103.2,30.9z"/>
			</g>
			<g>
				<polygon points="119.8,35 119.8,17.4 114.8,17.4 114.8,23.8 112.3,23.8 112.3,17.4 107.3,17.4 107.3,35 112.3,35 112.3,28.6 
					114.8,28.6 114.8,35 				"/>
			</g>
			<g>
				<rect x="121.8" y="17.4" width="4.8" height="17.6"/>
			</g>
			<polygon points="47.4,23.8 47.4,17.4 42.4,17.4 42.4,35 47.4,35 47.4,28.6 49.9,28.6 49.9,35 54.9,35 54.9,17.4 49.9,17.4 
				49.9,23.8 			"/>
		</g>
		<g>
			<g>
				<path class="st0" d="M130.1,34.1v-2.3h0.9c0.2,0,0.4,0,0.5,0.1c0.1,0,0.2,0.1,0.3,0.2c0.1,0.1,0.1,0.2,0.1,0.4
					c0,0.2,0,0.3-0.1,0.4c-0.1,0.1-0.2,0.2-0.4,0.2c0.1,0.1,0.2,0.1,0.2,0.2c0.1,0.1,0.1,0.2,0.3,0.4l0.3,0.5h-0.5l-0.3-0.5
					c-0.1-0.2-0.2-0.3-0.2-0.3c0,0-0.1-0.1-0.1-0.1c0,0-0.1,0-0.2,0h-0.1v1H130.1z M130.6,32.7h0.3c0.2,0,0.4,0,0.4,0
					c0.1,0,0.1-0.1,0.1-0.1c0,0,0-0.1,0-0.2c0-0.1,0-0.1-0.1-0.2c0,0-0.1-0.1-0.2-0.1c0,0-0.1,0-0.3,0h-0.3V32.7z"/>
			</g>
			<path class="st0" d="M131,34.9c-1.1,0-2-0.9-2-2c0-1.1,0.9-2,2-2c1.1,0,2,0.9,2,2C133,34,132.1,34.9,131,34.9z M131,31.2
				c-0.9,0-1.7,0.8-1.7,1.7c0,0.9,0.8,1.7,1.7,1.7c0.9,0,1.7-0.8,1.7-1.7C132.7,32,132,31.2,131,31.2z"/>
		</g>
	</g>
</g>
</svg>
