<?xml version="1.0" encoding="UTF-8"?>
<svg version="1.1" xmlns="http://www.w3.org/2000/svg" width="345" height="60">
<path d="M0 0 C1.27875 0.00257812 2.5575 0.00515625 3.875 0.0078125 C5.15375 0.00523438 6.4325 0.00265625 7.75 0 C10.875 0.1328125 10.875 0.1328125 11.875 1.1328125 C11.96169432 2.6215311 11.98203494 4.1142575 11.97265625 5.60546875 C11.97015869 6.41508057 11.96766113 7.22469238 11.96508789 8.05883789 C11.95598389 9.09387451 11.94687988 10.12891113 11.9375 11.1953125 C11.916875 14.4746875 11.89625 17.7540625 11.875 21.1328125 C20.455 21.1328125 29.035 21.1328125 37.875 21.1328125 C37.83541741 14.595784 37.83541741 14.595784 37.78491211 8.05883789 C37.78241455 7.24922607 37.77991699 6.43961426 37.77734375 5.60546875 C37.77210693 4.77281494 37.76687012 3.94016113 37.76147461 3.08227539 C37.875 1.1328125 37.875 1.1328125 38.875 0.1328125 C41.20660055 0.03371948 43.54129942 0.00310746 45.875 0.0078125 C47.15375 0.00523438 48.4325 0.00265625 49.75 0 C52.875 0.1328125 52.875 0.1328125 53.875 1.1328125 C53.96846915 2.79019693 53.99244977 4.45155894 53.98852539 6.11157227 C53.98844986 7.17259659 53.98837433 8.23362091 53.98829651 9.32679749 C53.98313522 10.4809465 53.97797394 11.63509552 53.97265625 12.82421875 C53.9712413 13.99919418 53.96982635 15.17416962 53.96836853 16.38475037 C53.96274992 20.15496314 53.95019426 23.92511754 53.9375 27.6953125 C53.9324874 30.24413977 53.92792408 32.79296797 53.92382812 35.34179688 C53.91277444 41.6054914 53.89549734 47.86914204 53.875 54.1328125 C48.595 54.1328125 43.315 54.1328125 37.875 54.1328125 C37.875 46.5428125 37.875 38.9528125 37.875 31.1328125 C29.295 31.1328125 20.715 31.1328125 11.875 31.1328125 C11.875 38.7228125 11.875 46.3128125 11.875 54.1328125 C6.595 54.1328125 1.315 54.1328125 -4.125 54.1328125 C-4.14964032 46.60311118 -4.16783141 39.07343311 -4.17993164 31.54370117 C-4.1849737 28.97989493 -4.19180714 26.41609159 -4.20043945 23.85229492 C-4.21251064 20.17626229 -4.21822942 16.50026752 -4.22265625 12.82421875 C-4.22781754 11.67006973 -4.23297882 10.51592072 -4.23829651 9.32679749 C-4.23837204 8.26577316 -4.23844757 7.20474884 -4.23852539 6.11157227 C-4.240746 5.17225357 -4.24296661 4.23293488 -4.24525452 3.26515198 C-4.05140133 -0.17223079 -3.52538283 0.14982877 0 0 Z " fill="#201D1E" transform="translate(5.125,1.8671875)"/>
<path d="M0 0 C4.62 0 9.24 0 14 0 C15 1 15 1 15.11352539 2.94946289 C15.10828857 3.7821167 15.10305176 4.61477051 15.09765625 5.47265625 C15.09515869 6.28226807 15.09266113 7.09187988 15.09008789 7.92602539 C15.07643188 9.47858032 15.07643188 9.47858032 15.0625 11.0625 C15.0315625 15.9815625 15.0315625 15.9815625 15 21 C23.91 21 32.82 21 42 21 C42 14.07 42 7.14 42 0 C52.83984375 -0.09765625 52.83984375 -0.09765625 56 0 C57 1 57 1 57.12025452 3.13233948 C57.11803391 4.07165817 57.11581329 5.01097687 57.11352539 5.97875977 C57.11344986 7.03978409 57.11337433 8.10080841 57.11329651 9.19398499 C57.10813522 10.348134 57.10297394 11.50228302 57.09765625 12.69140625 C57.0962413 13.86638168 57.09482635 15.04135712 57.09336853 16.25193787 C57.08774992 20.02215064 57.07519426 23.79230504 57.0625 27.5625 C57.0574874 30.11132727 57.05292408 32.66015547 57.04882812 35.20898438 C57.03777444 41.4726789 57.02049734 47.73632954 57 54 C52.05 54 47.1 54 42 54 C42 46.41 42 38.82 42 31 C33.09 31 24.18 31 15 31 C15 38.59 15 46.18 15 54 C10.05 54 5.1 54 0 54 C0 36.18 0 18.36 0 0 Z " fill="#211D1E" transform="translate(262,2)"/>
<path d="M0 0 C1.58206057 0.00667536 3.16410534 0.0186375 4.74609375 0.03515625 C5.55240234 0.03966797 6.35871094 0.04417969 7.18945312 0.04882812 C9.18753131 0.06065107 11.18557158 0.07858711 13.18359375 0.09765625 C18.48770765 10.43231944 23.42937146 20.90362281 28.23095703 31.48095703 C31.09600795 37.77720665 34.04858828 43.9919275 37.2578125 50.12109375 C38.18359375 52.09765625 38.18359375 52.09765625 38.18359375 54.09765625 C32.57359375 54.09765625 26.96359375 54.09765625 21.18359375 54.09765625 C17.18359375 45.34765625 17.18359375 45.34765625 17.18359375 43.09765625 C4.80859375 43.59265625 4.80859375 43.59265625 -7.81640625 44.09765625 C-9.46640625 47.39765625 -11.11640625 50.69765625 -12.81640625 54.09765625 C-18.09640625 54.09765625 -23.37640625 54.09765625 -28.81640625 54.09765625 C-26.67917907 47.18517229 -23.93534669 40.83868622 -20.75390625 34.34765625 C-19.77570077 32.32959229 -18.79784468 30.31135894 -17.8203125 28.29296875 C-17.32418457 27.27235352 -16.82805664 26.25173828 -16.31689453 25.20019531 C-14.83144536 22.12875241 -13.36506154 19.0490182 -11.90625 15.96484375 C-11.44935791 14.99901367 -10.99246582 14.03318359 -10.52172852 13.03808594 C-9.64740131 11.18770213 -8.77415878 9.33680534 -7.90209961 7.48535156 C-7.51030518 6.65874023 -7.11851074 5.83212891 -6.71484375 4.98046875 C-6.37114746 4.25230957 -6.02745117 3.52415039 -5.67333984 2.77392578 C-4.06158128 -0.37887601 -4.03884049 0.10334802 0 0 Z M4.18359375 12.09765625 C2.84150621 15.19811048 1.51145621 18.30358614 0.18359375 21.41015625 C-0.19796875 22.29123047 -0.57953125 23.17230469 -0.97265625 24.08007812 C-1.33359375 24.92763672 -1.69453125 25.77519531 -2.06640625 26.6484375 C-2.4015625 27.42872314 -2.73671875 28.20900879 -3.08203125 29.01293945 C-3.98253317 31.20087076 -3.98253317 31.20087076 -3.81640625 34.09765625 C1.79359375 34.09765625 7.40359375 34.09765625 13.18359375 34.09765625 C10.78668869 26.65463528 8.03096934 19.37928473 5.18359375 12.09765625 C4.85359375 12.09765625 4.52359375 12.09765625 4.18359375 12.09765625 Z " fill="#211D1E" transform="translate(160.81640625,1.90234375)"/>
<path d="M0 0 C3.54641966 3.83847775 4.44730205 7.71361534 5.390625 12.6875 C0.110625 12.6875 -5.169375 12.6875 -10.609375 12.6875 C-13.609375 6.6875 -13.609375 6.6875 -13.609375 4.6875 C-20.07451692 3.00777154 -25.39963749 2.01821836 -31.73046875 4.56640625 C-35.26749821 6.67685834 -36.99004844 9.69142724 -38.1875 13.55078125 C-39.57890475 20.59798864 -39.44480914 28.44206127 -35.609375 34.6875 C-31.83118546 38.56256619 -28.69020675 38.93025073 -23.484375 39 C-18.41115337 39.00303588 -18.41115337 39.00303588 -13.609375 37.6875 C-12.46643945 35.37434675 -12.46643945 35.37434675 -11.859375 32.625 C-11.446875 30.995625 -11.034375 29.36625 -10.609375 27.6875 C-5.329375 27.6875 -0.049375 27.6875 5.390625 27.6875 C4.32017444 35.18065394 3.31358701 39.85655177 -2.8046875 44.58984375 C-11.37190543 49.8006408 -22.36357829 50.8437936 -32.046875 48.9375 C-40.0135802 46.96990269 -47.13964834 44.19044228 -51.68261719 36.98535156 C-54.51662227 31.76875221 -55.20266642 27.57742086 -55.046875 21.6875 C-55.05396484 20.93210937 -55.06105469 20.17671875 -55.06835938 19.3984375 C-54.99607469 12.92617839 -53.78197094 7.34860864 -49.62890625 2.26171875 C-36.28519337 -9.14538448 -14.43377945 -11.77123761 0 0 Z " fill="#211D1E" transform="translate(250.609375,8.3125)"/>
<path d="M0 0 C1.11785889 -0.00315216 2.23571777 -0.00630432 3.38745117 -0.009552 C5.21240112 -0.00651566 5.21240112 -0.00651566 7.07421875 -0.00341797 C8.31341064 -0.00437469 9.55260254 -0.00533142 10.8293457 -0.00631714 C13.45560156 -0.00699921 16.08176508 -0.00564085 18.70800781 -0.00097656 C22.08100589 0.00472073 25.4539244 0.00144151 28.82691956 -0.00454903 C32.03435552 -0.00902317 35.24178175 -0.00589429 38.44921875 -0.00341797 C39.66585205 -0.0054422 40.88248535 -0.00746643 42.13598633 -0.009552 C43.81277466 -0.00482376 43.81277466 -0.00482376 45.5234375 0 C46.51303467 0.00079559 47.50263184 0.00159119 48.5222168 0.00241089 C50.76171875 0.12939453 50.76171875 0.12939453 51.76171875 1.12939453 C51.76171875 4.09939453 51.76171875 7.06939453 51.76171875 10.12939453 C44.83171875 10.12939453 37.90171875 10.12939453 30.76171875 10.12939453 C30.76171875 24.64939453 30.76171875 39.16939453 30.76171875 54.12939453 C25.48171875 54.12939453 20.20171875 54.12939453 14.76171875 54.12939453 C14.76171875 39.60939453 14.76171875 25.08939453 14.76171875 10.12939453 C7.83171875 10.12939453 0.90171875 10.12939453 -6.23828125 10.12939453 C-6.23828125 0.00501531 -6.23828125 0.00501531 0 0 Z " fill="#1F1C1D" transform="translate(93.23828125,1.87060546875)"/>
<path d="M0 0 C4.62 0 9.24 0 14 0 C15 1 15 1 15.12025452 3.13233948 C15.1169236 4.54131752 15.1169236 4.54131752 15.11352539 5.97875977 C15.11344986 7.03978409 15.11337433 8.10080841 15.11329651 9.19398499 C15.10813522 10.348134 15.10297394 11.50228302 15.09765625 12.69140625 C15.0962413 13.86638168 15.09482635 15.04135712 15.09336853 16.25193787 C15.08774992 20.02215064 15.07519426 23.79230504 15.0625 27.5625 C15.0574874 30.11132727 15.05292408 32.66015547 15.04882812 35.20898438 C15.03777444 41.4726789 15.02049734 47.73632954 15 54 C10.05 54 5.1 54 0 54 C0 36.18 0 18.36 0 0 Z " fill="#221E1F" transform="translate(329,2)"/>
<path d="M0 0 C4.62 0 9.24 0 14 0 C15 1 15 1 15.12025452 3.13233948 C15.1169236 4.54131752 15.1169236 4.54131752 15.11352539 5.97875977 C15.11344986 7.03978409 15.11337433 8.10080841 15.11329651 9.19398499 C15.10813522 10.348134 15.10297394 11.50228302 15.09765625 12.69140625 C15.0962413 13.86638168 15.09482635 15.04135712 15.09336853 16.25193787 C15.08774992 20.02215064 15.07519426 23.79230504 15.0625 27.5625 C15.0574874 30.11132727 15.05292408 32.66015547 15.04882812 35.20898438 C15.03777444 41.4726789 15.02049734 47.73632954 15 54 C10.05 54 5.1 54 0 54 C0 36.18 0 18.36 0 0 Z " fill="#201C1D" transform="translate(69,2)"/>
</svg>
