<?xml version="1.0" encoding="UTF-8"?>
<svg version="1.1" xmlns="http://www.w3.org/2000/svg" width="512" height="512">
<path d="M0 0 C5.53203239 5.19382953 9.98351642 10.92999075 14.25 17.1875 C14.80429687 17.98671875 15.35859375 18.7859375 15.9296875 19.609375 C29.10587038 39.95394752 32.8553744 66.74780144 28.11889648 90.30395508 C27.31968467 93.65527186 26.34144267 96.92075145 25.25 100.1875 C24.94449219 101.13858643 24.94449219 101.13858643 24.6328125 102.10888672 C17.03907581 125.13033075 -0.02519563 144.52342848 -21.5625 155.5 C-45.51509045 167.1186867 -71.31983949 169.22375433 -96.75 161.1875 C-122.72635649 151.96109448 -142.2502578 133.82475592 -154.1796875 109.078125 C-164.0090191 86.09075563 -164.47463539 59.56929738 -155.9609375 36.140625 C-145.68528092 11.08128186 -127.69114431 -7.81238756 -102.75 -18.8125 C-66.92527229 -32.83345479 -28.73445695 -24.86865623 0 0 Z " fill="#FCFDFD" transform="translate(320.75,73.8125)"/>
<path d="M0 0 C16.29647696 12.50311632 24.56855609 29.29148545 28.36328125 49.08203125 C31.80101787 75.65837976 28.58959547 102.79184172 12.05078125 124.58203125 C0.16176567 138.63268603 -17.78229728 146.55545858 -35.94921875 148.08203125 C-60.30991014 149.41144368 -83.79424137 147.26461156 -103.31640625 131.125 C-120.5438647 115.05994792 -125.72699596 93.95009555 -127.19921875 71.22265625 C-127.62259642 48.25441748 -122.5816861 26.47304989 -107.43359375 8.65625 C-81.7381595 -17.96842165 -30.27838525 -19.69097637 0 0 Z M-74.6328125 32.1953125 C-84.43719934 46.74296878 -85.19358684 66.97300212 -82.21875 83.79296875 C-80.65694861 91.13838142 -78.25876581 97.90280377 -73.94921875 104.08203125 C-73.20671875 105.15453125 -72.46421875 106.22703125 -71.69921875 107.33203125 C-65.54705303 113.48419697 -57.81860587 116.94364071 -49.1328125 117.1484375 C-39.93765048 116.76090194 -32.52065351 114.19122041 -26.13671875 107.39453125 C-15.4037166 93.90882972 -12.91273064 76.79379123 -14.19921875 60.01171875 C-15.69199727 47.02987699 -18.87149965 34.08465824 -29.12109375 25.19921875 C-44.22653736 14.41705728 -63.20389194 17.84949807 -74.6328125 32.1953125 Z " fill="#114595" transform="translate(133.94921875,291.91796875)"/>
<path d="M0 0 C5.53203239 5.19382953 9.98351642 10.92999075 14.25 17.1875 C14.80429687 17.98671875 15.35859375 18.7859375 15.9296875 19.609375 C29.10587038 39.95394752 32.8553744 66.74780144 28.11889648 90.30395508 C27.31968467 93.65527186 26.34144267 96.92075145 25.25 100.1875 C24.94449219 101.13858643 24.94449219 101.13858643 24.6328125 102.10888672 C17.03907581 125.13033075 -0.02519563 144.52342848 -21.5625 155.5 C-45.51509045 167.1186867 -71.31983949 169.22375433 -96.75 161.1875 C-122.72635649 151.96109448 -142.2502578 133.82475592 -154.1796875 109.078125 C-164.0090191 86.09075563 -164.47463539 59.56929738 -155.9609375 36.140625 C-145.68528092 11.08128186 -127.69114431 -7.81238756 -102.75 -18.8125 C-66.92527229 -32.83345479 -28.73445695 -24.86865623 0 0 Z M-124.1328125 23.8671875 C-128.54716304 29.38886665 -131.92442305 35.07899347 -134.8125 41.5 C-135.1118042 42.15750244 -135.4111084 42.81500488 -135.71948242 43.49243164 C-137.5672978 47.87221314 -138.13732149 51.45870928 -137.75 56.1875 C-136.04896652 60.01482533 -134.60364117 61.65549204 -130.75 63.1875 C-128.10364893 63.57700889 -128.10364893 63.57700889 -125.3125 63.5625 C-124.38566406 63.59085937 -123.45882812 63.61921875 -122.50390625 63.6484375 C-118.88081634 63.04201961 -117.31879708 61.7869301 -114.75 59.1875 C-113.41441959 56.58972754 -113.41441959 56.58972754 -112.5 53.6875 C-106.45289627 38.25890825 -96.46501351 30.72750601 -81.75 24.1875 C-81.42 34.4175 -81.09 44.6475 -80.75 55.1875 C-91.5 54.8125 -91.5 54.8125 -94.87011719 54.64697266 C-100.67585463 54.5033161 -100.67585463 54.5033161 -105.4375 57.53125 C-107.21843253 62.49241918 -107.18247091 66.84270157 -107 72.0625 C-106.9175 75.40375 -106.835 78.745 -106.75 82.1875 C-98.17 82.1875 -89.59 82.1875 -80.75 82.1875 C-80.75 93.4075 -80.75 104.6275 -80.75 116.1875 C-97.32249345 109.55850262 -105.29620219 102.28853832 -112.4375 86.2578125 C-113.46744109 83.84848601 -114.46100465 81.43106654 -115.4375 79 C-116.57371994 75.92988677 -116.57371994 75.92988677 -119.75 74.1875 C-122.77973454 73.79309412 -122.77973454 73.79309412 -126.125 73.8125 C-127.24648437 73.78414063 -128.36796875 73.75578125 -129.5234375 73.7265625 C-133.38496496 74.27820928 -134.99127551 75.48896586 -137.75 78.1875 C-140.20674685 83.10099369 -138.25893692 89.60778899 -136.66015625 94.5703125 C-128.73652468 114.19282392 -115.16036935 128.72594871 -95.99609375 137.83203125 C-76.24215628 146.08066699 -56.19719822 144.78635607 -36.60546875 136.8671875 C-20.98167772 130.23289754 -8.14255278 117.43827818 -0.75 102.1875 C0.02424337 99.86769155 0.64630981 97.56062696 1.25 95.1875 C2.3225 95.290625 3.395 95.39375 4.5 95.5 C8.27797651 95.57694778 8.27797651 95.57694778 10.375 93.1875 C10.99375 92.1975 11.6125 91.2075 12.25 90.1875 C12.93642578 89.21103516 12.93642578 89.21103516 13.63671875 88.21484375 C16.45151977 84.57362919 16.45151977 84.57362919 16.96704102 80.26025391 C16.17609961 77.97387579 15.28894526 76.80537035 13.6328125 75.05859375 C13.10816406 74.49849609 12.58351563 73.93839844 12.04296875 73.36132812 C11.49253906 72.78833984 10.94210937 72.21535156 10.375 71.625 C9.83230469 71.04814453 9.28960937 70.47128906 8.73046875 69.87695312 C6.27489668 67.27428688 3.78702878 64.71091912 1.25 62.1875 C1.58 61.548125 1.91 60.90875 2.25 60.25 C4.99050437 51.85720537 2.73808281 45.38328117 -0.92578125 37.67578125 C-10.88054548 18.64022567 -26.78917675 6.31534997 -46.89746094 -0.24169922 C-75.57629006 -9.07816502 -104.75166024 2.07133431 -124.1328125 23.8671875 Z " fill="#124595" transform="translate(320.75,73.8125)"/>
<path d="M0 0 C13.86 0 27.72 0 42 0 C42.01458252 2.93616211 42.02916504 5.87232422 42.04418945 8.89746094 C42.09467826 18.63249325 42.16129823 28.36736801 42.23571491 38.10224533 C42.28031412 44.0006039 42.31959313 49.89889506 42.34643555 55.79736328 C42.37257291 61.49686808 42.41304861 67.196112 42.46318626 72.89545441 C42.47978464 75.06255074 42.49134244 77.22969213 42.49761391 79.39684296 C42.11844222 100.88611755 42.11844222 100.88611755 51.3125 119.6875 C57.31610785 124.85339513 63.20147619 126.16907369 71 126 C77.42642418 124.98051061 81.8312116 123.17940378 86 118 C86.53625 117.4225 87.0725 116.845 87.625 116.25 C92.64131879 108.04147834 93.14573576 98.59166912 93.20532227 89.23095703 C93.21522186 88.26447739 93.22512146 87.29799774 93.23532104 86.30223083 C93.26680459 83.12078263 93.29164136 79.93931951 93.31640625 76.7578125 C93.33698713 74.54677959 93.3579839 72.33575052 93.37937927 70.12472534 C93.43448278 64.31497306 93.48394364 58.50518597 93.53222656 52.69537354 C93.5825273 46.76303013 93.63816857 40.83073707 93.69335938 34.8984375 C93.80079755 23.26566648 93.9017805 11.63285251 94 0 C107.86 0 121.72 0 136 0 C136.09071291 13.8051096 136.16395289 27.61001814 136.20724869 41.4153595 C136.22803846 47.82715006 136.25619767 54.23872444 136.30175781 60.65039062 C136.34552394 66.84905087 136.3692017 73.04750442 136.37950897 79.24630737 C136.38684544 81.59995777 136.40117024 83.95359809 136.42292023 86.30715942 C136.60306471 106.62629504 135.51034921 124.94341466 121.125 140.6875 C103.78667196 157.19906853 80.85243863 158.66307505 58.09667969 158.13623047 C40.5829446 157.36575868 24.28566385 150.34382223 12.140625 137.66796875 C-0.93353955 121.37297899 -0.43078682 102.01187138 -0.29296875 82.2265625 C-0.28736343 79.84760813 -0.28309777 77.46865026 -0.28010559 75.08969116 C-0.2687305 68.87221471 -0.23932739 62.65495335 -0.20599365 56.43756104 C-0.17513354 50.07559111 -0.16156638 43.71358594 -0.14648438 37.3515625 C-0.11444987 24.90093266 -0.06174282 12.45051799 0 0 Z " fill="#114595" transform="translate(185,282)"/>
<path d="M0 0 C27.06 0 54.12 0 82 0 C82.12032643 27.10018551 82.12032643 27.10018551 82.14648438 38.72460938 C82.164361 46.63116559 82.1854228 54.53761676 82.22631836 62.4440918 C82.25910977 68.82428572 82.27689453 75.20436685 82.28463173 81.5846386 C82.29013989 84.00887767 82.30089517 86.43311115 82.31719017 88.85730171 C82.45100595 109.60549475 82.38368877 130.20644385 67 146 C53.17788468 157.60559593 35.36326544 159.45013291 18 158 C11.87529033 157.07927737 6.00408599 155.54944155 0 154 C0 142.45 0 130.9 0 119 C2.97 119.66 5.94 120.32 9 121 C16.70164365 122.16267719 23.03045298 122.8015711 30 119 C36.11517794 113.56428628 38.2738857 103.89740791 39 96 C39.19586297 91.32540692 39.25618143 86.65072245 39.31640625 81.97265625 C39.33700907 80.61501989 39.35800634 79.25738947 39.37937927 77.89976501 C39.43425665 74.34724774 39.48381552 70.79467592 39.53222656 67.24206543 C39.58269427 63.60859398 39.63819899 59.97519961 39.69335938 56.34179688 C39.80099147 49.2279247 39.90028087 42.11400509 40 35 C26.8 35 13.6 35 0 35 C0 23.45 0 11.9 0 0 Z " fill="#114595" transform="translate(344,282)"/>
<path d="M0 0 C13.86 0 27.72 0 42 0 C42 51.15 42 102.3 42 155 C28.14 155 14.28 155 0 155 C0 103.85 0 52.7 0 0 Z " fill="#114595" transform="translate(460,282)"/>
<path d="M0 0 C11.22 0 22.44 0 34 0 C29.48404566 15.05318112 23.16377651 24.68780035 9.58984375 32.7734375 C7 34 7 34 0 36 C0 24.12 0 12.24 0 0 Z " fill="#194B98" transform="translate(267,155)"/>
<path d="M0 0 C12.65813039 4.2193768 22.44014509 11.4295225 29.84375 22.6640625 C31 25 31 25 33 32 C22.11 32 11.22 32 0 32 C0 21.44 0 10.88 0 0 Z " fill="#184A98" transform="translate(267,97)"/>
<path d="M0 0 C2.625 0.375 2.625 0.375 5 1 C5.625 3.3125 5.625 3.3125 6 6 C5.01 7.485 5.01 7.485 4 9 C-0.875 8.125 -0.875 8.125 -2 7 C-2.1875 4.5625 -2.1875 4.5625 -2 2 C-1.34 1.34 -0.68 0.68 0 0 Z " fill="#22529C" transform="translate(290,137)"/>
</svg>
