<?xml version="1.0" encoding="UTF-8"?>
<svg version="1.1" xmlns="http://www.w3.org/2000/svg" width="320" height="290">
<path d="M0 0 C4.55555556 0.55555556 4.55555556 0.55555556 6 2 C6.04080783 3.99958364 6.04254356 6.00045254 6 8 C7.918125 7.7525 7.918125 7.7525 9.875 7.5 C14.9284158 6.92958264 19.92062649 6.90456292 25 7 C24.6875 9.375 24.6875 9.375 24 12 C20.55549263 14.29633824 18.06187717 14.54016485 14 15 C13.690625 15.78375 13.38125 16.5675 13.0625 17.375 C12 20 12 20 11 22 C11.67546875 21.88140625 12.3509375 21.7628125 13.046875 21.640625 C20.36657303 20.58286517 20.36657303 20.58286517 23.5625 22.6875 C25.95678542 26.53917655 26.12248444 29.52426773 25.66015625 33.984375 C25.56669922 34.91894531 25.47324219 35.85351562 25.37695312 36.81640625 C25.27318359 37.78449219 25.16941406 38.75257813 25.0625 39.75 C24.96259766 40.73355469 24.86269531 41.71710938 24.75976562 42.73046875 C24.51267098 45.15434959 24.25920287 47.57738907 24 50 C22.0625 50.5625 22.0625 50.5625 20 51 C19 50 19 50 18.90234375 47.97460938 C18.91394531 47.10642578 18.92554688 46.23824219 18.9375 45.34375 C18.94523437 44.40402344 18.95296875 43.46429688 18.9609375 42.49609375 C18.98697917 40.49869792 19.01302083 38.50130208 19.0390625 36.50390625 C19.04679687 35.56417969 19.05453125 34.62445313 19.0625 33.65625 C19.07410156 32.78806641 19.08570313 31.91988281 19.09765625 31.02539062 C19.22762043 29.00354311 19.22762043 29.00354311 18 28 C16.48530552 27.76807135 14.96245438 27.58784762 13.4375 27.4375 C12.61121094 27.35371094 11.78492188 27.26992188 10.93359375 27.18359375 C9.97646484 27.09271484 9.97646484 27.09271484 9 27 C11.71077243 29.97126708 14.13151386 30.88243734 18 32 C17.67 33.65 17.34 35.3 17 37 C14.525 37.495 14.525 37.495 12 38 C11.90912109 39.28197266 11.90912109 39.28197266 11.81640625 40.58984375 C11.73261719 41.69457031 11.64882812 42.79929687 11.5625 43.9375 C11.48128906 45.03964844 11.40007812 46.14179688 11.31640625 47.27734375 C11 50 11 50 10 51 C7.30345146 51.07319621 4.63308542 51.09242537 1.9375 51.0625 C0.79958008 51.05573242 0.79958008 51.05573242 -0.36132812 51.04882812 C-2.24091871 51.0370068 -4.12046899 51.01907078 -6 51 C-7.90608098 47.78817851 -8.22266247 45.46117397 -8.125 41.75 C-8.10695312 40.85796875 -8.08890625 39.9659375 -8.0703125 39.046875 C-8.03550781 38.03367187 -8.03550781 38.03367187 -8 37 C2.36585366 33.68292683 2.36585366 33.68292683 7 36 C6.67 33.03 6.34 30.06 6 27 C3.03 27 0.06 27 -3 27 C-3.0928125 28.11375 -3.0928125 28.11375 -3.1875 29.25 C-4.26975856 32.91302898 -5.81356648 33.97226958 -9 36 C-10.65712109 36.3779399 -12.32375776 36.7187513 -14 37 C-13.98839844 37.75925781 -13.97679687 38.51851563 -13.96484375 39.30078125 C-13.95582031 40.29464844 -13.94679687 41.28851563 -13.9375 42.3125 C-13.92589844 43.29863281 -13.91429687 44.28476562 -13.90234375 45.30078125 C-14 48 -14 48 -15 51 C-18.875 50.125 -18.875 50.125 -20 49 C-20.25299591 45.04816132 -20.18522734 41.08397741 -20.1875 37.125 C-20.19974609 36.00996094 -20.21199219 34.89492188 -20.22460938 33.74609375 C-20.22654297 32.67746094 -20.22847656 31.60882813 -20.23046875 30.5078125 C-20.23457764 29.52441895 -20.23868652 28.54102539 -20.24291992 27.52783203 C-20 25 -20 25 -18 22 C-15.3984375 21.48828125 -15.3984375 21.48828125 -12.375 21.3125 C-10.87066406 21.21388672 -10.87066406 21.21388672 -9.3359375 21.11328125 C-8.56507813 21.07589844 -7.79421875 21.03851563 -7 21 C-7.33 19.35 -7.66 17.7 -8 16 C-8.95712891 16.12568359 -8.95712891 16.12568359 -9.93359375 16.25390625 C-10.75988281 16.35574219 -11.58617187 16.45757812 -12.4375 16.5625 C-13.26121094 16.66691406 -14.08492187 16.77132812 -14.93359375 16.87890625 C-15.61550781 16.91886719 -16.29742187 16.95882812 -17 17 C-17.33 16.67 -17.66 16.34 -18 16 C-18 13.69 -18 11.38 -18 9 C-9.585 8.505 -9.585 8.505 -1 8 C-1.33 6.02 -1.66 4.04 -2 2 C-1.34 1.34 -0.68 0.68 0 0 Z M-3 14 C-3 16.64 -3 19.28 -3 22 C1.04089755 22.41812014 1.04089755 22.41812014 5 22 C8.14016458 18.47586498 8.14016458 18.47586498 9 14 C5.04 14 1.08 14 -3 14 Z M-14 28 C-14 28.99 -14 29.98 -14 31 C-11.06556598 30.73343428 -11.06556598 30.73343428 -8 30 C-7.34 29.01 -6.68 28.02 -6 27 C-9.04386724 26.91773332 -11.07175348 27.02391783 -14 28 Z M-4 40 C-3.67 42.31 -3.34 44.62 -3 47 C-1.52093108 47.02689216 -0.04172517 47.04634621 1.4375 47.0625 C2.67306641 47.07990234 2.67306641 47.07990234 3.93359375 47.09765625 C5.99163938 47.23267348 5.99163938 47.23267348 7 46 C7 44.35 7 42.7 7 41 C3.37 40.67 -0.26 40.34 -4 40 Z " fill="#FFFFFF" transform="translate(239,230)"/>
<path d="M0 0 C2.31 0 4.62 0 7 0 C7.66 1.32 8.32 2.64 9 4 C9.61875 3.79375 10.2375 3.5875 10.875 3.375 C11.926875 3.189375 11.926875 3.189375 13 3 C13.66 3.66 14.32 4.32 15 5 C14.67028521 8.29714793 14.3773161 9.6226839 12 12 C8.46428571 11.46428571 8.46428571 11.46428571 7 10 C6.67 10.66 6.34 11.32 6 12 C6.763125 12.268125 7.52625 12.53625 8.3125 12.8125 C10.87380884 13.94424112 12.19692938 14.91223401 14 17 C19.13108315 12.98436971 21.52498742 10.85007551 22.625 4.25 C22.74875 3.1775 22.8725 2.105 23 1 C24.65614657 0.61781233 26.32457024 0.28604898 28 0 C29.88059033 1.88059033 29.12361218 4.49890038 29.1328125 6.9921875 C29 9 29 9 28 12 C29.11375 12.1546875 29.11375 12.1546875 30.25 12.3125 C33.1973519 13.04933797 34.78383074 13.94799142 37 16 C37 16.66 37 17.32 37 18 C37.99 18.33 38.98 18.66 40 19 C39.51098901 25.35714286 39.51098901 25.35714286 37.0625 28.4375 C35 30 35 30 33 30 C33.020625 29.195625 33.04125 28.39125 33.0625 27.5625 C33.29633621 25.06645115 33.29633621 25.06645115 32 24 C29.65012738 23.76472227 27.29443961 23.58613583 24.9375 23.4375 C23.64714844 23.35371094 22.35679687 23.26992188 21.02734375 23.18359375 C19.52880859 23.09271484 19.52880859 23.09271484 18 23 C18.33 24.65 18.66 26.3 19 28 C22.63 28 26.26 28 30 28 C29.505 30.475 29.505 30.475 29 33 C25.535 33.495 25.535 33.495 22 34 C27.43061745 37.74372266 32.65660349 40.19389405 39 42 C37.97449696 44.79682646 37.24795081 45.85015327 34.66015625 47.4140625 C32 48 32 48 29.68359375 47.0234375 C28.57177734 46.20746094 28.57177734 46.20746094 27.4375 45.375 C26.6640625 44.81296875 25.890625 44.2509375 25.09375 43.671875 C22.89403195 41.91538372 20.86687232 40.11037741 19 38 C18.67 41.63 18.34 45.26 18 49 C16.02 49.495 16.02 49.495 14 50 C13 49 13 49 12.90234375 46.49609375 C12.91394531 45.48675781 12.92554688 44.47742188 12.9375 43.4375 C12.94652344 42.42558594 12.95554688 41.41367187 12.96484375 40.37109375 C12.97644531 39.58863281 12.98804688 38.80617188 13 38 C12.60167969 38.48210937 12.20335937 38.96421875 11.79296875 39.4609375 C11.26316406 40.09257812 10.73335937 40.72421875 10.1875 41.375 C9.66542969 42.00148438 9.14335937 42.62796875 8.60546875 43.2734375 C5.96352311 46.11465398 4.39666921 46.97166648 0.5 47.25 C-3 47 -3 47 -6 45 C-6 44.01 -6 43.02 -6 42 C-5.27554688 41.75765625 -4.55109375 41.5153125 -3.8046875 41.265625 C1.66914611 39.36802935 6.37235947 37.50199824 11 34 C7.37 34 3.74 34 0 34 C0.495 31.03 0.495 31.03 1 28 C4.96 27.67 8.92 27.34 13 27 C12.67 26.01 12.34 25.02 12 24 C7.38 24 2.76 24 -2 24 C-2 25.65 -2 27.3 -2 29 C-3.65614657 29.38218767 -5.32457024 29.71395102 -7 30 C-8.73478558 28.26521442 -8.25366416 25.98462677 -8.3125 23.625 C-8.34988281 22.64789063 -8.38726562 21.67078125 -8.42578125 20.6640625 C-8 18 -8 18 -5.98046875 16.1484375 C-5.32691406 15.76945313 -4.67335937 15.39046875 -4 15 C-4.99 14.34 -5.98 13.68 -7 13 C-7.328125 11.125 -7.328125 11.125 -7.25 9 C-7.22679687 7.948125 -7.22679687 7.948125 -7.203125 6.875 C-7 5 -7 5 -6 3 C-4.125 3.1875 -4.125 3.1875 -2 4 C-0.75 6.5625 -0.75 6.5625 0 9 C0.93380961 4.46859347 0.93380961 4.46859347 0 0 Z M22.375 15.5 C21.92125 15.995 21.4675 16.49 21 17 C23.31 17 25.62 17 28 17 C27.34 16.01 26.68 15.02 26 14 C23.87635519 13.77390663 23.87635519 13.77390663 22.375 15.5 Z M3 15 C1.68 16.32 0.36 17.64 -1 19 C1.91652174 19.16681109 1.91652174 19.16681109 5 19 C5.66 18.34 6.32 17.68 7 17 C5.68 16.34 4.36 15.68 3 15 Z " fill="#FFFFFF" transform="translate(172,233)"/>
<path d="M0 0 C1.4540625 0.0309375 1.4540625 0.0309375 2.9375 0.0625 C4 1.9375 4 1.9375 4.9375 4.0625 C4.6075 4.7225 4.2775 5.3825 3.9375 6.0625 C9.8775 6.3925 15.8175 6.7225 21.9375 7.0625 C20.9375 12.0625 20.9375 12.0625 19.4375 13.9375 C14.53341588 16.14433785 8.96960487 14.38914583 3.9375 13.0625 C4.9275 14.5475 4.9275 14.5475 5.9375 16.0625 C5.6075 17.7125 5.2775 19.3625 4.9375 21.0625 C8.8975 21.0625 12.8575 21.0625 16.9375 21.0625 C15.9375 26.0625 15.9375 26.0625 14.9375 27.0625 C13.25141034 27.13455511 11.56249341 27.14636068 9.875 27.125 C8.95589844 27.11597656 8.03679687 27.10695313 7.08984375 27.09765625 C6.37957031 27.08605469 5.66929687 27.07445312 4.9375 27.0625 C4.6075 29.0425 4.2775 31.0225 3.9375 33.0625 C4.9275 32.5675 4.9275 32.5675 5.9375 32.0625 C7.99609375 31.82421875 7.99609375 31.82421875 10.375 31.75 C11.54869141 31.69392578 11.54869141 31.69392578 12.74609375 31.63671875 C14.9375 32.0625 14.9375 32.0625 16.76171875 33.69921875 C18.34021013 36.87193398 17.94954015 38.73049545 17.3125 42.1875 C17.13460937 43.24195313 16.95671875 44.29640625 16.7734375 45.3828125 C15.9375 48.0625 15.9375 48.0625 12.9375 50.0625 C10.68505859 50.30541992 10.68505859 50.30541992 8.0859375 50.29296875 C6.68601562 50.29006836 6.68601562 50.29006836 5.2578125 50.28710938 C4.28585937 50.27486328 3.31390625 50.26261719 2.3125 50.25 C0.84296875 50.2490332 0.84296875 50.2490332 -0.65625 50.24804688 C-7.92223976 50.20276024 -7.92223976 50.20276024 -9.0625 49.0625 C-9.32602359 46.55609781 -9.53071071 44.0757401 -9.6875 41.5625 C-9.76484375 40.50869141 -9.76484375 40.50869141 -9.84375 39.43359375 C-9.96088401 37.64557759 -10.01646301 35.85375732 -10.0625 34.0625 C-8.47977399 32.47977399 -6.68215997 32.71514253 -4.5 32.5 C-3.67371094 32.41621094 -2.84742188 32.33242188 -1.99609375 32.24609375 C-1.35800781 32.18550781 -0.71992188 32.12492187 -0.0625 32.0625 C-0.51474761 26.14757728 -1.2207605 20.71050112 -3.0625 15.0625 C-5.7025 15.3925 -8.3425 15.7225 -11.0625 16.0625 C-11.08828125 16.85011719 -11.1140625 17.63773438 -11.140625 18.44921875 C-11.68676333 28.93755705 -13.81556674 38.85688308 -19.0625 48.0625 C-21.625 49 -21.625 49 -24.0625 49.0625 C-24.7225 48.7325 -25.3825 48.4025 -26.0625 48.0625 C-24.8860972 44.74718301 -23.36619808 41.87584282 -21.5625 38.875 C-17.73141907 32.08302466 -16.56886151 24.79616965 -17.0625 17.0625 C-17.3925 16.7325 -17.7225 16.4025 -18.0625 16.0625 C-18.29779412 10.53308824 -18.29779412 10.53308824 -17.0625 8.0625 C-13.90234375 7.6484375 -13.90234375 7.6484375 -10 7.4375 C-8.70964844 7.36273438 -7.41929687 7.28796875 -6.08984375 7.2109375 C-5.09082031 7.16195312 -4.09179688 7.11296875 -3.0625 7.0625 C-3.248125 6.093125 -3.43375 5.12375 -3.625 4.125 C-3.769375 3.114375 -3.91375 2.10375 -4.0625 1.0625 C-3.0625 0.0625 -3.0625 0.0625 0 0 Z M-4.0625 39.0625 C-4.105221 40.72861905 -4.10313832 42.39632885 -4.0625 44.0625 C-2.85588423 45.49683481 -2.85588423 45.49683481 0.6875 45.1875 C3.88338316 45.15301205 6.82441725 44.84077069 9.9375 44.0625 C9.9375 42.4125 9.9375 40.7625 9.9375 39.0625 C7.58479407 37.88614703 6.116748 37.92890641 3.5 37.9375 C2.71753906 37.93492187 1.93507813 37.93234375 1.12890625 37.9296875 C-1.24145347 37.97867452 -1.24145347 37.97867452 -4.0625 39.0625 Z " fill="#FFFFFF" transform="translate(295.0625,229.9375)"/>
<path d="M0 0 C1.72974441 0.00015918 3.45949355 0.0058569 5.18920898 0.01586914 C6.09783188 0.01728409 7.00645477 0.01869904 7.94261169 0.02015686 C10.85687494 0.02577346 13.77106254 0.03832874 16.68530273 0.05102539 C18.65600475 0.05603825 20.62670797 0.06060153 22.59741211 0.06469727 C27.43923832 0.07574828 32.28100768 0.09302401 37.12280273 0.11352539 C36.81030273 1.98852539 36.81030273 1.98852539 36.12280273 4.11352539 C32.59601175 6.46471938 31.09400788 6.32795991 26.93530273 6.23852539 C25.3052832 6.21145508 25.3052832 6.21145508 23.64233398 6.18383789 C22.39516602 6.1490332 22.39516602 6.1490332 21.12280273 6.11352539 C20.46280273 8.09352539 19.80280273 10.07352539 19.12280273 12.11352539 C19.80342773 11.94852539 20.48405273 11.78352539 21.18530273 11.61352539 C24.55446792 11.04005046 27.71101733 10.98230287 31.12280273 11.11352539 C32.96294705 12.95366971 32.29636137 15.83340399 32.31030273 18.30102539 C32.32448242 19.42895508 32.33866211 20.55688477 32.35327148 21.71899414 C32.11878754 25.17266441 31.35867396 27.89439837 30.12280273 31.11352539 C26.82280273 31.44352539 23.52280273 31.77352539 20.12280273 32.11352539 C20.12280273 37.72352539 20.12280273 43.33352539 20.12280273 49.11352539 C18.80280273 49.11352539 17.48280273 49.11352539 16.12280273 49.11352539 C15.26981897 45.43965044 15.01490803 42.06878609 15.06030273 38.30102539 C15.06932617 37.32520508 15.07834961 36.34938477 15.08764648 35.34399414 C15.09924805 34.60793945 15.11084961 33.87188477 15.12280273 33.11352539 C12.15280273 32.12352539 9.18280273 31.13352539 6.12280273 30.11352539 C6.12280273 24.50352539 6.12280273 18.89352539 6.12280273 13.11352539 C8.76280273 12.45352539 11.40280273 11.79352539 14.12280273 11.11352539 C14.12280273 9.46352539 14.12280273 7.81352539 14.12280273 6.11352539 C10.49280273 6.11352539 6.86280273 6.11352539 3.12280273 6.11352539 C3.16920898 6.9037207 3.21561523 7.69391602 3.26342773 8.50805664 C3.50438026 16.03782311 2.84120887 22.87758346 1.31030273 30.23852539 C1.14498047 31.05554932 0.9796582 31.87257324 0.80932617 32.71435547 C-0.87395972 40.32480481 -0.87395972 40.32480481 -3.87719727 43.11352539 C-7.43969727 43.55102539 -7.43969727 43.55102539 -10.87719727 43.11352539 C-11.53719727 42.12352539 -12.19719727 41.13352539 -12.87719727 40.11352539 C-11.47920898 39.09452148 -11.47920898 39.09452148 -10.05297852 38.05493164 C-6.61027816 35.17471773 -5.41903381 32.35863092 -4.06469727 28.05102539 C-3.85949463 27.39996826 -3.65429199 26.74891113 -3.44287109 26.078125 C-1.68035061 20.16196729 -1.00358534 14.2835614 -0.87719727 8.11352539 C-1.51657227 8.29915039 -2.15594727 8.48477539 -2.81469727 8.67602539 C-3.49532227 8.82040039 -4.17594727 8.96477539 -4.87719727 9.11352539 C-5.20719727 8.78352539 -5.53719727 8.45352539 -5.87719727 8.11352539 C-5.02365103 0.14709387 -5.02365103 0.14709387 0 0 Z M12.12280273 17.11352539 C11.79280273 18.10352539 11.46280273 19.09352539 11.12280273 20.11352539 C15.41280273 20.11352539 19.70280273 20.11352539 24.12280273 20.11352539 C23.13280273 21.59852539 23.13280273 21.59852539 22.12280273 23.11352539 C19.52124023 23.62524414 19.52124023 23.62524414 16.49780273 23.80102539 C14.9934668 23.89963867 14.9934668 23.89963867 13.45874023 24.00024414 C12.30245117 24.05631836 12.30245117 24.05631836 11.12280273 24.11352539 C11.12280273 25.10352539 11.12280273 26.09352539 11.12280273 27.11352539 C13.60204074 27.14037634 16.08099113 27.16029087 18.56030273 27.17602539 C19.26735352 27.1844043 19.9744043 27.1927832 20.70288086 27.20141602 C22.50973833 27.21006127 24.31667876 27.16572551 26.12280273 27.11352539 C27.5042283 25.94974637 27.5042283 25.94974637 27.37280273 22.73852539 C27.41320892 19.2520168 27.41320892 19.2520168 25.93530273 17.17602539 C21.77372058 14.73647723 16.65524572 16.40255394 12.12280273 17.11352539 Z " fill="#FFFFFF" transform="translate(69.877197265625,233.886474609375)"/>
<path d="M0 0 C1.81245215 3.62490429 1.93859379 7.07667795 1 11 C-6.6741524 21.79295818 -19.99415948 23.1381069 -32.0625 25.1875 C-41.70607912 26.79257258 -51.38884852 28.18975521 -61.1875 28.0625 C-62.10917969 28.05347656 -63.03085938 28.04445312 -63.98046875 28.03515625 C-64.64691406 28.02355469 -65.31335938 28.01195312 -66 28 C-66.5625 26.0625 -66.5625 26.0625 -67 24 C-65.33823521 22.33823521 -63.24108437 22.63523167 -60.953125 22.421875 C-49.98064895 21.32579167 -39.12934193 20.12245381 -28.375 17.625 C-27.12638184 17.3480127 -27.12638184 17.3480127 -25.85253906 17.06542969 C-19.86922274 15.5921999 -13.15027694 13.41148921 -9.71630859 7.96337891 C-9.47992676 7.31546387 -9.24354492 6.66754883 -9 6 C-9.88112522 3.70120926 -9.88112522 3.70120926 -12.75 2.8125 C-29.40610293 -1.37686463 -47.80158156 8.22263174 -62 16 C-62.99 16.66 -63.98 17.32 -65 18 C-67.6875 17.625 -67.6875 17.625 -70 17 C-67.56956428 10.37153894 -59.18737114 6.9689599 -53.08203125 4.09814453 C-37.48926256 -2.73752917 -15.5258484 -11.29152611 0 0 Z " fill="#FFFFFF" transform="translate(242,62)"/>
<path d="M0 0 C1.10448486 -0.00515625 2.20896973 -0.0103125 3.34692383 -0.015625 C14.87568278 0.08193609 25.16057373 0.9289933 33.75 9.25 C35.19692151 12.23427561 35.27537842 14.02888486 34.75 17.3125 C32.29028699 21.6382022 30.01639088 23.57668206 25.3125 25.1875 C8.57480054 28.93441127 -8.78997795 25.93635148 -25.25 22.3125 C-26.58716163 22.03608096 -27.92439305 21.75999916 -29.26171875 21.484375 C-35.19846908 20.16353587 -35.19846908 20.16353587 -37.25 19.3125 C-37.58 18.3225 -37.91 17.3325 -38.25 16.3125 C-37.92 15.6525 -37.59 14.9925 -37.25 14.3125 C-31.50838723 14.825144 -25.90753168 15.71766346 -20.25 16.8125 C-5.94625276 19.53749061 9.8862039 22.03514802 23.75 16.3125 C23.5179353 13.85842131 23.5179353 13.85842131 22.75 11.3125 C13.49480208 6.7690392 3.48029845 5.99577714 -6.6875 6.125 C-7.64720703 6.12564453 -8.60691406 6.12628906 -9.59570312 6.12695312 C-15.3531227 6.16184658 -21.01798496 6.4898922 -26.74365234 7.09423828 C-30.58895911 7.42910135 -34.39243165 7.37573883 -38.25 7.3125 C-37.92 5.9925 -37.59 4.6725 -37.25 3.3125 C-24.83261254 1.28046561 -12.59389781 0.01400392 0 0 Z " fill="#FFFFFF" transform="translate(214.25,89.6875)"/>
<path d="M0 0 C1.29429932 0.17631958 1.29429932 0.17631958 2.61474609 0.35620117 C8.59285114 1.24943531 14.63825982 2.37774646 20.25 4.6875 C20.745 5.6775 20.745 5.6775 21.25 6.6875 C20.92 7.3475 20.59 8.0075 20.25 8.6875 C18.98027344 8.48253906 17.71054688 8.27757813 16.40234375 8.06640625 C-12.87671491 2.80561527 -12.87671491 2.80561527 -40.75 10.6875 C-41.08 11.6775 -41.41 12.6675 -41.75 13.6875 C-33.8061939 20.2127693 -21.44192139 18.2827296 -11.75 17.6875 C-3.64162791 16.78779937 4.4047043 15.4576658 12.43945312 14.0546875 C15.40645944 13.66705916 18.2611789 13.62564709 21.25 13.6875 C21.25 15.0075 21.25 16.3275 21.25 17.6875 C-30.13316997 30.75455973 -30.13316997 30.75455973 -46.8125 21.6875 C-49.75 19.6875 -49.75 19.6875 -50.75 17.6875 C-51.43767908 10.69609599 -51.43767908 10.69609599 -48.875 6.9375 C-34.6578883 -3.29882043 -16.50915198 -2.27667236 0 0 Z " fill="#FFFFFF" transform="translate(126.75,76.3125)"/>
<path d="M0 0 C0 1.32 0 2.64 0 4 C-1.45067871 4.41511841 -1.45067871 4.41511841 -2.93066406 4.83862305 C-6.57827126 5.88447911 -10.22307986 6.93982388 -13.8671875 7.99780273 C-15.43351685 8.45117163 -17.00055744 8.90209177 -18.56835938 9.3503418 C-36.83438327 14.42015718 -36.83438327 14.42015718 -53 24 C-52.67 24.99 -52.34 25.98 -52 27 C-44.34958411 30.82520794 -34.06015775 27.10521249 -26.4375 24.62890625 C-18.11202201 21.70874852 -9.98651292 17.75112155 -2.72265625 12.73828125 C0 11 0 11 2.875 11.25 C3.926875 11.62125 3.926875 11.62125 5 12 C0.79593277 21.28067671 -10.87725293 27.08903895 -20.02392578 30.82714844 C-30.6645217 34.78016925 -43.98326076 39.23466281 -55.125 34.6875 C-59.89257143 31.88914286 -59.89257143 31.88914286 -61 30 C-61.60742926 26.68674952 -61.87553759 25.12774283 -61 22 C-51.07274724 8.57063307 -27.83209877 5.29541511 -12.5625 1.625 C-11.87140137 1.45734131 -11.18030273 1.28968262 -10.46826172 1.11694336 C-6.91584074 0.29793504 -3.64638826 -0.1826707 0 0 Z " fill="#FFFFFF" transform="translate(149,98)"/>
<path d="M0 0 C3.25696479 0.41755959 4.63443291 0.63443291 7 3 C6.96619794 7.69848693 6.42579581 12.31624605 6 17 C13.26 17 20.52 17 28 17 C25.07692308 22.84615385 25.07692308 22.84615385 22 25 C18.59336321 25.34280622 15.43907513 25.18100395 12 25 C12.66 29.95 13.32 34.9 14 40 C20.98839772 41.22175358 20.98839772 41.22175358 26 38 C26.99 38 27.98 38 29 38 C31.08207071 42.40909091 31.08207071 42.40909091 30.6875 45.25 C30 47 30 47 29 48 C26.21562761 48.15386542 23.47316769 48.2316883 20.6875 48.25 C19.91470703 48.270625 19.14191406 48.29125 18.34570312 48.3125 C17.59611328 48.31765625 16.84652344 48.3228125 16.07421875 48.328125 C15.38932373 48.3374707 14.70442871 48.34681641 13.9987793 48.35644531 C11.27077966 47.86995704 9.9534807 46.9550852 8 45 C7.45410156 42.73168945 7.45410156 42.73168945 7.390625 40.11328125 C7.35839844 39.17548828 7.32617188 38.23769531 7.29296875 37.27148438 C7.27878906 36.29501953 7.26460937 35.31855469 7.25 34.3125 C7.22035156 33.32443359 7.19070312 32.33636719 7.16015625 31.31835938 C7.08944508 28.87882404 7.03675735 26.44024475 7 24 C5.02 24 3.04 24 1 24 C0.96261719 24.70125 0.92523438 25.4025 0.88671875 26.125 C-0.04011382 39.50046606 -0.04011382 39.50046606 -4.4140625 44.671875 C-6.77953395 46.65281168 -8.97917334 46.74826445 -12 47 C-12.99 46.67 -13.98 46.34 -15 46 C-15 45.01 -15 44.02 -15 43 C-14.0925 42.401875 -13.185 41.80375 -12.25 41.1875 C-8.58421237 38.72014294 -7.00136405 36.9286035 -5 33 C-4.41642762 30.00367458 -4.13544478 27.04750745 -4 24 C-4.90492187 24.34224609 -4.90492187 24.34224609 -5.828125 24.69140625 C-6.62734375 24.97886719 -7.4265625 25.26632812 -8.25 25.5625 C-9.03890625 25.85253906 -9.8278125 26.14257812 -10.640625 26.44140625 C-13.19103452 27.04522837 -14.55322229 26.8473932 -17 26 C-17.25 20.375 -17.25 20.375 -15 17 C-14.26394531 17.0721875 -13.52789062 17.144375 -12.76953125 17.21875 C-11.30580078 17.35796875 -11.30580078 17.35796875 -9.8125 17.5 C-8.36810547 17.63921875 -8.36810547 17.63921875 -6.89453125 17.78125 C-4.24812333 17.98124844 -1.65239135 18.03879183 1 18 C0.84402344 16.78441406 0.68804687 15.56882813 0.52734375 14.31640625 C0.33044084 12.73180663 0.13384191 11.14716922 -0.0625 9.5625 C-0.16626953 8.76005859 -0.27003906 7.95761719 -0.37695312 7.13085938 C-0.62644343 5.09192132 -0.81780318 3.04604939 -1 1 C-0.67 0.67 -0.34 0.34 0 0 Z " fill="#FFFFFF" transform="translate(130,233)"/>
<path d="M0 0 C0.33 0.33 0.66 0.66 1 1 C0.97655433 2.8756537 0.94666573 4.75144209 0.88476562 6.6262207 C0.6076565 15.72869368 1.72367939 23.66411925 4.125 32.42578125 C4.87340346 35.48287576 5.19285653 37.88416162 5 41 C2.36 41.33 -0.28 41.66 -3 42 C-3.17539307 41.3201001 -3.35078613 40.6402002 -3.53149414 39.93969727 C-4.35302002 36.80767974 -5.20745119 33.68552475 -6.0625 30.5625 C-6.33771484 29.49322266 -6.61292969 28.42394531 -6.89648438 27.32226562 C-8.74244636 20.68897365 -10.97581796 16.00490305 -15.5949707 10.86279297 C-17 9 -17 9 -17.125 5.5625 C-16 3 -16 3 -13 1 C-8.64175218 0.00948913 -4.46096366 -0.17493975 0 0 Z " fill="#FFFFFF" transform="translate(164,65)"/>
<path d="M0 0 C0.31453125 0.78503906 0.6290625 1.57007812 0.953125 2.37890625 C3.79399634 9.41519326 3.79399634 9.41519326 7.3125 16.125 C9 19 9 19 9 21 C7.02 21.33 5.04 21.66 3 22 C0.69880494 18.44360764 -0.77472971 15.05281712 -2 11 C-3.32 11.99 -4.64 12.98 -6 14 C-4.02 15.32 -2.04 16.64 0 18 C-0.33 18.99 -0.66 19.98 -1 21 C-3.3125 21.625 -3.3125 21.625 -6 22 C-6.99 21.34 -7.98 20.68 -9 20 C-10.98 22.97 -10.98 22.97 -13 26 C-14.65 25.67 -16.3 25.34 -18 25 C-17.42647107 21.12867972 -15.51295648 18.91827204 -13 16 C-14.98 15.34 -16.96 14.68 -19 14 C-18.67 12.68 -18.34 11.36 -18 10 C-14.95613276 9.91773332 -12.92824652 10.02391783 -10 11 C-9.67 10.01 -9.34 9.02 -9 8 C-9.61488281 8.03480469 -10.22976562 8.06960937 -10.86328125 8.10546875 C-12.07564453 8.14607422 -12.07564453 8.14607422 -13.3125 8.1875 C-14.51326172 8.23970703 -14.51326172 8.23970703 -15.73828125 8.29296875 C-18 8 -18 8 -19.79296875 6.61328125 C-21 5 -21 5 -21 3 C-20.18015625 2.95101563 -19.3603125 2.90203125 -18.515625 2.8515625 C-17.43796875 2.77679687 -16.3603125 2.70203125 -15.25 2.625 C-14.18265625 2.55539063 -13.1153125 2.48578125 -12.015625 2.4140625 C-9.07012433 2.17420486 -9.07012433 2.17420486 -6.921875 0.9609375 C-4.51134927 -0.24432536 -2.65865534 -0.14770307 0 0 Z M-8 7 C-5.525 7.495 -5.525 7.495 -3 8 C-3.33 7.01 -3.66 6.02 -4 5 C-5.46225016 4.90754997 -5.46225016 4.90754997 -8 7 Z " fill="#FFFFFF" transform="translate(224,28)"/>
<path d="M0 0 C2.29160319 -0.02692484 4.58329546 -0.04636124 6.875 -0.0625 C8.15117187 -0.07410156 9.42734375 -0.08570313 10.7421875 -0.09765625 C14 0 14 0 16 1 C16.22547184 5.43680453 16.42745053 9.87437147 16.625 14.3125 C16.68945312 15.57513672 16.75390625 16.83777344 16.8203125 18.13867188 C16.89765625 19.95141602 16.89765625 19.95141602 16.9765625 21.80078125 C17.02893066 22.91622314 17.08129883 24.03166504 17.13525391 25.1809082 C17 28 17 28 15 31 C14.01 30.67 13.02 30.34 12 30 C11.67 27.03 11.34 24.06 11 21 C8.69 20.67 6.38 20.34 4 20 C3.9175 20.928125 3.835 21.85625 3.75 22.8125 C3 26 3 26 1.1875 27.875 C-1 29 -1 29 -5 29 C-4.56692482 26.05508877 -4.00210768 24.00364453 -2.5 21.40625 C-0.58828863 17.06507209 -0.44341309 13.31542914 -0.3125 8.625 C-0.27833984 7.79355469 -0.24417969 6.96210938 -0.20898438 6.10546875 C-0.12712854 4.07076649 -0.06187299 2.03540792 0 0 Z M4 4 C4 4.99 4 5.98 4 7 C6.31 7.33 8.62 7.66 11 8 C11 6.35 11 4.7 11 3 C8.57202689 3 6.37092995 3.50085685 4 4 Z M4 12 C4.33 13.32 4.66 14.64 5 16 C6.98 16 8.96 16 11 16 C11.33 14.68 11.66 13.36 12 12 C9.36 12 6.72 12 4 12 Z " fill="#FFFFFF" transform="translate(13,251)"/>
<path d="M0 0 C2.375 0.25 2.375 0.25 5 1 C6.3125 3.0625 6.3125 3.0625 7 5 C7.66 4.01 8.32 3.02 9 2 C10.32 2.33 11.64 2.66 13 3 C13.12375 3.639375 13.2475 4.27875 13.375 4.9375 C13.58125 5.618125 13.7875 6.29875 14 7 C14.66 7.33 15.32 7.66 16 8 C16 8.99 16 9.98 16 11 C10.375 12.125 10.375 12.125 7 11 C7 11.99 7 12.98 7 14 C8.65 14 10.3 14 12 14 C12 14.99 12 15.98 12 17 C11.030625 17.28875 10.06125 17.5775 9.0625 17.875 C5.89335797 18.64214682 5.89335797 18.64214682 5 21 C7.97 21.33 10.94 21.66 14 22 C13 26 13 26 12 27 C8.27775401 27.29386153 7.22213757 27.14809171 4 25 C3.01 27.475 3.01 27.475 2 30 C1.01 29.67 0.02 29.34 -1 29 C-0.67 27.02 -0.34 25.04 0 23 C-1.11375 23.350625 -2.2275 23.70125 -3.375 24.0625 C-7 25 -7 25 -9 24 C-8.625 21.5625 -8.625 21.5625 -8 19 C-4.93109813 17.46554906 -2.29905734 18.45015711 1 19 C1.33 18.01 1.66 17.02 2 16 C-0.31 16 -2.62 16 -5 16 C-4.6875 14.0625 -4.6875 14.0625 -4 12 C-1 11 -1 11 1.1875 11.9375 C1.785625 12.288125 2.38375 12.63875 3 13 C3 12.01 3 11.02 3 10 C0.03 9.505 0.03 9.505 -3 9 C-2.67 7.35 -2.34 5.7 -2 4 C-1.34 4 -0.68 4 0 4 C0 2.68 0 1.36 0 0 Z " fill="#FFFFFF" transform="translate(187,13)"/>
<path d="M0 0 C2.97 0.495 2.97 0.495 6 1 C7.125 5.75 7.125 5.75 6 8 C12.435 7.505 12.435 7.505 19 7 C17.67326733 12.30693069 17.67326733 12.30693069 15 14 C13.39143211 13.77265574 11.78353458 13.53915366 10.18017578 13.27758789 C5.80699887 12.72077914 1.40206717 12.81545838 -3 12.8125 C-4.43859375 12.79413086 -4.43859375 12.79413086 -5.90625 12.77539062 C-11.37484127 12.76412292 -15.8172462 13.27692018 -21 15 C-23.9375 15.125 -23.9375 15.125 -26 15 C-25.67 12.69 -25.34 10.38 -25 8 C-22.36 7.67 -19.72 7.34 -17 7 C-17.33 5.35 -17.66 3.7 -18 2 C-14 2 -14 2 -12.25 3.375 C-11 5 -11 5 -11 7 C-7.37 7 -3.74 7 0 7 C0 4.69 0 2.38 0 0 Z " fill="#FFFFFF" transform="translate(37,232)"/>
<path d="M0 0 C4.49222798 0.35233161 4.49222798 0.35233161 7 2 C9.15765701 5.83464785 10.61664345 9.8308056 12 14 C12.66 11.69 13.32 9.38 14 7 C13.34 7 12.68 7 12 7 C12 6.34 12 5.68 12 5 C15.12290635 5.48578543 17.99580359 5.9986012 21 7 C21 7.66 21 8.32 21 9 C20.01 9.33 19.02 9.66 18 10 C16.80135872 12.52268786 15.77593379 14.9529028 14.8125 17.5625 C14.40354492 18.62887695 14.40354492 18.62887695 13.98632812 19.71679688 C13.31409927 21.4740267 12.65572508 23.23654518 12 25 C9.64453125 24.4140625 9.64453125 24.4140625 7 23 C5.63671875 19.9609375 5.63671875 19.9609375 4.6875 16.375 C4.36136719 15.18648437 4.03523437 13.99796875 3.69921875 12.7734375 C3.46847656 11.85820312 3.23773438 10.94296875 3 10 C1.13395656 14.18079199 0.95424932 16.50327206 2 21 C-1.34373475 20.44271087 -4.03312999 19.64826111 -7 18 C-6.67 17.34 -6.34 16.68 -6 16 C-5.01 16 -4.02 16 -3 16 C-0.87860645 10.60662658 0.45058583 6.80234333 -1 1 C-0.67 0.67 -0.34 0.34 0 0 Z " fill="#FFFFFF" transform="translate(129,156)"/>
<path d="M0 0 C1.98 0 3.96 0 6 0 C6 2.31 6 4.62 6 7 C9.96 6.01 13.92 5.02 18 4 C17.34 6.31 16.68 8.62 16 11 C13.36 11 10.72 11 8 11 C8.66 16.28 9.32 21.56 10 27 C8.68 27.33 7.36 27.66 6 28 C4.11525997 26.11525997 4.30668 22.97253598 3.9375 20.4375 C3.76089844 19.23996094 3.58429688 18.04242187 3.40234375 16.80859375 C3.26957031 15.88175781 3.13679687 14.95492188 3 14 C0.07012142 13.75958369 0.07012142 13.75958369 -1.9375 15.0625 C-4.42696982 16.19407719 -5.4782018 15.90064221 -8 15 C-7.67 13.35 -7.34 11.7 -7 10 C-4.36 9.34 -1.72 8.68 1 8 C0.649375 7.4225 0.29875 6.845 -0.0625 6.25 C-1.14917407 3.64198224 -0.93065133 2.60582371 0 0 Z " fill="#FFFFFF" transform="translate(145,12)"/>
<path d="M0 0 C2.33944736 0.28730055 4.6739143 0.61936779 7 1 C7.33 2.32 7.66 3.64 8 5 C12.29 4.34 16.58 3.68 21 3 C23 6 23 6 22.625 8.1875 C22.315625 9.0846875 22.315625 9.0846875 22 10 C19.69 10 17.38 10 15 10 C17.64 12.64 20.28 15.28 23 18 C22.34 19.32 21.68 20.64 21 22 C17.62982467 21.69739623 16.22150564 21.20823047 13.71875 18.85546875 C12.9865625 17.97503906 12.254375 17.09460938 11.5 16.1875 C6.18068209 9.83114388 6.18068209 9.83114388 -1 6 C-1.042721 4.33388095 -1.04063832 2.66617115 -1 1 C-0.67 0.67 -0.34 0.34 0 0 Z " fill="#FFFFFF" transform="translate(93,40)"/>
<path d="M0 0 C0 1.98 0 3.96 0 6 C-2.31 5.34 -4.62 4.68 -7 4 C-7 5.98 -7 7.96 -7 10 C-6.01 9.67 -5.02 9.34 -4 9 C-3.67 8.34 -3.34 7.68 -3 7 C-2.01 7 -1.02 7 0 7 C0.28875 7.969375 0.5775 8.93875 0.875 9.9375 C1.64214682 13.10664203 1.64214682 13.10664203 4 14 C4 15.65 4 17.3 4 19 C0.2477416 20.65684137 -3.26353061 21.50208163 -7.3125 22.125 C-8.38113281 22.29257813 -9.44976562 22.46015625 -10.55078125 22.6328125 C-11.35902344 22.75398438 -12.16726562 22.87515625 -13 23 C-13 22.01 -13 21.02 -13 20 C-12.34 20 -11.68 20 -11 20 C-11.66 15.05 -12.32 10.1 -13 5 C-13.99 5 -14.98 5 -16 5 C-16 4.34 -16 3.68 -16 3 C-13.70887834 2.49750857 -11.41708499 1.99807883 -9.125 1.5 C-7.84882813 1.2215625 -6.57265625 0.943125 -5.2578125 0.65625 C-2 0 -2 0 0 0 Z M-6 13 C-5.67 14.65 -5.34 16.3 -5 18 C-3.35 18 -1.7 18 0 18 C0.33 16.68 0.66 15.36 1 14 C0.01 14 -0.98 14 -2 14 C-2 13.34 -2 12.68 -2 12 C-4.0745356 11.8509288 -4.0745356 11.8509288 -6 13 Z " fill="#FFFFFF" transform="translate(184,161)"/>
<path d="M0 0 C0.66 1.32 1.32 2.64 2 4 C3.98 3.67 5.96 3.34 8 3 C9.5625 4.625 9.5625 4.625 11 7 C10.92451321 10.62336599 10.36654437 12.48945606 8.25 15.4375 C6 17 6 17 3.25 16.75 C2.5075 16.5025 1.765 16.255 1 16 C0.67 14.68 0.34 13.36 0 12 C-0.94875 12.04125 -1.8975 12.0825 -2.875 12.125 C-6 12 -6 12 -8 10 C-8.55416667 3.90416667 -8.55416667 3.90416667 -6.8125 1.0625 C-4.43958382 -0.32851983 -2.70313576 -0.21917317 0 0 Z M-4 3 C-4.99 4.485 -4.99 4.485 -6 6 C-4.10820797 6.6814823 -4.10820797 6.6814823 -2 7 C-1.34 6.34 -0.68 5.68 0 5 C-1.32 4.34 -2.64 3.68 -4 3 Z M4 9 C3.34 9.66 2.68 10.32 2 11 C3.88316159 12.10836423 3.88316159 12.10836423 6 13 C6.66 12.67 7.32 12.34 8 12 C8 11.01 8 10.02 8 9 C6.68 9 5.36 9 4 9 Z " fill="#FFFFFF" transform="translate(233,124)"/>
<path d="M0 0 C3.51240334 2.49770904 5.2400996 4.67512037 6 8.875 C6.30179046 13.29287705 5.18341755 16.17901929 3 20 C2.01 20.33 1.02 20.66 0 21 C0 18.69 0 16.38 0 14 C-0.721875 14.2475 -1.44375 14.495 -2.1875 14.75 C-5 15 -5 15 -7.8125 13.5 C-10 11 -10 11 -10.5625 7.5 C-10 4 -10 4 -8.375 1.5625 C-5.24316508 -0.49791771 -3.68455227 -0.6767545 0 0 Z M-7 4 C-6.21869929 6.49552484 -6.21869929 6.49552484 -5 9 C-4.01 9.33 -3.02 9.66 -2 10 C-1.34 9.34 -0.68 8.68 0 8 C-1.22590192 5.92022703 -1.22590192 5.92022703 -3 4 C-4.32 4 -5.64 4 -7 4 Z " fill="#FFFFFF" transform="translate(215,147)"/>
<path d="M0 0 C1.35158203 0.15275391 1.35158203 0.15275391 2.73046875 0.30859375 C3.41753906 0.39238281 4.10460937 0.47617188 4.8125 0.5625 C4.8125 2.5425 4.8125 4.5225 4.8125 6.5625 C3.8225 6.5625 2.8325 6.5625 1.8125 6.5625 C1.4825 5.5725 1.1525 4.5825 0.8125 3.5625 C-1.1675 3.5625 -3.1475 3.5625 -5.1875 3.5625 C-6.97137064 8.429499 -6.97137064 8.429499 -6.375 13.4375 C-5.35940356 15.4813706 -5.35940356 15.4813706 -4.1875 16.5625 C-0.56690768 16.85606154 1.68953962 16.41314319 4.8125 14.5625 C2.9375 19.4375 2.9375 19.4375 1.8125 20.5625 C-3.57033923 20.92135595 -6.75744601 20.95018835 -11.1875 17.5625 C-14.0168078 14.7331922 -13.92095379 12.49405659 -14.1875 8.5625 C-13.1820632 4.54075281 -11.71666071 2.70138528 -8.1875 0.5625 C-4.98734144 -0.50421952 -3.30205706 -0.38595472 0 0 Z " fill="#FFFFFF" transform="translate(162.1875,163.4375)"/>
<path d="M0 0 C1.65 0 3.3 0 5 0 C5.05821935 3.89577024 5.0936703 7.79142802 5.125 11.6875 C5.14175781 12.79029297 5.15851562 13.89308594 5.17578125 15.02929688 C5.18222656 16.09599609 5.18867187 17.16269531 5.1953125 18.26171875 C5.20578613 19.24100342 5.21625977 20.22028809 5.22705078 21.22924805 C4.98079426 24.23437203 4.38634023 26.32667297 3 29 C0 31 0 31 -2.5 30.875 C-5.48191427 29.83133 -6.3747545 28.65171634 -8 26 C-7.030625 25.731875 -6.06125 25.46375 -5.0625 25.1875 C-4.051875 24.795625 -3.04125 24.40375 -2 24 C-1.05912452 21.17737357 -0.89348128 19.53336005 -0.9375 16.62109375 C-0.94523437 15.78255859 -0.95296875 14.94402344 -0.9609375 14.08007812 C-0.97382812 13.20802734 -0.98671875 12.33597656 -1 11.4375 C-1.02546588 9.70709322 -1.04651367 7.97661406 -1.0625 6.24609375 C-1.07410156 5.47966553 -1.08570313 4.7132373 -1.09765625 3.92358398 C-1 2 -1 2 0 0 Z " fill="#FFFFFF" transform="translate(45,251)"/>
<path d="M0 0 C3.79872664 0.65495287 4.26085551 0.8577807 6.5625 3.625 C7.5834375 5.11 7.5834375 5.11 8.625 6.625 C7.305 7.945 5.985 9.265 4.625 10.625 C3.965 9.965 3.305 9.305 2.625 8.625 C3 6 3 6 3.625 3.625 C2.635 3.955 1.645 4.285 0.625 4.625 C0.64820312 5.46804687 0.67140625 6.31109375 0.6953125 7.1796875 C0.72238281 8.82324219 0.72238281 8.82324219 0.75 10.5 C0.77320312 11.59054688 0.79640625 12.68109375 0.8203125 13.8046875 C0.625 16.625 0.625 16.625 -1.375 18.625 C-5.81607603 19.21155721 -7.71064344 19.10942666 -11.375 16.4375 C-13.375 13.625 -13.375 13.625 -13.375 10.9375 C-12.375 8.625 -12.375 8.625 -9.375 6.625 C-8.39891783 9.55324652 -8.29273332 11.58113276 -8.375 14.625 C-7.385 14.955 -6.395 15.285 -5.375 15.625 C-5.48199219 14.87734375 -5.58898437 14.1296875 -5.69921875 13.359375 C-5.81910156 12.37453125 -5.93898438 11.3896875 -6.0625 10.375 C-6.19011719 9.40046875 -6.31773438 8.4259375 -6.44921875 7.421875 C-6.3214873 2.60841632 -4.65811275 0.86261347 0 0 Z " fill="#FFFFFF" transform="translate(110.375,141.375)"/>
<path d="M0 0 C4.66617211 1.63946588 4.66617211 1.63946588 6.5625 3.6875 C7.036875 4.120625 7.51125 4.55375 8 5 C10.16299211 4.77242269 10.16299211 4.77242269 12 4 C12.28875 4.969375 12.5775 5.93875 12.875 6.9375 C13.64214682 10.10664203 13.64214682 10.10664203 16 11 C15.34 12.65 14.68 14.3 14 16 C13.401875 15.835 12.80375 15.67 12.1875 15.5 C9.88655664 14.8885876 9.88655664 14.8885876 7 15 C4.82967524 16.43990623 4.82967524 16.43990623 3 18 C0.65303155 12.38768414 -0.94629469 7.13583124 -1 1 C-0.67 0.67 -0.34 0.34 0 0 Z M3 9 C3 9.99 3 10.98 3 12 C3.66 12 4.32 12 5 12 C4.67 11.01 4.34 10.02 4 9 C3.67 9 3.34 9 3 9 Z " fill="#FFFFFF" transform="translate(220,136)"/>
<path d="M0 0 C0.66 0.33 1.32 0.66 2 1 C3.00702494 7.79342222 1.56319283 12.95837482 -1.25 19.0625 C-1.5497876 19.72967041 -1.8495752 20.39684082 -2.15844727 21.08422852 C-4.40179383 25.69062238 -4.40179383 25.69062238 -7.046875 27.05859375 C-9 27 -9 27 -12 25 C-11.125 20.25 -11.125 20.25 -10 18 C-9.34 18 -8.68 18 -8 18 C-5.58528329 13.45134759 -3.9255132 8.61435123 -2.12109375 3.80078125 C-1 1 -1 1 0 0 Z " fill="#FFFFFF" transform="translate(132,25)"/>
<path d="M0 0 C3.48539917 0.64544429 6.02819057 2.10134397 9 4 C8.67 4.99 8.34 5.98 8 7 C7.01 7.33 6.02 7.66 5 8 C3.09291637 10.54540823 3.09291637 10.54540823 1.3125 13.5625 C0.68988281 14.57441406 0.06726563 15.58632812 -0.57421875 16.62890625 C-1.04472656 17.41136719 -1.51523438 18.19382813 -2 19 C-1.34 19 -0.68 19 0 19 C0 19.66 0 20.32 0 21 C-4.38462134 20.49890042 -6.8000997 19.01704885 -10 16 C-10 15.34 -10 14.68 -10 14 C-9.40703125 13.92394531 -8.8140625 13.84789062 -8.203125 13.76953125 C-5.2421187 12.73527905 -4.43969639 11.29458206 -2.75 8.6875 C-2.22921875 7.90761719 -1.7084375 7.12773437 -1.171875 6.32421875 C0.30014166 3.83854196 0.30014166 3.83854196 0 0 Z " fill="#FFFFFF" transform="translate(120,150)"/>
<path d="M0 0 C2.15305957 3.85756507 3.39253254 6.55129785 3 11 C-0.50776784 12.60355101 -3.14354879 13.22036864 -7 13 C-8.80230168 9.17010894 -9.19622241 6.21878192 -9 2 C-5.86501708 0.14223235 -3.62528568 -0.20140476 0 0 Z " fill="#FFFFFF" transform="translate(180,139)"/>
<path d="M0 0 C1.17176518 2.12232979 2.33754785 4.24757791 3.5 6.375 C3.83386719 6.97828125 4.16773438 7.5815625 4.51171875 8.203125 C7 12.7734375 7 12.7734375 7 15 C7.99 14.67 8.98 14.34 10 14 C10 14.99 10 15.98 10 17 C7.03 18.32 4.06 19.64 1 21 C1 20.01 1 19.02 1 18 C-0.14617617 13.9442997 -1.56202121 10.45380329 -4 7 C-4.66 7 -5.32 7 -6 7 C-5.37162381 3.35541809 -4.14650034 0 0 0 Z " fill="#FFFFFF" transform="translate(199,155)"/>
<path d="M0 0 C0.99 3.63 1.98 7.26 3 11 C-2 13 -2 13 -7 12 C-7.66 8.37 -8.32 4.74 -9 1 C-4 -1 -4 -1 0 0 Z " fill="#FFFFFF" transform="translate(176,125)"/>
<path d="M0 0 C0.94921875 2.50390625 0.94921875 2.50390625 1.6875 5.5625 C2.06455078 7.08037109 2.06455078 7.08037109 2.44921875 8.62890625 C2.63097656 9.41136719 2.81273437 10.19382812 3 11 C0.69 11.66 -1.62 12.32 -4 13 C-6.20536179 8.9728176 -7.45660208 5.56454251 -8 1 C-3.375 -1.125 -3.375 -1.125 0 0 Z " fill="#FFFFFF" transform="translate(171,110)"/>
<path d="M0 0 C5.75 0.75 5.75 0.75 8 3 C8 7 8 7 6.609375 8.484375 C5.99578125 8.90203125 5.3821875 9.3196875 4.75 9.75 C3.84507812 10.39195312 3.84507812 10.39195312 2.921875 11.046875 C1 12 1 12 -3 12 C-2.25749403 7.91621717 -1.17076699 3.98060777 0 0 Z " fill="#FFFFFF" transform="translate(144,235)"/>
<path d="M0 0 C3.61769026 0.85843498 6.45578494 2.06208667 9.6875 3.875 C9.6875 4.865 9.6875 5.855 9.6875 6.875 C6.6875 8.875 6.6875 8.875 4.5 8.8125 C0.48670228 7.47473409 -2.81755659 5.22519768 -6.3125 2.875 C-3.7265625 -0.140625 -3.7265625 -0.140625 0 0 Z " fill="#FFFFFF" transform="translate(202.3125,70.125)"/>
<path d="M0 0 C1.010625 0.0825 2.02125 0.165 3.0625 0.25 C5.0625 3.25 5.0625 3.25 4.75 5.875 C4.0625 8.25 4.0625 8.25 3.0625 9.25 C0.125 9.4375 0.125 9.4375 -2.9375 9.25 C-3.5975 8.59 -4.2575 7.93 -4.9375 7.25 C-4.23447766 0.36038108 -4.23447766 0.36038108 0 0 Z " fill="#FFFFFF" transform="translate(144.9375,56.75)"/>
<path d="M0 0 C2.375 0.6875 2.375 0.6875 3.375 1.6875 C3.5625 4.625 3.5625 4.625 3.375 7.6875 C2.715 8.3475 2.055 9.0075 1.375 9.6875 C-4.19318182 9.11931818 -4.19318182 9.11931818 -5.625 7.6875 C-5.875 4.75 -5.875 4.75 -5.625 1.6875 C-2.625 -0.3125 -2.625 -0.3125 0 0 Z " fill="#FFFFFF" transform="translate(163.625,52.3125)"/>
<path d="M0 0 C2.475 0.495 2.475 0.495 5 1 C5 5.95 5 10.9 5 16 C3.02 16.99 3.02 16.99 1 18 C0.67 12.06 0.34 6.12 0 0 Z " fill="#FFFFFF" transform="translate(34,251)"/>
<path d="M0 0 C1.67542976 0.28604898 3.34385343 0.61781233 5 1 C5 1.66 5 2.32 5 3 C5.61875 3.226875 6.2375 3.45375 6.875 3.6875 C9.61410209 5.37929835 10.05024472 6.99244161 11 10 C9.02 10.33 7.04 10.66 5 11 C2.25722422 7.80009492 0.3697164 4.99500618 -1 1 C-0.67 0.67 -0.34 0.34 0 0 Z " fill="#FFFFFF" transform="translate(96,270)"/>
<path d="M0 0 C1.32 0.33 2.64 0.66 4 1 C3.10393745 5.40239428 1.1725174 8.80990632 -2 12 C-4.8125 12.4375 -4.8125 12.4375 -7 12 C-7.33 10.35 -7.66 8.7 -8 7 C-7.05125 6.773125 -6.1025 6.54625 -5.125 6.3125 C-1.80676612 5.30916286 -1.80676612 5.30916286 -0.625 2.375 C-0.41875 1.59125 -0.2125 0.8075 0 0 Z " fill="#FFFFFF" transform="translate(78,270)"/>
<path d="M0 0 C0.41176754 3.60296594 0.1535853 4.78402067 -2 7.8125 C-2.66 8.534375 -3.32 9.25625 -4 10 C-6.475 9.01 -6.475 9.01 -9 8 C-9.125 5.625 -9.125 5.625 -9 3 C-6.15236477 0.15236477 -3.96383452 0 0 0 Z " fill="#FFFFFF" transform="translate(121,24)"/>
<path d="M0 0 C2.02237052 0.95394836 4.0282696 1.94535351 6 3 C5.34 4.32 4.68 5.64 4 7 C-0.5076467 6.46968862 -3.41954788 4.74778884 -7 2 C-7 1.34 -7 0.68 -7 0 C-4.23868631 -1.38065685 -2.96128936 -0.80762437 0 0 Z " fill="#FFFFFF" transform="translate(110,84)"/>
<path d="M0 0 C1.32 0.33 2.64 0.66 4 1 C3.69201674 2.48011371 3.378482 3.95907325 3.0625 5.4375 C2.88847656 6.26121094 2.71445313 7.08492187 2.53515625 7.93359375 C2 10 2 10 1 11 C-0.99958364 11.04080783 -3.00045254 11.04254356 -5 11 C-3.55049545 7.2089881 -1.84827434 3.6125362 0 0 Z " fill="#FFFFFF" transform="translate(142,30)"/>
<path d="M0 0 C3.95820859 0.56545837 6.6659053 1.80902348 10 4 C9.67 5.65 9.34 7.3 9 9 C4.16743695 8.58578031 2.17320782 6.53586014 -1 3 C-0.67 2.01 -0.34 1.02 0 0 Z " fill="#FFFFFF" transform="translate(157,27)"/>
<path d="M0 0 C2.25 -0.3125 2.25 -0.3125 5 0 C7.77971464 2.77971464 9 4.01144966 9 8 C7.35 8.33 5.7 8.66 4 9 C2.35 6.69 0.7 4.38 -1 2 C-0.67 1.34 -0.34 0.68 0 0 Z " fill="#FFFFFF" transform="translate(218,98)"/>
<path d="M0 0 C0.99 0.33 1.98 0.66 3 1 C1.02 4.63 -0.96 8.26 -3 12 C-4.32 12 -5.64 12 -7 12 C-7 9.69 -7 7.38 -7 5 C-6.21625 4.731875 -5.4325 4.46375 -4.625 4.1875 C-1.71885077 3.15185568 -1.71885077 3.15185568 0 0 Z " fill="#FFFFFF" transform="translate(177,26)"/>
<path d="M0 0 C1.08667969 0.29197266 1.08667969 0.29197266 2.1953125 0.58984375 C2.74960938 0.74582031 3.30390625 0.90179688 3.875 1.0625 C3.875 2.3825 3.875 3.7025 3.875 5.0625 C-0.12700378 6.66330151 -3.17056236 5.35529692 -7.125 4.0625 C-6.75 2.125 -6.75 2.125 -6.125 0.0625 C-3.57797384 -1.21101308 -2.6967055 -0.73941925 0 0 Z " fill="#FFFFFF" transform="translate(116.125,114.9375)"/>
<path d="M0 0 C2.3125 -0.25 2.3125 -0.25 5 0 C6.8125 1.8125 6.8125 1.8125 8 4 C8 4.99 8 5.98 8 7 C2.58461538 7.36923077 2.58461538 7.36923077 -0.375 5.5 C-0.91125 5.005 -1.4475 4.51 -2 4 C-1.34 2.68 -0.68 1.36 0 0 Z " fill="#FFFFFF" transform="translate(119,240)"/>
<path d="M0 0 C2.74148672 0.37047118 4.58593199 0.68587944 6.8125 2.375 C8 4 8 4 8 7 C6.35 7.33 4.7 7.66 3 8 C0.9375 5.6875 0.9375 5.6875 -1 3 C-0.67 2.01 -0.34 1.02 0 0 Z " fill="#FFFFFF" transform="translate(195,98)"/>
<path d="M0 0 C0.99 0.33 1.98 0.66 3 1 C3 4.3 3 7.6 3 11 C2.01 11 1.02 11 0 11 C-2.30163882 7.54754176 -2.34490322 6.05261287 -2 2 C-1.34 1.34 -0.68 0.68 0 0 Z " fill="#FFFFFF" transform="translate(205,235)"/>
<path d="M0 0 C2.31 0.33 4.62 0.66 7 1 C7 4 7 4 5.8125 5.75 C4 7 4 7 1.3125 6.6875 C0.549375 6.460625 -0.21375 6.23375 -1 6 C-0.67 4.02 -0.34 2.04 0 0 Z " fill="#FFFFFF" transform="translate(175,11)"/>
<path d="M0 0 C1.32 0.33 2.64 0.66 4 1 C3.67 2.32 3.34 3.64 3 5 C2.34 5 1.68 5 1 5 C0.67 5.99 0.34 6.98 0 8 C-1.9375 7.1875 -1.9375 7.1875 -4 6 C-4.33 5.01 -4.66 4.02 -5 3 C-3.68 3 -2.36 3 -1 3 C-0.67 2.01 -0.34 1.02 0 0 Z " fill="#FFFFFF" transform="translate(159,7)"/>
<path d="M0 0 C1.32 0.66 2.64 1.32 4 2 C3.67 4.31 3.34 6.62 3 9 C1.68 9 0.36 9 -1 9 C-1.09765625 2.84765625 -1.09765625 2.84765625 -1 1 C-0.67 0.67 -0.34 0.34 0 0 Z " fill="#FFFFFF" transform="translate(189,235)"/>
<path d="M0 0 C2.64 0 5.28 0 8 0 C7.67 1.65 7.34 3.3 7 5 C4.36 4.34 1.72 3.68 -1 3 C-0.67 2.01 -0.34 1.02 0 0 Z " fill="#FFFFFF" transform="translate(129,108)"/>
<path d="M0 0 C1.98 0 3.96 0 6 0 C6 1.32 6 2.64 6 4 C3.69 4.33 1.38 4.66 -1 5 C-0.67 3.35 -0.34 1.7 0 0 Z " fill="#FFFFFF" transform="translate(173,20)"/>
</svg>
