<?xml version="1.0" standalone="no"?>
<!DOCTYPE svg PUBLIC "-//W3C//DTD SVG 20010904//EN"
 "http://www.w3.org/TR/2001/REC-SVG-20010904/DTD/svg10.dtd">
<svg version="1.0" xmlns="http://www.w3.org/2000/svg"
 width="188.000000pt" height="34.000000pt" viewBox="0 0 188.000000 34.000000"
 preserveAspectRatio="xMidYMid meet">

<g transform="translate(0.000000,34.000000) scale(0.100000,-0.100000)"
fill="#000000" stroke="none">
<path d="M23 328 c-6 -7 -13 -21 -16 -30 -6 -16 2 -18 73 -18 44 0 80 -4 80
-9 0 -5 -11 -52 -25 -103 -14 -51 -25 -94 -25 -96 0 -2 26 -2 57 0 l57 3 17
60 c10 33 23 79 29 103 l11 42 54 0 c65 0 100 12 115 40 11 20 9 20 -203 20
-160 0 -217 -3 -224 -12z"/>
<path d="M524 333 c-35 -7 -54 -37 -75 -115 -36 -141 -29 -148 157 -148 114 0
133 2 147 18 10 10 17 22 17 25 0 4 -49 7 -109 7 -113 0 -123 4 -113 43 4 14
16 17 83 17 68 0 81 3 99 23 l21 22 -90 3 c-65 2 -91 6 -91 15 0 28 25 37 103
37 89 0 136 18 137 53 0 7 -248 8 -286 0z"/>
<path d="M882 331 c-7 -4 -28 -65 -47 -134 l-34 -127 57 0 57 0 33 128 c17 70
32 131 32 135 0 10 -82 9 -98 -2z"/>
<path d="M1131 326 c-7 -8 -23 -56 -37 -108 -35 -133 -35 -134 -85 -141 -45
-6 -63 -19 -74 -54 -6 -22 -3 -23 40 -23 52 0 85 14 85 35 0 19 32 35 70 35
37 0 40 6 79 158 l29 112 -48 0 c-29 0 -52 -6 -59 -14z"/>
<path d="M1322 331 c-8 -5 -29 -65 -47 -135 l-34 -126 57 0 57 0 33 128 c17
70 32 131 32 135 0 10 -82 9 -98 -2z"/>
<path d="M1495 328 c-2 -7 -16 -60 -30 -118 -14 -58 -28 -113 -31 -123 -5 -16
0 -18 38 -15 l43 3 25 97 c14 53 28 99 31 102 3 3 15 -36 28 -88 12 -51 27
-98 34 -105 11 -11 177 -17 177 -6 0 3 15 64 34 135 l35 130 -40 0 c-46 0 -47
-2 -80 -128 -12 -46 -23 -81 -26 -78 -2 2 -15 43 -28 91 -13 48 -29 93 -36
101 -15 19 -168 20 -174 2z"/>
</g>
</svg>
