<?xml version="1.0" encoding="utf-8"?>
<!-- Generator: Adobe Illustrator 25.4.1, SVG Export Plug-In . SVG Version: 6.00 Build 0)  -->
<svg version="1.1" id="レイヤー_1" xmlns="http://www.w3.org/2000/svg" xmlns:xlink="http://www.w3.org/1999/xlink" x="0px"
	 y="0px" viewBox="0 0 419.87 83.59" style="enable-background:new 0 0 419.87 83.59;" xml:space="preserve">
<style type="text/css">
	.st0{fill:#FFFFFF;}
</style>
<g>
	<g>
		<path class="st0" d="M132.7,67.65c3.16,0.59,6.24,0.74,10.3,0.74c8.83,0,12.43-1.99,12.43-6.86c0-3.65-1.3-6.08-7.64-6.08h-3.09
			c-3.1,0-3.75-1.2-3.75-2.22c0-2.37,3.34-2.37,4.94-2.37c2.37,0,5.52,0.38,7.83,0.65c0,0,0.51,0.06,1,0.11v-3.59
			c-3.32-0.5-7.57-0.87-10.36-0.87c-8.82,0-12.59,2.15-12.59,7.2c0,1.29,0,5.2,7.55,5.2h3.1c1.44,0,3.85,0,3.85,2.28
			c0,2.16-2.39,2.16-6.35,2.16c-1.4,0-4.54-0.06-7.2-0.45V67.65z"/>
		<path class="st0" d="M167.25,46.79h-8.17v20.94h8.17v-8.2c0-2.27,1.52-3.62,4.06-3.62c2.62,0,3.94,1.43,3.94,4.25v7.58h8.18V56.81
			c0-4.11-2.18-5.86-7.27-5.86c-4.46,0-6.1,1.87-6.6,2.68l-2.25,3.63L167.25,46.79z"/>
		<path class="st0" d="M186.79,59.47c0,6.42,3.4,8.92,12.15,8.92c8.72,0,12.11-2.5,12.11-8.92c0-6.4-3.39-8.89-12.11-8.89
			C190.19,50.58,186.79,53.07,186.79,59.47z M194.31,59.81c0-3.4,1.55-5.12,4.63-5.12c2.09,0,4.59,0.89,4.59,5.12
			c0,4.27-2.5,5.16-4.59,5.16C196.82,64.97,194.31,64.08,194.31,59.81z"/>
		<path class="st0" d="M224.22,62.6h8.73c6.74,0,9.14-4.13,9.14-7.67c0-3.05-0.82-7.11-7.92-7.11h-18.81v19.91h8.86V62.6z
			 M224.22,51.94h4.84c3.44,0,4.16,1.88,4.16,3.47c0,1.05-0.41,3.5-4.16,3.5h-4.84V51.94z"/>
		<path class="st0" d="M261.46,59.13v-8.11l-1.69-0.07c-2.87,0-3.54,1.06-4.35,4.71l-2.46-0.26c0,0,0-2.71,0-4.17h-7.24v16.5h8.18
			c0-1.43,0-4.04,0-4.04c0-4.02,2.89-4.56,5.72-4.56H261.46z"/>
		<path class="st0" d="M264.02,59.47c0,6.42,3.4,8.92,12.14,8.92c8.72,0,12.12-2.5,12.12-8.92c0-6.4-3.4-8.89-12.12-8.89
			C267.43,50.58,264.02,53.07,264.02,59.47z M271.54,59.81c0-3.4,1.56-5.12,4.63-5.12c2.1,0,4.6,0.89,4.6,5.12
			c0,4.27-2.5,5.16-4.6,5.16C274.06,64.97,271.54,64.08,271.54,59.81z"/>
	</g>
</g>
<g>
	<path class="st0" d="M134.8,76.32c0.13-0.02,0.29-0.04,0.47-0.07c0.18-0.03,0.33-0.07,0.44-0.13c0.12-0.05,0.19-0.14,0.21-0.27
		c0.03-0.13,0.04-0.25,0.04-0.35c0-0.35-0.11-0.64-0.34-0.87c-0.23-0.23-0.61-0.34-1.15-0.34c-0.24,0-0.46,0.02-0.66,0.06
		c-0.2,0.04-0.38,0.12-0.53,0.22c-0.15,0.11-0.27,0.24-0.37,0.42c-0.1,0.17-0.16,0.39-0.19,0.65h-0.71c0.02-0.35,0.1-0.66,0.24-0.91
		c0.14-0.25,0.32-0.46,0.54-0.61c0.22-0.16,0.47-0.27,0.76-0.35c0.29-0.07,0.59-0.11,0.92-0.11c0.3,0,0.58,0.03,0.85,0.1
		c0.27,0.07,0.5,0.17,0.69,0.31c0.2,0.14,0.35,0.33,0.46,0.57c0.11,0.24,0.17,0.53,0.17,0.88v3.26c0,0.27,0.05,0.44,0.15,0.51
		c0.1,0.07,0.29,0.06,0.58-0.05v0.54c-0.06,0.02-0.13,0.04-0.24,0.07c-0.1,0.03-0.21,0.05-0.31,0.05c-0.11,0-0.21-0.01-0.31-0.04
		c-0.12-0.02-0.21-0.05-0.28-0.11c-0.07-0.06-0.13-0.13-0.17-0.21c-0.04-0.08-0.07-0.17-0.09-0.27c-0.02-0.1-0.02-0.2-0.02-0.31
		c-0.29,0.32-0.63,0.57-1.01,0.74c-0.38,0.17-0.79,0.25-1.22,0.25c-0.26,0-0.51-0.03-0.76-0.1c-0.24-0.07-0.46-0.18-0.64-0.32
		c-0.18-0.15-0.33-0.33-0.44-0.54c-0.11-0.21-0.16-0.46-0.16-0.76c0-1.02,0.7-1.62,2.09-1.8L134.8,76.32z M135.97,76.67
		c-0.29,0.12-0.59,0.2-0.89,0.24c-0.3,0.04-0.6,0.07-0.9,0.09c-0.53,0.04-0.95,0.16-1.24,0.36c-0.3,0.2-0.44,0.5-0.44,0.91
		c0,0.19,0.04,0.35,0.11,0.48c0.07,0.14,0.17,0.25,0.29,0.34c0.12,0.09,0.26,0.15,0.42,0.2c0.16,0.04,0.32,0.07,0.48,0.07
		c0.28,0,0.55-0.04,0.81-0.11c0.26-0.07,0.5-0.18,0.7-0.32c0.21-0.14,0.37-0.32,0.49-0.54c0.12-0.22,0.19-0.48,0.19-0.78V76.67z"/>
	<path class="st0" d="M141.79,79.81v-8.32h0.69v8.32H141.79z"/>
	<path class="st0" d="M144.68,76.98c0,0.32,0.04,0.63,0.13,0.92c0.09,0.29,0.21,0.54,0.38,0.75c0.17,0.21,0.37,0.38,0.63,0.51
		c0.25,0.13,0.55,0.19,0.88,0.19c0.45,0,0.84-0.12,1.17-0.36c0.32-0.24,0.54-0.58,0.65-1.02h0.77c-0.08,0.29-0.2,0.55-0.33,0.79
		c-0.14,0.24-0.31,0.45-0.52,0.64c-0.21,0.18-0.45,0.32-0.74,0.42c-0.28,0.1-0.62,0.15-0.99,0.15c-0.48,0-0.89-0.08-1.24-0.24
		c-0.35-0.16-0.63-0.38-0.86-0.66c-0.22-0.28-0.39-0.61-0.5-0.99c-0.11-0.38-0.16-0.79-0.16-1.23c0-0.44,0.07-0.85,0.19-1.24
		c0.13-0.39,0.31-0.72,0.54-1.01c0.24-0.29,0.52-0.52,0.86-0.68c0.34-0.17,0.72-0.25,1.16-0.25c0.82,0,1.47,0.28,1.94,0.85
		c0.47,0.57,0.7,1.39,0.69,2.47H144.68z M148.59,76.4c0-0.29-0.04-0.57-0.12-0.83c-0.08-0.26-0.2-0.48-0.36-0.67
		c-0.16-0.19-0.36-0.34-0.6-0.45c-0.24-0.11-0.51-0.17-0.82-0.17c-0.31,0-0.58,0.06-0.81,0.17c-0.23,0.12-0.44,0.27-0.6,0.46
		c-0.17,0.19-0.3,0.42-0.4,0.67c-0.1,0.25-0.17,0.52-0.2,0.81H148.59z"/>
	<path class="st0" d="M153.43,76.32c0.13-0.02,0.29-0.04,0.47-0.07c0.18-0.03,0.33-0.07,0.45-0.13c0.12-0.05,0.19-0.14,0.21-0.27
		c0.03-0.13,0.04-0.25,0.04-0.35c0-0.35-0.11-0.64-0.34-0.87c-0.23-0.23-0.61-0.34-1.15-0.34c-0.24,0-0.46,0.02-0.66,0.06
		c-0.2,0.04-0.38,0.12-0.53,0.22c-0.15,0.11-0.27,0.24-0.37,0.42c-0.1,0.17-0.16,0.39-0.19,0.65h-0.71c0.02-0.35,0.1-0.66,0.24-0.91
		c0.14-0.25,0.32-0.46,0.54-0.61c0.22-0.16,0.47-0.27,0.76-0.35c0.29-0.07,0.59-0.11,0.92-0.11c0.3,0,0.58,0.03,0.85,0.1
		c0.27,0.07,0.5,0.17,0.69,0.31c0.2,0.14,0.35,0.33,0.46,0.57c0.11,0.24,0.17,0.53,0.17,0.88v3.26c0,0.27,0.05,0.44,0.15,0.51
		c0.1,0.07,0.29,0.06,0.58-0.05v0.54c-0.06,0.02-0.13,0.04-0.24,0.07c-0.1,0.03-0.21,0.05-0.31,0.05c-0.11,0-0.21-0.01-0.31-0.04
		c-0.12-0.02-0.21-0.05-0.28-0.11c-0.07-0.06-0.13-0.13-0.17-0.21c-0.04-0.08-0.07-0.17-0.09-0.27c-0.02-0.1-0.02-0.2-0.02-0.31
		c-0.29,0.32-0.63,0.57-1.01,0.74c-0.38,0.17-0.79,0.25-1.22,0.25c-0.26,0-0.51-0.03-0.76-0.1c-0.24-0.07-0.46-0.18-0.64-0.32
		c-0.18-0.15-0.33-0.33-0.44-0.54c-0.11-0.21-0.16-0.46-0.16-0.76c0-1.02,0.7-1.62,2.09-1.8L153.43,76.32z M154.59,76.67
		c-0.29,0.12-0.59,0.2-0.89,0.24c-0.3,0.04-0.6,0.07-0.9,0.09c-0.53,0.04-0.95,0.16-1.24,0.36c-0.3,0.2-0.44,0.5-0.44,0.91
		c0,0.19,0.04,0.35,0.11,0.48c0.07,0.14,0.17,0.25,0.29,0.34c0.12,0.09,0.26,0.15,0.42,0.2c0.16,0.04,0.32,0.07,0.48,0.07
		c0.28,0,0.55-0.04,0.81-0.11c0.26-0.07,0.5-0.18,0.7-0.32c0.21-0.14,0.37-0.32,0.49-0.54c0.12-0.22,0.19-0.48,0.19-0.78V76.67z"/>
	<path class="st0" d="M161.72,71.49h0.69v8.32h-0.69v-1.05h-0.02c-0.1,0.2-0.23,0.37-0.39,0.52c-0.16,0.15-0.33,0.28-0.52,0.38
		s-0.38,0.18-0.58,0.23c-0.2,0.06-0.4,0.08-0.59,0.08c-0.48,0-0.9-0.08-1.24-0.24c-0.34-0.16-0.62-0.38-0.84-0.66
		c-0.22-0.28-0.38-0.61-0.48-1c-0.1-0.38-0.15-0.8-0.15-1.24c0-0.42,0.05-0.82,0.16-1.2c0.11-0.39,0.27-0.72,0.49-1.01
		c0.22-0.29,0.5-0.52,0.83-0.69c0.34-0.17,0.73-0.26,1.18-0.26c0.42,0,0.83,0.09,1.22,0.28c0.39,0.19,0.69,0.47,0.92,0.84V71.49z
		 M161.72,76.79c0-0.34-0.05-0.66-0.14-0.96c-0.09-0.3-0.23-0.57-0.4-0.8c-0.17-0.23-0.39-0.41-0.64-0.54
		c-0.25-0.14-0.53-0.2-0.85-0.2c-0.36,0-0.67,0.07-0.94,0.21c-0.26,0.14-0.48,0.34-0.65,0.58c-0.17,0.25-0.29,0.53-0.37,0.86
		c-0.08,0.33-0.11,0.68-0.09,1.06c0,0.38,0.05,0.71,0.16,1c0.11,0.29,0.25,0.53,0.43,0.73c0.19,0.2,0.4,0.35,0.65,0.46
		c0.25,0.1,0.52,0.16,0.81,0.16c0.32,0,0.61-0.07,0.87-0.2c0.25-0.13,0.47-0.31,0.64-0.54c0.17-0.23,0.3-0.5,0.39-0.81
		C161.68,77.49,161.72,77.16,161.72,76.79z"/>
	<path class="st0" d="M164.23,72.52v-1.03h0.76v1.03H164.23z M164.26,79.81v-5.98h0.69v5.98H164.26z"/>
	<path class="st0" d="M167.42,79.81h-0.69v-5.98h0.69v0.83c0.28-0.29,0.56-0.53,0.86-0.72c0.3-0.18,0.65-0.28,1.07-0.28
		c0.37,0,0.71,0.06,1.03,0.19c0.31,0.13,0.58,0.35,0.8,0.66c0.15,0.22,0.23,0.44,0.26,0.66c0.03,0.23,0.04,0.46,0.04,0.71v3.92
		h-0.69v-3.9c0-0.54-0.12-0.94-0.36-1.21c-0.24-0.27-0.64-0.4-1.19-0.4c-0.22,0-0.41,0.03-0.59,0.1c-0.18,0.07-0.34,0.15-0.48,0.26
		c-0.14,0.11-0.26,0.23-0.36,0.37c-0.1,0.14-0.18,0.28-0.23,0.44c-0.07,0.19-0.11,0.38-0.13,0.55c-0.02,0.18-0.02,0.37-0.02,0.58
		V79.81z"/>
	<path class="st0" d="M177.77,73.82h0.69v5.41c0,0.4-0.04,0.78-0.12,1.15c-0.08,0.37-0.22,0.69-0.43,0.97
		c-0.21,0.28-0.49,0.5-0.85,0.66c-0.36,0.17-0.83,0.25-1.4,0.25c-0.44,0-0.82-0.06-1.13-0.17c-0.32-0.11-0.57-0.25-0.77-0.42
		c-0.2-0.17-0.35-0.36-0.46-0.56c-0.1-0.2-0.16-0.39-0.17-0.57h0.74c0.05,0.22,0.14,0.41,0.25,0.55c0.12,0.14,0.25,0.25,0.41,0.34
		c0.16,0.08,0.33,0.14,0.53,0.17c0.19,0.03,0.39,0.05,0.6,0.05c0.47,0,0.85-0.08,1.13-0.24c0.28-0.16,0.5-0.37,0.65-0.63
		c0.15-0.26,0.24-0.56,0.28-0.89c0.04-0.33,0.06-0.67,0.05-1.02c-0.22,0.37-0.53,0.65-0.92,0.84c-0.39,0.19-0.79,0.28-1.22,0.28
		c-0.45,0-0.85-0.09-1.18-0.26c-0.34-0.17-0.61-0.4-0.83-0.69c-0.22-0.29-0.38-0.62-0.49-1.01c-0.11-0.38-0.16-0.78-0.16-1.2
		c0-0.44,0.05-0.85,0.15-1.24c0.1-0.39,0.26-0.72,0.48-1c0.22-0.28,0.5-0.5,0.84-0.66c0.34-0.16,0.75-0.24,1.24-0.24
		c0.19,0,0.39,0.03,0.59,0.08c0.2,0.05,0.39,0.13,0.58,0.23c0.19,0.1,0.36,0.23,0.52,0.38c0.16,0.15,0.29,0.33,0.39,0.52h0.02V73.82
		z M177.77,76.84c0-0.36-0.04-0.7-0.13-1.01s-0.22-0.58-0.39-0.81c-0.17-0.23-0.38-0.41-0.63-0.54c-0.26-0.13-0.54-0.2-0.87-0.2
		c-0.29,0-0.56,0.05-0.81,0.16c-0.25,0.1-0.46,0.26-0.65,0.46c-0.18,0.2-0.33,0.45-0.43,0.73c-0.11,0.29-0.16,0.62-0.16,1
		c-0.02,0.38,0.02,0.73,0.09,1.06c0.08,0.33,0.2,0.61,0.37,0.86c0.17,0.25,0.38,0.44,0.65,0.58c0.26,0.14,0.57,0.21,0.94,0.21
		c0.32,0,0.6-0.07,0.85-0.2c0.25-0.14,0.46-0.32,0.63-0.54c0.17-0.23,0.31-0.49,0.4-0.8C177.72,77.5,177.77,77.18,177.77,76.84z"/>
	<path class="st0" d="M182.82,74.4v-0.58h0.89v-0.95c0-0.48,0.1-0.85,0.29-1.13c0.19-0.28,0.52-0.41,0.98-0.41
		c0.11,0,0.21,0,0.3,0.01c0.09,0.01,0.19,0.02,0.28,0.04v0.64c-0.15-0.04-0.29-0.06-0.42-0.06c-0.18,0-0.32,0.03-0.42,0.1
		s-0.17,0.15-0.22,0.26c-0.05,0.11-0.08,0.23-0.09,0.36c-0.01,0.13-0.02,0.27-0.02,0.41v0.74h1.16v0.58h-1.16v5.41h-0.69V74.4
		H182.82z"/>
	<path class="st0" d="M189.01,79.97c-0.38-0.01-0.74-0.08-1.08-0.21c-0.33-0.13-0.63-0.33-0.88-0.59c-0.25-0.26-0.45-0.59-0.6-0.98
		c-0.15-0.39-0.22-0.85-0.22-1.38c0-0.44,0.06-0.85,0.17-1.23c0.12-0.38,0.29-0.71,0.52-1c0.23-0.28,0.52-0.51,0.87-0.68
		c0.35-0.17,0.75-0.25,1.21-0.25c0.47,0,0.88,0.08,1.22,0.25c0.35,0.17,0.64,0.39,0.87,0.67c0.23,0.28,0.4,0.61,0.51,1
		c0.11,0.38,0.17,0.8,0.17,1.24c0,0.48-0.07,0.91-0.2,1.29c-0.13,0.38-0.32,0.72-0.56,0.99c-0.24,0.28-0.54,0.49-0.88,0.64
		C189.8,79.89,189.43,79.97,189.01,79.97z M191.04,76.82c0-0.35-0.04-0.69-0.12-0.99c-0.08-0.31-0.2-0.57-0.36-0.8
		c-0.16-0.23-0.37-0.41-0.62-0.54c-0.25-0.13-0.57-0.2-0.94-0.2c-0.36,0-0.67,0.07-0.93,0.21c-0.26,0.14-0.47,0.33-0.63,0.57
		c-0.16,0.23-0.28,0.51-0.36,0.81c-0.08,0.3-0.12,0.62-0.12,0.94c0,0.37,0.04,0.71,0.13,1.02c0.09,0.31,0.22,0.58,0.39,0.8
		c0.17,0.22,0.38,0.4,0.64,0.52c0.25,0.12,0.55,0.19,0.88,0.19c0.36,0,0.67-0.07,0.93-0.21c0.26-0.14,0.47-0.33,0.63-0.57
		c0.16-0.24,0.28-0.51,0.36-0.81C191,77.45,191.04,77.14,191.04,76.82z"/>
	<path class="st0" d="M193.78,79.81h-0.69v-5.98h0.69v1.12h0.02c0.19-0.48,0.44-0.81,0.74-1c0.3-0.19,0.71-0.28,1.21-0.28v0.75
		c-0.39-0.01-0.72,0.05-0.97,0.19c-0.25,0.13-0.46,0.31-0.61,0.53c-0.15,0.22-0.25,0.49-0.31,0.79c-0.06,0.3-0.09,0.62-0.09,0.95
		V79.81z"/>
	<path class="st0" d="M201.14,75.71c-0.12-0.45-0.33-0.79-0.64-1.05c-0.3-0.25-0.68-0.37-1.14-0.37c-0.35,0-0.66,0.07-0.91,0.22
		c-0.25,0.15-0.46,0.34-0.62,0.58c-0.16,0.24-0.28,0.52-0.36,0.82c-0.08,0.3-0.12,0.61-0.12,0.92c0,0.32,0.04,0.62,0.11,0.93
		c0.07,0.3,0.19,0.57,0.35,0.81c0.16,0.24,0.37,0.43,0.62,0.57c0.25,0.14,0.56,0.21,0.93,0.21c0.52,0,0.93-0.14,1.24-0.43
		c0.31-0.28,0.51-0.68,0.6-1.18h0.74c-0.06,0.33-0.16,0.63-0.29,0.91c-0.14,0.27-0.31,0.51-0.52,0.7c-0.21,0.2-0.46,0.35-0.76,0.46
		c-0.29,0.11-0.63,0.16-1,0.16c-0.48,0-0.89-0.08-1.24-0.24c-0.35-0.16-0.63-0.38-0.85-0.66c-0.22-0.28-0.39-0.61-0.5-1
		c-0.11-0.38-0.16-0.8-0.16-1.24c0-0.42,0.06-0.81,0.18-1.2c0.12-0.38,0.29-0.72,0.53-1.01c0.23-0.29,0.52-0.53,0.86-0.7
		c0.34-0.17,0.74-0.26,1.18-0.26c0.69,0,1.25,0.17,1.68,0.5c0.43,0.33,0.7,0.85,0.8,1.55H201.14z"/>
	<path class="st0" d="M203.75,76.98c0,0.32,0.04,0.63,0.13,0.92c0.08,0.29,0.21,0.54,0.37,0.75c0.17,0.21,0.38,0.38,0.63,0.51
		c0.25,0.13,0.55,0.19,0.88,0.19c0.45,0,0.84-0.12,1.17-0.36c0.32-0.24,0.54-0.58,0.65-1.02h0.77c-0.09,0.29-0.2,0.55-0.34,0.79
		c-0.14,0.24-0.31,0.45-0.52,0.64c-0.21,0.18-0.46,0.32-0.74,0.42c-0.29,0.1-0.62,0.15-0.99,0.15c-0.48,0-0.89-0.08-1.24-0.24
		c-0.35-0.16-0.63-0.38-0.86-0.66c-0.22-0.28-0.39-0.61-0.5-0.99c-0.11-0.38-0.16-0.79-0.16-1.23c0-0.44,0.06-0.85,0.19-1.24
		c0.13-0.39,0.31-0.72,0.54-1.01c0.23-0.29,0.52-0.52,0.86-0.68c0.34-0.17,0.72-0.25,1.15-0.25c0.82,0,1.47,0.28,1.94,0.85
		c0.47,0.57,0.7,1.39,0.69,2.47H203.75z M207.66,76.4c0-0.29-0.04-0.57-0.12-0.83c-0.08-0.26-0.2-0.48-0.36-0.67
		c-0.16-0.19-0.36-0.34-0.6-0.45c-0.24-0.11-0.51-0.17-0.82-0.17c-0.31,0-0.58,0.06-0.81,0.17c-0.23,0.12-0.44,0.27-0.6,0.46
		s-0.3,0.42-0.4,0.67c-0.1,0.25-0.17,0.52-0.2,0.81H207.66z"/>
	<path class="st0" d="M213.03,72.52v-1.03h0.76v1.03H213.03z M213.06,79.81v-5.98h0.69v5.98H213.06z"/>
	<path class="st0" d="M216.22,79.81h-0.69v-5.98h0.69v0.83c0.28-0.29,0.56-0.53,0.86-0.72c0.3-0.18,0.65-0.28,1.07-0.28
		c0.37,0,0.71,0.06,1.03,0.19c0.32,0.13,0.58,0.35,0.8,0.66c0.15,0.22,0.23,0.44,0.26,0.66c0.03,0.23,0.04,0.46,0.04,0.71v3.92
		h-0.69v-3.9c0-0.54-0.12-0.94-0.36-1.21c-0.24-0.27-0.64-0.4-1.19-0.4c-0.22,0-0.41,0.03-0.59,0.1c-0.18,0.07-0.34,0.15-0.48,0.26
		c-0.14,0.11-0.26,0.23-0.36,0.37c-0.1,0.14-0.18,0.28-0.23,0.44c-0.07,0.19-0.11,0.38-0.13,0.55c-0.02,0.18-0.02,0.37-0.02,0.58
		V79.81z"/>
	<path class="st0" d="M225.59,76.98c0,0.32,0.04,0.63,0.13,0.92c0.08,0.29,0.21,0.54,0.37,0.75c0.17,0.21,0.38,0.38,0.63,0.51
		c0.25,0.13,0.55,0.19,0.88,0.19c0.46,0,0.84-0.12,1.17-0.36c0.32-0.24,0.54-0.58,0.65-1.02h0.77c-0.09,0.29-0.2,0.55-0.34,0.79
		c-0.14,0.24-0.31,0.45-0.52,0.64c-0.21,0.18-0.46,0.32-0.74,0.42c-0.29,0.1-0.62,0.15-0.99,0.15c-0.48,0-0.89-0.08-1.24-0.24
		c-0.35-0.16-0.63-0.38-0.85-0.66c-0.22-0.28-0.39-0.61-0.5-0.99c-0.11-0.38-0.16-0.79-0.16-1.23c0-0.44,0.06-0.85,0.19-1.24
		c0.13-0.39,0.31-0.72,0.54-1.01c0.23-0.29,0.52-0.52,0.86-0.68c0.34-0.17,0.72-0.25,1.15-0.25c0.82,0,1.47,0.28,1.94,0.85
		c0.47,0.57,0.7,1.39,0.69,2.47H225.59z M229.49,76.4c0-0.29-0.04-0.57-0.12-0.83c-0.08-0.26-0.2-0.48-0.36-0.67
		c-0.16-0.19-0.36-0.34-0.6-0.45c-0.24-0.11-0.51-0.17-0.82-0.17c-0.31,0-0.58,0.06-0.81,0.17c-0.23,0.12-0.44,0.27-0.6,0.46
		s-0.3,0.42-0.4,0.67c-0.1,0.25-0.17,0.52-0.2,0.81H229.49z"/>
	<path class="st0" d="M236.2,71.49h0.69v8.32h-0.69v-1.05h-0.02c-0.1,0.2-0.23,0.37-0.39,0.52c-0.16,0.15-0.33,0.28-0.52,0.38
		c-0.19,0.1-0.38,0.18-0.58,0.23c-0.2,0.06-0.4,0.08-0.59,0.08c-0.49,0-0.9-0.08-1.24-0.24c-0.34-0.16-0.62-0.38-0.84-0.66
		c-0.22-0.28-0.38-0.61-0.48-1c-0.1-0.38-0.15-0.8-0.15-1.24c0-0.42,0.05-0.82,0.16-1.2c0.11-0.39,0.27-0.72,0.49-1.01
		c0.22-0.29,0.5-0.52,0.83-0.69c0.34-0.17,0.73-0.26,1.18-0.26c0.42,0,0.83,0.09,1.22,0.28c0.39,0.19,0.7,0.47,0.92,0.84V71.49z
		 M236.2,76.79c0-0.34-0.05-0.66-0.14-0.96c-0.09-0.3-0.22-0.57-0.4-0.8c-0.17-0.23-0.38-0.41-0.63-0.54
		c-0.25-0.14-0.53-0.2-0.85-0.2c-0.36,0-0.67,0.07-0.94,0.21c-0.26,0.14-0.48,0.34-0.65,0.58c-0.17,0.25-0.29,0.53-0.37,0.86
		c-0.08,0.33-0.11,0.68-0.09,1.06c0,0.38,0.05,0.71,0.16,1c0.1,0.29,0.25,0.53,0.43,0.73c0.18,0.2,0.4,0.35,0.65,0.46
		c0.25,0.1,0.52,0.16,0.81,0.16c0.32,0,0.61-0.07,0.87-0.2c0.25-0.13,0.47-0.31,0.64-0.54c0.17-0.23,0.3-0.5,0.39-0.81
		C236.16,77.49,236.2,77.16,236.2,76.79z"/>
	<path class="st0" d="M242.69,73.82h0.69v5.98h-0.69v-0.83c-0.09,0.11-0.2,0.22-0.31,0.34c-0.12,0.12-0.25,0.22-0.4,0.32
		c-0.15,0.1-0.33,0.18-0.53,0.24c-0.2,0.07-0.43,0.1-0.69,0.1c-0.4,0-0.74-0.06-1-0.17c-0.27-0.11-0.49-0.27-0.65-0.47
		c-0.17-0.2-0.29-0.43-0.36-0.7c-0.07-0.27-0.11-0.56-0.11-0.87v-3.94h0.69v3.93c0,0.52,0.12,0.91,0.36,1.18
		c0.24,0.27,0.63,0.41,1.18,0.41c0.28,0,0.54-0.06,0.77-0.17c0.23-0.11,0.42-0.27,0.57-0.47c0.15-0.2,0.27-0.44,0.36-0.72
		c0.09-0.28,0.13-0.58,0.13-0.91V73.82z"/>
	<path class="st0" d="M247.17,79.83c-0.09,0.02-0.2,0.04-0.33,0.08c-0.14,0.04-0.29,0.06-0.46,0.06c-0.35,0-0.61-0.09-0.79-0.26
		c-0.18-0.17-0.27-0.48-0.27-0.93V74.4h-0.84v-0.58h0.84v-1.66H246v1.66h1.12v0.58H246v4.1c0,0.15,0,0.27,0.01,0.38
		c0.01,0.11,0.03,0.2,0.07,0.27c0.04,0.07,0.1,0.12,0.18,0.15c0.08,0.03,0.19,0.05,0.34,0.05c0.09,0,0.19-0.01,0.28-0.02
		c0.1-0.02,0.19-0.03,0.28-0.06V79.83z"/>
	<path class="st0" d="M251.02,76.32c0.13-0.02,0.29-0.04,0.47-0.07c0.18-0.03,0.33-0.07,0.45-0.13c0.12-0.05,0.19-0.14,0.21-0.27
		c0.03-0.13,0.04-0.25,0.04-0.35c0-0.35-0.11-0.64-0.34-0.87c-0.23-0.23-0.61-0.34-1.15-0.34c-0.24,0-0.46,0.02-0.66,0.06
		c-0.2,0.04-0.38,0.12-0.53,0.22c-0.15,0.11-0.27,0.24-0.37,0.42c-0.1,0.17-0.16,0.39-0.19,0.65h-0.7c0.02-0.35,0.1-0.66,0.24-0.91
		c0.14-0.25,0.32-0.46,0.54-0.61c0.22-0.16,0.47-0.27,0.76-0.35c0.29-0.07,0.6-0.11,0.92-0.11c0.3,0,0.58,0.03,0.85,0.1
		c0.26,0.07,0.5,0.17,0.69,0.31c0.2,0.14,0.35,0.33,0.46,0.57c0.11,0.24,0.17,0.53,0.17,0.88v3.26c0,0.27,0.05,0.44,0.14,0.51
		c0.1,0.07,0.29,0.06,0.58-0.05v0.54c-0.05,0.02-0.13,0.04-0.24,0.07c-0.1,0.03-0.21,0.05-0.31,0.05c-0.11,0-0.21-0.01-0.31-0.04
		c-0.12-0.02-0.21-0.05-0.28-0.11c-0.07-0.06-0.13-0.13-0.17-0.21c-0.04-0.08-0.07-0.17-0.09-0.27c-0.02-0.1-0.02-0.2-0.02-0.31
		c-0.29,0.32-0.63,0.57-1.01,0.74c-0.38,0.17-0.78,0.25-1.22,0.25c-0.26,0-0.51-0.03-0.76-0.1c-0.24-0.07-0.46-0.18-0.64-0.32
		c-0.18-0.15-0.33-0.33-0.44-0.54c-0.11-0.21-0.16-0.46-0.16-0.76c0-1.02,0.7-1.62,2.09-1.8L251.02,76.32z M252.19,76.67
		c-0.29,0.12-0.59,0.2-0.89,0.24c-0.3,0.04-0.6,0.07-0.9,0.09c-0.53,0.04-0.95,0.16-1.24,0.36c-0.3,0.2-0.44,0.5-0.44,0.91
		c0,0.19,0.04,0.35,0.11,0.48c0.07,0.14,0.17,0.25,0.29,0.34c0.12,0.09,0.26,0.15,0.42,0.2c0.16,0.04,0.32,0.07,0.48,0.07
		c0.28,0,0.55-0.04,0.81-0.11c0.26-0.07,0.5-0.18,0.7-0.32c0.2-0.14,0.37-0.32,0.49-0.54c0.12-0.22,0.19-0.48,0.19-0.78V76.67z"/>
	<path class="st0" d="M254.77,72.52v-1.03h0.76v1.03H254.77z M254.8,79.81v-5.98h0.69v5.98H254.8z"/>
	<path class="st0" d="M257.96,79.81h-0.69v-5.98h0.69v0.83c0.28-0.29,0.56-0.53,0.86-0.72c0.3-0.18,0.65-0.28,1.07-0.28
		c0.37,0,0.71,0.06,1.03,0.19c0.32,0.13,0.58,0.35,0.8,0.66c0.15,0.22,0.23,0.44,0.26,0.66c0.03,0.23,0.04,0.46,0.04,0.71v3.92
		h-0.69v-3.9c0-0.54-0.12-0.94-0.36-1.21c-0.24-0.27-0.64-0.4-1.19-0.4c-0.22,0-0.41,0.03-0.59,0.1c-0.18,0.07-0.34,0.15-0.48,0.26
		c-0.14,0.11-0.26,0.23-0.36,0.37c-0.1,0.14-0.18,0.28-0.23,0.44c-0.07,0.19-0.11,0.38-0.13,0.55c-0.02,0.18-0.02,0.37-0.02,0.58
		V79.81z"/>
	<path class="st0" d="M264.29,79.81h-0.69v-5.98h0.69v0.9h0.02c0.18-0.35,0.43-0.61,0.76-0.79c0.33-0.18,0.69-0.27,1.09-0.27
		c0.28,0,0.51,0.03,0.7,0.09c0.19,0.06,0.36,0.14,0.49,0.25c0.13,0.1,0.25,0.22,0.33,0.36c0.09,0.14,0.16,0.29,0.23,0.45
		c0.2-0.39,0.47-0.68,0.8-0.87c0.33-0.19,0.72-0.28,1.15-0.28c0.41,0,0.73,0.07,0.98,0.2c0.24,0.14,0.43,0.31,0.56,0.53
		c0.13,0.22,0.22,0.47,0.26,0.76c0.04,0.29,0.06,0.58,0.06,0.88v3.78h-0.69v-4.14c0-0.43-0.09-0.77-0.27-1.02
		c-0.18-0.25-0.52-0.37-1.01-0.37c-0.25,0-0.5,0.06-0.73,0.17c-0.24,0.11-0.44,0.28-0.62,0.51c-0.08,0.1-0.14,0.22-0.19,0.35
		c-0.05,0.13-0.09,0.28-0.12,0.42c-0.03,0.15-0.05,0.29-0.06,0.44c-0.01,0.15-0.02,0.28-0.02,0.4v3.22h-0.69v-4.14
		c0-0.43-0.09-0.77-0.27-1.02c-0.18-0.25-0.52-0.37-1.01-0.37c-0.25,0-0.5,0.06-0.73,0.17c-0.23,0.11-0.44,0.28-0.62,0.51
		c-0.08,0.1-0.14,0.22-0.19,0.35c-0.05,0.13-0.09,0.28-0.12,0.42c-0.03,0.15-0.05,0.29-0.06,0.44c-0.01,0.15-0.02,0.28-0.02,0.4
		V79.81z"/>
	<path class="st0" d="M273.74,76.98c0,0.32,0.04,0.63,0.13,0.92c0.08,0.29,0.21,0.54,0.37,0.75c0.17,0.21,0.38,0.38,0.63,0.51
		c0.25,0.13,0.55,0.19,0.88,0.19c0.46,0,0.84-0.12,1.17-0.36c0.32-0.24,0.54-0.58,0.65-1.02h0.77c-0.09,0.29-0.2,0.55-0.34,0.79
		c-0.14,0.24-0.31,0.45-0.52,0.64c-0.21,0.18-0.46,0.32-0.74,0.42c-0.29,0.1-0.62,0.15-0.99,0.15c-0.48,0-0.89-0.08-1.24-0.24
		c-0.35-0.16-0.63-0.38-0.85-0.66c-0.22-0.28-0.39-0.61-0.5-0.99c-0.11-0.38-0.16-0.79-0.16-1.23c0-0.44,0.06-0.85,0.19-1.24
		c0.13-0.39,0.31-0.72,0.54-1.01c0.23-0.29,0.52-0.52,0.86-0.68c0.34-0.17,0.72-0.25,1.15-0.25c0.82,0,1.47,0.28,1.94,0.85
		c0.47,0.57,0.7,1.39,0.69,2.47H273.74z M277.64,76.4c0-0.29-0.04-0.57-0.12-0.83c-0.08-0.26-0.2-0.48-0.36-0.67
		c-0.16-0.19-0.36-0.34-0.6-0.45c-0.24-0.11-0.51-0.17-0.82-0.17c-0.31,0-0.58,0.06-0.81,0.17c-0.23,0.12-0.44,0.27-0.6,0.46
		c-0.17,0.19-0.3,0.42-0.4,0.67c-0.1,0.25-0.17,0.52-0.2,0.81H277.64z"/>
	<path class="st0" d="M280.43,79.81h-0.69v-5.98h0.69v0.83c0.28-0.29,0.56-0.53,0.86-0.72c0.3-0.18,0.65-0.28,1.07-0.28
		c0.37,0,0.71,0.06,1.03,0.19c0.32,0.13,0.58,0.35,0.8,0.66c0.15,0.22,0.23,0.44,0.26,0.66c0.03,0.23,0.04,0.46,0.04,0.71v3.92
		h-0.69v-3.9c0-0.54-0.12-0.94-0.36-1.21c-0.24-0.27-0.64-0.4-1.19-0.4c-0.22,0-0.41,0.03-0.59,0.1c-0.18,0.07-0.34,0.15-0.48,0.26
		c-0.14,0.11-0.26,0.23-0.36,0.37c-0.1,0.14-0.18,0.28-0.23,0.44c-0.07,0.19-0.11,0.38-0.13,0.55c-0.02,0.18-0.02,0.37-0.02,0.58
		V79.81z"/>
	<path class="st0" d="M288.26,79.83c-0.09,0.02-0.2,0.04-0.33,0.08c-0.14,0.04-0.29,0.06-0.46,0.06c-0.35,0-0.61-0.09-0.79-0.26
		c-0.18-0.17-0.27-0.48-0.27-0.93V74.4h-0.84v-0.58h0.84v-1.66h0.69v1.66h1.12v0.58h-1.12v4.1c0,0.15,0,0.27,0.01,0.38
		c0.01,0.11,0.03,0.2,0.07,0.27c0.04,0.07,0.1,0.12,0.18,0.15c0.08,0.03,0.19,0.05,0.34,0.05c0.09,0,0.19-0.01,0.28-0.02
		c0.1-0.02,0.19-0.03,0.28-0.06V79.83z"/>
</g>
<g>
	<path class="st0" d="M12.89,10.21c-1.19,9.63-3.22,15.82-6.69,20.51l-4.24-4.38c3.04-4.09,4.76-10.89,5.32-16.91L12.89,10.21z
		 M21.82,3.56v28.98c0,2.8-1.5,4.24-4.34,4.24h-6.83l-1.22-5.64h5.42c1.16,0,1.37-0.49,1.37-1.23V3.56H21.82z M32.18,30.62
		c-3.04-5.08-5.01-9.56-6.97-20.55l5.6-0.8c0.46,4.06,2.38,11.38,5.71,17.05L32.18,30.62z"/>
	<path class="st0" d="M41.83,8.77c-0.77-1.58-1.37-2.56-2.13-3.71l5.29-1.37c1.26,1.82,2.1,3.54,2.66,5.08h4.27
		C51.35,7.27,51,6.6,49.95,4.64l5.32-1.22c0.84,1.58,1.93,3.92,2.28,5.36h3.19c1.12-2,1.89-4.55,2.1-5.22l5.63,1.23
		c-0.77,1.75-1.05,2.42-2,3.99h3.36v8.65h-4.45v1.89c-2,1.47-3.4,2.31-7.25,4.2h12.53v4.76H56.85v5c0,2.14-1.26,3.61-3.4,3.61h-7.56
		l-0.88-5.08h5.04c0.94,0,1.26-0.11,1.26-1.33v-2.21H37.35v-4.76h13.97v-1.75h1.37c1.26-0.49,2.34-1.02,3.25-1.86H42.67v-2.49h-4.48
		V8.77H41.83z M64.62,13.36H43.44v1.93h21.18V13.36z"/>
	<path class="st0" d="M84.24,27.01c0.95,1.54,2.62,4.55,3.64,7.74l-4.73,1.5c-0.35-1.26-0.42-1.5-0.6-2.03
		c-1.33,0.35-5.85,1.47-10.5,2.17l-0.67-4.79c0.88-0.11,1.12-0.11,1.86-0.21V14.44c-0.28,0.18-0.42,0.28-0.91,0.63l-1.16-5.46
		c2.73-1.5,4.94-3.36,6.62-5.99h5c0.53,0.63,1.79,2.17,3.82,3.54V6.25h6.23V3.63h4.9v2.63h6.76v8.79h-2.21v8.4h-9.35v1.75h11.13
		v11.06H88.05V15.04h-1.44v-4.55l-0.98,1.96c-1.86-1.16-4.2-3.71-5.11-4.94c-2.03,2.59-3.25,3.71-5.11,5.29h2.98v-2.66h4.13v2.66
		h3.33v13.58h-7.98v4.31c1.68-0.25,2.07-0.32,3.19-0.53c-0.28-0.63-0.53-1.08-0.95-1.89L84.24,27.01z M81.61,16.33h-3.75v1.75h3.75
		V16.33z M81.61,21.1h-3.75v1.79h3.75V21.1z M90.96,12.73h9.07v-2.1h-9.07V12.73z M97.5,16.86h-4.55v2.59h4.55V16.86z M99.11,29.11
		h-6.16v2.83h6.16V29.11z"/>
	<path class="st0" d="M137.59,36.32c-4.38-1.05-8.51-2.91-12.04-5.64v6.06h-5.18v-5.95c-3.71,2.63-7.14,4.2-11.94,5.46l-2.52-5.08
		c3.46-0.35,6.86-1.16,9.98-2.7h-9.42v-4.27h13.9v-1.4h-10.26v-7.77c-0.67,0.59-0.98,0.84-1.64,1.4l-2.56-4.73
		c2.73-2.07,5.29-4.83,6.55-8.19l5.6,0.42c-0.25,0.53-0.53,1.16-1.05,2.14h4.62c0.31-0.63,0.35-0.81,0.8-2.56l5.43,0.25
		c-0.32,0.95-0.56,1.47-0.98,2.31h10.68v3.78h-11.27v1.4h10.26v2.38h-10.26v1.47h10.26v2.38h-10.26v1.47h12.29v3.85h-13.06v1.4
		h13.93v4.27h-9.42c5.29,2.45,8.16,2.7,10.05,2.8L137.59,36.32z M115.26,9.86v1.4h6.23v-1.4H115.26z M115.26,13.64v1.47h6.23v-1.47
		H115.26z M115.26,17.49v1.47h6.23v-1.47H115.26z"/>
	<path class="st0" d="M140.87,31.56c6.44-0.84,9.94-2.94,11.45-4.34h-11.03v-4.94h3.54v-8.72h10.36v-1.89h5.18v1.89h10.36v8.72h3.54
		v4.94h-11.27c1.29,1.23,3.71,3.5,11.83,4.13l-2.8,5.46c-1.89-0.28-4.87-0.81-8.61-3.12c-2.7-1.64-4.55-3.71-5.57-5.36
		c-1.89,2.87-5.99,6.51-14.04,8.75L140.87,31.56z M147.83,3.59h5.11V5.8h9.56V3.59h5.22V5.8h6.54v5.01h-6.54v1.89h-5.22V10.8h-9.56
		v1.89h-5.11V10.8h-6.55V5.8h6.55V3.59z M155.18,18.16h-5.25v4.13h5.04c0.14-0.67,0.21-1.4,0.21-2.06V18.16z M160.36,19.52
		c0,1.61-0.14,2.42-0.21,2.76h5.39v-4.13h-5.18V19.52z"/>
	<path class="st0" d="M185.58,36.85h-5.32V25.19c-1.44,1.23-2.7,2.1-3.71,2.8l-1.33-6.2c3.92-2.35,7.14-6.13,8.3-8.4h-7.67v-4.9
		h4.41V3.7h5.32v4.8h3.57v4.9c-0.52,1.29-1.08,2.59-2.8,5.08c1.92,2.1,3.54,3.05,4.79,3.75l-2.62,5c-0.74-0.7-1.68-1.58-2.94-3.36
		V36.85z M195.98,3.7h5.46v8.68h6.83v5.39h-6.83v12.81h7.35v5.32h-20.83v-5.32h8.02V17.77h-6.3v-5.39h6.3V3.7z"/>
	<path class="st0" d="M230.5,7.86l4.77,5.85c-1.24,6.86-4.27,16.21-16.16,21.91l-3.6-4.73c11.83-5.04,13.51-14.42,14.08-17.54
		h-18.82v-5.5H230.5z M241.56,7.3c0,2.63-2.05,4.76-4.57,4.76s-4.57-2.13-4.57-4.76c0-2.66,2.05-4.76,4.57-4.76
		C239.48,2.54,241.56,4.64,241.56,7.3z M234.7,7.3c0,1.3,1.01,2.38,2.29,2.38c1.24,0,2.29-1.05,2.29-2.38
		c0-1.37-1.08-2.38-2.29-2.38C235.75,4.92,234.7,5.97,234.7,7.3z"/>
	<path class="st0" d="M243.71,7.62h25.47v25.41h-25.47V7.62z M263.77,27.68V13.11h-14.68v14.56H263.77z"/>
	<path class="st0" d="M272.05,18.23c3.19-2.63,6.22-5.99,8.74-11.2h12.63l5.04,6.62c-1.71,7-5.88,17.64-19.22,22.65l-3.63-4.62
		c7.06-2.24,10.48-6.02,11.79-7.46c-3.46-2.59-6.25-4.24-8.1-5.32c-0.1,0.1-1.31,1.47-3.23,3.15L272.05,18.23z M284.11,12.34
		c-0.44,0.74-0.81,1.33-1.58,2.45c3.76,2.1,6.79,4.1,8,4.94c0.94-1.82,1.85-3.61,2.72-7.39H284.11z M295.74,3.21
		c1.65,1.89,2.69,3.64,4.03,6.2l-2.32,1.79c-1.21-2.62-2.15-4.17-3.86-6.37L295.74,3.21z M300.71,2.54
		c1.61,2.03,2.45,3.57,3.83,6.37l-2.39,1.65c-1.21-2.77-1.95-4.1-3.66-6.48L300.71,2.54z"/>
	<path class="st0" d="M306.49,31.35c5.95-2.17,14.75-7.42,17-19.32h-9.17c-1.41,2.31-3.43,5.39-7.9,9.21l-4.1-3.64
		c3.83-3.25,6.52-6.58,8.6-10.92h19.25c-2.02,20.23-13.57,26.67-19.99,29.33L306.49,31.35z"/>
	<path class="st0" d="M342.16,21.97c-4.3-2.21-8.13-3.57-10.08-4.24l2.05-4.97c1.95,0.67,5.38,1.82,10.11,4.17L342.16,21.97z
		 M361.58,15.99c-9.74,15.72-21.44,18.76-25.17,19.74l-2.22-5.74c14.18-2.62,21.74-15.4,23.82-18.94L361.58,15.99z M344.91,13.71
		c-3.49-1.75-5.91-2.77-9.84-4.17l2.08-4.9c3.7,1.29,5.68,2.14,9.78,4.03L344.91,13.71z"/>
	<path class="st0" d="M365.63,29.15h15.56v-3.5H366.5v-4.66h14.68v-3.25h-15.32v-4.73h20.06v20.83h-20.29V29.15z"/>
	<path class="st0" d="M401.48,16.83c-3.29-2.31-6.25-3.85-10.18-5.32l2.52-4.94c3.86,1.33,6.96,2.87,10.62,5.25L401.48,16.83z
		 M418.88,16.68c-1.31,2.24-4.64,7.63-10.92,12.18c-4.5,3.26-9.07,5.29-14.48,6.37l-1.88-5.81c8.5-1.65,17-5.53,23.69-17.75
		L418.88,16.68z"/>
</g>
</svg>
