<?xml version="1.0" encoding="UTF-8"?>
<svg version="1.1" xmlns="http://www.w3.org/2000/svg" width="183" height="33">
<path d="M0 0 C4.90054035 2.10023158 7.20186703 5.03069886 9.3046875 9.79296875 C11.01416902 15.21913201 10.67221769 20.09815872 8.4375 25.3125 C6.11267526 29.37081776 3.49127219 31.63383356 -1 33 C-6.60301842 33.86477455 -11.73924916 33.62015305 -16.52734375 30.3828125 C-20.77173047 26.39736714 -22.23052358 21.64866162 -22.5 15.9375 C-22.20861996 9.61455308 -20.05858087 6.00711635 -15.5 1.5625 C-10.31846777 -0.75068403 -5.58362338 -0.73630198 0 0 Z M-12 9 C-14.69476664 13.04214995 -14.65647676 16.25508571 -14 21 C-12.65021698 24.16821233 -12.65021698 24.16821233 -10 26 C-5.6504655 26.79082445 -3.76219728 26.50272587 -0.0625 24.0625 C2.3571246 20.46972407 2.67653795 18.40063248 2.421875 14.15625 C1.77667355 10.85855369 0.51880479 9.17842577 -2 7 C-6.2740324 5.24655081 -8.41530337 6.2872566 -12 9 Z " fill="#000000" transform="translate(49,0)"/>
<path d="M0 0 C2.64 0 5.28 0 8 0 C8.33 4.95 8.66 9.9 9 15 C9.71027344 14.00097656 10.42054687 13.00195312 11.15234375 11.97265625 C12.08067945 10.66923542 13.00906757 9.36585193 13.9375 8.0625 C14.40607422 7.40314453 14.87464844 6.74378906 15.35742188 6.06445312 C18.88671875 1.11328125 18.88671875 1.11328125 20 0 C21.51928038 -0.07179964 23.04167482 -0.08392007 24.5625 -0.0625 C25.38878906 -0.05347656 26.21507813 -0.04445312 27.06640625 -0.03515625 C27.70449219 -0.02355469 28.34257813 -0.01195312 29 0 C27.38325319 3.42946293 25.42402323 6.56263052 23.375 9.75 C22.74335937 10.73484375 22.11171875 11.7196875 21.4609375 12.734375 C20.97882813 13.48203125 20.49671875 14.2296875 20 15 C20.30292969 15.47945068 20.60585937 15.95890137 20.91796875 16.45288086 C22.28096482 18.61296752 23.64052314 20.77519693 25 22.9375 C25.47695312 23.69224609 25.95390625 24.44699219 26.4453125 25.22460938 C26.89648438 25.94326172 27.34765625 26.66191406 27.8125 27.40234375 C28.23144531 28.06741943 28.65039062 28.73249512 29.08203125 29.41772461 C30 31 30 31 30 32 C26.8415637 32.56851853 24.13325986 32.77692577 21 32 C18.95326967 29.83741701 17.6224749 27.67168508 16.19140625 25.06640625 C15.16942664 22.85492797 15.16942664 22.85492797 13 22 C12.7525 22.53625 12.505 23.0725 12.25 23.625 C11.8375 24.40875 11.425 25.1925 11 26 C10.443125 27.0725 9.88625 28.145 9.3125 29.25 C8.549375 30.1575 7.78625 31.065 7 32 C4.69 32 2.38 32 0 32 C0 21.44 0 10.88 0 0 Z " fill="#000000" transform="translate(62,0)"/>
<path d="M0 0 C2.8569858 1.47122559 4.77790765 3.25322959 6.765625 5.75390625 C8.75853645 12.43602111 9.12544701 19.47227722 6.203125 25.87890625 C1.99555526 30.19720151 -1.0531505 32.54259895 -7.171875 32.75390625 C-12.90540018 32.49563935 -16.5336422 31.08746873 -20.484375 26.81640625 C-24.09105005 21.47318395 -23.78214473 15.55105374 -23.171875 9.31640625 C-21.359375 5.75390625 -21.359375 5.75390625 -19.171875 3.31640625 C-18.65625 2.71828125 -18.140625 2.12015625 -17.609375 1.50390625 C-13.19235734 -2.14493443 -5.18962411 -1.63342485 0 0 Z M-14.171875 8.31640625 C-16.55560107 11.94381549 -16.39273713 15.29980319 -15.703125 19.4453125 C-14.85858769 22.4198226 -13.7755934 23.67195252 -11.171875 25.31640625 C-7.671875 25.98307292 -7.671875 25.98307292 -4.171875 25.31640625 C-1.80690061 23.4493212 -0.51156785 21.99579194 0.828125 19.31640625 C1.23344006 15.10112966 1.05063032 12.76141688 -0.859375 8.94140625 C-2.92630087 6.22912111 -2.92630087 6.22912111 -5.546875 5.25390625 C-9.15165652 5.33973438 -11.18234542 6.32338653 -14.171875 8.31640625 Z " fill="#000000" transform="translate(174.171875,0.68359375)"/>
<path d="M0 0 C2.31 0 4.62 0 7 0 C7.33 4.95 7.66 9.9 8 15 C8.68964844 13.9171875 9.37929687 12.834375 10.08984375 11.71875 C11.0374505 10.31141324 11.98675982 8.90522184 12.9375 7.5 C13.61135742 6.42685547 13.61135742 6.42685547 14.29882812 5.33203125 C17.8205585 0.23159416 17.8205585 0.23159416 21.38720703 -0.46875 C23.64138355 -0.46875 25.77249302 -0.33454423 28 0 C26.65070536 3.83663072 24.92248975 6.65172569 22.375 9.8125 C21.74335938 10.60269531 21.11171875 11.39289062 20.4609375 12.20703125 C19.97882812 12.79871094 19.49671875 13.39039063 19 14 C21.38912934 18.48342995 23.79047805 22.84481884 26.8125 26.9375 C29 30 29 30 29 32 C25.84005495 32.56879011 23.13414169 32.7797133 20 32 C17.40155657 29.30706772 15.6833009 26.32699471 14 23 C10.46739129 26.39634558 10.46739129 26.39634558 7.5625 30.3125 C7.046875 30.869375 6.53125 31.42625 6 32 C4.02 32 2.04 32 0 32 C0 21.44 0 10.88 0 0 Z " fill="#000000" transform="translate(0,0)"/>
<path d="M0 0 C2.64 0 5.28 0 8 0 C8.01981934 0.68626465 8.03963867 1.3725293 8.06005859 2.07958984 C8.15510945 5.17845779 8.26486847 8.27663294 8.375 11.375 C8.4059375 12.45523437 8.436875 13.53546875 8.46875 14.6484375 C8.50742188 15.6796875 8.54609375 16.7109375 8.5859375 17.7734375 C8.6173584 18.72653809 8.6487793 19.67963867 8.68115234 20.66162109 C8.78555796 23.18895176 8.78555796 23.18895176 11 25 C15.14509433 25.28602162 15.14509433 25.28602162 19 24 C19.95168683 21.14493951 20.1900946 19.09062718 20.31640625 16.11328125 C20.35830078 15.17548828 20.40019531 14.23769531 20.44335938 13.27148438 C20.48267578 12.29501953 20.52199219 11.31855469 20.5625 10.3125 C20.60568359 9.32443359 20.64886719 8.33636719 20.69335938 7.31835938 C20.79941654 4.87904454 20.90147714 2.43962887 21 0 C23.31 0 25.62 0 28 0 C28.11662261 4.04142215 28.1873935 8.08240865 28.25 12.125 C28.30027344 13.83816406 28.30027344 13.83816406 28.3515625 15.5859375 C28.47673857 26.35107918 28.47673857 26.35107918 24 31 C19.60488897 34.11882112 14.1537145 33.49775846 9 33 C5.22708493 31.42795206 3.11382161 29.48780566 1 26 C0.01183344 22.8840911 -0.11659905 20.05503588 -0.09765625 16.796875 C-0.09443359 15.8171875 -0.09121094 14.8375 -0.08789062 13.828125 C-0.07951172 12.81234375 -0.07113281 11.7965625 -0.0625 10.75 C-0.05798828 9.71875 -0.05347656 8.6875 -0.04882812 7.625 C-0.03706088 5.08327427 -0.02062011 2.54166681 0 0 Z " fill="#000000" transform="translate(92,0)"/>
<path d="M0 0 C5.02072539 -0.79274611 5.02072539 -0.79274611 8 0 C10.81110263 2.69550589 12.91754472 5.72013294 15 9 C18.55426787 7.81524404 18.79177011 7.01738208 20.6875 3.9375 C23.36454696 0.15456966 23.36454696 0.15456966 26.16796875 -0.52734375 C28.375 -0.5 28.375 -0.5 32 0 C31.57111166 3.66342128 29.67431134 5.81973363 27.40576172 8.62060547 C21.21795979 16.34299947 19.47993504 21.93521341 20 32 C17.36 32 14.72 32 12 32 C12.04382813 31.15179687 12.08765625 30.30359375 12.1328125 29.4296875 C12.11092819 19.47232836 9.37220674 14.51973907 3.25 6.9609375 C1.32240359 4.42427417 0.3619291 3.09147771 0 0 Z " fill="#000000" transform="translate(121,0)"/>
</svg>
