<svg xmlns="http://www.w3.org/2000/svg" width="154.935" height="37.561" viewBox="0 0 154.935 37.561">
  <g id="Group_33" data-name="Group 33" transform="translate(0 0)">
    <path id="Fill_1" data-name="Fill 1" d="M2.913,3.23V6.586H0V7.63H2.913V22.858h1.2V7.63H7.5V6.586H4.115V3.324c0-1.8,1.045-2.28,2.375-2.28A7.275,7.275,0,0,1,7.914,1.2V.158A7.255,7.255,0,0,0,6.49,0C4.526,0,2.913.95,2.913,3.23" transform="translate(87.061 0)"/>
    <path id="Fill_3" data-name="Fill 3" d="M7.535,1.209V.007C4.591-.12,1.931,1.59,1.3,3.711H1.2V.1H0V16.374H1.2v-8.9c.127-2.438.633-3.451,1.835-4.686a5.508,5.508,0,0,1,4.5-1.583" transform="translate(98.738 6.484)"/>
    <path id="Fill_5" data-name="Fill 5" d="M5.445,17.033A6.461,6.461,0,0,1,1.571,16.02,4.167,4.167,0,0,1,0,12.443C0,8.57,3.415,7.841,5.983,7.63c5.4-.381,5.6-.734,5.6-3.387,0-.675-.768-3.2-4.527-3.2-3.025,0-4.849,1.58-5,4.336H.853C1.011,1.861,3.158,0,7.061,0c2.6,0,5.7.736,5.7,4.243v9.4c0,.965,0,1.964,1.076,1.964a5.663,5.663,0,0,0,.887-.094v1.012l-.075.014a5.063,5.063,0,0,1-.907.113c-1.813,0-2.184-.949-2.184-2.374v-.855h-.064A6.221,6.221,0,0,1,5.445,17.033Zm6.11-9.625c-.705.8-2.336.937-4.063,1.083-.6.051-1.223.1-1.826.184C2.58,9.018,1.2,10.18,1.2,12.443c0,2.154,1.677,3.545,4.273,3.545a5.652,5.652,0,0,0,6.079-5.54Z" transform="translate(107.067 6.205)"/>
    <path id="Fill_7" data-name="Fill 7" d="M11.681,16.653h1.2V6.586C12.886,4.592,12.822,0,7.092,0A6.03,6.03,0,0,0,1.266,3.863H1.2V.381H0V16.653H1.2v-8.8C1.2,3.863,3.42,1.046,7.06,1.046c4.433,0,4.621,3.64,4.621,5.319Z" transform="translate(125.297 6.205)"/>
    <path id="Fill_9" data-name="Fill 9" d="M14.342,10.923h-1.2a5.6,5.6,0,0,1-5.667,5.066c-4.21,0-6.269-3.228-6.269-7.629,0-3.7,2.185-7.314,6.269-7.314,2.945,0,5.288,1.488,5.51,4.369h1.2C13.835,1.71,10.986,0,7.471,0,2.659,0,0,3.831,0,8.359s2.184,8.674,7.471,8.674a6.679,6.679,0,0,0,6.871-6.111" transform="translate(140.591 6.205)"/>
    <path id="Fill_11" data-name="Fill 11" d="M0,22.605H3.958V12.569H14.185V9.34H3.958V3.419h11.65V0H0Z" transform="translate(0 0.253)"/>
    <path id="Fill_14" data-name="Fill 14" d="M3.452,3.609H3.387V.443H0V16.811H3.609V9.022c0-3.608,1.963-5.6,4.432-5.6a12.994,12.994,0,0,1,1.551.158V.1A8.505,8.505,0,0,0,8.232,0a5.281,5.281,0,0,0-4.78,3.609" transform="translate(19.493 6.048)"/>
    <path id="Fill_16" data-name="Fill 16" d="M14.057,17.254c-1.641,0-2.527-.634-2.788-1.994A8.448,8.448,0,0,1,5.6,17.254,6.412,6.412,0,0,1,1.7,16.063,4.355,4.355,0,0,1,0,12.473,4.221,4.221,0,0,1,2.01,8.524,10.906,10.906,0,0,1,6.3,7.376c.551-.1,1.081-.166,1.595-.23,1.851-.229,3.313-.41,3.313-2.08,0-1.833-1.842-2.218-3.388-2.218-2.178,0-3.459.922-3.609,2.6H.6a5.081,5.081,0,0,1,2.462-4.3A9.7,9.7,0,0,1,8.04,0a8.749,8.749,0,0,1,4.477,1.08,4.068,4.068,0,0,1,2.078,3.669v8.42c0,.924.216,1.236.854,1.236a4.936,4.936,0,0,0,.887-.064v2.5A9.029,9.029,0,0,1,14.057,17.254ZM10.984,8.611A7.208,7.208,0,0,1,7.935,9.4c-.456.054-.928.111-1.382.192-1.371.223-2.944.734-2.944,2.722,0,1.654,2.175,2.091,3.325,2.091a5.286,5.286,0,0,0,2.618-.7A2.742,2.742,0,0,0,10.984,11.3Z" transform="translate(30.793 6.047)"/>
    <path id="Fill_18" data-name="Fill 18" d="M8.579,0a5.861,5.861,0,0,0-5.1,2.913l-.063-.064V.443H0V16.811H3.609V7.155A3.99,3.99,0,0,1,7.566,2.849c2.121,0,3.134,1.109,3.2,3.673V16.811h3.609V5.572C14.373,1.9,12.125,0,8.579,0" transform="translate(50.792 6.048)"/>
    <path id="Fill_20" data-name="Fill 20" d="M8.1,2.849A3.46,3.46,0,0,1,11.84,5.92h3.609C15.1,1.9,11.872,0,8.072,0,2.69,0,0,3.862,0,8.8c0,4.812,2.818,8.453,7.946,8.453,4.211,0,6.839-2.343,7.5-6.585H11.84c-.348,2.343-1.8,3.736-3.894,3.736-3.133,0-4.337-2.881-4.337-5.6,0-4.97,2.627-5.952,4.5-5.952" transform="translate(68.054 6.047)"/>
    <path id="Fill_22" data-name="Fill 22" d="M3.207,6.835a3.068,3.068,0,0,1-2.36-.989A3.569,3.569,0,0,1,0,3.444,3.154,3.154,0,0,1,3.207,0,3.154,3.154,0,0,1,6.414,3.444a3.569,3.569,0,0,1-.846,2.4A3.07,3.07,0,0,1,3.207,6.835Zm0-5.629c-1.644,0-1.772,1.713-1.772,2.238,0,1.056.466,2.184,1.772,2.184S4.98,4.5,4.98,3.444C4.98,2.919,4.852,1.206,3.207,1.206Z" transform="translate(86.941 30.727)"/>
    <path id="Fill_25" data-name="Fill 25" d="M4.167,4.376H4.148L1.425,0H0V6.524H1.343V2.156h.018L4.075,6.524H5.509V0H4.167Z" transform="translate(101.132 30.882)"/>
    <path id="Fill_27" data-name="Fill 27" d="M1.434,0H0V6.524H4.614V5.318H1.434Z" transform="translate(114.702 30.882)"/>
    <path id="Fill_29" data-name="Fill 29" d="M0,6.524H1.434V0H0Z" transform="translate(126.919 30.882)"/>
    <path id="Fill_31" data-name="Fill 31" d="M4.167,4.376H4.148L1.425,0H0V6.524H1.343V2.156h.018L4.075,6.524H5.509V0H4.167Z" transform="translate(136.413 30.882)"/>
    <path id="Fill_32" data-name="Fill 32" d="M1.434,5.318v-1.6H4.6V2.6H1.434v-1.4H4.879V0H0V6.524H4.952V5.318Z" transform="translate(149.983 30.882)"/>
  </g>
</svg>
