<svg xmlns="http://www.w3.org/2000/svg" viewBox="0 0 166.01798 36.44978"><defs><style>.cls-1{fill:#009ee2;}.cls-2,.cls-3{fill:#fff;stroke-width:0.08451px;}.cls-2,.cls-4{stroke:#003459;}.cls-2{stroke-linejoin:round;}.cls-3{stroke:#231815;}.cls-4{fill:#cd0034;stroke-width:0.13941px;}.cls-5{fill:#003459;}</style></defs><g id="レイヤー_2" data-name="レイヤー 2"><g id="デザイン"><path class="cls-1" d="M37.50789,15.91386c-.00161-.00461-.00783-.00447-.01083-.00813a1.11688,1.11688,0,0,0,.02657-.8979c-.00227-.00593-.01-.00579-.01449-.00989a1.08026,1.08026,0,0,0-.05315-.82133,1.07053,1.07053,0,0,0-.11523-.96884L37.34,13.20748a1.07573,1.07573,0,0,0-.20535-.95523.03878.03878,0,0,0-.045-.0142c-.005.00139-.00535.00812-.00938.0112a1.194,1.194,0,0,0-.41479-.8378.03956.03956,0,0,0-.04576-.006c-.00593.00293-.00556.01077-.00952.01574a1.27729,1.27729,0,0,0-.424-.60287,1.17879,1.17879,0,0,0-.53925-.73553l-.007.00022a1.30941,1.30941,0,0,0-.56026-.56078l-.00447.00052a1.23017,1.23017,0,0,0-.63362-.594,1.2778,1.2778,0,0,0-.667-.64958,1.16169,1.16169,0,0,0-.65038-.56458.82517.82517,0,0,0-.17549-.22271c.24276-.23763.42981-.42578.50478-.51019a.72607.72607,0,0,0,.05622-.77564,8.14808,8.14808,0,0,0-2.06162-1.97466l-.01874-.00674a.76384.76384,0,0,0-.86108.10864c-.0563.04386-.18434.15967-.34225.30587A1.356,1.356,0,0,0,29.68637,4.14c-.00776-.00366-.01632.0019-.02526.00329a1.36727,1.36727,0,0,0-.56824-.49562c-.01-.00578-.0216.00051-.03258.0052a1.03544,1.03544,0,0,0-.55279-.4577,1.00169,1.00169,0,0,0-.60068-.60493c-.10615-.437-.63589-.64072-.70588-.6648a1.05929,1.05929,0,0,0-.677-.56576.04267.04267,0,0,0-.04048.01127l-.00037.00125c-.18566-.39269-.76627-.433-.794-.43442l-.0049.00278a1.16732,1.16732,0,0,0-.78648-.325h-.00073a.04126.04126,0,0,0-.03822.02393c-.00183.004.00234.00747.00169.01157a1.439,1.439,0,0,0-.65859-.14751,1.13476,1.13476,0,0,0-.77147-.154c-.01.00183-.0142.01164-.02042.01911a1.02474,1.02474,0,0,0-.78143-.02738c-.007.00278-.00769.0112-.01223.01677a1.35917,1.35917,0,0,0-.82857-.00476c-.00593.0019-.00593.00952-.01032.01354A1.08611,1.08611,0,0,0,20.85919.345l-.00425.006a1.6918,1.6918,0,0,0-.83282-.015c-.01061.00278-.01376.01384-.0194.02262A1.68545,1.68545,0,0,0,19.2292.35027l-.002.00234a1.26774,1.26774,0,0,0-.85881-.04495,1.35435,1.35435,0,0,0-.88977-.03309A1.22482,1.22482,0,0,0,16.5904.24119a1.1381,1.1381,0,0,0-.92975-.07343A1.47294,1.47294,0,0,0,14.49151.0947l-.00527.00724a1.50911,1.50911,0,0,0-.99593.09466c-.00973.00439-.01047.01538-.01456.02431a1.46824,1.46824,0,0,0-.91767.20725.0425.0425,0,0,0-.02028.04349c.0011.005.00739.00571.00988.00988a1.55948,1.55948,0,0,0-.79526.2779c-.01011.00747-.01032.02057-.0112.03272a1.29571,1.29571,0,0,0-.84607.44387c-.00381.00432-.00044.01032-.00227.01559a1.37906,1.37906,0,0,0-.68941.46707c-.00578.00733-.00132.0167-.00124.02577a1.279,1.279,0,0,0-.69651.52506c-.006.01-.00124.0213.00154.03221a1.33352,1.33352,0,0,0-.54035.53881l.00051.00469a1.29359,1.29359,0,0,0-.57681.59782l.00066.00352a1.20266,1.20266,0,0,0-.64365.64775l.00095.00417a.97062.97062,0,0,0-.411.32578c-.038-.03338-.08324-.074-.10476-.09093a.761.761,0,0,0-.86108-.10864l-.01947.00674A8.11939,8.11939,0,0,0,4.28545,6.20609a.71981.71981,0,0,0,.06142.77564c.02093.02394.06244.06692.09971.10586a1.44888,1.44888,0,0,0-.34115.38574,1.10159,1.10159,0,0,0-.65676.53113,1.02821,1.02821,0,0,0-.58823.5651,1.10064,1.10064,0,0,0-.63662.60419c-.00285.00666.0033.01259.0041.01962a1.23219,1.23219,0,0,0-.59687.64211c-.00337.00915.00315.017.00586.02585a1.29811,1.29811,0,0,0-.45777.63435c-.00147.00483.00351.00871.00388.01369a.99414.99414,0,0,0-.33288.78516.04025.04025,0,0,0,.01969.03148,1.29228,1.29228,0,0,0-.29847.76591.04221.04221,0,0,0,.024.03968.039.039,0,0,0,.018.00381l.004-.00161a1.41842,1.41842,0,0,0-.15242.65507.04077.04077,0,0,0,.02137.02943,1.065,1.065,0,0,0-.06186.67952c.00161.00666.00959.00791.014.01274a.93223.93223,0,0,0-.02072.71562.04112.04112,0,0,0,.02862.02071,1.20682,1.20682,0,0,0-.02115.80442.03973.03973,0,0,0,.03067.02379.9624.9624,0,0,0,.00117.76774,1.12988,1.12988,0,0,0-.09846.87353,1.18312,1.18312,0,0,0-.03456.86343l.001.00073a1.14213,1.14213,0,0,0-.04363.83,1.14456,1.14456,0,0,0-.06472.83319A1.09417,1.09417,0,0,0,.16,20.09554l.00373.00315a1.113,1.113,0,0,0-.07423.92763l.00732.00534a1.19911,1.19911,0,0,0-.00358.90442c.002.00439.00819.004.01149.00747a1.12548,1.12548,0,0,0,.065.8356v.00008a1.07546,1.07546,0,0,0,.13485.95317l.00571.00293a1.21637,1.21637,0,0,0,.25432,1.00948.04115.04115,0,0,0,.033.01574l.01193-.00147.00066-.0008a1.218,1.218,0,0,0,.40931.75544.04449.04449,0,0,0,.04722.00527l.00535-.00981a1.29351,1.29351,0,0,0,.43778.59716,1.1765,1.1765,0,0,0,.55207.71884l.00285.00073A1.31386,1.31386,0,0,0,2.636,27.379l.01112.00235a1.22913,1.22913,0,0,0,.6386.5763,1.2246,1.2246,0,0,0,.68391.644.98994.98994,0,0,0,.42476.428c-.13383.13141-.2413.239-.28207.28581a.69034.69034,0,0,0-.10491.8468A8.17894,8.17894,0,0,0,6.07722,32.131a.92418.92418,0,0,0,.371.0779.70906.70906,0,0,0,.43464-.13412c.06691-.05308.19766-.169.35916-.316a1.21629,1.21629,0,0,0,.34833.21633l.00651.0011a1.29464,1.29464,0,0,0,.59445.56846.03436.03436,0,0,0,.01728.00374l.01032-.004a1.16613,1.16613,0,0,0,.68809.554L8.919,33.1l.0038-.00183a1.10191,1.10191,0,0,0,.60851.5722,1.144,1.144,0,0,0,.6845.64922,1.19652,1.19652,0,0,0,.65463.558l.00747.00125c.12138.40894.68435.50712.74182.51583a1.08237,1.08237,0,0,0,.81774.37768l.00307-.002a1.37753,1.37753,0,0,0,.75742.27607.799.799,0,0,0,.45426.1298,1.37467,1.37467,0,0,0,.27812-.02935.76015.76015,0,0,0,.4645.14781,1.03091,1.03091,0,0,0,.3088-.04722c.00446-.00154.00432-.00747.00783-.01025a.97187.97187,0,0,0,.507.12716,1.60277,1.60277,0,0,0,.4279-.06c.005-.00153.00483-.008.00872-.01113a.90407.90407,0,0,0,.29407.05081,1.259,1.259,0,0,0,.44958-.08631,1.13525,1.13525,0,0,0,.416.07738,1.62515,1.62515,0,0,0,.37021-.04349.04218.04218,0,0,0,.03112-.03631,1.06763,1.06763,0,0,0,.22519.031,1.5552,1.5552,0,0,0,.52461-.09817c.00505-.00183.00424-.00857.008-.01208a.9113.9113,0,0,0,.351.078,1.5215,1.5215,0,0,0,.54848-.11084.95209.95209,0,0,0,.40323.09884,1.55012,1.55012,0,0,0,.48149-.07988.94694.94694,0,0,0,.504.13083,1.61439,1.61439,0,0,0,.44964-.06669l.00571-.0074a.98233.98233,0,0,0,.37652.08309,1.553,1.553,0,0,0,.48332-.08089l.00432-.006a.883.883,0,0,0,.557.18281,1.56071,1.56071,0,0,0,.47659-.0787.8363.8363,0,0,0,.45111.13045,1.53739,1.53739,0,0,0,.586-.12965.04048.04048,0,0,0,.019-.03258.86776.86776,0,0,0,.23962.03485,1.65489,1.65489,0,0,0,.72542-.20388c.00864-.0052.00864-.01574.01208-.0246a.8393.8393,0,0,0,.14231.01413,1.55843,1.55843,0,0,0,.78385-.269c.00922-.006.008-.01771.0101-.02811.016.001.03258.0071.04839.0071a1.27281,1.27281,0,0,0,.80493-.38054,1.31654,1.31654,0,0,0,.71737-.42519,1.24642,1.24642,0,0,0,.75734-.5252l-.00007-.00373a1.30482,1.30482,0,0,0,.5771-.54329l-.00059-.00541a1.20229,1.20229,0,0,0,.6121-.61247,1.23483,1.23483,0,0,0,.67015-.65,1.03274,1.03274,0,0,0,.47974-.45177c.03008.02606.06976.06186.08741.07548a.76157.76157,0,0,0,.47885.19334,1.17636,1.17636,0,0,0,.383-.087l.0172-.006A8.22325,8.22325,0,0,0,33.285,30.42009a.71915.71915,0,0,0-.06069-.77264c-.03836-.04378-.11223-.12028-.2014-.21062h.00051l.03075.0008a1.09194,1.09194,0,0,0,.84622-.5607,1.05155,1.05155,0,0,0,.60909-.55405,1.11214,1.11214,0,0,0,.64153-.59313c.00278-.00652-.00337-.01245-.004-.01933a1.21321,1.21321,0,0,0,.60353-.63267c.00315-.00732-.00329-.014-.00454-.0216a1.24159,1.24159,0,0,0,.4692-.59592.04127.04127,0,0,0-.00974-.04275l-.00373-.00095a.93488.93488,0,0,0,.37914-.77543l-.00395-.00673a1.35656,1.35656,0,0,0,.34415-.81306.04036.04036,0,0,0-.02247-.03975c-.00513-.00242-.01069.0019-.01647.00161a1.38852,1.38852,0,0,0,.17533-.69929.04128.04128,0,0,0-.02694-.03822c-.0071-.00227-.01281.00352-.01977.00454a1.07723,1.07723,0,0,0,.05652-.6588c-.00278-.00952-.01266-.013-.02042-.0186a.94574.94574,0,0,0,.00314-.66334.03976.03976,0,0,0-.02533-.01933,1.208,1.208,0,0,0,.04107-.80727.04064.04064,0,0,0-.031-.02467,1.10789,1.10789,0,0,0,.00424-.76474,1.12291,1.12291,0,0,0,.11743-.87953c-.0022-.00813-.01142-.00988-.01743-.01516a1.29621,1.29621,0,0,0,.07138-.83992l-.00366-.00307a1.14866,1.14866,0,0,0,.06121-.82961,1.1585,1.1585,0,0,0,.07891-.82982,1.0932,1.0932,0,0,0,.06326-.84138A1.09964,1.09964,0,0,0,37.50789,15.91386ZM22.087,35.87041l-.00937-.00666A1.52315,1.52315,0,0,0,21.063,35.7453c-.01435.003-.0216.01647-.02643.03a1.31217,1.31217,0,0,0-.968-.09817c-.005.00124-.00446.00835-.00834.01135a1.35874,1.35874,0,0,0-.81671-.03756c-.007.00183-.00674.0112-.01216.01589a1.55406,1.55406,0,0,0-.95156-.03163c-.00615.00154-.00637.00952-.01091.01355a1.47275,1.47275,0,0,0-.91986.05161l-.0022.00373a1.37727,1.37727,0,0,0-.85939-.00856,1.264,1.264,0,0,0-.70317-.00938.04266.04266,0,0,0-.02475.00974c-.01068.00747-.00761.02087-.00878.03295a1.39312,1.39312,0,0,0-.73684-.01348.04268.04268,0,0,0-.02834.029,1.34951,1.34951,0,0,0-.77652-.04774c-.0131.00315-.01859.01626-.02467.02782a1.16006,1.16006,0,0,0-.66254-.14019l-.00219.00036a.993.993,0,0,0-.68414-.20864,1.04482,1.04482,0,0,0-.70829-.34782.05553.05553,0,0,0-.02928.009l-.00725.011a1.37321,1.37321,0,0,0-.63647-.358c-.01208-.00256-.01377.00908-.02182.0131a1.46721,1.46721,0,0,0-.56041-.49269.0448.0448,0,0,0-.03887.00461,1.10613,1.10613,0,0,0-.68582-.57637.03482.03482,0,0,0-.02621.00073.98218.98218,0,0,0-.5771-.59577.03992.03992,0,0,0-.02321-.00154l-.00944.00242-.004-.0279a.97159.97159,0,0,0-.59357-.60851.04448.04448,0,0,0-.02621-.00073.03184.03184,0,0,0-.02424.01764c-.10556-.39906-.62512-.62857-.648-.63816a.03709.03709,0,0,0-.03185,0,.94946.94946,0,0,0-.42395-.50858c.05147-.04846.10388-.09788.15769-.1489a17.78069,17.78069,0,0,0,10.91487,3.697c.04949,0,.09964,0,.14913-.00073a17.72722,17.72722,0,0,0,10.38909-3.429c.1336.1284.25593.24495.36985.35271a1.13841,1.13841,0,0,0-.2066.39416c-.00146.00725.00418.01252.00615.01925a1.57043,1.57043,0,0,0-.62469.61606,1.8394,1.8394,0,0,0-.6637.63193c-.0022.00352.0019.00725.0008.0112a1.64536,1.64536,0,0,0-.64233.57184l.00015.00256a1.60958,1.60958,0,0,0-.66283.50653,1.79959,1.79959,0,0,0-.624.39613l-.00125.008a1.45564,1.45564,0,0,0-.73442.34548c-.01523-.00059-.03266-.00418-.04744-.00418a1.05712,1.05712,0,0,0-.75537.30572l-.00051.00264a1.3913,1.3913,0,0,0-.91606.1757l-.00366.00864a1.93489,1.93489,0,0,0-.93377.08953l-.0022.0033A1.60315,1.60315,0,0,0,22.087,35.87041ZM16.66925.7789a2.00472,2.00472,0,0,0,.43925-.05A.924.924,0,0,0,17.582.85014a1.80476,1.80476,0,0,0,.45492-.0615c.00512-.00139.00424-.00864.00856-.01171a1.10481,1.10481,0,0,0,.58421.14883,2.10662,2.10662,0,0,0,.37394-.03294c.01384-.00264.01823-.01669.02336-.02921A1.10894,1.10894,0,0,0,19.44355.952,1.74985,1.74985,0,0,0,19.816.91156a.041.041,0,0,0,.02877-.03565A.95.95,0,0,0,20.28662.982a2.14684,2.14684,0,0,0,.49833-.06442l.00754-.00227c.00623-.00241.0033-.011.00754-.01559A1.3386,1.3386,0,0,0,21.10949.934a2.00819,2.00819,0,0,0,.40169-.042.04242.04242,0,0,0,.03221-.03821h0a1.11621,1.11621,0,0,0,.33793.05842,1.55461,1.55461,0,0,0,.386-.04868.04154.04154,0,0,0,.02921-.03,1.03658,1.03658,0,0,0,.52234.13046A2.10815,2.10815,0,0,0,23.21752.9243.0491.0491,0,0,0,23.255.91756l.00051-.00183a1.18033,1.18033,0,0,0,.42439.07973,1.31156,1.31156,0,0,0,.17914-.01194c.01267-.00249.01676-.01537.02291-.02591a1.09809,1.09809,0,0,0,.65229.22l.03148-.00073a.03481.03481,0,0,0,.01721-.00454.04146.04146,0,0,0,.021-.02548.05577.05577,0,0,0,.00044-.01479,1.05819,1.05819,0,0,0,.73171.30331h.0052a.04094.04094,0,0,0,.024-.00747l.008-.01025a1.16525,1.16525,0,0,0,.60654.24481h.003l.00476-.00315a1.55112,1.55112,0,0,0,.603.38757l.01648.00227c.00571,0,.00959-.005.01478-.0071a1.0128,1.0128,0,0,0,.64321.50924l.01047.00073.01421-.00227.00358-.00154.00923.04276c.08463.41516.57476.59731.59577.60477l.00593.001c.00183.00988.00095.01837.003.02825a.94236.94236,0,0,0,.57922.59131c.10887.39657.612.59065.63333.59878l.015.00219H29.14a.03915.03915,0,0,0,.02562-.01,1.02713,1.02713,0,0,0,.50272.57513.03894.03894,0,0,0,.018.00373h.003c.02087-.00146.03558-.00285.04554-.06574a.69767.69767,0,0,0,.04334.1402c-.09115.087-.1899.182-.28969.27812A17.76441,17.76441,0,0,0,18.83731,1.82879c-.05249,0-.10571,0-.15739.00081A17.72016,17.72016,0,0,0,8.25313,5.28329c-.1473-.1418-.28281-.27116-.40807-.38976a1.85736,1.85736,0,0,0,.22036-.29943.04348.04348,0,0,0-.00373-.04722h-.001a1.016,1.016,0,0,0,.43786-.55155h0a1.52362,1.52362,0,0,0,.74343-.60851c.00278-.00425-.002-.00923-.0011-.01413a1.5413,1.5413,0,0,0,.6487-.61613,1.70431,1.70431,0,0,0,.61964-.50206c.00417-.00556-.0011-.01215,0-.01867a1.84952,1.84952,0,0,0,.58977-.42571c.00549-.00615.00066-.01413.0019-.02167a1.71129,1.71129,0,0,0,.72294-.40067,1.16035,1.16035,0,0,0,.73428-.32856l.00285-.01274a1.02494,1.02494,0,0,0,.12226.01721,1.82626,1.82626,0,0,0,.80266-.22856.041.041,0,0,0,.01691-.0388c.02042.0011.04048.005.061.005A2.01837,2.01837,0,0,0,14.22621.668c.00893-.00366.00959-.01405.01412-.02189A1.12938,1.12938,0,0,0,14.55147.692,2.4149,2.4149,0,0,0,15.173.59954,1.1332,1.1332,0,0,0,15.65084.701a2.30558,2.30558,0,0,0,.47959-.05322L16.135.643A1.00017,1.00017,0,0,0,16.66925.7789Zm7.67466,10.47068c.3372.38523,1.63291,1.579,1.64565,1.591a.79415.79415,0,0,0,.53735.26905.78276.78276,0,0,0,.28039-.07043,8.85826,8.85826,0,0,1-.05146,10.64462.86654.86654,0,0,0-.12329-.08177.68982.68982,0,0,0-.87081.18507l-.066.06069c-.32073.29825-1.29718,1.20582-1.58123,1.53182l-.00073.00073c-.10279.12109-.15425.33281.07108.67513a9.96977,9.96977,0,0,1-5.26969,1.53636H18.826A9.97161,9.97161,0,0,1,13.18,25.85853a.63536.63536,0,0,0,.04576-.066c.1634-.31927.11318-.53809-.19034-.83561-.18881-.18734-1.29792-1.271-1.6734-1.56622h-.00074c-.11823-.09452-.32284-.14349-.64987.037a8.88225,8.88225,0,0,1,.17446-10.43335c.01764.01128.03975.02724.052.03287a.81076.81076,0,0,0,.332.08317.79684.79684,0,0,0,.54035-.26978c.13485-.12438,1.32266-1.22448,1.64192-1.591.09949-.115.15513-.30982-.03-.61956a9.97734,9.97734,0,0,1,5.32306-1.56718h.08837a9.99589,9.99589,0,0,1,5.50425,1.63848A.46011.46011,0,0,0,24.34391,11.24958Zm-22.9002.34994c0-.0134-.01405-.01742-.02379-.02511a1.114,1.114,0,0,0,.19839-.56612.04264.04264,0,0,0-.00373-.02028c-.00615-.01172-.01962-.013-.0317-.01582a1.682,1.682,0,0,0,.36063-.64884l-.00132-.00447a1.00221,1.00221,0,0,0,.51846-.58757.04669.04669,0,0,0,.00073-.02248l-.00651-.01632a1.0705,1.0705,0,0,0,.52131-.50829.04209.04209,0,0,0,.003-.02175c-.00183-.01837-.00527-.031-.04378-.03726a.96575.96575,0,0,0,.61107-.551l.00146-.00834a.92219.92219,0,0,0,.60039-.53435,1.07635,1.07635,0,0,0,.70141-.53047l-.00227-.01062c.14685.14415.31435.30653.49877.48318a15.8743,15.8743,0,0,0-.25462,20.38753c-.0686.06486-.14166.13339-.20535.19393a1.181,1.181,0,0,0-.34979-.14415c-.00813-.0019-.01347.00491-.02035.0074a1.51536,1.51536,0,0,0-.66671-.64168,1.83707,1.83707,0,0,0-.65588-.627l-.0022.00037a1.68963,1.68963,0,0,0-.61561-.61474A1.60169,1.60169,0,0,0,2.049,25.909a1.67594,1.67594,0,0,0-.42783-.58772,1.33542,1.33542,0,0,0-.42761-.72557.9918.9918,0,0,0-.34781-.669,1.27883,1.27883,0,0,0-.19057-.81825,1.27122,1.27122,0,0,0-.04846-.8862,1.36506,1.36506,0,0,0,.03514-.95317c-.0022-.00615-.01018-.00586-.0145-.0104a1.70407,1.70407,0,0,0,.03617-.86115c-.00139-.00615-.00857-.00718-.01215-.01194a1.30691,1.30691,0,0,0,.0377-.79065c-.00132-.00505-.00805-.00447-.011-.00842a1.10458,1.10458,0,0,0,.07958-.86979,1.18518,1.18518,0,0,0,.13821-.84315C.893,17.861.88118,17.85462.86968,17.849a1.25613,1.25613,0,0,0,.04356-.81913,1.33665,1.33665,0,0,0,.04781-.85822L.95336,16.1654a1.349,1.349,0,0,0,.07438-.84131c-.00176-.00769-.01113-.00791-.01618-.01355a1.51528,1.51528,0,0,0,.01545-.84226c-.00212-.00791-.01149-.00937-.01757-.01472a1.37976,1.37976,0,0,0,.04305-.7722.04493.04493,0,0,0-.03785-.03295,1.45573,1.45573,0,0,0,.0918-.69021c-.0008-.00732-.00988-.00812-.01384-.01384a1.03434,1.03434,0,0,0,.11575-.5842.036.036,0,0,0-.02951-.03324A1.14916,1.14916,0,0,0,1.44371,11.59952ZM34.39639,27.7072a.04374.04374,0,0,0-.00227.02774c.004.0145.01068.0249.04194.03126a.96558.96558,0,0,0-.622.54131l-.001.0101a1.00042,1.00042,0,0,0-.63676.51847.75063.75063,0,0,0-.49782.2593q-.18-.176-.39511-.38237a15.862,15.862,0,0,0,.08207-20.65767c.05132-.0489.09729-.09342.14656-.14071.03463.0194.06655.03573.07072.03756a.03433.03433,0,0,0,.01728.00373l.0019-.00014.00183.00915a.90387.90387,0,0,0,.63633.533,1.60818,1.60818,0,0,0,.6367.60748,1.85222,1.85222,0,0,0,.64994.64168.04332.04332,0,0,0,.016.00388,1.6237,1.6237,0,0,0,.58494.61663l.00329.00088a1.61585,1.61585,0,0,0,.51341.63685,1.69033,1.69033,0,0,0,.42388.59994,1.15082,1.15082,0,0,0,.40389.72447.99354.99354,0,0,0,.33544.67484,1.2634,1.2634,0,0,0,.17321.8184,1.25223,1.25223,0,0,0,.03544.88817,1.34877,1.34877,0,0,0-.05623.95171c.00176.00586.00937.00579.01325.01018a1.557,1.557,0,0,0-.05227.81642.04184.04184,0,0,0,.03236.02907,1.27186,1.27186,0,0,0-.069.817c.00117.00468.00776.00432.01039.00812a1.091,1.091,0,0,0-.10183.87089l.002.00169a1.18374,1.18374,0,0,0-.12123.86013c.00256.011.01449.01318.0232.0194a1.25948,1.25948,0,0,0-.0899.80793c.00249.00974.01333.012.02094.01816a1.26967,1.26967,0,0,0-.08463.85119c.00161.00586.00922.00652.013.01113a1.26292,1.26292,0,0,0-.08646.81994,1.40429,1.40429,0,0,0-.02474.84907.04194.04194,0,0,0,.03521.03h.00015a1.179,1.179,0,0,0-.078.76283.04277.04277,0,0,0,.03616.03331,1.22434,1.22434,0,0,0-.08038.633.04573.04573,0,0,0,.02753.02979,1.25418,1.25418,0,0,0-.137.62813.04083.04083,0,0,0,.02921.03675l.01164.00205a1.18867,1.18867,0,0,0-.21918.65515c-.00044.0112.0101.017.01669.02577a1.228,1.228,0,0,0-.204.63369c-.00037.00681.00688.01018.00981.016a1.42647,1.42647,0,0,0-.40777.60748c-.00249.0082.00461.0145.00636.02262a.97354.97354,0,0,0-.56765.59863.04152.04152,0,0,0,.00073.027l.00622.00922A1.076,1.076,0,0,0,34.39639,27.7072Z"/><polygon class="cls-1" points="1.513 18.474 1.513 18.474 1.513 18.473 1.513 18.474"/><path class="cls-2" d="M5.26183,29.616s-.5632-.24005-.592-.622a1.81787,1.81787,0,0,0-.14129-.5416.90762.90762,0,0,1,.64306.4998C5.29016,29.30871,5.2,29.51194,5.26183,29.616Z"/><path class="cls-2" d="M4.68275,29.11551s-.66949-.20967-.725-.70983a1.77079,1.77079,0,0,0-.12943-.59306s.5804.28954.67315.68435A3.42447,3.42447,0,0,0,4.68275,29.11551Z"/><path class="cls-2" d="M4,28.56813s-.67806-.25916-.70281-.7643a1.37215,1.37215,0,0,0-.12445-.61729s.618.35169.68567.751A3.20511,3.20511,0,0,0,4,28.56813Z"/><path class="cls-2" d="M3.322,27.92682s-.65712-.2522-.68172-.75646a1.876,1.876,0,0,0-.088-.59973s.57806.3361.64395.735A3.21708,3.21708,0,0,0,3.322,27.92682Z"/><path class="cls-2" d="M2.65407,27.34072s-.63179-.30265-.60873-.80655a1.90949,1.90949,0,0,0-.03748-.60331s.52885.36824.565.77133A3.24339,3.24339,0,0,0,2.65407,27.34072Z"/><path class="cls-2" d="M2.08311,26.78858s-.60279-.35046-.53259-.85076a1.95911,1.95911,0,0,0,.01684-.60764s.49218.41232.48852.81613A4.06587,4.06587,0,0,0,2.08311,26.78858Z"/><path class="cls-2" d="M1.5424,26.07794s-.55675-.40507-.44321-.89681c.10711-.45477.057-.56268.057-.56268s.47571.41612.42519.81972A4.052,4.052,0,0,0,1.5424,26.07794Z"/><path class="cls-2" d="M1.04736,25.48143s-.52622-.451-.3686-.931a1.79911,1.79911,0,0,0,.13851-.59226.93662.93662,0,0,1,.32336.88839A3.361,3.361,0,0,0,1.04736,25.48143Z"/><path class="cls-2" d="M.59771,24.71882s-.46677-.58933-.22248-1.0403a1.82134,1.82134,0,0,0,.23537-.56217,1.18924,1.18924,0,0,1,.16443.93012A3.71894,3.71894,0,0,0,.59771,24.71882Z"/><path class="cls-2" d="M.34009,23.70876s-.38515-.5673-.09392-.99059c.26091-.391.31377-.49716.31377-.49716a1.24995,1.24995,0,0,1,.048.89534A3.83725,3.83725,0,0,0,.34009,23.70876Z"/><path class="cls-2" d="M.20715,22.76026a.96845.96845,0,0,1,.04048-.97287,1.94455,1.94455,0,0,0,.35375-.50528,1.30208,1.30208,0,0,1-.04144.9389A4.00915,4.00915,0,0,0,.20715,22.76026Z"/><path class="cls-2" d="M.13211,21.9199a1.07287,1.07287,0,0,1,.08024-.99168c.29473-.34943.41011-.52191.41011-.52191a1.42774,1.42774,0,0,1-.11538.98114A3.62688,3.62688,0,0,0,.13211,21.9199Z"/><path class="cls-2" d="M.1294,21.01175s-.23251-.63348.145-.98364c.35009-.3235.37388-.4219.37388-.4219a1.1192,1.1192,0,0,1-.11787.88854A3.71917,3.71917,0,0,0,.1294,21.01175Z"/><path class="cls-2" d="M.19946,20.08163a.97137.97137,0,0,1,.16552-.954c.35009-.32578.35163-.39972.35163-.39972a1.04058,1.04058,0,0,1-.09313.8662C.45811,19.78682.27186,19.99693.19946,20.08163Z"/><path class="cls-2" d="M.26132,19.24507s-.20667-.64489.193-.97938a2.10018,2.10018,0,0,0,.40074-.383,1.09408,1.09408,0,0,1-.16816.85955A3.25638,3.25638,0,0,0,.26132,19.24507Z"/><path class="cls-2" d="M.32721,18.41562s-.222-.63736.16457-.982c.354-.31839.37834-.4006.37834-.4006s.16985.59028-.10454.89681A4.31447,4.31447,0,0,0,.32721,18.41562Z"/><path class="cls-2" d="M.36381,17.56581s-.23287-.66224.16655-.99527c.36714-.30689.39057-.38779.39057-.38779s.17065.62923-.11538.9277A3.62584,3.62584,0,0,0,.36381,17.56581Z"/><path class="cls-2" d="M.40115,16.71264s-.19151-.64973.20945-.97375c.37505-.30272.376-.40507.376-.40507s.14363.62045-.14591.91533A3.46744,3.46744,0,0,0,.40115,16.71264Z"/><path class="cls-2" d="M.50708,15.85163A.86753.86753,0,0,1,.608,14.93337a2.20957,2.20957,0,0,0,.37864-.45389,1.288,1.288,0,0,1-.09159.94878C.73967,15.62681.58585,15.743.50708,15.85163Z"/><path class="cls-2" d="M.46469,15.03784s-.21852-.63845.169-.97968c.362-.31406.37768-.36707.37768-.36707a1.15072,1.15072,0,0,1-.133.89366A3.348,3.348,0,0,0,.46469,15.03784Z"/><path class="cls-2" d="M.45657,14.20992s-.23632-.567.18243-.86679c.39452-.28178.4252-.3798.4252-.3798a1.1526,1.1526,0,0,1-.23127.87506A2.20914,2.20914,0,0,0,.45657,14.20992Z"/><path class="cls-2" d="M.46469,13.48655s-.16537-.61371.27761-.88422a2.39249,2.39249,0,0,1,.42424-.23653.87411.87411,0,0,1-.27153.74475A2.65559,2.65559,0,0,0,.46469,13.48655Z"/><path class="cls-2" d="M.50708,12.78719s-.02686-.70962.45-.92829c.43939-.20667.44466-.25967.44466-.25967a1.01054,1.01054,0,0,1-.35272.7796A3.13721,3.13721,0,0,0,.50708,12.78719Z"/><path class="cls-2" d="M.61323,12.09309s.02431-.72066.52359-.89461c.45755-.155.43955-.19268.43955-.19268a.90034.90034,0,0,1-.40887.72264A2.703,2.703,0,0,0,.61323,12.09309Z"/><path class="cls-2" d="M.89238,11.29285s-.02592-.69687.48083-.821a3.16451,3.16451,0,0,0,.53018-.15959s-.17995.64592-.58069.78289A1.5692,1.5692,0,0,0,.89238,11.29285Z"/><path class="cls-2" d="M1.2194,10.50769s.19239-.63407.71239-.724a2.44072,2.44072,0,0,1,.4886-.06472.92217.92217,0,0,1-.54672.59014A6.32584,6.32584,0,0,0,1.2194,10.50769Z"/><path class="cls-2" d="M1.67066,9.85137s.24656-.63055.77564-.667a2.01318,2.01318,0,0,1,.49123-.01669.93537.93537,0,0,1-.60858.53186A3.97063,3.97063,0,0,0,1.67066,9.85137Z"/><path class="cls-2" d="M2.26277,9.18912a1.00195,1.00195,0,0,1,.75331-.60829,2.15094,2.15094,0,0,1,.49138-.02225.91284.91284,0,0,1-.60609.5361A6.1727,6.1727,0,0,0,2.26277,9.18912Z"/><path class="cls-2" d="M2.89873,8.58632a.95326.95326,0,0,1,.73684-.57761,2.60365,2.60365,0,0,1,.49021-.02856.93215.93215,0,0,1-.59621.54907C3.27378,8.58083,3.01257,8.53427,2.89873,8.58632Z"/><path class="cls-2" d="M3.47678,8.04026a1.00983,1.00983,0,0,1,.818-.54541,1.84293,1.84293,0,0,0,.51736-.01369,1.02511,1.02511,0,0,1-.6864.51451A4.91271,4.91271,0,0,0,3.47678,8.04026Z"/><path class="cls-2" d="M4.13866,7.50049s.33347-.592.86364-.56136a2.39749,2.39749,0,0,1,.48464.04553.9447.9447,0,0,1-.67476.45214A3.76508,3.76508,0,0,0,4.13866,7.50049Z"/><path class="cls-2" d="M7.227,4.67075s.25849-.519.65763-.56385a3.55926,3.55926,0,0,0,.57278-.12182.89279.89279,0,0,1-.53911.59372C7.54988,4.6985,7.33429,4.61431,7.227,4.67075Z"/><path class="cls-2" d="M6.67241,5.38124s.21062-.64409.73552-.7088a4.31537,4.31537,0,0,0,.62066-.0992,1.39046,1.39046,0,0,1-.70946.621A3.40542,3.40542,0,0,0,6.67241,5.38124Z"/><path class="cls-2" d="M7.78657,4.11005s.25725-.62674.786-.65581a2.30452,2.30452,0,0,0,.63325-.08982,1.43553,1.43553,0,0,1-.76.6025A3.79312,3.79312,0,0,0,7.78657,4.11005Z"/><path class="cls-2" d="M8.42934,3.46s.27043-.60764.79233-.63714a2.25378,2.25378,0,0,0,.63252-.08931s-.32087.56612-.73947.63333A5.79007,5.79007,0,0,0,8.42934,3.46Z"/><path class="cls-2" d="M9.00446,2.8603s.3077-.60243.83656-.592a2.20541,2.20541,0,0,0,.6345-.03894,1.40759,1.40759,0,0,1-.80288.54086A4.28328,4.28328,0,0,0,9.00446,2.8603Z"/><path class="cls-2" d="M9.54189,2.2922s.36384-.57564.89036-.52176a2.10787,2.10787,0,0,0,.63516.01084,1.45075,1.45075,0,0,1-.853.4779A3.74957,3.74957,0,0,0,9.54189,2.2922Z"/><path class="cls-2" d="M10.23744,1.74445s.43215-.56348.94886-.45945a1.868,1.868,0,0,0,.617.06449,1.4263,1.4263,0,0,1-.89073.42359A3.86172,3.86172,0,0,0,10.23744,1.74445Z"/><path class="cls-2" d="M10.92677,1.26384s.4823-.55082.98612-.40558c.46546.13456.61407.17285.61407.17285a1.09427,1.09427,0,0,1-.94483.31077A4.35334,4.35334,0,0,0,10.92677,1.26384Z"/><path class="cls-2" d="M11.77753.79369s.59855-.43361,1.07389-.208a1.90213,1.90213,0,0,0,.61305.21259,1.55559,1.55559,0,0,1-1.04088.18676A4.99055,4.99055,0,0,0,11.77753.79369Z"/><path class="cls-2" d="M12.58.464s.64775-.39686,1.0911-.12519a3.02731,3.02731,0,0,0,.5394.2902,1.53162,1.53162,0,0,1-.98575.06589A3.47771,3.47771,0,0,0,12.58.464Z"/><path class="cls-2" d="M13.50774.23467s.70419-.3219,1.11745-.01a2.10971,2.10971,0,0,0,.5375.33376A1.68093,1.68093,0,0,1,14.10431.55188,3.74014,3.74014,0,0,0,13.50774.23467Z"/><path class="cls-2" d="M14.50506.13445s.76656-.2555,1.15713.08419c.35916.31531.4585.38756.4585.38756A1.5723,1.5723,0,0,1,15.10258.526,4.33932,4.33932,0,0,0,14.50506.13445Z"/><path class="cls-2" d="M15.66709.21007a1.04471,1.04471,0,0,1,.98773.13009c.34467.32944.4487.34694.4487.34694a1.41369,1.41369,0,0,1-.98283-.09576C15.91666.43621,15.7589.26168,15.66709.21007Z"/><path class="cls-2" d="M16.599.28248A1.08445,1.08445,0,0,1,17.601.41572c.34532.32636.42424.3328.42424.3328a1.28175,1.28175,0,0,1-.94483-.07775C16.87738.519,16.69113.36008,16.599.28248Z"/><path class="cls-2" d="M17.4782.31864s.69065-.2197,1.04681.15059c.35228.36839.47043.38259.47043.38259A1.44563,1.44563,0,0,1,18.008.71433,3.65226,3.65226,0,0,0,17.4782.31864Z"/><path class="cls-2" d="M18.37149.351A1.10949,1.10949,0,0,1,19.3814.51316c.341.33551.4249.35682.4249.35682a1.25887,1.25887,0,0,1-.91715-.11633A4.38427,4.38427,0,0,0,18.37149.351Z"/><path class="cls-2" d="M19.23908.39112a1.31029,1.31029,0,0,1,1.05215.17314c.37864.35228.48662.3115.48662.3115S20.0842,1.064,19.76794.79237A3.76038,3.76038,0,0,0,19.23908.39112Z"/><path class="cls-2" d="M20.03274.37743s.72923-.18485,1.09205.181a1.2278,1.2278,0,0,0,.377.292s-.651.14891-.9676-.12284A2.49009,2.49009,0,0,0,20.03274.37743Z"/><path class="cls-2" d="M20.87654.38321a.99812.99812,0,0,1,.96994.07943c.36179.31539.40967.36012.40967.36012A1.2184,1.2184,0,0,1,21.3704.73432C21.1548.59017,20.99272.457,20.87654.38321Z"/><path class="cls-2" d="M21.80094.393A1.16515,1.16515,0,0,1,22.926.60328c.33273.33851.306.27446.306.27446A1.39114,1.39114,0,0,1,22.24956.766,3.35391,3.35391,0,0,0,21.80094.393Z"/><path class="cls-2" d="M22.644.37992s.588-.23456.9102.16113a2.25435,2.25435,0,0,1,.2984.40074,1.06274,1.06274,0,0,1-.81437-.20747A2.50139,2.50139,0,0,0,22.644.37992Z"/><path class="cls-2" d="M23.43766.39178s.64907-.1167.90522.32438a2.03342,2.03342,0,0,1,.22051.4189A.98223.98223,0,0,1,23.80114.8292,3.106,3.106,0,0,0,23.43766.39178Z"/><path class="cls-2" d="M24.193.54544s.70551-.02643.94351.42278c.21984.41378.20432.42483.20432.42483a.97852.97852,0,0,1-.74973-.3298A3.58534,3.58534,0,0,0,24.193.54544Z"/><path class="cls-2" d="M24.89722.65789s.68494.0112.85991.48479c.16376.43954.22584.47783.22584.47783a1.0278,1.0278,0,0,1-.79987-.51A2.03345,2.03345,0,0,0,24.89722.65789Z"/><path class="cls-2" d="M25.68721.97942s.70976.0391.80383.53633a2.714,2.714,0,0,0,.11289.49043s-.58164-.19254-.70778-.58026A1.422,1.422,0,0,0,25.68721.97942Z"/><path class="cls-2" d="M26.51315,1.40118a.96728.96728,0,0,1,.685.64724,2.09944,2.09944,0,0,1,.0776.4615.95079.95079,0,0,1-.62959-.51582C26.60159,1.85046,26.56469,1.61458,26.51315,1.40118Z"/><path class="cls-2" d="M27.175,1.96057s.66986.22365.7121.72776a1.70489,1.70489,0,0,1,.02511.468s-.48757-.17709-.56883-.57373A3.25329,3.25329,0,0,0,27.175,1.96057Z"/><path class="cls-2" d="M27.871,2.62164s.57015.19349.62168.69343a1.886,1.886,0,0,1,.027.46964s-.48135-.17219-.57147-.569A4.40733,4.40733,0,0,0,27.871,2.62164Z"/><path class="cls-2" d="M28.48173,3.23125a.9069.9069,0,0,1,.617.67608,1.9141,1.9141,0,0,1,.03631.46781s-.52388-.19562-.61539-.59043C28.46518,3.54144,28.54447,3.33462,28.48173,3.23125Z"/><path class="cls-2" d="M29.076,3.68617s.63713.2872.63347.79a1.60925,1.60925,0,0,1-.02342.468.92.92,0,0,1-.50675-.62242A3.45932,3.45932,0,0,0,29.076,3.68617Z"/><path class="cls-2" d="M29.66756,4.17769s.62556.3107.59979.8143a1.94922,1.94922,0,0,1-.0426.464.92085.92085,0,0,1-.47959-.64226A3.35668,3.35668,0,0,0,29.66756,4.17769Z"/><path class="cls-2" d="M32.57035,7.28789s.552.24957.57512.63216a1.94174,1.94174,0,0,0,.13068.54314.89482.89482,0,0,1-.63216-.51078C32.5314,7.59361,32.62584,7.395,32.57035,7.28789Z"/><path class="cls-2" d="M33.10909,7.75343s.62366.21633.66986.718a1.92577,1.92577,0,0,0,.11889.59761s-.5741-.30214-.65961-.69827A3.90479,3.90479,0,0,0,33.10909,7.75343Z"/><path class="cls-2" d="M33.74,8.30981s.64906.26692.69958.79315a2.77249,2.77249,0,0,0,.10857.60741s-.62066-.36678-.67777-.76921A3.22407,3.22407,0,0,0,33.74,8.30981Z"/><path class="cls-2" d="M34.41249,8.9613s.646.26443.66422.76679a1.84024,1.84024,0,0,0,.07262.60346s-.551-.33662-.60748-.74A3.69652,3.69652,0,0,0,34.41249,8.9613Z"/><path class="cls-2" d="M35.06119,9.55985s.6233.31231.59453.81445a1.84618,1.84618,0,0,0,.02511.6058s-.51832-.37885-.54475-.78282A3.68145,3.68145,0,0,0,35.06119,9.55985Z"/><path class="cls-2" d="M35.625,10.11843s.59453.36217.51927.86167a1.806,1.806,0,0,0-.03463.60493s-.48068-.41861-.46912-.82236A3.7063,3.7063,0,0,0,35.625,10.11843Z"/><path class="cls-2" d="M36.146,10.84042s.55426.4148.43046.90486c-.11918.45382-.06706.56092-.06706.56092a1.05234,1.05234,0,0,1-.39679-.8375A2.88381,2.88381,0,0,0,36.146,10.84042Z"/><path class="cls-2" d="M36.63752,11.44344s.54108.47176.37373.94959a3.56654,3.56654,0,0,0-.17629.57908.93519.93519,0,0,1-.30506-.89454A3.92462,3.92462,0,0,0,36.63752,11.44344Z"/><path class="cls-2" d="M37.10137,12.27817s.42651.53544.17328.98143a2.05777,2.05777,0,0,0-.24957.55595,1.179,1.179,0,0,1-.14393-.92983A4.0053,4.0053,0,0,0,37.10137,12.27817Z"/><path class="cls-2" d="M37.3054,13.23076s.375.56993.08155.99022c-.26018.37219-.32417.49255-.32417.49255a1.23063,1.23063,0,0,1-.034-.898A3.1302,3.1302,0,0,0,37.3054,13.23076Z"/><path class="cls-2" d="M37.41133,14.17969a.95119.95119,0,0,1-.04883.97389,1.96815,1.96815,0,0,0-.3618.49717,1.29043,1.29043,0,0,1,.06208-.93722A3.55663,3.55663,0,0,0,37.41133,14.17969Z"/><path class="cls-2" d="M37.48432,15.02386s.25184.62542-.12182.98627a2.06482,2.06482,0,0,0-.40008.46992,1.31393,1.31393,0,0,1,.13367-.93194A3.407,3.407,0,0,0,37.48432,15.02386Z"/><path class="cls-2" d="M37.46851,15.92843s.22511.63911-.16311.98487c-.3566.31517-.38.41188-.38.41188a1.11159,1.11159,0,0,1,.13471-.88605A3.6869,3.6869,0,0,0,37.46851,15.92843Z"/><path class="cls-2" d="M37.35723,16.82721s.22614.63823-.16047.98224c-.35389.32029-.36348.39291-.36348.39291a1.02754,1.02754,0,0,1,.11552-.86349A3.84425,3.84425,0,0,0,37.35723,16.82721Z"/><path class="cls-2" d="M37.30276,17.69378s.19115.6487-.2093.974c-.37336.30419-.37864.39848-.37864.39848a1.07925,1.07925,0,0,1,.15513-.88A3.65663,3.65663,0,0,0,37.30276,17.69378Z"/><path class="cls-2" d="M37.22253,18.52126s.20732.64175-.18588.97865c-.36216.3118-.38823.394-.38823.394a1.11129,1.11129,0,0,1,.14957-.86935A3.31681,3.31681,0,0,0,37.22253,18.52126Z"/><path class="cls-2" d="M37.16974,19.36982s.17856.669-.21823,1.00216a1.51376,1.51376,0,0,0-.36714.39071s-.15015-.61041.14327-.90471A3.22378,3.22378,0,0,0,37.16974,19.36982Z"/><path class="cls-2" d="M37.11593,20.22541a.98739.98739,0,0,1-.23309.96811c-.37871.29657-.36714.42257-.36714.42257s-.14459-.61986.15125-.9094A3.49821,3.49821,0,0,0,37.11593,20.22541Z"/><path class="cls-2" d="M36.99009,21.08137a.96336.96336,0,0,1-.12936.96335,2.99521,2.99521,0,0,0-.37475.39716,1.21437,1.21437,0,0,1,.08887-.92931C36.7422,21.30392,36.9201,21.17859,36.99009,21.08137Z"/><path class="cls-2" d="M37.02508,21.89582s.20535.64379-.1918.97733a2.29151,2.29151,0,0,0-.38984.3629,1.03026,1.03026,0,0,1,.15352-.841A3.383,3.383,0,0,0,37.02508,21.89582Z"/><path class="cls-2" d="M37.01125,22.725a.74714.74714,0,0,1-.20235.86606c-.39284.27138-.40836.31428-.40836.31428a.98777.98777,0,0,1,.22607-.81327A2.182,2.182,0,0,0,37.01125,22.725Z"/><path class="cls-2" d="M37.02611,23.40223s.16574.62989-.29445.87917a1.62288,1.62288,0,0,0-.44108.286,1.01488,1.01488,0,0,1,.29877-.79871A2.41661,2.41661,0,0,0,37.02611,23.40223Z"/><path class="cls-2" d="M37.01557,24.08527s.02606.71108-.45068.9329a1.782,1.782,0,0,0-.45228.246.99274.99274,0,0,1,.36187-.76818A3.08176,3.08176,0,0,0,37.01557,24.08527Z"/><path class="cls-2" d="M36.87918,24.81919s-.04319.7345-.53713.91789a1.57838,1.57838,0,0,0-.41729.18719s.01457-.60316.39855-.777A3.12513,3.12513,0,0,0,36.87918,24.81919Z"/><path class="cls-2" d="M36.53912,25.64213s.0126.68574-.5044.79365a3.13376,3.13376,0,0,0-.509.12416s.1809-.5629.584-.69365A1.36047,1.36047,0,0,0,36.53912,25.64213Z"/><path class="cls-2" d="M36.17535,26.44654a1.05129,1.05129,0,0,1-.7263.67821,2.41184,2.41184,0,0,1-.48427.05652.91766.91766,0,0,1,.5596-.58187C35.67914,26.55994,35.9446,26.5188,36.17535,26.44654Z"/><path class="cls-2" d="M35.71187,27.06172s-.25257.6274-.78538.65485a2.05152,2.05152,0,0,1-.49086.00754.94052.94052,0,0,1,.62058-.52491A3.47668,3.47668,0,0,0,35.71187,27.06172Z"/><path class="cls-2" d="M35.11171,27.71357a1.0073,1.0073,0,0,1-.77023.59753,2.00824,2.00824,0,0,1-.48859.01288.91375.91375,0,0,1,.6137-.52527A5.415,5.415,0,0,0,35.11171,27.71357Z"/><path class="cls-2" d="M34.47355,28.29975a.97481.97481,0,0,1-.75961.56876c-.484.03565-.50741,0-.50741,0a.98746.98746,0,0,1,.62652-.51451C34.089,28.30583,34.36066,28.34909,34.47355,28.29975Z"/><path class="cls-2" d="M33.87038,28.84589a1.06883,1.06883,0,0,1-.84548.549c-.48691-.019-.47168-.05776-.47168-.05776a.85921.85921,0,0,1,.67146-.46334A2.8122,2.8122,0,0,0,33.87038,28.84589Z"/><path class="cls-2" d="M31.96887,6.66606s.64013.27482.64277.78062a1.90889,1.90889,0,0,1-.01194.46744.922.922,0,0,1-.51729-.61649A3.6329,3.6329,0,0,0,31.96887,6.66606Z"/><path class="cls-2" d="M30.79526,31.45739s-.23573.55792-.63647.58684a3.24427,3.24427,0,0,0-.584.10879.8574.8574,0,0,1,.52622-.61078C30.474,31.42591,30.68267,31.51486,30.79526,31.45739Z"/><path class="cls-2" d="M31.29279,30.96982s-.28662.51546-.68773.52161a2.34337,2.34337,0,0,0-.574.10249.86655.86655,0,0,1,.55755-.57791C30.97323,30.921,31.18056,31.02165,31.29279,30.96982Z"/><path class="cls-2" d="M30.31523,31.98691s-.21823.63765-.74607.69314a2.21008,2.21008,0,0,0-.62.12416s.3044-.5517.7184-.64146A4.15978,4.15978,0,0,0,30.31523,31.98691Z"/><path class="cls-2" d="M29.73916,32.6411s-.25982.61686-.78473.673a2.83645,2.83645,0,0,0-.66715.11933s.37205-.59541.79293-.65932A3.64278,3.64278,0,0,0,29.73916,32.6411Z"/><path class="cls-2" d="M29.069,33.29127s-.26472.62249-.795.64489a2.13685,2.13685,0,0,0-.62922.0809s.345-.53113.76261-.59468A4.13005,4.13005,0,0,0,29.069,33.29127Z"/><path class="cls-2" d="M28.45237,33.9202s-.31428.60068-.84944.58172a2.21478,2.21478,0,0,0-.62827.03368,1.41054,1.41054,0,0,1,.80814-.53187A3.93773,3.93773,0,0,0,28.45237,33.9202Z"/><path class="cls-2" d="M27.87724,34.46407s-.37468.57579-.89534.51254a4.33846,4.33846,0,0,0-.62791-.048,1.43268,1.43268,0,0,1,.84586-.436A3.53383,3.53383,0,0,0,27.87724,34.46407Z"/><path class="cls-2" d="M27.13015,34.97726s-.42915.536-.94248.42608c-.47608-.10139-.57579-.1164-.57579-.1164a1.28988,1.28988,0,0,1,.84351-.34547A3.88894,3.88894,0,0,0,27.13015,34.97726Z"/><path class="cls-2" d="M26.41344,35.4018a1.11984,1.11984,0,0,1-.98246.34416,5.715,5.715,0,0,0-.615-.16326,1.04222,1.04222,0,0,1,.928-.27336A4.364,4.364,0,0,0,26.41344,35.4018Z"/><path class="cls-2" d="M25.55017,35.80474s-.60148.4211-1.07287.19313a2.016,2.016,0,0,0-.58736-.22893,1.30958,1.30958,0,0,1,.97089-.15205A5.25592,5.25592,0,0,0,25.55017,35.80474Z"/><path class="cls-2" d="M24.61559,36.08206s-.66591.38149-1.11453.0847a2.16513,2.16513,0,0,0-.55594-.296,1.66282,1.66282,0,0,1,1.036-.04422A3.35461,3.35461,0,0,0,24.61559,36.08206Z"/><path class="cls-2" d="M23.63445,36.28214a1.14227,1.14227,0,0,1-1.04747-.0235,1.95193,1.95193,0,0,0-.52095-.3375,1.43119,1.43119,0,0,1,.98377.013A4.3734,4.3734,0,0,0,23.63445,36.28214Z"/><path class="cls-2" d="M22.60279,36.279a1.1421,1.1421,0,0,1-1.02806-.11457,2.1339,2.1339,0,0,0-.5028-.37754,1.50334,1.50334,0,0,1,.98121.11128C22.24356,36.03747,22.469,36.19033,22.60279,36.279Z"/><path class="cls-2" d="M21.56316,36.18177a1.13,1.13,0,0,1-1.03554-.11919c-.34737-.32731-.448-.34532-.448-.34532a1.288,1.288,0,0,1,.9356.09407A3.9768,3.9768,0,0,0,21.56316,36.18177Z"/><path class="cls-2" d="M20.69857,36.18623s-.67081.216-1.03422-.14876c-.33449-.34086-.40975-.34613-.40975-.34613a1.18267,1.18267,0,0,1,.90457.10791A3.724,3.724,0,0,0,20.69857,36.18623Z"/><path class="cls-2" d="M19.75637,36.11888a1.1506,1.1506,0,0,1-1.02535-.10007,2.20015,2.20015,0,0,0-.44006-.3435,1.42782,1.42782,0,0,1,.98414.06C19.48338,35.88527,19.67621,36.06339,19.75637,36.11888Z"/><path class="cls-2" d="M18.873,36.09787a1.14054,1.14054,0,0,1-1.04549-.04458c-.37205-.30023-.46253-.31326-.46253-.31326s.61905-.24181.97023-.01516A5.156,5.156,0,0,0,18.873,36.09787Z"/><path class="cls-2" d="M17.95,36.14956a1.14056,1.14056,0,0,1-1.0419-.08236,2.004,2.004,0,0,0-.414-.32952,1.2435,1.2435,0,0,1,.926.05184A3.95069,3.95069,0,0,0,17.95,36.14956Z"/><path class="cls-2" d="M17.17446,36.25022a1.13579,1.13579,0,0,1-1.02111-.2055c-.31392-.35338-.37-.31472-.37-.31472s.56876-.175.87411.10344A3.573,3.573,0,0,0,17.17446,36.25022Z"/><path class="cls-2" d="M16.399,36.21208a.99423.99423,0,0,1-.96964-.0932c-.3555-.31809-.40441-.363-.40441-.363a1.20737,1.20737,0,0,1,.87916.09663C16.11447,36.00021,16.27846,36.13667,16.399,36.21208Z"/><path class="cls-2" d="M15.63378,36.264a1.1336,1.1336,0,0,1-1.03165-.16611c-.32717-.34481-.38361-.36019-.38361-.36019a1.1696,1.1696,0,0,1,.88406.12768A3.52282,3.52282,0,0,0,15.63378,36.264Z"/><path class="cls-2" d="M14.68925,36.20761a.79631.79631,0,0,1-.85369-.20974,2.31727,2.31727,0,0,0-.31164-.37124.9845.9845,0,0,1,.77249.2235A2.26064,2.26064,0,0,0,14.68925,36.20761Z"/><path class="cls-2" d="M13.95541,36.09787s-.68868.18112-.90457-.28024a1.29115,1.29115,0,0,0-.23309-.39782.93523.93523,0,0,1,.74643.26458A3.02227,3.02227,0,0,0,13.95541,36.09787Z"/><path class="cls-2" d="M13.20238,36.00446s-.71012-.02577-.9069-.494a2.34254,2.34254,0,0,1-.17065-.44027.967.967,0,0,1,.71905.38712A3.4387,3.4387,0,0,0,13.20238,36.00446Z"/><path class="cls-2" d="M12.4378,35.73s-.6695-.00513-.84813-.47527c-.168-.44189-.14487-.52308-.14487-.52308a1.18274,1.18274,0,0,1,.7137.48435A3.20118,3.20118,0,0,0,12.4378,35.73Z"/><path class="cls-2" d="M11.634,35.35444s-.71942-.09971-.74219-.607a2.67108,2.67108,0,0,0-.03858-.49877s.5506.26619.61663.667A1.25737,1.25737,0,0,0,11.634,35.35444Z"/><path class="cls-2" d="M10.88424,34.83809s-.58962-.20088-.6804-.695a2.21047,2.21047,0,0,1-.06838-.464s.53413.16355.65829.55149C10.83636,34.37578,10.83636,34.62367,10.88424,34.83809Z"/><path class="cls-2" d="M10.25106,34.28793s-.66759-.23324-.7039-.7375a2.02547,2.02547,0,0,1-.01779-.46693s.48.18185.55821.581A3.02327,3.02327,0,0,0,10.25106,34.28793Z"/><path class="cls-2" d="M9.56568,33.63872s-.59526-.219-.64145-.72309a2.44111,2.44111,0,0,1-.02577-.46765s.487.17958.56751.57725A5.52511,5.52511,0,0,0,9.56568,33.63872Z"/><path class="cls-2" d="M8.919,33.05773s-.655-.19825-.7042-.70185A1.844,1.844,0,0,1,8.199,31.826s.54072.23259.62989.6274A4.40859,4.40859,0,0,0,8.919,33.05773Z"/><path class="cls-2" d="M8.20854,32.50654s-.6405-.29283-.62593-.79556a2.47291,2.47291,0,0,1,.03067-.46751s.51861.24181.55.64724A3.935,3.935,0,0,0,8.20854,32.50654Z"/><path class="cls-2" d="M7.60443,31.9353s-.59365-.20748-.55829-.71181a2.56868,2.56868,0,0,1,.04356-.46429.90977.90977,0,0,1,.4757.647A2.61949,2.61949,0,0,0,7.60443,31.9353Z"/><path class="cls-3" d="M1.55426,18.47272C1.47307,9.38239,9.13917,1.95032,18.68021,1.8714,28.21957,1.78992,36.01759,9.09468,36.106,18.18289c.08119,9.08864-7.58637,16.519-17.12507,16.60059C9.43822,34.86094,1.63449,27.55844,1.55426,18.47272Zm17.36066,9.161a9.53874,9.53874,0,0,0,9.68533-9.38631,9.56038,9.56038,0,0,0-9.8554-9.22665,9.53089,9.53089,0,0,0-9.68292,9.38844A9.55335,9.55335,0,0,0,18.91492,27.6337Z"/><path class="cls-4" d="M13.39946,11.20353c-.30506.3506-1.42852,1.39353-1.63643,1.58629a.62383.62383,0,0,1-.79658.17351C10.66959,12.8265,8.33856,10.5981,7.201,9.5955c-1.0703-.94644-2.55688-2.37928-2.80183-2.65989a.64822.64822,0,0,1-.05147-.69819,8.24365,8.24365,0,0,1,2.026-1.93988.71218.71218,0,0,1,.81672.09063c.269.21142,2.0155,1.8953,3.08639,2.99746.81408.84277,2.62782,2.7328,2.85594,2.97842C13.55232,10.82292,13.51235,11.07432,13.39946,11.20353Z"/><path class="cls-4" d="M24.39669,11.20353c.30638.3506,1.43116,1.39353,1.64039,1.58629a.61523.61523,0,0,0,.7897.17351c.30337-.13683,2.63008-2.36523,3.7714-3.36783,1.06694-.94644,2.55388-2.37928,2.80308-2.65989a.65485.65485,0,0,0,.04656-.69819A8.2782,8.2782,0,0,0,31.4261,4.29754a.70967.70967,0,0,0-.815.09063c-.27109.21142-2.0188,1.8953-3.08808,2.99746-.81408.84277-2.63243,2.7328-2.85689,2.97842C24.24749,10.82292,24.28315,11.07432,24.39669,11.20353Z"/><path class="cls-4" d="M11.31836,23.4455c.36971.29064,1.46571,1.361,1.66777,1.561.28888.28339.32321.46956.17731.75478-.14232.28361-2.47335,2.50359-3.52909,3.58606C8.639,30.36965,7.13494,31.78654,6.83918,32.02a.75436.75436,0,0,1-.73326.04714,8.24445,8.24445,0,0,1-2.03329-1.92861.62614.62614,0,0,1,.09312-.77813c.22255-.25587,1.991-1.92137,3.14386-2.9375.88934-.78077,2.87607-2.50586,3.12828-2.7222C10.92253,23.29989,11.18264,23.33869,11.31836,23.4455Z"/><path class="cls-4" d="M24.167,25.42528c.306-.351,1.43372-1.39316,1.642-1.58731a.62538.62538,0,0,1,.795-.17248c.29679.13749,2.62716,2.36442,3.76445,3.36885,1.07192.94615,2.55849,2.37957,2.80315,2.65916a.65415.65415,0,0,1,.05147.69526,8.28376,8.28376,0,0,1-2.027,1.94135.70528.70528,0,0,1-.81473-.08909c-.2727-.21129-2.01638-1.89633-3.08867-2.99695-.81576-.84337-2.62782-2.7353-2.85659-2.97842C24.01806,25.80458,24.05832,25.55369,24.167,25.42528Z"/><path class="cls-5" d="M6.82856,12.78587,6.683,12.68521l-.06471.16274-.11194.276-.03038.0888.0713.06171.05118.04342a.40874.40874,0,0,1,.11486.12928.3097.3097,0,0,1,.04063.13793.25045.25045,0,0,1-.02606.14466.35769.35769,0,0,1-.12943.17.4815.4815,0,0,1-.21158.09693.79269.79269,0,0,1-.27175.00856,1.22323,1.22323,0,0,1-.28456-.06867,1.279,1.279,0,0,1-.21457-.0951,1.11883,1.11883,0,0,1-.16838-.12591,1.0088,1.0088,0,0,1-.11552-.16033.386.386,0,0,1-.04195-.168.35506.35506,0,0,1,.02474-.163.36339.36339,0,0,1,.29847-.22622c.03661-.005.0779-.01039.11919-.013l.09012-.0049.0366-.084.106-.27285.071-.17789-.20176-.00447a1.51239,1.51239,0,0,0-.41495.0492.81113.81113,0,0,0-.36582.21853.96406.96406,0,0,0-.21355.32563,1.01541,1.01541,0,0,0-.0697.33625.87081.87081,0,0,0,.05455.35477.97456.97456,0,0,0,.19144.31655,1.28464,1.28464,0,0,0,.2869.24562,1.64515,1.64515,0,0,0,.33866.16376,1.78267,1.78267,0,0,0,.36978.09042,1.43139,1.43139,0,0,0,.38756,0,1.20316,1.20316,0,0,0,.36085-.11487,1.033,1.033,0,0,0,.28851-.22511,1.07968,1.07968,0,0,0,.18061-.29731,1.0142,1.0142,0,0,0,.065-.40323.70064.70064,0,0,0-.14627-.40938A1.17738,1.17738,0,0,0,6.82856,12.78587Z"/><path class="cls-5" d="M8.10883,10.76926a1.613,1.613,0,0,0-.35953-.29393,1.55163,1.55163,0,0,0-.42951-.18442,1.27214,1.27214,0,0,0-.46912-.04392.99071.99071,0,0,0-.44767.146.97925.97925,0,0,0-.31494.3022.88591.88591,0,0,0-.15513.40653.90588.90588,0,0,0,.04356.44057,1.23366,1.23366,0,0,0,.242.39174,1.631,1.631,0,0,0,.36179.29328,1.66738,1.66738,0,0,0,.4282.18492,1.246,1.246,0,0,0,.46809.0429A1.08636,1.08636,0,0,0,7.924,12.3095a.99853.99853,0,0,0,.31487-.3044.88914.88914,0,0,0,.1552-.40192.849.849,0,0,0-.05015-.44335A1.18387,1.18387,0,0,0,8.10883,10.76926Zm-.246.76459a.47572.47572,0,0,1-.068.2014.43934.43934,0,0,1-.22944.16918.63117.63117,0,0,1-.336.01289,1.10333,1.10333,0,0,1-.3503-.13968,1.01162,1.01162,0,0,1-.22219-.17709.78274.78274,0,0,1-.15052-.21458.42151.42151,0,0,1-.04063-.21955.36854.36854,0,0,1,.06574-.19942.4115.4115,0,0,1,.23273-.17.607.607,0,0,1,.33339-.01487,1.14968,1.14968,0,0,1,.35294.14415,1.13722,1.13722,0,0,1,.21955.17541.73014.73014,0,0,1,.15052.21048A.52829.52829,0,0,1,7.86285,11.53385Z"/><polygon class="cls-5" points="8.976 7.763 8.872 7.669 8.777 7.766 8.596 7.943 8.495 8.038 8.597 8.133 9.475 8.955 7.841 8.72 7.761 8.703 7.709 8.758 7.51 8.952 7.408 9.048 7.511 9.144 9.074 10.609 9.177 10.705 9.274 10.608 9.453 10.432 9.556 10.335 9.453 10.241 8.574 9.414 10.205 9.653 10.289 9.667 10.343 9.616 10.542 9.421 10.643 9.324 10.539 9.229 8.976 7.763"/><polygon class="cls-5" points="12.05 6.816 11.974 6.703 11.855 6.775 11.194 7.172 10.982 6.85 11.874 6.311 11.997 6.235 11.92 6.121 11.78 5.912 11.703 5.8 11.585 5.872 10.349 6.618 10.229 6.692 10.305 6.804 11.481 8.568 11.558 8.684 11.675 8.612 11.896 8.48 12.014 8.406 11.939 8.293 11.481 7.602 12.141 7.204 12.259 7.131 12.181 7.017 12.05 6.816"/><polygon class="cls-5" points="15.042 6.555 14.99 6.428 14.857 6.479 13.86 6.845 13.697 6.444 14.661 6.087 14.468 5.612 13.508 5.969 13.357 5.612 14.314 5.258 14.447 5.21 14.395 5.084 14.302 4.853 14.25 4.728 14.12 4.775 12.787 5.268 12.655 5.317 12.706 5.44 13.499 7.391 13.552 7.516 13.682 7.469 15.055 6.962 15.189 6.913 15.137 6.787 15.042 6.555"/><path class="cls-5" d="M17.296,5.60094l-.10037.01618-.01486.09422-.0112.06472a.52974.52974,0,0,1-.0634.15828.31686.31686,0,0,1-.10073.10483.42681.42681,0,0,1-.36443.03419.50879.50879,0,0,1-.1954-.1298.60118.60118,0,0,1-.14495-.21919,1.10978,1.10978,0,0,1-.08653-.26838,1.267,1.267,0,0,1-.0175-.21985.64238.64238,0,0,1,.02745-.203.48578.48578,0,0,1,.08449-.17505.45681.45681,0,0,1,.12511-.12262.48068.48068,0,0,1,.16538-.063.38241.38241,0,0,1,.35557.12943.80419.80419,0,0,1,.071.09327l.05308.07108.09085-.013.3014-.05168.1951-.03236-.09707-.1667a1.16141,1.16141,0,0,0-.25718-.316.82726.82726,0,0,0-.38259-.19217,1.10629,1.10629,0,0,0-.40441-.00381,1.03023,1.03023,0,0,0-.33646.11142.95.95,0,0,0-.29342.22483,1.00041,1.00041,0,0,0-.18785.31838,1.08249,1.08249,0,0,0-.07431.36165,1.524,1.524,0,0,0,.02416.36122,1.44481,1.44481,0,0,0,.10491.34906,1.27039,1.27039,0,0,0,.19385.31165,1.08958,1.08958,0,0,0,.29313.23917.92139.92139,0,0,0,.35023.1227,1.15628,1.15628,0,0,0,.36216-.00132,1.08019,1.08019,0,0,0,.39086-.15059.806.806,0,0,0,.30081-.32849,1.16561,1.16561,0,0,0,.11253-.41758l.01317-.17182L17.6,5.54926Z"/><polygon class="cls-5" points="18.461 4.082 18.321 4.082 18.317 4.216 18.309 4.475 18.309 4.611 18.449 4.614 19.055 4.624 19.022 6.32 19.022 6.455 19.163 6.459 19.42 6.464 19.565 6.466 19.568 6.328 19.6 4.634 20.209 4.645 20.351 4.647 20.351 4.511 20.356 4.252 20.36 4.117 20.217 4.115 18.461 4.082"/><polygon class="cls-5" points="21.319 4.282 21.181 4.262 21.155 4.393 20.809 6.455 20.783 6.59 20.925 6.612 21.209 6.655 21.345 6.677 21.37 6.545 21.724 4.483 21.745 4.347 21.607 4.326 21.319 4.282"/><path class="cls-5" d="M24.44091,6.31846a1.3914,1.3914,0,0,0,.08485-.44489,1.06848,1.06848,0,0,0-.06633-.44664.98177.98177,0,0,0-.25388-.37483,1.07338,1.07338,0,0,0-.38757-.21992,1.09016,1.09016,0,0,0-.44994-.04554.99859.99859,0,0,0-.43581.15089,1.20311,1.20311,0,0,0-.34525.31509,1.586,1.586,0,0,0-.29686.84285,1.21294,1.21294,0,0,0,.073.448.92577.92577,0,0,0,.25257.3752,1.0687,1.0687,0,0,0,.38361.22138,1.12636,1.12636,0,0,0,.45023.045.99342.99342,0,0,0,.43911-.149,1.13539,1.13539,0,0,0,.33873-.3167A1.39717,1.39717,0,0,0,24.44091,6.31846Zm-.47044-.53083a.9695.9695,0,0,1-.05973.35952,1.171,1.171,0,0,1-.12278.24869.9482.9482,0,0,1-.18192.18756.53012.53012,0,0,1-.21457.09378.48669.48669,0,0,1-.22256-.0142.43611.43611,0,0,1-.22775-.176.58253.58253,0,0,1-.09575-.30126,1.00242,1.00242,0,0,1,.06208-.3593,1.07472,1.07472,0,0,1,.12482-.2503.76147.76147,0,0,1,.18419-.18844.4813.4813,0,0,1,.21355-.09129.43676.43676,0,0,1,.21655.01237.40847.40847,0,0,1,.23112.17577A.50273.50273,0,0,1,23.97047,5.78763Z"/><polygon class="cls-5" points="27.451 6.68 27.33 6.609 27.108 6.485 26.985 6.416 26.916 6.529 26.284 7.535 26.162 5.996 26.162 5.921 26.093 5.884 25.844 5.743 25.726 5.673 25.65 5.789 24.529 7.586 24.459 7.704 24.581 7.773 24.807 7.899 24.926 7.967 25.001 7.853 25.627 6.839 25.748 8.387 25.751 8.46 25.818 8.5 26.066 8.641 26.188 8.709 26.257 8.594 27.381 6.795 27.451 6.68"/><polygon class="cls-5" points="28.343 9.853 27.555 9.169 27.859 8.851 28.6 9.499 28.962 9.121 28.22 8.473 28.493 8.19 29.25 8.851 29.357 8.941 29.451 8.843 29.626 8.659 29.72 8.561 29.615 8.468 28.558 7.55 28.459 7.46 28.36 7.56 26.879 9.103 26.787 9.204 26.891 9.295 27.977 10.239 28.083 10.331 28.181 10.23 28.352 10.047 28.452 9.945 28.343 9.853"/><path class="cls-5" d="M30.34,11.417a.66569.66569,0,0,0,.3503.0309.79384.79384,0,0,0,.32746-.128.81586.81586,0,0,0,.22087-.23.6267.6267,0,0,0,.09708-.3014.72852.72852,0,0,0-.0429-.28757,1.07945,1.07945,0,0,0-.13141-.23961l-.43977-.58582-.08287-.11222-.11289.08-1.786,1.21175-.11984.07775.08521.11062.14788.19971.08287.1107.11384-.0787.66327-.44782.1096.14876-.45258.8337-.03734.07248.05023.06852.18616.256.14393.19012.1033-.21208.40111-.82748A1.19146,1.19146,0,0,0,30.34,11.417Zm.1836-1.13913.171.22783c.02306.03367.04356.06237.064.09817a.21423.21423,0,0,1,.03368.10418.13831.13831,0,0,1-.02043.089.33308.33308,0,0,1-.07987.08851.26156.26156,0,0,1-.13873.04172.16824.16824,0,0,1-.11618-.03982.5568.5568,0,0,1-.12182-.122s-.09773-.13067-.16969-.23185Z"/><polygon class="cls-5" points="33.143 14.128 32.867 13.512 31.782 13.164 32.281 12.148 32.008 11.534 31.148 13.139 30.341 13.469 30.211 13.52 30.265 13.646 30.368 13.88 30.428 14.003 30.56 13.951 31.363 13.621 33.143 14.128"/><path class="cls-5" d="M4.524,24.455l.71437,1.30949s.139-.40982.30044-.49965c.16773-.08814,2.10724-1.08064,2.27357-1.1597a1.0361,1.0361,0,0,1,.66092.04026L7.75955,22.7935s-.07628.39379-.2585.48442c-.18192.08734-2.18483,1.11124-2.35284,1.18533A.96689.96689,0,0,1,4.524,24.455Z"/><path class="cls-5" d="M9.11574,25.29307l2.22466,2.07268-3.4878.71174s.74812.74929.85046.82667a1.25446,1.25446,0,0,0,.645.11194l-.72132.65646L6.43865,27.55134,9.88,26.83572s-.71371-.69358-.81708-.7971a2.13979,2.13979,0,0,0-.7088-.12445Z"/><path class="cls-5" d="M12.1585,27.88378a1.07292,1.07292,0,0,1,.09869.59687c-.07789.20528-.73684,1.68446-.90354,2.02217-.16735.33771-.1776,1.08386.81276,1.53a1.31239,1.31239,0,0,0,1.81967-.39943c.241-.48032.858-1.81572.94812-1.9778.09078-.16114.5949-.35346.5949-.35346l-1.30861-.48544s.24855.39057.12944.6375c-.08749.18683-.78209,1.68731-.91848,1.91016a.6653.6653,0,0,1-.85434.1809c-.29188-.136-.46385-.35982-.33178-.68436.141-.32138.77118-1.759.85734-1.93461a.7171.7171,0,0,1,.50412-.33969Z"/><path class="cls-5" d="M16.31484,29.49825a.79736.79736,0,0,1,.19247.58238c-.04854.23434-.38266,2.2049-.42688,2.385a.95694.95694,0,0,1-.412.4708l1.139.20828a.8692.8692,0,0,1-.171-.56751l.3017-1.784.82308,1.08963,1.05142-.88494s-.06472,1.578-.07789,1.78322c-.01223.20169-.33178.49884-.33178.49884l1.53181-.01274a.69916.69916,0,0,1-.28163-.496c-.00293-.39371.04092-2.21866.03865-2.46925,0-.24643.34928-.55742.34928-.55742H18.47647s.21992.276.20374.363a6.65923,6.65923,0,0,1-.74643.72235,7.23591,7.23591,0,0,1-.58633-.84248c0-.08785.25352-.29386.25352-.29386Z"/><path class="cls-5" d="M21.03437,29.56363s.44958.1992.49811.38771c.04356.18954.46254,2.08293.52528,2.3918a1.10184,1.10184,0,0,1-.237.70317l1.65063-.39284s-.446-.24429-.512-.49452c-.06238-.24547-.486-2.16866-.52886-2.4022a.81051.81051,0,0,1,.198-.55953Z"/><path class="cls-5" d="M23.14783,29.07613l1.58365-.7878a1.57562,1.57562,0,0,0-.02446.39613,8.207,8.207,0,0,0,.95574.50148s.23339-1.15545.204-1.21175c-.032-.06091-.34-.15959-.34-.15959l1.29674-.85772a3.36864,3.36864,0,0,0-.22189.71774c-.02138.1637-.3364,1.96068-.3364,1.96068s.50609.94117.57645,1.06152c.098.16026.583.18529.583.18529l-1.46051.81445s.213-.38178.102-.57007c-.08053-.1372-.57637-1.01622-.57637-1.01622s-1.43145-.74987-1.62-.85134A2.70838,2.70838,0,0,0,23.14783,29.07613Z"/><path class="cls-5" d="M28.81446,24.78017s.07731.49452.23244.59789a1.72872,1.72872,0,0,0,.26413.11179c.44694.10044,2.0778.51876,2.31815.56664a1.81616,1.81616,0,0,0,.82725-.24035L31.4545,27.2697s-.01552-.38083-.13961-.40784c-.12152-.02826-.32621-.08441-.32621-.08441l-1.15018,1.2507s.07628.19019.1265.29071c.04583.10264.53281.04239.53281.04239l-1.15347,1.08949a2.32834,2.32834,0,0,0-.02577-1.00889c-.11655-.33-.73318-1.71755-.8979-2.07972a1.10971,1.10971,0,0,0-.08682-.1642,2.06717,2.06717,0,0,0-.62828-.13764Zm.7547,2.62094.72594-.78355-1.17653-.29188Z"/><rect class="cls-5" x="44.77954" y="3.85367" width="3.35309" height="28.94746"/><path class="cls-5" d="M85.4634,3.85367V29.40952c-.962.07226-1.95049.11406-2.95469.11406-.9993,0-1.988-.0418-2.95463-.11406V3.85367H76.19945V32.378a38.62308,38.62308,0,0,0,6.30926.56451,38.58737,38.58737,0,0,0,6.31035-.56451V3.85367Z"/><rect class="cls-5" x="103.75915" y="9.12616" width="3.352" height="23.67497"/><path class="cls-5" d="M105.4365,3.69891a26.69428,26.69428,0,0,0-8.09319,1.00523V5.83741h0V32.80114h3.3547V7.49061a30.87106,30.87106,0,0,1,9.477,0V32.80114h3.352V4.70414A26.67466,26.67466,0,0,0,105.4365,3.69891Z"/><path class="cls-5" d="M67.862,4.08889a35.134,35.134,0,0,0-11.24855,0v3.4269a33.54887,33.54887,0,0,1,5.62965-.45733c.73853,0,1.47706.02027,2.19523.06632L56.61348,29.09831V32.521a34.37287,34.37287,0,0,0,5.62965.45528A34.31192,34.31192,0,0,0,67.862,32.521V29.09831a33.66408,33.66408,0,0,1-5.6189.45419c-.74863,0-1.48239-.02248-2.20643-.06794L67.862,7.51579Z"/><polygon class="cls-5" points="125.175 8.525 125.175 3.854 121.818 3.854 121.818 10.501 125.175 8.525"/><polygon class="cls-5" points="121.818 14.64 121.818 32.801 125.175 32.801 125.175 12.659 121.818 14.64"/><path class="cls-5" d="M146.554,3.8312h-3.293c-.21106,7.74563-1.93336,13.77971-3.9411,17.58847-2.01419-3.80876-3.73166-9.84284-3.94967-17.58847h-3.28765c.16494,9.08769,2.426,16.86817,5.523,21.31369v7.65625h3.35573V25.2408C144.09373,20.8064,146.386,12.98587,146.554,3.8312Z"/><path class="cls-5" d="M159.70873,3.70484a38.12813,38.12813,0,0,0-6.31086.5719v28.5244h3.3536V19.82049l4.05239-2.45651V13.41649l-4.05239,2.471V7.24c.965-.07123,1.95152-.11193,2.95726-.11193,1.00244,0,1.9879.0407,2.95294.11193V32.80114H166.018V4.27674A38.18938,38.18938,0,0,0,159.70873,3.70484Z"/></g></g></svg>