<?xml version="1.0" encoding="UTF-8"?>
<svg version="1.1" xmlns="http://www.w3.org/2000/svg" width="408" height="112">
<path d="M0 0 C1.11751693 0.00037972 2.23503386 0.00075944 3.38641495 0.00115067 C4.67029557 -0.00084038 5.95417619 -0.00283143 7.27696228 -0.00488281 C8.72035249 -0.00202921 10.16374252 0.00091639 11.60713238 0.00394398 C13.12592215 0.00350841 14.64471185 0.00263377 16.16350114 0.00135481 C20.35703046 -0.00089298 24.55053449 0.003135 28.74406058 0.00813287 C33.25874094 0.01243314 37.77341977 0.01099125 42.28810161 0.0102306 C50.11673934 0.00970509 57.94536876 0.01285466 65.7740044 0.01846844 C77.09303395 0.02657986 88.41205947 0.02919829 99.73109161 0.03045643 C118.09345558 0.03264752 136.45581512 0.03930913 154.81817669 0.04875904 C172.66029886 0.0579317 190.50241982 0.06501325 208.34454387 0.06926686 C209.99297135 0.06966094 209.99297135 0.06966094 211.67470039 0.07006299 C217.18756797 0.07136798 222.70043555 0.0726317 228.21330315 0.07387489 C273.98093008 0.08424926 319.74855218 0.10186911 365.51617473 0.1241985 C365.51617473 8.1241985 365.51617473 8.1241985 359.51617473 35.1241985 C237.74617473 35.1241985 115.97617473 35.1241985 -9.48382527 35.1241985 C-9.48382527 29.96523908 -9.30022778 26.42716868 -8.20648152 21.569511 C-7.94029011 20.37841725 -7.6740987 19.1873235 -7.39984089 17.960136 C-7.11818074 16.73552662 -6.83652058 15.51091725 -6.54632527 14.2491985 C-6.2685323 13.001386 -5.99073933 11.7535735 -5.70452839 10.4679485 C-3.37657049 0.16883836 -3.37657049 0.16883836 0 0 Z " fill="#CBFA04" transform="translate(20.483825266361237,65.8758015036583)"/>
<path d="M0 0 C4.62 0 9.24 0 14 0 C13.24500956 7.02655879 11.90464202 13.88962146 10.5 20.8125 C10.27441406 21.94365234 10.04882812 23.07480469 9.81640625 24.24023438 C8.13375235 32.59874295 8.13375235 32.59874295 7 36 C11.95 36 16.9 36 22 36 C22.33 37.65 22.66 39.3 23 41 C25.1510338 37.37484467 27.3014736 33.7493378 29.45141602 30.12353516 C30.17945182 28.89590458 30.90763646 27.66836225 31.63598633 26.44091797 C32.69654058 24.65356566 33.75653407 22.86588183 34.81640625 21.078125 C35.16619537 20.48874146 35.5159845 19.89935791 35.87637329 19.29211426 C37.60706445 16.37132545 39.32540418 13.44440319 41.01904297 10.50195312 C41.64053223 9.42365234 42.26202148 8.34535156 42.90234375 7.234375 C43.45269287 6.27241211 44.00304199 5.31044922 44.57006836 4.31933594 C46 2 46 2 48 0 C50.74485593 -0.14507695 53.38480543 -0.18652423 56.125 -0.125 C56.87910156 -0.11597656 57.63320313 -0.10695313 58.41015625 -0.09765625 C60.27357254 -0.0740687 62.13682593 -0.03819719 64 0 C66.26339487 9.27648956 67.7817476 18.62396654 69.1875 28.0625 C69.36635742 29.25206299 69.54521484 30.44162598 69.72949219 31.66723633 C69.89481445 32.7992749 70.06013672 33.93131348 70.23046875 35.09765625 C70.37895264 36.11351807 70.52743652 37.12937988 70.68041992 38.17602539 C71 41 71 41 71 46 C66.71 46 62.42 46 58 46 C56 39.25 56 39.25 56 37 C50.72 37 45.44 37 40 37 C39.34 38.98 38.68 40.96 38 43 C37.34 43.99 36.68 44.98 36 46 C34.05111694 46.36076355 34.05111694 46.36076355 31.64208984 46.34057617 C30.74130707 46.34034958 29.84052429 46.34012299 28.91244507 46.33988953 C27.93844757 46.32440567 26.96445007 46.30892181 25.9609375 46.29296875 C24.96494537 46.28872391 23.96895325 46.28447906 22.94277954 46.28010559 C19.75324775 46.2632768 16.56434167 46.22561676 13.375 46.1875 C11.21615494 46.1724586 9.0573 46.15876925 6.8984375 46.14648438 C1.59874388 46.11335967 -3.70058337 46.06311896 -9 46 C-7.5828128 35.78397733 -5.55621393 25.76184414 -3.375 15.6875 C-3.04653183 14.15697465 -2.7184048 12.62637604 -2.390625 11.09570312 C-1.59828847 7.39613181 -0.79902421 3.69815749 0 0 Z M53 15 C51.93852425 16.42902276 50.92547333 17.89420781 49.9375 19.375 C49.38964844 20.18710937 48.84179688 20.99921875 48.27734375 21.8359375 C46.83056324 23.86823778 46.83056324 23.86823778 47 26 C49.64 26 52.28 26 55 26 C54.67 22.37 54.34 18.74 54 15 C53.67 15 53.34 15 53 15 Z " fill="#FFFFFF" transform="translate(244,12)"/>
<path d="M0 0 C14 0 28 0 42 0 C39.84169384 15.54359084 36.49486443 30.70026015 33 46 C19.47 46 5.94 46 -8 46 C-8 38.125 -8 38.125 -7.265625 34.62524414 C-7.10545898 33.84496353 -6.94529297 33.06468292 -6.78027344 32.26075745 C-6.6052832 31.44380905 -6.43029297 30.62686066 -6.25 29.78515625 C-6.07243164 28.92941513 -5.89486328 28.07367401 -5.71191406 27.19200134 C-5.14777662 24.48076138 -4.57404938 21.77165672 -4 19.0625 C-3.61394623 17.21562785 -3.22852299 15.36862378 -2.84375 13.52148438 C-1.90312129 9.01276395 -0.9538915 4.50593229 0 0 Z M30 4 C31 8 31 8 31 8 Z M16 5 C16 6.98 16 8.96 16 11 C16.33 11 16.66 11 17 11 C17 9.02 17 7.04 17 5 C16.67 5 16.34 5 16 5 Z M29 11 C30 14 30 14 30 14 Z M15 12 C16 15 16 15 16 15 Z M28 15 C29 18 29 18 29 18 Z M14 16 C15 19 15 19 15 19 Z M27 21 C28 25 28 25 28 25 Z M13 22 C14 26 14 26 14 26 Z M26 25 C27 28 27 28 27 28 Z M12 26 C13 29 13 29 13 29 Z M25 29 C26 32 26 32 26 32 Z M11 30 C12 33 12 33 12 33 Z M24 36 C25 39 25 39 25 39 Z M10 37 C11 40 11 40 11 40 Z M23 40 C24 43 24 43 24 43 Z M9 41 C10 44 10 44 10 44 Z " fill="#CCFD03" transform="translate(28,12)"/>
<path d="M0 0 C10.89 0 21.78 0 33 0 C32.67 3.3 32.34 6.6 32 10 C25.4 10 18.8 10 12 10 C11.67 12.31 11.34 14.62 11 17 C16.61 17 22.22 17 28 17 C27.67 20.63 27.34 24.26 27 28 C20.73 28 14.46 28 8 28 C7.67 30.64 7.34 33.28 7 36 C13.27 36 19.54 36 26 36 C25.505 40.95 25.505 40.95 25 46 C13.78 46 2.56 46 -9 46 C-8.34723995 40.12515953 -7.62002677 34.83378901 -6.1875 29.1875 C-3.81761229 19.5148717 -1.91359438 9.77299987 0 0 Z " fill="#FFFFFF" transform="translate(364,12)"/>
<path d="M0 0 C3.49971199 -0.1173794 6.99890955 -0.18763961 10.5 -0.25 C11.48226562 -0.28351562 12.46453125 -0.31703125 13.4765625 -0.3515625 C19.86345491 -0.43672107 24.69820109 0.26387808 30 4 C33.01307949 7.38971443 33.47664613 10.42625243 33.2890625 14.9453125 C32.53710266 20.29032432 30.295032 24.74970551 26 28 C19.5729787 31.15713327 14.0898552 31.3518862 7 31 C6.87625 32.175625 6.7525 33.35125 6.625 34.5625 C6.13564065 38.54120426 5.1944795 42.17766559 4 46 C-0.62 46 -5.24 46 -10 46 C-7.84445205 34.91268688 -5.58250811 23.87426102 -2.9296875 12.89453125 C-1.89481689 8.6092767 -0.94446648 4.30594802 0 0 Z M12 10 C11.49818809 11.47855295 10.99859924 12.95786058 10.5 14.4375 C10.2215625 15.26121094 9.943125 16.08492187 9.65625 16.93359375 C8.94955282 18.79749696 8.94955282 18.79749696 9 20 C10.918125 20.0928125 10.918125 20.0928125 12.875 20.1875 C13.59429687 20.22230469 14.31359375 20.25710937 15.0546875 20.29296875 C15.69664062 20.19628906 16.33859375 20.09960938 17 20 C19.1387261 16.79191085 19.47730962 15.72301503 19 12 C16.04622502 9.63019987 16.04622502 9.63019987 12 10 Z " fill="#FFFFFF" transform="translate(207,12)"/>
<path d="M0 0 C1.04994141 -0.01224609 2.09988281 -0.02449219 3.18164062 -0.03710938 C4.69854492 -0.04000977 4.69854492 -0.04000977 6.24609375 -0.04296875 C7.16962646 -0.04707764 8.09315918 -0.05118652 9.04467773 -0.05541992 C11.5625 0.1875 11.5625 0.1875 15.5625 2.1875 C14.5725 5.4875 13.5825 8.7875 12.5625 12.1875 C11.61375 12.0225 10.665 11.8575 9.6875 11.6875 C2.69202016 10.72260623 -4.48164249 9.79150994 -10.4375 14.1875 C-13.8860835 18.72510986 -15.18757318 22.37756613 -14.875 28.1015625 C-14.50803656 30.4716359 -14.50803656 30.4716359 -12.5 33.1875 C-8.50578558 35.79596656 -5.17244325 36.37689773 -0.4375 36.1875 C2.36317065 35.35263613 2.36317065 35.35263613 4.5625 34.1875 C5.5525 34.1875 6.5425 34.1875 7.5625 34.1875 C7.2325 37.8175 6.9025 41.4475 6.5625 45.1875 C-1.33432285 48.14732865 -9.79418297 48.73458686 -17.625 45.25 C-18.90816544 44.58580119 -20.18211126 43.90281303 -21.4375 43.1875 C-22.0975 42.8575 -22.7575 42.5275 -23.4375 42.1875 C-23.4375 41.5275 -23.4375 40.8675 -23.4375 40.1875 C-24.0975 40.1875 -24.7575 40.1875 -25.4375 40.1875 C-29.52768923 33.60763036 -30.18803719 26.07200472 -28.8125 18.5 C-26.74424636 10.8937251 -23.13224532 6.01619625 -16.3046875 2.09765625 C-11.00976753 -0.48334031 -5.76452786 0.00352571 0 0 Z " fill="#FFFFFF" transform="translate(345.4375,11.8125)"/>
<path d="M0 0 C1.29349365 0.00523682 2.5869873 0.01047363 3.91967773 0.01586914 C4.9496714 0.01799156 4.9496714 0.01799156 6.00047302 0.02015686 C8.20144949 0.0257706 10.40232557 0.03832532 12.60327148 0.05102539 C14.09220231 0.05603863 15.58113473 0.06060184 17.07006836 0.06469727 C20.72700223 0.07574446 24.38387707 0.09301826 28.04077148 0.11352539 C27.90027631 1.59320863 27.75322322 3.07227055 27.60327148 4.55102539 C27.52206055 5.37473633 27.44084961 6.19844727 27.35717773 7.04711914 C27.04077148 9.11352539 27.04077148 9.11352539 26.04077148 10.11352539 C23.18199239 10.35053778 20.34193851 10.53571721 17.47827148 10.67602539 C16.67196289 10.71920898 15.8656543 10.76239258 15.03491211 10.80688477 C13.03708344 10.91327801 11.03895079 11.01393427 9.04077148 11.11352539 C8.38077148 13.42352539 7.72077148 15.73352539 7.04077148 18.11352539 C12.32077148 18.11352539 17.60077148 18.11352539 23.04077148 18.11352539 C23.04077148 26.11352539 23.04077148 26.11352539 22.04077148 28.11352539 C13.62577148 28.60852539 13.62577148 28.60852539 5.04077148 29.11352539 C4.56639648 31.36165039 4.09202148 33.60977539 3.60327148 35.92602539 C2.87078241 39.39738664 2.16264624 42.74790111 1.04077148 46.11352539 C-3.57922852 46.11352539 -8.19922852 46.11352539 -12.95922852 46.11352539 C-12.72848633 44.95981445 -12.49774414 43.80610352 -12.26000977 42.61743164 C-12.10508057 41.84246338 -11.95015137 41.06749512 -11.79052734 40.26904297 C-11.44060348 38.52008232 -11.09016882 36.7712238 -10.73925781 35.02246094 C-9.685933 29.76866553 -8.64415799 24.51283083 -7.61547852 19.25415039 C-7.28036255 17.55150024 -7.28036255 17.55150024 -6.93847656 15.81445312 C-6.49678583 13.56977146 -6.05810664 11.32449493 -5.62255859 9.07861328 C-5.42041748 8.05501709 -5.21827637 7.0314209 -5.01000977 5.97680664 C-4.83123291 5.0619751 -4.65245605 4.14714355 -4.46826172 3.20458984 C-3.67761133 -0.04333371 -3.47914581 0.13347107 0 0 Z " fill="#FFFFFF" transform="translate(109.959228515625,11.886474609375)"/>
<path d="M0 0 C11.88 0 23.76 0 36 0 C35 8 35 8 34 11 C30.37 11.33 26.74 11.66 23 12 C22.61908203 14.04767578 22.61908203 14.04767578 22.23046875 16.13671875 C20.35412046 26.14848162 18.38658699 36.09566401 16 46 C11.38 46 6.76 46 2 46 C3.44143003 34.0754425 6.09523256 22.64124356 9 11 C5.7 11 2.4 11 -1 11 C-2 8 -2 8 0 0 Z " fill="#FFFFFF" transform="translate(158,12)"/>
<path d="M0 0 C4.29 0 8.58 0 13 0 C13.17185774 5.53013646 12.66888212 10.32618991 11.25 15.6875 C8.73695262 25.711184 6.8672278 35.83949977 5 46 C0.05 46 -4.9 46 -10 46 C-8.73744855 40.09160916 -7.47399853 34.18341146 -6.2097168 28.27539062 C-5.77978227 26.26567783 -5.35009299 24.25591255 -4.9206543 22.24609375 C-4.30321749 19.35663225 -3.68489792 16.46736086 -3.06640625 13.578125 C-2.77885216 12.23104462 -2.77885216 12.23104462 -2.48548889 10.85675049 C-2.30537766 10.01618103 -2.12526642 9.17561157 -1.93969727 8.30957031 C-1.78203384 7.57232727 -1.62437042 6.83508423 -1.46192932 6.07550049 C-1.00940932 4.04227715 -0.50519487 2.02077947 0 0 Z " fill="#FFFFFF" transform="translate(142,12)"/>
<path d="M0 0 C2.31 0 4.62 0 7 0 C6.75058417 10.74755474 4.09813224 20.90985241 1.61376953 31.31347656 C0.80363252 34.85951782 0.1137525 38.42439001 -0.55493164 41.99951172 C-1 44 -1 44 -2 46 C-4.31 46 -6.62 46 -9 46 C-8.50142277 38.44083726 -7.34578444 31.29419821 -5.5625 23.9375 C-5.1250059 22.09275484 -4.68879999 20.24770367 -4.25390625 18.40234375 C-4.04266113 17.51015137 -3.83141602 16.61795898 -3.61376953 15.69873047 C-2.81322652 12.1787613 -2.11850458 8.642184 -1.44506836 5.09594727 C-1 3 -1 3 0 0 Z " fill="#CCFD03" transform="translate(72,12)"/>
<path d="M0 0 C4.95 0 9.9 0 15 0 C15 0.66 15 1.32 15 2 C15.66 2 16.32 2 17 2 C17 1.34 17 0.68 17 0 C18.65 0 20.3 0 22 0 C21.46048934 6.68993219 20.11293829 12.63460728 18 19 C16.68 19 15.36 19 14 19 C13.67 16.03 13.34 13.06 13 10 C12.67 10.66 12.34 11.32 12 12 C9.03 12 6.06 12 3 12 C2.67 14.64 2.34 17.28 2 20 C0.35 20 -1.3 20 -3 20 C-2.56367091 13.11059329 -1.91610155 6.64248536 0 0 Z " fill="#121700" transform="translate(208,74)"/>
<path d="M0 0 C1.98 0 3.96 0 6 0 C4.80771749 10.42802313 2.61795796 20.4984076 0.21875 30.703125 C-0.97054164 35.78019596 -2.01091539 40.88052016 -3 46 C-4.98 46 -6.96 46 -9 46 C-7.84948873 36.89894067 -5.95797539 28.05338382 -3.8527832 19.13232422 C-2.36389147 12.78575836 -1.10962027 6.42370952 0 0 Z " fill="#CCFD02" transform="translate(82,12)"/>
<path d="M0 0 C1.32 0 2.64 0 4 0 C3.31437393 7.62653196 1.93907648 15.08561234 0.47094727 22.59399414 C0.06153099 24.69246668 -0.33967591 26.79239893 -0.74023438 28.89257812 C-1.00211388 30.2448867 -1.26446724 31.59710363 -1.52734375 32.94921875 C-1.76187256 34.15924561 -1.99640137 35.36927246 -2.23803711 36.6159668 C-2.96374912 39.83900243 -3.89615816 42.88852541 -5 46 C-6.32 46 -7.64 46 -9 46 C-8.40076726 37.60241902 -6.77306839 29.51887398 -4.98876953 21.3112793 C-4.49597543 19.04398338 -4.01101604 16.77511702 -3.52734375 14.50585938 C-3.21659232 13.05719582 -2.9054102 11.60862457 -2.59375 10.16015625 C-2.44893188 9.48517593 -2.30411377 8.81019562 -2.15490723 8.11476135 C-1.55225084 5.34823236 -0.89638015 2.68914045 0 0 Z " fill="#CBFD02" transform="translate(92,12)"/>
<path d="M0 0 C-0.66 3.96 -1.32 7.92 -2 12 C-1.34 12 -0.68 12 0 12 C0 13.32 0 14.64 0 16 C-1.32 16 -2.64 16 -4 16 C-4 17.32 -4 18.64 -4 20 C-5.65 20 -7.3 20 -9 20 C-9 18.68 -9 17.36 -9 16 C-11.64 16 -14.28 16 -17 16 C-17.3203125 13.86328125 -17.3203125 13.86328125 -17 11 C-15.34422547 8.81685244 -13.81710816 7.07174742 -11.875 5.1875 C-11.400625 4.68541016 -10.92625 4.18332031 -10.4375 3.66601562 C-6.59081618 -0.15467709 -5.88105265 0 0 0 Z " fill="#111500" transform="translate(126,74)"/>
<path d="M0 0 C0.99 0.66 1.98 1.32 3 2 C2.92430022 5.1793909 2.63231963 7.30889688 0.4453125 9.69921875 C-1.93492802 11.73871944 -4.18997787 13.59498894 -7 15 C-4.69 15.33 -2.38 15.66 0 16 C0 17.32 0 18.64 0 20 C-5.28 20 -10.56 20 -16 20 C-15 15 -15 15 -12.78515625 13.12109375 C-11.88667969 12.56550781 -10.98820312 12.00992188 -10.0625 11.4375 C-6.58796343 9.27278872 -4.48671376 7.88244678 -3 4 C-3.556875 4.33 -4.11375 4.66 -4.6875 5 C-7.30284522 6.1309601 -9.1806646 6.15662974 -12 6 C-9.69145572 -0.43094479 -6.64133082 -0.77591786 0 0 Z " fill="#161B00" transform="translate(106,74)"/>
<path d="M0 0 C2.375 1.125 2.375 1.125 4 3 C4.67982577 6.90899819 4.33696128 8.49455808 2.125 11.8125 C-0.64032096 14.65915393 -2.14546978 15.1649736 -6 15.25 C-7.051875 15.28867188 -7.051875 15.28867188 -8.125 15.328125 C-8.74375 15.21984375 -9.3625 15.1115625 -10 15 C-12.34168764 11.48746854 -12.49623677 10.13530644 -12 6 C-8.50970046 0.76455069 -6.2699235 -0.50159388 0 0 Z " fill="#181E00" transform="translate(159,79)"/>
<path d="M0 0 C1.98 0 3.96 0 6 0 C5.67 1.98 5.34 3.96 5 6 C6.7015625 5.9690625 6.7015625 5.9690625 8.4375 5.9375 C12 6 12 6 13 7 C13.16796875 8.92578125 13.16796875 8.92578125 13.1875 11.3125 C13.20167969 12.09238281 13.21585938 12.87226562 13.23046875 13.67578125 C12.97984413 16.2032668 12.26373772 17.81718031 11 20 C9.35 20 7.7 20 6 20 C6.66 16.37 7.32 12.74 8 9 C3.92097496 10.47657938 3.92097496 10.47657938 3.171875 13.1640625 C2.96304688 14.38222656 2.96304688 14.38222656 2.75 15.625 C2.60046875 16.44226563 2.4509375 17.25953125 2.296875 18.1015625 C2.19890625 18.72804688 2.1009375 19.35453125 2 20 C0.35 20 -1.3 20 -3 20 C-2.51358785 13.15182898 -1.64006048 6.66957927 0 0 Z " fill="#161B00" transform="translate(131,74)"/>
<path d="M0 0 C0.99 0.66 1.98 1.32 3 2 C3.1875 5.625 3.1875 5.625 3 9 C-0.3 9 -3.6 9 -7 9 C-7 9.99 -7 10.98 -7 12 C-5.68 12 -4.36 12 -3 12 C-3 11.34 -3 10.68 -3 10 C-1.35 10 0.3 10 2 10 C0.125 13.875 0.125 13.875 -1 15 C-2.99609375 15.203125 -2.99609375 15.203125 -5.4375 15.25 C-6.24058594 15.27578125 -7.04367187 15.3015625 -7.87109375 15.328125 C-8.57363281 15.21984375 -9.27617187 15.1115625 -10 15 C-12.34168764 11.48746854 -12.49623677 10.13530644 -12 6 C-8.47342317 0.71013475 -6.29687311 -0.38552284 0 0 Z " fill="#283200" transform="translate(274,79)"/>
<path d="M0 0 C0.33 0.66 0.66 1.32 1 2 C1.66 2 2.32 2 3 2 C3 1.34 3 0.68 3 0 C4.65 0 6.3 0 8 0 C7.46048934 6.68993219 6.11293829 12.63460728 4 19 C2.68 19 1.36 19 0 19 C-0.06058594 18.37351562 -0.12117187 17.74703125 -0.18359375 17.1015625 C-0.26738281 16.28429687 -0.35117188 15.46703125 -0.4375 14.625 C-0.51871094 13.81289062 -0.59992188 13.00078125 -0.68359375 12.1640625 C-0.89090114 9.95727195 -0.89090114 9.95727195 -2 8 C-4.31 8 -6.62 8 -9 8 C-9 6.68 -9 5.36 -9 4 C-6.03 4 -3.06 4 0 4 C0 2.68 0 1.36 0 0 Z " fill="#9BBF03" transform="translate(222,74)"/>
<path d="M0 0 C4.62 0 9.24 0 14 0 C13.125 12.875 13.125 12.875 12 14 C10.35 14 8.7 14 7 14 C7.66 10.37 8.32 6.74 9 3 C4.92097496 4.47657938 4.92097496 4.47657938 4.171875 7.1640625 C3.96304688 8.38222656 3.96304688 8.38222656 3.75 9.625 C3.60046875 10.44226563 3.4509375 11.25953125 3.296875 12.1015625 C3.19890625 12.72804688 3.1009375 13.35453125 3 14 C1.35 14 -0.3 14 -2 14 C-1.33333333 9.33333333 -0.66666667 4.66666667 0 0 Z " fill="#101500" transform="translate(246,80)"/>
<path d="M0 0 C1.65 0 3.3 0 5 0 C4.67 3.3 4.34 6.6 4 10 C5.32 10 6.64 10 8 10 C8.66 6.7 9.32 3.4 10 0 C11.65 0 13.3 0 15 0 C14.69249629 2.14655501 14.3788634 4.29223285 14.0625 6.4375 C13.88847656 7.63246094 13.71445313 8.82742187 13.53515625 10.05859375 C13 13 13 13 12 14 C10.00200428 14.09873816 8.00042842 14.12971799 6 14.125 C4.906875 14.12757812 3.81375 14.13015625 2.6875 14.1328125 C0 14 0 14 -1 13 C-0.90982004 10.80949979 -0.75333792 8.621534 -0.5625 6.4375 C-0.46066406 5.23996094 -0.35882813 4.04242188 -0.25390625 2.80859375 C-0.17011719 1.88175781 -0.08632812 0.95492187 0 0 Z " fill="#151B00" transform="translate(167,80)"/>
<path d="M0 0 C0.99 0.66 1.98 1.32 3 2 C3 2.99 3 3.98 3 5 C1.35 5 -0.3 5 -2 5 C-2 4.34 -2 3.68 -2 3 C-2.99 3 -3.98 3 -5 3 C-4.10664203 5.35785318 -4.10664203 5.35785318 -0.9375 6.125 C0.5165625 6.558125 0.5165625 6.558125 2 7 C2.25 9.3125 2.25 9.3125 2 12 C0.5 13.8125 0.5 13.8125 -2 15 C-4.72079845 15.23884872 -7.25814068 15.13709297 -10 15 C-10.33 13.35 -10.66 11.7 -11 10 C-9.35 10 -7.7 10 -6 10 C-6 10.66 -6 11.32 -6 12 C-5.01 12 -4.02 12 -3 12 C-3.84566739 9.72826908 -3.84566739 9.72826908 -6.5 9.125 C-9 8 -9 8 -10.0625 6.125 C-10 4 -10 4 -8.4375 1.75 C-5.3601403 -0.45938645 -3.71580247 -0.47435776 0 0 Z " fill="#111600" transform="translate(306,79)"/>
<path d="M0 0 C2 2 2 2 2 5 C0.68 5 -0.64 5 -2 5 C-2 4.34 -2 3.68 -2 3 C-2.99 3 -3.98 3 -5 3 C-5 3.99 -5 4.98 -5 6 C-2.03 6.495 -2.03 6.495 1 7 C0.125 13.875 0.125 13.875 -1 15 C-2.99609375 15.16796875 -2.99609375 15.16796875 -5.4375 15.1875 C-6.64212891 15.20876953 -6.64212891 15.20876953 -7.87109375 15.23046875 C-10 15 -10 15 -12 13 C-12 12.01 -12 11.02 -12 10 C-10.35 10 -8.7 10 -7 10 C-7 10.66 -7 11.32 -7 12 C-6.01 12 -5.02 12 -4 12 C-4 11.01 -4 10.02 -4 9 C-6.97 8.505 -6.97 8.505 -10 8 C-10.25 5.6875 -10.25 5.6875 -10 3 C-7.02962719 -0.31310814 -4.3003147 -0.46742551 0 0 Z " fill="#141900" transform="translate(291,79)"/>
<path d="M0 0 C1.32 0 2.64 0 4 0 C4 0.99 4 1.98 4 3 C4.99 3 5.98 3 7 3 C7 3.99 7 4.98 7 6 C5.68 6 4.36 6 3 6 C2.67 8.31 2.34 10.62 2 13 C2.99 13 3.98 13 5 13 C4.67 14.32 4.34 15.64 4 17 C1.69 17 -0.62 17 -3 17 C-3.125 9.375 -3.125 9.375 -2 6 C-2.66 6 -3.32 6 -4 6 C-4 5.01 -4 4.02 -4 3 C-3.01 3 -2.02 3 -1 3 C-0.67 2.01 -0.34 1.02 0 0 Z " fill="#111500" transform="translate(236,77)"/>
<path d="M0 0 C3.3 0 6.6 0 10 0 C10 1.32 10 2.64 10 4 C9.21625 4.185625 8.4325 4.37125 7.625 4.5625 C4.60623658 5.83961627 4.60623658 5.83961627 3.6875 9.625 C3.460625 10.73875 3.23375 11.8525 3 13 C1.35 13 -0.3 13 -2 13 C-1.85851011 11.3954444 -1.71164314 9.79136233 -1.5625 8.1875 C-1.48128906 7.29417969 -1.40007812 6.40085937 -1.31640625 5.48046875 C-1 3 -1 3 0 0 Z " fill="#0E1100" transform="translate(186,80)"/>
<path d="M0 0 C0.9075 0.103125 1.815 0.20625 2.75 0.3125 C2.09 1.034375 1.43 1.75625 0.75 2.5 C-1.40792086 5.53457622 -1.83654327 6.6954832 -1.25 10.3125 C-0.59 10.9725 0.07 11.6325 0.75 12.3125 C-0.25 13.3125 -0.25 13.3125 -2.6875 13.5 C-5.25 13.3125 -5.25 13.3125 -7.25 11.3125 C-7.74884697 7.5711477 -7.49502854 5.74601204 -5.625 2.4375 C-3.25 0.3125 -3.25 0.3125 0 0 Z " fill="#0A0C00" transform="translate(154.25,79.6875)"/>
<path d="M0 0 C-0.33 0.99 -0.66 1.98 -1 3 C-1 2.34 -1 1.68 -1 1 C-2.65 1.66 -4.3 2.32 -6 3 C-5.79375 3.556875 -5.5875 4.11375 -5.375 4.6875 C-4.89304789 7.659538 -5.73434972 9.31979941 -7 12 C-8.65 12 -10.3 12 -12 12 C-12.33 11.34 -12.66 10.68 -13 10 C-13.99 10 -14.98 10 -16 10 C-14.47789133 8.31545285 -12.93145107 6.6528684 -11.375 5 C-10.08722656 3.6078125 -10.08722656 3.6078125 -8.7734375 2.1875 C-5.53433488 -0.36728517 -4.02051399 -0.47161454 0 0 Z " fill="#212800" transform="translate(126,74)"/>
<path d="M0 0 C0.66 0 1.32 0 2 0 C2 1.32 2 2.64 2 4 C2.66 4 3.32 4 4 4 C4.99 5.485 4.99 5.485 6 7 C8.55183404 8.20450304 8.55183404 8.20450304 11 9 C11 9.66 11 10.32 11 11 C10.01 11 9.02 11 8 11 C8 10.34 8 9.68 8 9 C6.35 9 4.7 9 3 9 C2.67 9.99 2.34 10.98 2 12 C1.01 11.67 0.02 11.34 -1 11 C-0.67 9.35 -0.34 7.7 0 6 C-2.97 5.505 -2.97 5.505 -6 5 C-6 4.01 -6 3.02 -6 2 C-5.01 2 -4.02 2 -3 2 C-3 2.66 -3 3.32 -3 4 C-1.68 4 -0.36 4 1 4 C0.67 2.68 0.34 1.36 0 0 Z " fill="#A6CE02" transform="translate(292,80)"/>
<path d="M0 0 C1.65 0 3.3 0 5 0 C4.34 4.29 3.68 8.58 3 13 C1.35 13 -0.3 13 -2 13 C-1.85769192 11.58297487 -1.71099254 10.1663904 -1.5625 8.75 C-1.48128906 7.96109375 -1.40007812 7.1721875 -1.31640625 6.359375 C-1.02365007 4.17635361 -0.57935581 2.1226818 0 0 Z " fill="#0A0D00" transform="translate(177,80)"/>
<path d="M0 0 C1.65 0 3.3 0 5 0 C4.69128878 1.79232337 4.37790936 3.58384321 4.0625 5.375 C3.88847656 6.37273437 3.71445313 7.37046875 3.53515625 8.3984375 C3 11 3 11 2 13 C0.68 13 -0.64 13 -2 13 C-1.85851011 11.3954444 -1.71164314 9.79136233 -1.5625 8.1875 C-1.48128906 7.29417969 -1.40007812 6.40085937 -1.31640625 5.48046875 C-1 3 -1 3 0 0 Z " fill="#080B00" transform="translate(224,80)"/>
<path d="M0 0 C1.32 0.33 2.64 0.66 4 1 C3.75 3.875 3.75 3.875 3 7 C0.9375 8.375 0.9375 8.375 -1 9 C-2 8 -2 8 -2.1875 5.625 C-2 3 -2 3 0 0 Z " fill="#B3DD03" transform="translate(154,82)"/>
<path d="M0 0 C0.99 0.66 1.98 1.32 3 2 C3 2.99 3 3.98 3 5 C1.35 5 -0.3 5 -2 5 C-2 4.34 -2 3.68 -2 3 C-2.99 2.67 -3.98 2.34 -5 2 C-6.65 3.65 -8.3 5.3 -10 7 C-9.6875 4.625 -9.6875 4.625 -9 2 C-5.53001271 -0.31332486 -4.07490752 -0.33957563 0 0 Z " fill="#222B00" transform="translate(306,79)"/>
<path d="M0 0 C0 3 0 3 -1.5 4.6875 C-1.995 5.120625 -2.49 5.55375 -3 6 C-2.01 6.33 -1.02 6.66 0 7 C-0.33 7.99 -0.66 8.98 -1 10 C-1 9.34 -1 8.68 -1 8 C-3.64 8 -6.28 8 -9 8 C-6.21751321 5.06293061 -3.12061789 2.56584137 0 0 Z " fill="#A3CA02" transform="translate(107,82)"/>
<path d="M0 0 C0.99 0 1.98 0 3 0 C3.33 2.31 3.66 4.62 4 7 C1.36 7 -1.28 7 -4 7 C-4 6.67 -4 6.34 -4 6 C-2.35 6 -0.7 6 1 6 C0.67 4.02 0.34 2.04 0 0 Z " fill="#010200" transform="translate(272,80)"/>
<path d="M0 0 C1.65 0 3.3 0 5 0 C3.125 3.875 3.125 3.875 2 5 C0.48071962 5.07179964 -1.04167482 5.08392007 -2.5625 5.0625 C-3.38878906 5.05347656 -4.21507812 5.04445313 -5.06640625 5.03515625 C-5.70449219 5.02355469 -6.34257812 5.01195313 -7 5 C-7 4.67 -7 4.34 -7 4 C-4.36 4 -1.72 4 1 4 C0.67 2.68 0.34 1.36 0 0 Z " fill="#354200" transform="translate(271,89)"/>
<path d="M0 0 C1.98 0 3.96 0 6 0 C6 1.32 6 2.64 6 4 C4.35 4.33 2.7 4.66 1 5 C0.67 3.35 0.34 1.7 0 0 Z " fill="#1B2200" transform="translate(190,80)"/>
<path d="M0 0 C1.04449911 3.13349732 0.93423645 3.98968256 0 7 C-1.65 7 -3.3 7 -5 7 C-1.125 1.125 -1.125 1.125 0 0 Z " fill="#ADD603" transform="translate(119,79)"/>
<path d="M0 0 C3.3 0 6.6 0 10 0 C9.67 0.99 9.34 1.98 9 3 C9 2.34 9 1.68 9 1 C7.35 1 5.7 1 4 1 C4 1.66 4 2.32 4 3 C2.68 3 1.36 3 0 3 C0 2.01 0 1.02 0 0 Z " fill="#B0DA02" transform="translate(267,88)"/>
<path d="M0 0 C0.99 0 1.98 0 3 0 C3 0.99 3 1.98 3 3 C3.66 3 4.32 3 5 3 C4.67 3.99 4.34 4.98 4 6 C4 5.34 4 4.68 4 4 C0.9254644 4.7763932 0.9254644 4.7763932 -1 7 C-0.67 4.69 -0.34 2.38 0 0 Z " fill="#9EC402" transform="translate(229,80)"/>
</svg>
