<?xml version="1.0" standalone="no"?>
<!DOCTYPE svg PUBLIC "-//W3C//DTD SVG 20010904//EN"
 "http://www.w3.org/TR/2001/REC-SVG-20010904/DTD/svg10.dtd">
<svg version="1.0" xmlns="http://www.w3.org/2000/svg"
 width="408.000000pt" height="112.000000pt" viewBox="0 0 408.000000 112.000000"
 preserveAspectRatio="xMidYMid meet">

<g transform="translate(0.000000,112.000000) scale(0.100000,-0.100000)"
fill="#000000" stroke="none">
<path d="M960 360 c-11 -11 -20 -24 -20 -30 0 -14 36 -13 60 2 10 7 23 9 27 5
12 -13 -11 -40 -65 -77 -47 -32 -68 -61 -54 -74 3 -3 38 -6 78 -6 63 0 72 2
77 20 4 18 0 20 -35 20 l-40 0 51 48 c54 51 65 84 32 102 -33 17 -89 12 -111
-10z"/>
<path d="M1147 321 c-70 -73 -75 -101 -17 -101 33 0 40 -3 40 -20 0 -15 7 -20
25 -20 16 0 25 6 25 16 0 9 9 18 20 21 21 6 28 43 9 43 -11 0 -8 42 7 98 6 19
3 22 -23 22 -23 0 -42 -13 -86 -59z m47 -29 c-5 -25 -12 -32 -31 -32 l-24 0
28 35 c15 19 29 33 30 31 2 -1 0 -17 -3 -34z"/>
<path d="M1315 368 c-6 -18 -35 -165 -35 -178 0 -5 11 -10 25 -10 20 0 25 6
31 38 9 49 21 72 40 72 13 0 14 -8 9 -42 -4 -24 -8 -47 -9 -53 0 -5 10 -10 24
-10 26 0 36 23 39 92 1 40 -27 60 -60 42 -21 -11 -21 -9 -15 25 6 34 5 36 -19
36 -14 0 -28 -6 -30 -12z"/>
<path d="M2066 298 c-22 -111 -21 -118 9 -118 21 0 26 6 31 39 6 38 8 40 48
43 29 2 42 8 44 21 3 14 -4 17 -32 17 -29 0 -36 4 -36 20 0 17 7 20 45 20 38
0 45 3 45 20 0 18 -7 20 -69 20 l-68 0 -17 -82z"/>
<path d="M2250 360 c0 -14 7 -20 24 -20 15 0 26 7 29 20 4 17 0 20 -24 20 -22
0 -29 -5 -29 -20z"/>
<path d="M2360 340 c-11 -11 -24 -20 -30 -20 -14 0 -13 -27 1 -32 8 -3 8 -14
0 -43 -13 -47 -2 -65 39 -65 32 0 47 25 23 38 -23 13 -8 72 18 72 10 0 19 7
19 15 0 8 -7 15 -15 15 -8 0 -15 9 -15 20 0 11 -4 20 -10 20 -5 0 -19 -9 -30
-20z"/>
<path d="M1524 320 c-48 -19 -71 -92 -38 -124 26 -27 81 -20 115 13 66 66 10
146 -77 111z m54 -47 c4 -25 -31 -69 -46 -59 -17 10 -15 38 4 64 18 27 38 24
42 -5z"/>
<path d="M2546 323 c-3 -4 -24 -6 -45 -5 -37 3 -39 1 -44 -35 -4 -21 -9 -53
-13 -70 -6 -30 -4 -33 19 -33 22 0 27 6 33 38 9 49 21 72 40 72 13 0 14 -8 9
-42 -4 -24 -8 -47 -9 -53 0 -5 10 -10 24 -10 27 0 37 23 39 91 1 30 -4 44 -15
48 -20 8 -29 8 -38 -1z"/>
<path d="M2673 320 c-24 -10 -53 -58 -53 -89 0 -29 27 -51 63 -51 33 0 77 23
77 41 0 13 -44 11 -57 -2 -12 -12 -33 -4 -33 12 0 5 23 9 50 9 l50 0 0 35 c0
49 -40 68 -97 45z m48 -35 c0 -5 -9 -11 -21 -13 -20 -3 -27 8 -13 22 10 9 34
3 34 -9z"/>
<path d="M2840 317 c-16 -8 -26 -23 -28 -40 -3 -23 1 -28 27 -33 17 -4 31 -13
31 -20 0 -16 -16 -19 -25 -4 -9 15 -55 12 -55 -3 0 -40 85 -52 120 -17 29 29
25 49 -15 66 -19 8 -35 19 -35 24 0 13 17 13 25 0 10 -15 45 -12 45 5 0 15
-30 35 -52 35 -7 0 -24 -6 -38 -13z"/>
<path d="M2995 318 c-46 -26 -46 -54 0 -74 36 -15 47 -34 20 -34 -8 0 -15 5
-15 10 0 6 -11 10 -25 10 -29 0 -36 -34 -9 -44 51 -20 114 8 114 50 0 19 -6
26 -30 31 -35 6 -46 18 -28 29 6 4 14 2 16 -4 6 -18 52 -15 52 3 0 30 -58 44
-95 23z"/>
<path d="M1673 303 c-4 -10 -7 -40 -8 -68 l0 -50 65 0 64 0 13 60 c16 79 17
75 -12 75 -27 0 -30 -4 -40 -62 -5 -30 -10 -38 -27 -38 -18 0 -19 4 -14 36 4
19 10 42 13 50 4 10 -2 14 -21 14 -16 0 -29 -7 -33 -17z"/>
<path d="M1851 269 c-17 -76 -15 -91 11 -87 17 2 25 14 34 43 7 27 19 44 37
53 43 21 34 38 -22 40 l-50 1 -10 -50z"/>
<path d="M2231 270 c-17 -77 -15 -92 11 -88 17 2 25 14 35 53 19 73 17 85 -11
85 -21 0 -26 -7 -35 -50z"/>
</g>
</svg>
