<?xml version="1.0" standalone="no"?>
<!DOCTYPE svg PUBLIC "-//W3C//DTD SVG 20010904//EN"
 "http://www.w3.org/TR/2001/REC-SVG-20010904/DTD/svg10.dtd">
<svg version="1.0" xmlns="http://www.w3.org/2000/svg"
 width="560.000000pt" height="315.000000pt" viewBox="0 0 560.000000 315.000000"
 preserveAspectRatio="xMidYMid meet">

<g transform="translate(0.000000,315.000000) scale(0.100000,-0.100000)"
fill="#000000" stroke="none">
<path d="M0 1575 l0 -1575 2800 0 2800 0 0 1575 0 1575 -2800 0 -2800 0 0
-1575z m2390 242 l35 -4 -40 -3 c-38 -2 -39 -3 -10 -9 27 -6 30 -10 29 -44 -1
-21 4 -37 10 -37 6 0 3 -5 -6 -11 -10 -5 -18 -19 -18 -29 0 -15 -7 -20 -27
-20 -25 1 -26 2 -10 14 28 21 20 36 -19 36 -32 0 -35 -2 -24 -15 7 -9 10 -19
6 -23 -4 -4 -15 2 -25 14 -9 11 -23 23 -31 27 -8 3 14 7 50 8 l65 2 -55 6
c-53 6 -55 7 -55 36 0 26 4 31 30 34 29 5 28 5 -10 11 l-40 7 43 2 c23 0 42 6
42 12 0 8 4 8 13 1 6 -6 28 -12 47 -15z m1143 10 c7 -19 -15 -45 -43 -49 -22
-3 -25 -9 -28 -48 -4 -72 -16 -80 -22 -15 -5 59 -5 60 -38 63 -39 4 -33 22 9
22 19 0 29 5 29 15 0 8 5 15 10 15 6 0 10 -7 10 -15 0 -8 9 -15 20 -15 13 0
20 7 20 20 0 22 25 28 33 7z m-1953 -12 c0 -11 11 -15 36 -15 21 0 33 -4 29
-10 -3 -5 -17 -10 -31 -10 -17 0 -24 -6 -24 -19 0 -17 5 -19 35 -14 46 7 46
-13 0 -21 -29 -6 -35 -11 -33 -29 2 -12 -1 -24 -7 -27 -5 -3 -11 8 -13 23 -3
27 -6 29 -38 23 -19 -4 -34 -3 -34 2 0 12 24 22 52 22 32 0 15 25 -20 28 -41
4 -42 22 -2 22 23 0 30 4 30 20 0 11 5 20 10 20 6 0 10 -7 10 -15z m458 -68
c2 -63 0 -78 -13 -83 -9 -4 -19 -3 -23 1 -4 4 -1 10 6 12 22 8 13 33 -13 33
-20 0 -25 -5 -25 -25 0 -14 -4 -25 -10 -25 -5 0 -10 11 -10 25 0 35 -37 34
-50 -1 -6 -14 -14 -22 -20 -19 -7 4 -7 12 0 25 5 10 10 46 10 80 l0 61 73 -3
72 -3 3 -78z m172 48 l0 -36 -62 3 c-51 2 -63 6 -66 21 -8 38 5 47 68 47 l60
0 0 -35z m300 1 c0 -28 -4 -35 -22 -38 -20 -3 -23 -10 -26 -50 -2 -27 -7 -48
-13 -48 -10 0 -13 153 -2 163 3 4 19 7 35 7 25 0 28 -3 28 -34z m100 -51 c0
-84 0 -85 -25 -85 -14 0 -25 5 -25 10 0 6 7 10 16 10 12 0 14 9 12 38 -2 30
-7 38 -25 40 -19 3 -23 10 -23 38 0 32 2 34 35 34 l35 0 0 -85z m90 75 c0 -5
15 -10 34 -10 19 0 37 -4 40 -8 2 -4 -4 -26 -14 -48 -18 -41 -56 -75 -97 -88
-34 -11 -28 10 7 24 40 17 46 28 24 45 -25 18 -12 30 16 15 18 -10 24 -9 31 1
25 40 -29 51 -72 14 -41 -33 -49 -25 -15 15 14 17 26 36 26 41 0 5 5 9 10 9 6
0 10 -4 10 -10z m200 -10 c0 -16 7 -20 35 -20 44 0 46 -18 3 -22 -26 -2 -33
-8 -40 -35 -9 -33 -41 -63 -68 -63 -9 0 -2 10 18 26 20 16 32 34 32 50 0 21
-5 24 -35 24 -19 0 -35 5 -35 10 0 6 16 10 35 10 28 0 35 4 35 20 0 11 5 20
10 20 6 0 10 -9 10 -20z m-1466 -31 c-17 -40 -17 -40 11 -69 37 -39 24 -52
-15 -15 l-29 28 -31 -27 c-30 -24 -50 -33 -50 -21 0 3 16 20 36 37 19 17 42
44 50 59 l15 29 -51 0 c-27 0 -50 5 -50 10 0 6 28 10 65 10 l65 0 -16 -41z
m1721 31 c3 -5 2 -10 -4 -10 -5 0 -13 5 -16 10 -3 6 -2 10 4 10 5 0 13 -4 16
-10z m165 5 c0 -2 -8 -20 -17 -40 -17 -35 -17 -35 12 -65 37 -39 24 -52 -15
-15 l-30 29 -28 -27 c-27 -26 -52 -35 -52 -19 0 4 13 15 29 25 26 15 71 73 71
91 0 3 -23 6 -51 6 -31 0 -48 4 -44 10 6 10 125 15 125 5z m504 -21 c6 -24 2
-43 -8 -33 -11 10 -17 59 -8 59 5 0 13 -12 16 -26z m58 -38 c-20 -43 -69 -86
-99 -86 -23 0 -13 15 20 30 29 14 56 53 72 104 4 14 9 16 16 9 8 -8 5 -24 -9
-57z m-752 33 c0 -6 -4 -7 -10 -4 -5 3 -10 11 -10 16 0 6 5 7 10 4 6 -3 10
-11 10 -16z m643 -1 c7 -25 3 -33 -12 -23 -13 8 -15 45 -2 45 5 0 11 -10 14
-22z m-655 -31 c39 -39 53 -67 35 -67 -5 0 -27 21 -51 47 l-42 48 -29 -33
c-19 -22 -31 -30 -36 -22 -9 14 43 70 65 70 9 0 35 -19 58 -43z m-1268 -7 c0
-6 -35 -10 -86 -10 -54 0 -83 4 -79 10 3 6 42 10 86 10 46 0 79 -4 79 -10z
m1550 -61 c-8 -14 -15 -18 -22 -11 -6 6 -6 16 0 28 6 11 14 28 18 39 7 18 8
17 12 -7 2 -15 -2 -37 -8 -49z m122 -13 c-9 -16 -32 27 -31 58 l0 31 18 -40
c10 -22 16 -44 13 -49z m198 74 c0 -6 -33 -10 -80 -10 -47 0 -80 4 -80 10 0 6
33 10 80 10 47 0 80 -4 80 -10z m-1580 -44 c0 -44 0 -44 -35 -43 -34 1 -35 2
-35 44 0 42 0 43 35 43 35 0 35 0 35 -44z m90 1 l0 -42 -40 -1 c-40 -1 -40 -1
-40 36 0 45 5 50 47 50 32 0 33 -1 33 -43z m-724 -139 c-3 -13 -6 -31 -6 -41
0 -14 -5 -16 -25 -11 l-25 6 0 -106 0 -106 -45 0 -45 0 0 100 0 100 -31 0
c-28 0 -30 2 -27 33 l3 32 80 6 c44 3 91 6 104 7 20 2 22 -2 17 -20z m219 -88
c52 -173 52 -160 5 -160 -22 0 -40 4 -40 9 0 20 -33 41 -66 41 -28 0 -35 -4
-40 -25 -5 -22 -12 -25 -49 -25 l-44 0 46 135 45 136 55 -3 56 -3 32 -105z
m621 -5 c51 -170 51 -155 4 -155 -22 0 -40 4 -40 9 0 20 -33 41 -65 41 -27 0
-34 -5 -39 -25 -5 -21 -12 -25 -46 -25 -25 0 -40 5 -40 12 0 7 18 68 41 136
l41 123 55 -3 55 -3 34 -110z m245 86 c34 -35 34 -37 10 -76 -18 -29 -18 -31
3 -67 l21 -37 -21 -28 c-20 -27 -25 -28 -100 -28 l-79 0 -3 133 -3 132 71 0
c66 0 74 -2 101 -29z m214 -1 c8 -16 15 -31 15 -34 0 -3 -20 -3 -45 1 -44 6
-45 5 -45 -21 0 -24 3 -26 40 -26 38 0 40 -2 40 -31 0 -29 -2 -30 -37 -27 -34
3 -38 0 -41 -21 -4 -23 -2 -24 45 -17 l49 6 -4 -35 -4 -36 -82 3 -81 3 -3 133
-3 132 70 0 c68 0 71 -1 86 -30z m270 14 c35 -14 36 -16 21 -33 -20 -22 -20
-70 -1 -95 22 -29 18 -67 -8 -100 -19 -23 -29 -28 -48 -23 -47 13 -53 23 -30
46 26 26 26 37 1 79 -26 42 -25 68 3 109 12 18 23 33 23 33 1 0 18 -7 39 -16z
m235 1 c86 -45 78 -170 -13 -193 -25 -6 -33 -14 -35 -35 -3 -25 -7 -27 -45
-27 l-42 0 0 135 0 135 53 0 c29 0 66 -7 82 -15z m305 -1 c92 -43 84 -193 -13
-236 -58 -26 -105 -17 -149 27 -32 32 -38 54 -33 115 8 90 105 137 195 94z
m229 -5 c14 -11 33 -34 41 -49 14 -27 13 -31 -12 -61 l-27 -31 27 -48 c28 -50
27 -60 -9 -60 -16 0 -30 13 -48 45 -15 25 -32 45 -38 45 -7 0 -8 -15 -4 -45
l7 -45 -35 0 -36 0 0 135 0 135 54 0 c39 0 60 -6 80 -21z m286 2 c0 -35 -12
-51 -36 -51 -24 0 -24 -1 -24 -100 l0 -100 -45 0 -44 0 -3 98 -3 97 -27 -3
c-26 -3 -28 0 -28 31 0 18 3 37 7 40 3 4 51 7 105 7 90 0 98 -2 98 -19z m125
3 c35 -14 36 -16 21 -33 -21 -23 -20 -62 1 -98 18 -33 13 -65 -16 -102 -19
-24 -45 -25 -81 -1 -13 8 -13 11 1 22 27 21 29 44 8 84 -10 21 -19 47 -19 57
0 17 36 87 45 87 1 0 19 -7 40 -16z m-2335 -59 c35 -36 68 -65 72 -65 4 0 8
27 8 60 l0 60 35 0 35 0 0 -130 0 -130 -34 0 c-29 0 -43 10 -100 73 l-67 72 3
-73 3 -72 -37 0 -38 0 0 68 c0 37 -3 97 -7 135 l-6 67 34 0 c29 0 45 -10 99
-65z"/>
<path d="M2293 1773 c9 -2 23 -2 30 0 6 3 -1 5 -18 5 -16 0 -22 -2 -12 -5z"/>
<path d="M2358 1773 c6 -2 18 -2 25 0 6 3 1 5 -13 5 -14 0 -19 -2 -12 -5z"/>
<path d="M2293 1753 c9 -2 23 -2 30 0 6 3 -1 5 -18 5 -16 0 -22 -2 -12 -5z"/>
<path d="M2358 1753 c6 -2 18 -2 25 0 6 3 1 5 -13 5 -14 0 -19 -2 -12 -5z"/>
<path d="M3510 1820 c0 -5 5 -10 11 -10 5 0 7 5 4 10 -3 6 -8 10 -11 10 -2 0
-4 -4 -4 -10z"/>
<path d="M1910 1795 c0 -8 9 -15 20 -15 11 0 20 7 20 15 0 8 -9 15 -20 15 -11
0 -20 -7 -20 -15z"/>
<path d="M1970 1795 c0 -9 9 -15 25 -15 16 0 25 6 25 15 0 9 -9 15 -25 15 -16
0 -25 -6 -25 -15z"/>
<path d="M1910 1745 c0 -8 9 -15 20 -15 11 0 20 7 20 15 0 8 -9 15 -20 15 -11
0 -20 -7 -20 -15z"/>
<path d="M1970 1745 c0 -9 9 -15 25 -15 16 0 25 6 25 15 0 9 -9 15 -25 15 -16
0 -25 -6 -25 -15z"/>
<path d="M2100 1795 c0 -13 9 -16 48 -13 26 2 47 8 47 13 0 6 -21 11 -47 13
-39 3 -48 0 -48 -13z"/>
<path d="M2468 1803 c6 -2 18 -2 25 0 6 3 1 5 -13 5 -14 0 -19 -2 -12 -5z"/>
<path d="M2470 1780 c0 -5 5 -10 10 -10 6 0 10 5 10 10 0 6 -4 10 -10 10 -5 0
-10 -4 -10 -10z"/>
<path d="M2558 1803 c6 -2 18 -2 25 0 6 3 1 5 -13 5 -14 0 -19 -2 -12 -5z"/>
<path d="M2560 1780 c0 -5 5 -10 10 -10 6 0 10 5 10 10 0 6 -4 10 -10 10 -5 0
-10 -4 -10 -10z"/>
<path d="M2084 1715 c-7 -18 3 -35 22 -35 8 0 14 10 14 25 0 27 -27 35 -36 10z"/>
<path d="M2172 1708 c5 -34 38 -37 38 -4 0 20 -5 26 -21 26 -15 0 -20 -5 -17
-22z"/>
<path d="M1626 1488 c-9 -35 -8 -38 19 -38 28 0 28 0 15 34 -12 32 -26 33 -34
4z"/>
<path d="M2246 1488 c-9 -35 -8 -38 19 -38 28 0 28 0 15 34 -12 32 -26 33 -34
4z"/>
<path d="M2497 1546 c-8 -21 3 -56 18 -56 19 0 29 38 15 55 -16 19 -26 19 -33
1z"/>
<path d="M2500 1396 c0 -39 18 -48 41 -20 15 18 2 47 -25 52 -12 3 -16 -4 -16
-32z"/>
<path d="M3260 1484 c0 -23 4 -34 12 -32 33 11 36 68 3 68 -11 0 -15 -10 -15
-36z"/>
<path d="M3507 1502 c-44 -48 3 -123 62 -100 31 11 41 25 41 59 0 52 -69 79
-103 41z"/>
<path d="M3770 1490 c0 -43 9 -49 34 -24 19 19 20 36 4 52 -24 24 -38 13 -38
-28z"/>
</g>
</svg>
