<svg id="_レイヤー_2" xmlns="http://www.w3.org/2000/svg" viewBox="0 0 198.425 65.753"><defs><style>.cls-1{fill:#036;stroke-width:0}</style></defs><g id="_レイヤー_1-2"><path class="cls-1" d="M182.82 30.061h.615c.526 0 1.002-.027 1.002-.63 0-.502-.44-.58-.833-.58h-.785v1.21zm-.59-1.69h1.464c.904 0 1.335.354 1.335 1.091 0 .677-.434.968-.997 1.033l1.08 1.679h-.633l-1.034-1.635h-.626v1.635h-.59v-3.803zm1.266 4.679c1.505 0 2.672-1.202 2.672-2.795 0-1.556-1.167-2.754-2.672-2.754-1.522 0-2.684 1.198-2.684 2.754 0 1.593 1.162 2.795 2.684 2.795m0-6.024c1.771 0 3.26 1.397 3.26 3.229a3.243 3.243 0 01-3.26 3.271c-1.785 0-3.278-1.399-3.278-3.271 0-1.832 1.493-3.229 3.278-3.229"/><path class="cls-1" d="M198.425 65.753H3.588l-2.837-.18 179.191-7.85-14.537-22.443v11.386c0 3.132.077 4.28 2.918 4.506v1.814h-16.43v-1.814c2.99-.226 3.212-1.295 3.212-4.51l.018-38.872c0-3.357.28-4.582-2.917-4.735l.082-1.834h13.117v33.211l8.581-9.007c1.303-1.484 1.815-2.884 1.815-4.032 0-1.065-.742-1.755-3.21-1.755h-.36v-1.923h13.946v1.933c-3.118.144-4.725 1.365-7.048 3.808l-5.667 5.798 24.963 36.5z"/><path class="cls-1" d="M137.429 54.137c-8.126 0-14.718-7.565-14.718-18.18.003-11.302 7.476-19.24 16.768-19.237 6.898.002 11.098 3.591 11.098 8.406 0 2.75-1.743 4.66-4.434 4.656-2.886 0-4.352-1.763-4.35-5.268 0-.846.149-1.687.149-2.37 0-1.91-1.083-2.904-3.03-2.904-3.936-.006-6.186 4.276-6.193 12.444 0 10.998 3.85 16.96 9.943 16.96 2.899.006 4.932-1.218 7.255-3.814l1.457 1.304c-3.566 5.267-8.29 8.011-13.945 8.003M120.4 51.159v1.828h-15.78v-1.834c2.983-.23 3.148-1.301 3.148-4.51V24.342c0-3.357.274-4.483-2.911-4.737l.079-1.89h12.636V46.65c0 3.129.012 4.274 2.83 4.509m-53.151-.026c2.9-.077 3.147-1.375 3.147-4.509V7.6c0-3.134-.154-4.43-3.045-4.662V1.183l13.351.004V22.65c2.623-3.816 5.957-5.88 10.018-5.88 6.386.011 8.561 4.055 8.558 12.151v17.718c0 3.135.153 4.437 2.986 4.51v1.838H86.272V51.14h.508c2.185 0 2.486-1.516 2.486-4.503V28.308c0-4.13-.854-6.189-3.749-6.192-2.243 0-4.819 2.05-4.819 4.452l-.006 20.068c-.008 3.122.15 4.426 2.908 4.503v1.847H67.251v-1.853zm-14.535 2.973c-8.128-.006-14.728-7.571-14.725-18.19.003-11.297 7.477-19.241 16.774-19.238 6.892.008 11.098 3.593 11.086 8.408 0 2.755-1.74 4.659-4.422 4.659-2.908-.003-4.353-1.761-4.353-5.282 0-.831.143-1.672.143-2.361 0-1.904-1.077-2.902-3.042-2.902-3.918 0-6.167 4.277-6.174 12.444-.003 10.999 3.837 16.96 9.942 16.964 2.899 0 4.927-1.217 7.255-3.821l1.439 1.31c-3.551 5.266-8.269 8.012-13.923 8.009M0 36.41h2.094c1.375 6.494 8.675 13.998 15.805 13.998 5.17.003 7.706-3.747 7.715-7.047 0-3.314-2.774-5.343-6.368-7.452l-6.751-4.083C4.081 27.54.879 22.226.879 15.202.879 5.884 8.769.499 17.191.505c6.957.007 9.633 3.31 13.264 3.313 1.913 0 2.032-.842 2.245-2.446h2.035v15.59h-2.68C31.297 12.176 27.386 4.1 18.201 4.095c-4.071 0-6.624 3.288-6.624 5.9-.009 3.968 2.771 6.285 6.039 7.93l7.247 4.588c7.779 4.349 10.603 8.304 10.603 16.17-.003 9.71-6.969 15.129-18.07 15.124-6.905-.001-10.92-3.674-12.326-3.674-1.607 0-2.684 1.054-3.12 2.879H0V36.41zM112.44 0c3.042.006 5.426 2.599 5.426 5.81 0 3.204-2.459 5.724-5.43 5.724-3.052 0-5.445-2.528-5.445-5.733 0-3.208 2.324-5.801 5.45-5.801"/></g></svg>