<?xml version="1.0" encoding="utf-8"?>
<!-- Generator: Adobe Illustrator 24.3.0, SVG Export Plug-In . SVG Version: 6.00 Build 0)  -->
<svg version="1.1" id="レイヤー_1" xmlns="http://www.w3.org/2000/svg" xmlns:xlink="http://www.w3.org/1999/xlink" x="0px"
	 y="0px" viewBox="0 0 523.7 176.2" style="enable-background:new 0 0 523.7 176.2;" xml:space="preserve">
<style type="text/css">
	.st0{fill:#000;}
</style>
<g>
	<path class="st0" d="M63.9,60.1v23.7c-4.1-5-7.7-8.4-11-10.2c-3.2-1.9-6.9-2.9-11.2-2.9c-6.7,0-12.3,2.4-16.8,7.1
		c-4.4,4.7-6.7,10.6-6.7,17.7c0,7.3,2.1,13.2,6.4,17.9c4.3,4.7,9.9,7,16.6,7c4.3,0,8.1-0.9,11.4-2.8c3.2-1.8,6.9-5.3,11.2-10.5v23.6
		c-7.3,3.8-14.5,5.6-21.8,5.6c-12,0-22-3.9-30-11.6S0,107.3,0,95.8s4.1-21.3,12.2-29.2c8.2-7.9,18.2-11.9,30-11.9
		C49.9,54.6,57.1,56.5,63.9,60.1z"/>
	<path class="st0" d="M81.2,0H99v63.2c6.4-5.7,13.4-8.6,21-8.6c8.7,0,15.7,2.8,21,8.5c4.4,4.9,6.7,12.8,6.7,23.6v47.4h-17.9V88.4
		c0-6.2-1.1-10.7-3.3-13.5s-5.7-4.2-10.6-4.2c-6.2,0-10.6,1.9-13.2,5.8c-2.5,3.9-3.7,10.6-3.7,20.2v37.4H81.2V0z"/>
	<path class="st0" d="M164.4,24.6c0-3.1,1.1-5.8,3.4-8.1c2.3-2.3,5-3.4,8.2-3.4s6,1.1,8.3,3.4c2.3,2.2,3.4,5,3.4,8.2s-1.1,6-3.4,8.3
		c-2.2,2.3-5,3.4-8.2,3.4s-6-1.1-8.3-3.4C165.5,30.7,164.4,27.9,164.4,24.6z M185,56.8v77.4h-17.9V56.8H185z"/>
	<path class="st0" d="M225.5,176.2h-17.9V56.8h17.9v8.4c7-7,15-10.6,24-10.6c10.6,0,19.4,3.9,26.3,11.8c7,7.8,10.5,17.6,10.5,29.5
		c0,11.6-3.5,21.3-10.4,29s-15.6,11.5-26.1,11.5c-9.1,0-17.2-3.6-24.3-10.9L225.5,176.2L225.5,176.2z M268,95.9c0-7.4-2-13.4-6-18.1
		c-4.1-4.7-9.2-7.1-15.4-7.1c-6.6,0-11.9,2.3-16,6.8c-4.1,4.6-6.1,10.5-6.1,17.9c0,7.3,2,13.2,6.1,18c4,4.6,9.3,6.9,15.9,6.9
		c6.2,0,11.3-2.3,15.3-7C265.9,108.8,268,102.9,268,95.9z"/>
	<path class="st0" d="M316.5,176.2h-17.9V56.8h17.9v8.4c7-7,15-10.6,24-10.6c10.6,0,19.4,3.9,26.3,11.8c7,7.8,10.5,17.6,10.5,29.5
		c0,11.6-3.5,21.3-10.4,29s-15.6,11.5-26.1,11.5c-9.1,0-17.2-3.6-24.3-10.9V176.2z M359,95.9c0-7.4-2-13.4-6-18.1
		c-4.1-4.7-9.2-7.1-15.4-7.1c-6.6,0-11.9,2.3-16,6.8c-4.1,4.6-6.1,10.5-6.1,17.9c0,7.3,2,13.2,6.1,18c4,4.6,9.3,6.9,15.9,6.9
		c6.2,0,11.3-2.3,15.3-7C356.9,108.8,359,102.9,359,95.9z"/>
	<path class="st0" d="M460.1,99.7h-55.4c0.5,6.4,2.5,11.4,6.2,15.2c3.7,3.7,8.3,5.6,14.1,5.6c4.4,0,8.1-1.1,11-3.2s6.1-6,9.8-11.8
		l15.1,8.4c-2.3,4-4.8,7.4-7.4,10.2c-2.6,2.8-5.4,5.2-8.3,7c-3,1.8-6.2,3.2-9.6,4s-7.2,1.3-11.2,1.3c-11.5,0-20.8-3.7-27.8-11.1
		c-7-7.5-10.5-17.4-10.5-29.7c0-12.2,3.4-22.1,10.2-29.7c6.8-7.5,15.9-11.2,27.2-11.2c11.4,0,20.4,3.6,27,10.9
		c6.6,7.2,9.8,17.2,9.8,29.9L460.1,99.7z M441.8,85.1c-2.5-9.5-8.5-14.3-18-14.3c-2.2,0-4.2,0.3-6.1,1s-3.6,1.6-5.2,2.9
		c-1.6,1.2-2.9,2.7-4,4.5c-1.1,1.7-2,3.7-2.5,6L441.8,85.1L441.8,85.1z"/>
	<path class="st0" d="M473.1,56.8H491v6.9c3.3-3.4,6.2-5.8,8.7-7.1c2.6-1.3,5.7-2,9.2-2c4.7,0,9.6,1.5,14.8,4.6l-8.2,16.4
		c-3.4-2.4-6.7-3.7-9.9-3.7C495.9,72,491,79.3,491,94v40.1h-17.9V56.8z"/>
</g>
</svg>
