<?xml version="1.0" encoding="UTF-8"?>
<svg version="1.1" xmlns="http://www.w3.org/2000/svg" width="570" height="212">
<path d="M0 0 C1.43718132 -0.01441132 1.43718132 -0.01441132 2.90339661 -0.02911377 C4.4472126 -0.03548859 4.4472126 -0.03548859 6.0222168 -0.04199219 C7.08756149 -0.04769226 8.15290619 -0.05339233 9.25053406 -0.05926514 C11.50408945 -0.06870662 13.7576586 -0.07524573 16.01123047 -0.07910156 C19.44808197 -0.08880128 22.88433386 -0.11983095 26.32104492 -0.15136719 C28.51309867 -0.15789822 30.70515669 -0.1631483 32.8972168 -0.16699219 C34.43192375 -0.18551239 34.43192375 -0.18551239 35.99763489 -0.20440674 C43.30342207 -0.18174665 48.13597509 0.74276445 53.97143555 5.41113281 C59.18776143 11.96879964 58.43506635 19.70803538 58.38598633 27.70581055 C58.38627838 28.95528976 58.38657043 30.20476898 58.38687134 31.49211121 C58.38572066 34.90077511 58.37572317 38.30919369 58.36172342 41.71781421 C58.34918047 45.28656456 58.34804276 48.85531853 58.34567261 52.42408752 C58.33946828 59.17416903 58.32307171 65.92418538 58.30297363 72.67423826 C58.28058195 80.36227415 58.26961299 88.05031323 58.25958276 95.73837364 C58.23870449 111.54600413 58.20204142 127.35354493 58.15893555 143.16113281 C48.58893555 143.16113281 39.01893555 143.16113281 29.15893555 143.16113281 C29.13387939 139.72344482 29.10882324 136.28575684 29.08300781 132.74389648 C28.99964895 121.4043306 28.91099784 110.06481026 28.81959629 98.72530651 C28.76429247 91.8480569 28.71081514 84.97080211 28.66162109 78.09350586 C28.61416916 71.46046979 28.56164917 64.82748649 28.5059948 58.19451332 C28.48556486 55.65990821 28.46685285 53.12528868 28.44986153 50.59065819 C28.42583178 47.04923647 28.39577506 43.5079146 28.36425781 39.96655273 C28.35562462 38.38375519 28.35562462 38.38375519 28.34681702 36.76898193 C28.3370282 35.80564438 28.32723938 34.84230682 28.31715393 33.84977722 C28.31070138 33.0118674 28.30424883 32.17395758 28.29760075 31.31065655 C28.23853179 28.97575577 28.23853179 28.97575577 27.15893555 26.16113281 C21.87893555 25.83113281 16.59893555 25.50113281 11.15893555 25.16113281 C10.82893555 64.10113281 10.49893555 103.04113281 10.15893555 143.16113281 C0.58893555 143.16113281 -8.98106445 143.16113281 -18.84106445 143.16113281 C-18.93145015 126.34939255 -19.00509594 109.53786049 -19.04831314 92.72594452 C-19.06891533 84.91942123 -19.09699085 77.11305993 -19.14282227 69.30664062 C-19.18276211 62.5004676 -19.2085143 55.69441191 -19.21741843 48.88812494 C-19.22262117 45.28608322 -19.23479988 41.68437712 -19.26398468 38.08244324 C-19.29634444 34.05578896 -19.29701931 30.02971366 -19.29516602 26.00292969 C-19.30954712 24.81609589 -19.32392822 23.62926208 -19.33874512 22.40646362 C-19.30446893 15.51939906 -18.60055757 10.99374062 -14.84106445 5.16113281 C-9.97611077 1.20835794 -6.13869978 0.04987015 0 0 Z " fill="#005CA1" transform="translate(216.841064453125,-0.1611328125)"/>
<path d="M0 0 C9.57 0 19.14 0 29 0 C29.33 15.51 29.66 31.02 30 47 C35.04363775 35.27507025 35.04363775 35.27507025 40.08081055 23.54736328 C40.72421678 22.05491392 41.36783916 20.56255771 42.01171875 19.0703125 C42.33160767 18.32257568 42.65149658 17.57483887 42.9810791 16.80444336 C45.45947365 11.07171263 48.19470723 5.61058554 51 0 C60.57 0 70.14 0 80 0 C78.74659153 3.7602254 77.54023995 7.22970259 75.96875 10.82446289 C75.57494141 11.72882584 75.18113281 12.63318878 74.77539062 13.56495667 C74.35451172 14.52449753 73.93363281 15.48403839 73.5 16.47265625 C73.06365234 17.47332626 72.62730469 18.47399628 72.17773438 19.50498962 C70.7875812 22.69189154 69.39394987 25.87725717 68 29.0625 C66.60668428 32.25158606 65.21410129 35.44098976 63.82226562 38.63072205 C62.95738289 40.61224927 62.09153655 42.59335625 61.22460938 44.57398987 C60.83080078 45.47520065 60.43699219 46.37641144 60.03125 47.30493164 C59.68642578 48.09291641 59.34160156 48.88090118 58.98632812 49.69276428 C57.95139849 52.1136895 56.96862436 54.55187709 56 57 C56.66 57.20625 57.32 57.4125 58 57.625 C65.27162048 60.95782605 71.640348 66.280696 75.25 73.5 C76.72458913 78.4152971 77.12413519 83.16683704 77.11352539 88.28076172 C77.11341209 90.11198074 77.11341209 90.11198074 77.11329651 91.98019409 C77.10555458 93.93519333 77.10555458 93.93519333 77.09765625 95.9296875 C77.09578901 97.28874662 77.09436655 98.64780642 77.09336853 100.00686646 C77.08956748 103.56768686 77.07975802 107.12846587 77.06866455 110.68927002 C77.05839835 114.32929922 77.05380483 117.96933536 77.04882812 121.609375 C77.03866529 128.73961978 77.01908752 135.86975119 77 143 C67.43 143 57.86 143 48 143 C47.98582031 138.79894531 47.97164063 134.59789062 47.95703125 130.26953125 C47.93177566 126.91361062 47.90154681 123.55781654 47.86795807 120.20197296 C47.83389655 116.66280044 47.80854101 113.12406165 47.80444336 109.5847168 C47.79933468 105.52080162 47.75420824 101.45817739 47.70703125 97.39453125 C47.7109639 96.1297847 47.71489655 94.86503815 47.71894836 93.56196594 C47.69219695 86.99925479 47.69219695 86.99925479 45.20581055 81.1003418 C40.2648302 77.86317373 35.10233428 74.97636167 30 72 C29.67 95.43 29.34 118.86 29 143 C19.43 143 9.86 143 0 143 C0 95.81 0 48.62 0 0 Z " fill="#005CA1" transform="translate(399,0)"/>
<path d="M0 0 C9.57 0 19.14 0 29 0 C29.33 15.18 29.66 30.36 30 46 C33.0009375 39.07 33.0009375 39.07 36.0625 32 C40.68719754 21.32398375 45.32519861 10.65419853 50 0 C59.57 0 69.14 0 79 0 C78.14170891 4.29145544 77.08155859 7.42596272 75.33984375 11.3828125 C75.07399475 11.99089249 74.80814575 12.59897247 74.53424072 13.22547913 C73.966222 14.52343183 73.39602264 15.82043207 72.82382202 17.11654663 C71.93211496 19.13720279 71.04674777 21.16052175 70.16333008 23.18481445 C68.98987002 25.87367357 67.81497806 28.56189652 66.63867188 31.24951172 C64.46551776 36.21917537 62.3131019 41.19730376 60.1875 46.1875 C59.8567749 46.95143066 59.5260498 47.71536133 59.18530273 48.50244141 C57.91446015 51.49752706 57 53.71098176 57 57 C59.29324291 58.7178195 59.29324291 58.7178195 62.1875 60.3125 C69.71511013 64.93149569 73.50254091 69.32225075 76 78 C76.41167261 80.80515222 76.48688422 83.56595172 76.51171875 86.3984375 C76.53871353 87.57594322 76.53871353 87.57594322 76.56625366 88.77723694 C76.62054584 91.30977529 76.65449876 93.84210275 76.6875 96.375 C76.72030301 98.12119362 76.7540822 99.86736916 76.78881836 101.61352539 C77.04634795 115.40947939 77.08164557 129.2018982 77 143 C67.43 143 57.86 143 48 143 C47.94005859 136.49925781 47.94005859 136.49925781 47.87890625 129.8671875 C47.82194605 126.40193274 47.7560672 122.93710199 47.68416595 119.47213745 C47.61081028 115.8194471 47.55303246 112.16805646 47.53344727 108.51464844 C47.51395611 104.99243129 47.45094045 101.47339055 47.3582592 97.95236588 C47.31707561 95.96203637 47.32047003 93.97094535 47.32460022 91.98019409 C47.26604706 85.4280854 47.26604706 85.4280854 44.1557312 79.94586182 C41.8290742 78.36158812 39.55067588 77.18762023 37 76 C34.69 74.68 32.38 73.36 30 72 C29.67 95.43 29.34 118.86 29 143 C19.43 143 9.86 143 0 143 C0 95.81 0 48.62 0 0 Z " fill="#005CA1" transform="translate(1,0)"/>
<path d="M0 0 C7.82936805 -0.09198996 15.65684961 -0.17158663 23.48632812 -0.21972656 C26.14810247 -0.23753649 28.80901028 -0.26706285 31.47070312 -0.30175781 C35.3034958 -0.35045548 39.13570363 -0.37301116 42.96875 -0.390625 C44.74421204 -0.42159271 44.74421204 -0.42159271 46.55554199 -0.45318604 C54.66741266 -0.45537315 60.28618451 0.48164849 66.375 6.25 C70.33214546 12.94670771 70.29042693 20.12271496 70.25878906 27.67944336 C70.2622937 28.71954056 70.26579834 29.75963776 70.26940918 30.83125305 C70.27817245 34.25085228 70.27239594 37.67024262 70.265625 41.08984375 C70.2669733 43.47823628 70.26891521 45.86662855 70.27142334 48.25502014 C70.27436738 53.25394308 70.27010045 58.25279439 70.26074219 63.25170898 C70.24935437 69.64485096 70.25590757 76.03782486 70.26788712 82.43096066 C70.2751304 87.36130529 70.27280633 92.2916104 70.26763153 97.22195625 C70.26630155 99.57856835 70.26791984 101.93518408 70.27259064 104.29179192 C70.27769575 107.59167801 70.26988936 110.89129587 70.25878906 114.19116211 C70.26283752 115.15611603 70.26688599 116.12106995 70.27105713 117.11526489 C70.22605246 124.3734324 69.78137403 131.08502431 65.9375 137.375 C59.74713143 142.90681872 52.26602284 143.45611292 44.25 143.3984375 C43.3518457 143.40130768 42.45369141 143.40417786 41.52832031 143.40713501 C39.64257165 143.40916283 37.75680134 143.40372347 35.87109375 143.39111328 C33.00732776 143.37504113 30.14497282 143.39100584 27.28125 143.41015625 C25.43749693 143.40817359 23.59374472 143.40432945 21.75 143.3984375 C20.90598633 143.40451019 20.06197266 143.41058289 19.19238281 143.4168396 C11.98856303 143.33285585 5.49414976 142.28188169 0.0625 137.3125 C-4.09302368 130.63847711 -4.30128676 123.80925203 -4.265625 116.1640625 C-4.26753845 115.24466888 -4.2694519 114.32527527 -4.27142334 113.37802124 C-4.27277726 111.44341761 -4.26913659 109.50880464 -4.26074219 107.57421875 C-4.25005614 104.6404134 -4.26065197 101.70722374 -4.2734375 98.7734375 C-4.27211529 96.88281117 -4.26955161 94.99218522 -4.265625 93.1015625 C-4.26967346 92.23769928 -4.27372192 91.37383606 -4.27789307 90.48379517 C-4.20533292 80.88116736 -3.18246346 72.77268847 3.40625 65.43359375 C9.81640937 59.15455127 18.07057837 55.3612479 25.89746094 51.15283203 C29.42741849 49.21733975 32.8424614 47.10248086 36.25 44.9609375 C38 44 38 44 40 44 C39.505 35.09 39.505 35.09 39 26 C19.695 25.505 19.695 25.505 0 25 C0 16.75 0 8.5 0 0 Z M33.0625 76.75 C32.18722656 77.26046875 31.31195313 77.7709375 30.41015625 78.296875 C27.85529564 80.10225462 26.5808161 81.3095185 25 84 C24.55408985 87.33820363 24.55408985 87.33820363 24.63671875 91.06640625 C24.63622025 91.74170883 24.63572174 92.41701141 24.63520813 93.11277771 C24.63754203 94.53574578 24.64723025 95.9587185 24.66381836 97.3815918 C24.68745989 99.5588062 24.68436877 101.73479877 24.67773438 103.91210938 C24.3697995 111.3272562 24.3697995 111.3272562 27 118 C29.86051233 118.40319167 29.86051233 118.40319167 33.0625 118.25 C34.14660156 118.23453125 35.23070312 118.2190625 36.34765625 118.203125 C38.92151708 118.29549888 38.92151708 118.29549888 40 117 C40.09268999 115.64905018 40.11747326 114.29332909 40.11352539 112.93920898 C40.11344986 112.07839218 40.11337433 111.21757538 40.11329651 110.33067322 C40.10555458 108.92755638 40.10555458 108.92755638 40.09765625 107.49609375 C40.09553383 106.06657127 40.09553383 106.06657127 40.09336853 104.60816956 C40.08775152 101.55124835 40.07519616 98.49439923 40.0625 95.4375 C40.05748719 93.37044376 40.05292391 91.30338638 40.04882812 89.23632812 C40.03777656 84.15752412 40.02050055 79.0787743 40 74 C37.1333594 74 35.51517242 75.29496379 33.0625 76.75 Z " fill="#005CA1" transform="translate(102,0)"/>
<path d="M0 0 C7.84741777 -0.068949 15.69378021 -0.1286625 23.54125977 -0.16479492 C26.20973072 -0.17816361 28.87771718 -0.20031605 31.54614258 -0.22631836 C35.38629252 -0.26279585 39.22611438 -0.27974859 43.06640625 -0.29296875 C44.84961021 -0.31619453 44.84961021 -0.31619453 46.6688385 -0.33988953 C54.49445913 -0.34147187 59.6218112 0.2223781 65.8125 5.3125 C70.68976069 11.30456314 70.29216281 17.75887091 70.2746582 25.12670898 C70.27976913 26.23800171 70.28488007 27.34929443 70.29014587 28.4942627 C70.3040268 32.16159475 70.30308627 35.82873857 70.30078125 39.49609375 C70.30466882 42.04907806 70.30900362 44.60206173 70.31376648 47.15504456 C70.32122535 52.50385909 70.32107829 57.85260474 70.31567383 63.20141602 C70.30963401 69.37264738 70.32194912 75.54365074 70.3432439 81.71484321 C70.36301996 87.66609387 70.36602944 93.6172742 70.36250877 99.56855965 C70.36302187 102.09429523 70.36825743 104.62003446 70.37832069 107.14575005 C70.3906701 110.67864377 70.38390193 114.21101105 70.37231445 117.74389648 C70.37995819 118.78463821 70.38760193 119.82537994 70.39547729 120.8976593 C70.34283047 128.16745629 69.39581831 133.00522711 64.75 138.8125 C58.91725618 143.45218259 52.33954455 143.30819 45.19140625 143.30078125 C44.26585434 143.30506638 43.34030243 143.3093515 42.38670349 143.31376648 C40.43774225 143.31948534 38.48875968 143.32002816 36.53979492 143.31567383 C33.57498424 143.31251331 30.61117202 143.33600572 27.64648438 143.36132812 C25.74479291 143.36360147 23.84309879 143.36430445 21.94140625 143.36328125 C21.0640834 143.372491 20.18676056 143.38170074 19.28285217 143.39118958 C12.28038303 143.33912176 6.67498144 142.20976728 1.125 137.625 C-2.17746398 133.54548568 -3.2455242 130.02720181 -3.29052734 124.81762695 C-3.30328705 123.80920242 -3.31604675 122.80077789 -3.32919312 121.76179504 C-3.33141876 120.68153549 -3.33364441 119.60127594 -3.3359375 118.48828125 C-3.3425943 117.36487839 -3.3492511 116.24147552 -3.35610962 115.08403015 C-3.36622606 112.70781081 -3.37092695 110.33156312 -3.37060547 107.95532227 C-3.37496348 104.34277695 -3.41125393 100.7314687 -3.44921875 97.11914062 C-3.45509032 94.80469165 -3.45905743 92.49023691 -3.4609375 90.17578125 C-3.47530853 89.10564285 -3.48967957 88.03550446 -3.50448608 86.93293762 C-3.4586921 79.31071292 -2.41267634 72.01170155 2.68235779 66.02233887 C8.54226911 60.32109818 16.21032593 56.62105367 23.3125 52.6875 C25.22620016 51.6157604 27.1384073 50.54139802 29.05033875 49.46650696 C30.76985849 48.50164064 32.49286585 47.54299742 34.21606445 46.5847168 C36.18730494 45.46261542 38.11271247 44.25819169 40 43 C40.24950462 40.40990446 40.32719737 38.0812871 40.25 35.5 C40.24226562 34.46552734 40.24226562 34.46552734 40.234375 33.41015625 C40.21700031 29.57704003 40.21700031 29.57704003 39 26 C19.695 25.505 19.695 25.505 0 25 C0 16.75 0 8.5 0 0 Z M33.5 76.9375 C32.89285156 77.31068359 32.28570313 77.68386719 31.66015625 78.06835938 C28.66822203 79.81946992 28.66822203 79.81946992 26 82 C25.89908525 84.58189446 25.86028501 87.136465 25.8671875 89.71875 C25.86623077 90.49182495 25.86527405 91.2648999 25.86428833 92.06140137 C25.86360659 93.69897544 25.86546043 95.33655219 25.86962891 96.97412109 C25.87497729 99.48931921 25.86968374 102.00433873 25.86328125 104.51953125 C25.86394203 106.10677123 25.8652232 107.6940111 25.8671875 109.28125 C25.86516327 110.03853394 25.86313904 110.79581787 25.86105347 111.5760498 C25.55546316 115.08015563 25.55546316 115.08015563 27 118 C28.97513667 118.15126231 30.95678135 118.22173766 32.9375 118.25 C34.01902344 118.27578125 35.10054687 118.3015625 36.21484375 118.328125 C37.13394531 118.21984375 38.05304687 118.1115625 39 118 C41.06037303 114.90944045 41.24799242 114.29073838 41.22705078 110.80395508 C41.22689972 109.96331009 41.22674866 109.1226651 41.22659302 108.25654602 C41.21627045 107.35333115 41.20594788 106.45011627 41.1953125 105.51953125 C41.19106766 104.12754768 41.19106766 104.12754768 41.18673706 102.70744324 C41.17553836 99.74233121 41.15043435 96.77752079 41.125 93.8125 C41.1149698 91.80273874 41.10584402 89.79297274 41.09765625 87.78320312 C41.07560004 82.85535247 41.04107229 77.92772738 41 73 C38.50136462 73 35.64001754 75.60850822 33.5 76.9375 Z " fill="#005CA1" transform="translate(500,0)"/>
<path d="M0 0 C0.97135895 -0.00428513 1.9427179 -0.00857025 2.94351196 -0.01298523 C4.99260684 -0.0187124 7.04172204 -0.01924071 9.09082031 -0.01489258 C12.20934104 -0.01173618 15.32690911 -0.0352 18.4453125 -0.06054688 C20.44270715 -0.06282053 22.44010432 -0.06352305 24.4375 -0.0625 C25.36170746 -0.07170975 26.28591492 -0.08091949 27.23812866 -0.09040833 C33.1216573 -0.04880925 37.49780964 0.80627474 42.8515625 3.30078125 C46.8309605 7.38490025 49.09331586 11.21514228 49.1262207 16.94238281 C49.13575272 17.8572345 49.14528473 18.77208618 49.15510559 19.71466064 C49.15419418 20.69698669 49.15328278 21.67931274 49.15234375 22.69140625 C49.15662888 23.70998718 49.160914 24.72856812 49.16532898 25.77801514 C49.17106979 27.93321999 49.17157438 30.08844421 49.16723633 32.24365234 C49.16408748 35.5247553 49.18750054 38.80494672 49.21289062 42.0859375 C49.21516489 44.18359262 49.21586652 46.28125015 49.21484375 48.37890625 C49.2240535 49.35313538 49.23326324 50.3273645 49.24275208 51.33111572 C49.19624379 58.25615036 48.33649585 63.76830395 44.25024414 69.57714844 C38.58007397 75.15124009 32.2787772 78.82732687 25.2890625 82.55078125 C24.19142578 83.14890625 23.09378906 83.74703125 21.96289062 84.36328125 C19.85931267 85.5095347 17.75316683 86.65109278 15.64404297 87.78710938 C12.34834193 89.57355337 9.09470403 91.42096894 5.8515625 93.30078125 C5.82262318 96.92576459 5.80478458 100.55071838 5.7890625 104.17578125 C5.78068359 105.20832031 5.77230469 106.24085937 5.76367188 107.3046875 C5.76044922 108.29082031 5.75722656 109.27695313 5.75390625 110.29296875 C5.74866943 111.2041748 5.74343262 112.11538086 5.73803711 113.05419922 C5.70270685 115.33765634 5.70270685 115.33765634 6.8515625 117.30078125 C26.1565625 117.79578125 26.1565625 117.79578125 45.8515625 118.30078125 C45.8515625 126.55078125 45.8515625 134.80078125 45.8515625 143.30078125 C38.16486244 143.36977756 30.47924383 143.42947678 22.79248047 143.46557617 C20.17948763 143.48063058 17.56651992 143.50107855 14.95361328 143.52709961 C11.19036645 143.56362903 7.42745475 143.58054165 3.6640625 143.59375 C2.50229492 143.60923386 1.34052734 143.62471771 0.14355469 143.64067078 C-7.70443077 143.64228662 -13.71350977 143.0636579 -20.0234375 137.98828125 C-24.80179863 131.94505982 -24.44058473 125.5353546 -24.4230957 118.17407227 C-24.42820663 117.06277954 -24.43331757 115.95148682 -24.43858337 114.80651855 C-24.4524643 111.1391865 -24.45152377 107.47204268 -24.44921875 103.8046875 C-24.45310632 101.25170319 -24.45744112 98.69871952 -24.46220398 96.14573669 C-24.46966285 90.79692216 -24.46951579 85.44817651 -24.46411133 80.09936523 C-24.45807151 73.92813387 -24.47038662 67.75713051 -24.4916814 61.58593804 C-24.51145746 55.63468738 -24.51446694 49.68350705 -24.51094627 43.7322216 C-24.51145937 41.20648602 -24.51669493 38.68074679 -24.52675819 36.1550312 C-24.5391076 32.62213748 -24.53233943 29.0897702 -24.52075195 25.55688477 C-24.52839569 24.51614304 -24.53603943 23.47540131 -24.54391479 22.40312195 C-24.4911982 15.12368997 -23.57398339 10.25076949 -18.8359375 4.48828125 C-13.10756014 -0.17435148 -7.05350145 -0.00692548 0 0 Z M6.8515625 25.30078125 C4.35820039 29.04082442 4.59675022 31.92639734 4.65625 36.25 C4.6590799 37.02261673 4.66190979 37.79523346 4.66482544 38.59126282 C4.67601372 41.05709368 4.70111547 43.52256031 4.7265625 45.98828125 C4.73659407 47.66080204 4.74571961 49.33332853 4.75390625 51.00585938 C4.77594858 55.10430684 4.81046887 59.20248231 4.8515625 63.30078125 C8.42150129 61.92067706 11.43609552 60.39993404 14.6015625 58.23828125 C15.38015625 57.71105469 16.15875 57.18382813 16.9609375 56.640625 C18.77077963 55.43758761 18.77077963 55.43758761 19.8515625 54.30078125 C19.95149782 52.24022815 19.98237156 50.17625535 19.984375 48.11328125 C19.98566406 46.85773437 19.98695313 45.6021875 19.98828125 44.30859375 C19.98618652 43.65149414 19.9840918 42.99439453 19.98193359 42.31738281 C19.97658484 40.3091679 19.98187941 38.30117666 19.98828125 36.29296875 C19.98699219 35.03742187 19.98570312 33.781875 19.984375 32.48828125 C19.98324707 31.32683594 19.98211914 30.16539063 19.98095703 28.96875 C20.15493724 26.38014841 20.15493724 26.38014841 18.8515625 25.30078125 C16.87642583 25.14951894 14.89478115 25.07904359 12.9140625 25.05078125 C11.83253906 25.025 10.75101562 24.99921875 9.63671875 24.97265625 C8.25806641 25.13507812 8.25806641 25.13507812 6.8515625 25.30078125 Z " fill="#005CA1" transform="translate(325.1484375,-0.30078125)"/>
<path d="M0 0 C1.65 0 3.3 0 5 0 C4.67 2.64 4.34 5.28 4 8 C6.64 8 9.28 8 12 8 C12.37203166 30.94195251 12.37203166 30.94195251 9 36 C5.375 36.1875 5.375 36.1875 2 36 C2 34.68 2 33.36 2 32 C3.32 31.67 4.64 31.34 6 31 C6.33 24.73 6.66 18.46 7 12 C6.01 12 5.02 12 4 12 C4.12375 13.5778125 4.12375 13.5778125 4.25 15.1875 C4.27549454 22.30047563 1.93049688 30.10425467 -2 36 C-3.32 35.67 -4.64 35.34 -6 35 C-6 31.84247631 -5.50915202 30.74809744 -4.125 28 C-1.71837576 22.81978399 -0.79908987 17.6251721 0 12 C-1.98 12 -3.96 12 -6 12 C-6 10.68 -6 9.36 -6 8 C-4.02 8 -2.04 8 0 8 C0 5.36 0 2.72 0 0 Z " fill="#005CA1" transform="translate(7,175)"/>
<path d="M0 0 C1.65 0 3.3 0 5 0 C4.67 2.97 4.34 5.94 4 9 C6.64 9 9.28 9 12 9 C12.35064935 30.97402597 12.35064935 30.97402597 9 36 C5.375 36.1875 5.375 36.1875 2 36 C2 34.68 2 33.36 2 32 C3.32 31.67 4.64 31.34 6 31 C6.495 22.09 6.495 22.09 7 13 C6.01 13 5.02 13 4 13 C4.12375 14.3303125 4.12375 14.3303125 4.25 15.6875 C4.2782485 22.56600864 1.78613695 30.32079457 -2 36 C-3.32 35.67 -4.64 35.34 -6 35 C-6 31.8427271 -5.4974071 30.69734055 -4.125 27.9375 C-1.8714275 23.07873375 -0.83587026 18.26818227 0 13 C-1.98 13 -3.96 13 -6 13 C-6 11.68 -6 10.36 -6 9 C-4.02 9 -2.04 9 0 9 C0 6.03 0 3.06 0 0 Z " fill="#656464" transform="translate(218,175)"/>
<path d="M0 0 C1.65 0 3.3 0 5 0 C4.67 2.97 4.34 5.94 4 9 C6.64 9 9.28 9 12 9 C12.35064935 30.97402597 12.35064935 30.97402597 9 36 C5.375 36.1875 5.375 36.1875 2 36 C2 34.68 2 33.36 2 32 C3.32 31.67 4.64 31.34 6 31 C6.495 22.09 6.495 22.09 7 13 C6.01 13 5.02 13 4 13 C4.12375 14.3303125 4.12375 14.3303125 4.25 15.6875 C4.2782485 22.56600864 1.78613695 30.32079457 -2 36 C-3.32 35.67 -4.64 35.34 -6 35 C-6 31.8427271 -5.4974071 30.69734055 -4.125 27.9375 C-1.8714275 23.07873375 -0.83587026 18.26818227 0 13 C-1.98 13 -3.96 13 -6 13 C-6 11.68 -6 10.36 -6 9 C-4.02 9 -2.04 9 0 9 C0 6.03 0 3.06 0 0 Z " fill="#656464" transform="translate(49,175)"/>
<path d="M0 0 C1.32 0 2.64 0 4 0 C4 2.64 4 5.28 4 8 C6.31 8 8.62 8 11 8 C11.05865035 11.18742115 11.09381259 14.37470118 11.125 17.5625 C11.15013672 18.90538086 11.15013672 18.90538086 11.17578125 20.27539062 C11.21475029 25.59466432 10.81745031 29.98518341 9 35 C8 36 8 36 4.9375 36.0625 C3.968125 36.041875 2.99875 36.02125 2 36 C2 34.68 2 33.36 2 32 C3.32 32 4.64 32 6 32 C5.979375 30.741875 5.95875 29.48375 5.9375 28.1875 C5.92884928 22.75485053 6.43487613 17.39895124 7 12 C6.01 12 5.02 12 4 12 C3.90203125 12.99 3.8040625 13.98 3.703125 15 C2.19424381 28.8319944 2.19424381 28.8319944 -2 35 C-4.1328125 35.6953125 -4.1328125 35.6953125 -6 36 C-6.61328125 34.21875 -6.61328125 34.21875 -7 32 C-6.03548348 30.13748534 -5.0656417 28.27736614 -4.05859375 26.4375 C-2.07326973 21.8661266 -1.6223278 16.91311423 -1 12 C-2.98 12 -4.96 12 -7 12 C-7 10.68 -7 9.36 -7 8 C-4.69 8 -2.38 8 0 8 C0 5.36 0 2.72 0 0 Z " fill="#005CA1" transform="translate(341,175)"/>
<path d="M0 0 C1.32 0 2.64 0 4 0 C4 1.98 4 3.96 4 6 C5.98 6 7.96 6 10 6 C10 6.99 10 7.98 10 9 C7.69 9.33 5.38 9.66 3 10 C2.67 10.99 2.34 11.98 2 13 C4.91482778 13.80967438 6.46113217 14.21845993 9.3125 13.0625 C9.869375 12.711875 10.42625 12.36125 11 12 C11.75 13.75 11.75 13.75 12 16 C11.38125 16.556875 10.7625 17.11375 10.125 17.6875 C7.01299394 21.07409483 7.19063226 24.53920509 7 29 C6.01 29 5.02 29 4 29 C3.67 28.01 3.34 27.02 3 26 C3 27.65 3 29.3 3 31 C5.97 31.33 8.94 31.66 12 32 C11.67 33.32 11.34 34.64 11 36 C3.1591623 36.45235602 3.1591623 36.45235602 -0.5625 35 C-2.40569418 32.43555592 -2.54473501 30.25653772 -2.40625 27.140625 C-1.72484297 23.55013412 -0.0156299 21.02344485 2 18 C0.02 20.97 0.02 20.97 -2 24 C-3.32 23.67 -4.64 23.34 -6 23 C-5.21824485 18.15311808 -3.60155722 13.6233633 -2 9 C-2.99 9 -3.98 9 -5 9 C-5 8.01 -5 7.02 -5 6 C-3.68 6 -2.36 6 -1 6 C-0.67 4.02 -0.34 2.04 0 0 Z " fill="#656464" transform="translate(300,175)"/>
<path d="M0 0 C1.32 0 2.64 0 4 0 C4 1.98 4 3.96 4 6 C5.98 6 7.96 6 10 6 C9.40895235 10.84659077 8.02055843 14.60748167 6 19 C7.98 20.98 9.96 22.96 12 25 C11.34 26.32 10.68 27.64 10 29 C9.34 29 8.68 29 8 29 C7.01 27.68 6.02 26.36 5 25 C4.67 28.63 4.34 32.26 4 36 C2.68 36 1.36 36 0 36 C-0.33 32.7 -0.66 29.4 -1 26 C-1.99 26.99 -2.98 27.98 -4 29 C-6.1875 28.6875 -6.1875 28.6875 -8 28 C-8 27.01 -8 26.02 -8 25 C-6.390625 23.45703125 -6.390625 23.45703125 -4.25 21.8125 C-0.00432249 18.289491 1.87215888 15.05362266 4 10 C0.7 10 -2.6 10 -6 10 C-6 8.68 -6 7.36 -6 6 C-4.02 6 -2.04 6 0 6 C0 4.02 0 2.04 0 0 Z " fill="#005CA1" transform="translate(177,175)"/>
<path d="M0 0 C1.32 0 2.64 0 4 0 C4 1.98 4 3.96 4 6 C5.7015625 5.9690625 5.7015625 5.9690625 7.4375 5.9375 C11 6 11 6 12 7 C12.89882347 14.90964654 10.25394481 23.97534178 5.9375 30.625 C5.298125 31.40875 4.65875 32.1925 4 33 C3.505 33.639375 3.01 34.27875 2.5 34.9375 C1 36 1 36 -1.1875 35.6875 C-1.785625 35.460625 -2.38375 35.23375 -3 35 C-3 34.01 -3 33.02 -3 32 C-1.88625 30.9790625 -1.88625 30.9790625 -0.75 29.9375 C4.55292649 24.96506751 6.21654521 16.83657669 8 10 C5.55000678 10.07107336 5.55000678 10.07107336 3 11 C1.62956049 13.45785497 1.62956049 13.45785497 0.875 16.4375 C-0.70632774 21.8042185 -0.70632774 21.8042185 -4 24 C-4.66 23.67 -5.32 23.34 -6 23 C-5.08751819 17.90530987 -3.50251954 13.08145855 -1.9375 8.15625 C-1.13106544 5.44125365 -0.49882747 2.78512003 0 0 Z " fill="#656464" transform="translate(91,175)"/>
<path d="M0 0 C7.59 0 15.18 0 23 0 C23 0.99 23 1.98 23 3 C19.37 3.33 15.74 3.66 12 4 C11.01 6.64 10.02 9.28 9 12 C10.98 11.67 12.96 11.34 15 11 C14.34 9.02 13.68 7.04 13 5 C16.13554235 5.30616407 17.57036451 5.47904102 19.6171875 7.9609375 C20.03226563 8.75757813 20.44734375 9.55421875 20.875 10.375 C21.30554688 11.16648438 21.73609375 11.95796875 22.1796875 12.7734375 C23 15 23 15 22 18 C20.68 17.67 19.36 17.34 18 17 C18 16.34 18 15.68 18 15 C17.27554688 15.144375 16.55109375 15.28875 15.8046875 15.4375 C10.81508377 16.39550392 6.10732262 17.27607149 1 17 C1 15.68 1 14.36 1 13 C1.99 12.67 2.98 12.34 4 12 C5.02281518 9.90280128 5.02281518 9.90280128 5.6875 7.4375 C5.93886719 6.61121094 6.19023437 5.78492188 6.44921875 4.93359375 C6.63097656 4.29550781 6.81273437 3.65742188 7 3 C4.69 3 2.38 3 0 3 C0 2.01 0 1.02 0 0 Z " fill="#656464" transform="translate(501,194)"/>
<path d="M0 0 C5.28 0 10.56 0 16 0 C16 1.32 16 2.64 16 4 C14.02 4 12.04 4 10 4 C10 11.59 10 19.18 10 27 C12.31 27 14.62 27 17 27 C17 28.32 17 29.64 17 31 C10.73 31 4.46 31 -2 31 C-2 29.68 -2 28.36 -2 27 C0.64 27 3.28 27 6 27 C6 19.41 6 11.82 6 4 C4.02 4 2.04 4 0 4 C0 2.68 0 1.36 0 0 Z " fill="#656464" transform="translate(420,179)"/>
<path d="M0 0 C1.32 0 2.64 0 4 0 C4 3.3 4 6.6 4 10 C6.31 10 8.62 10 11 10 C11 11.32 11 12.64 11 14 C8.69 14 6.38 14 4 14 C4.061875 15.299375 4.12375 16.59875 4.1875 17.9375 C4.17763111 24.19437415 2.92464187 29.74541952 -1.1875 34.5625 C-1.785625 35.036875 -2.38375 35.51125 -3 36 C-4.32 35.34 -5.64 34.68 -7 34 C-6.49339844 33.21689453 -6.49339844 33.21689453 -5.9765625 32.41796875 C-2.33947725 26.4157269 -0.86866924 20.93638869 0 14 C-2.97 14 -5.94 14 -9 14 C-9 12.68 -9 11.36 -9 10 C-6.03 10 -3.06 10 0 10 C0 6.7 0 3.4 0 0 Z " fill="#656464" transform="translate(385,175)"/>
<path d="M0 0 C1.9375 0.375 1.9375 0.375 4 1 C4.33 1.66 4.66 2.32 5 3 C4.0324707 4.5234375 4.0324707 4.5234375 2.61328125 6.375 C-0.86598933 11.69921067 -0.77752876 16.79066237 -0.8125 23 C-0.83763672 24.06089844 -0.86277344 25.12179688 -0.88867188 26.21484375 C-0.94712741 28.81026955 -0.98371128 31.40402503 -1 34 C-2.65 34 -4.3 34 -6 34 C-6.33 29.38 -6.66 24.76 -7 20 C-8.32 20.99 -9.64 21.98 -11 23 C-11.99 23 -12.98 23 -14 23 C-14.33 21.68 -14.66 20.36 -15 19 C-14.23816406 18.41605469 -14.23816406 18.41605469 -13.4609375 17.8203125 C-7.24698337 12.77002019 -3.55604371 7.11208741 0 0 Z " fill="#656464" transform="translate(267,177)"/>
<path d="M0 0 C0 1.32 0 2.64 0 4 C-0.763125 4.45375 -1.52625 4.9075 -2.3125 5.375 C-5.77602454 7.46922414 -6.55816412 9.25122672 -8 13 C-8.81363036 16.56745619 -9.17125215 19.16276727 -8.4375 22.75 C-6.49953024 25.78334397 -4.27248265 26.64832238 -1 28 C-1.33 29.32 -1.66 30.64 -2 32 C-5.97007156 31.72301826 -7.72389212 31.23315777 -10.8125 28.625 C-14.09041002 24.69150797 -14.32502294 21.41715704 -14.30078125 16.49609375 C-13.78449459 12.211585 -11.94338054 8.82603044 -10 5 C-14.455 5.495 -14.455 5.495 -19 6 C-19 4.68 -19 3.36 -19 2 C-16.39610703 1.66440045 -13.7919239 1.33143142 -11.1875 1 C-10.44951172 0.90460938 -9.71152344 0.80921875 -8.95117188 0.7109375 C-5.94569605 0.33015323 -3.03285559 0 0 0 Z " fill="#656464" transform="translate(143,179)"/>
<path d="M0 0 C0.99 0 1.98 0 3 0 C3 3.96 3 7.92 3 12 C4.65 12 6.3 12 8 12 C8 12.99 8 13.98 8 15 C6.35 15 4.7 15 3 15 C3 20.61 3 26.22 3 32 C4.98 32 6.96 32 9 32 C9 33.32 9 34.64 9 36 C4.05 36 -0.9 36 -6 36 C-6 34.68 -6 33.36 -6 32 C-4.35 32 -2.7 32 -1 32 C-1 26.39 -1 20.78 -1 15 C-2.32 15 -3.64 15 -5 15 C-5 14.01 -5 13.02 -5 12 C-3.68 12 -2.36 12 -1 12 C-1.01160156 11.21753906 -1.02320313 10.43507812 -1.03515625 9.62890625 C-1.04417969 8.61699219 -1.05320312 7.60507813 -1.0625 6.5625 C-1.07410156 5.55316406 -1.08570313 4.54382813 -1.09765625 3.50390625 C-1 1 -1 1 0 0 Z " fill="#656464" transform="translate(560,176)"/>
<path d="M0 0 C1.32 0 2.64 0 4 0 C4 1.98 4 3.96 4 6 C5.32 6 6.64 6 8 6 C7.83242188 6.83144531 7.66484375 7.66289062 7.4921875 8.51953125 C7.28851562 9.60621094 7.08484375 10.69289062 6.875 11.8125 C6.66617188 12.89144531 6.45734375 13.97039062 6.2421875 15.08203125 C5.67960103 18.19282519 5.67960103 18.19282519 8 21 C7.625 23.6875 7.625 23.6875 7 26 C6.34 26 5.68 26 5 26 C4.67 29.3 4.34 32.6 4 36 C2.68 36 1.36 36 0 36 C0 32.7 0 29.4 0 26 C-1.32 25.67 -2.64 25.34 -4 25 C-3.28028381 21.24654344 -1.66887798 18.13908031 0.0625 14.75 C0.88427734 13.13351563 0.88427734 13.13351563 1.72265625 11.484375 C2.35494141 10.25460938 2.35494141 10.25460938 3 9 C1.02 9 -0.96 9 -3 9 C-3 8.01 -3 7.02 -3 6 C-2.01 6 -1.02 6 0 6 C0 4.02 0 2.04 0 0 Z " fill="#656464" transform="translate(548,176)"/>
<path d="M0 0 C2.30859375 -0.26953125 2.30859375 -0.26953125 5 0 C6.66015625 1.86328125 6.66015625 1.86328125 8.0625 4.3125 C10.02945039 7.69609056 11.7233605 9.8226202 15 12 C14.67 13.32 14.34 14.64 14 16 C6.41 16 -1.18 16 -9 16 C-9.33 14.68 -9.66 13.36 -10 12 C-9.0925 11.319375 -8.185 10.63875 -7.25 9.9375 C-3.77393779 7.07098424 -2.03435118 3.99045809 0 0 Z M2 5 C0.68 7.31 -0.64 9.62 -2 12 C0.97 12 3.94 12 7 12 C5.02 8.535 5.02 8.535 3 5 C2.67 5 2.34 5 2 5 Z " fill="#656464" transform="translate(510,176)"/>
<path d="M0 0 C1.32 0 2.64 0 4 0 C4.33 7.92 4.66 15.84 5 24 C5.99 22.02 6.98 20.04 8 18 C8.66 18 9.32 18 10 18 C10.875 20.4375 10.875 20.4375 11 24 C9.29484528 27.22667738 7.21776683 30.10726066 5 33 C1.125 32.125 1.125 32.125 0 31 C-0.08790975 28.70848583 -0.10694038 26.41427476 -0.09765625 24.12109375 C-0.0962413 23.4344313 -0.09482635 22.74776886 -0.09336853 22.04029846 C-0.08775479 19.83932199 -0.07520007 17.63844591 -0.0625 15.4375 C-0.05748676 13.94856917 -0.05292355 12.45963676 -0.04882812 10.97070312 C-0.03778093 7.31376925 -0.02050713 3.65689442 0 0 Z " fill="#656464" transform="translate(469,177)"/>
<path d="M0 0 C1.65 0 3.3 0 5 0 C5.47727273 24.57954545 5.47727273 24.57954545 -1 33 C-1.99 32.34 -2.98 31.68 -4 31 C-3.68712036 30.22668335 -3.68712036 30.22668335 -3.36791992 29.43774414 C-0.99497858 23.06612626 -0.46910522 17.19837093 -0.3125 10.4375 C-0.27833984 9.42880859 -0.24417969 8.42011719 -0.20898438 7.38085938 C-0.12736719 4.92068432 -0.05794324 2.46082691 0 0 Z " fill="#656464" transform="translate(462,178)"/>
<path d="M0 0 C0.66 1.98 1.32 3.96 2 6 C-0.3125 7.5625 -0.3125 7.5625 -3 9 C-3.99 8.67 -4.98 8.34 -6 8 C-6.33 6.02 -6.66 4.04 -7 2 C-4.35261084 0.5393715 -3.10551666 0 0 0 Z " fill="#656464" transform="translate(231,174)"/>
<path d="M0 0 C0.86625 0.3403125 0.86625 0.3403125 1.75 0.6875 C2.08 2.3375 2.41 3.9875 2.75 5.6875 C1.43 6.0175 0.11 6.3475 -1.25 6.6875 C-1.25 7.3475 -1.25 8.0075 -1.25 8.6875 C-2.57 8.3575 -3.89 8.0275 -5.25 7.6875 C-5.58 6.0375 -5.91 4.3875 -6.25 2.6875 C-2.80384615 -0.38942308 -2.80384615 -0.38942308 0 0 Z " fill="#656464" transform="translate(143.25,185.3125)"/>
<path d="M0 0 C0.66 1.98 1.32 3.96 2 6 C-1.465 7.485 -1.465 7.485 -5 9 C-7 6 -7 6 -7 2 C-4.35261084 0.5393715 -3.10551666 0 0 0 Z " fill="#656464" transform="translate(62,174)"/>
</svg>
