<?xml version="1.0" standalone="no"?>
<!DOCTYPE svg PUBLIC "-//W3C//DTD SVG 20010904//EN"
 "http://www.w3.org/TR/2001/REC-SVG-20010904/DTD/svg10.dtd">
<svg version="1.0" xmlns="http://www.w3.org/2000/svg"
 width="976.000000pt" height="520.000000pt" viewBox="0 0 976.000000 520.000000"
 preserveAspectRatio="xMidYMid meet">

<g transform="translate(0.000000,520.000000) scale(0.100000,-0.100000)"
fill="#000000" stroke="none">
<path d="M4739 4620 c-250 -23 -547 -121 -772 -256 -245 -148 -483 -386 -631
-631 -100 -167 -192 -404 -231 -598 -43 -215 -42 -506 4 -726 63 -304 217
-613 420 -846 276 -315 641 -521 1071 -604 96 -19 149 -23 320 -23 233 0 344
17 550 80 1050 327 1581 1490 1143 2503 -151 349 -418 653 -741 844 -353 209
-726 293 -1133 257z m501 -98 c369 -73 678 -238 935 -496 257 -259 422 -579
491 -951 26 -140 27 -449 1 -590 -118 -636 -531 -1138 -1122 -1363 -345 -132
-759 -149 -1116 -47 -551 158 -1007 593 -1189 1137 -60 180 -82 305 -87 508
-6 210 3 305 47 485 164 668 717 1191 1391 1314 160 29 154 29 359 26 139 -2
211 -8 290 -23z"/>
<path d="M4810 3983 c-191 -13 -444 -111 -611 -237 -242 -183 -398 -430 -465
-741 -18 -80 -24 -317 -11 -395 46 -273 156 -490 341 -676 112 -111 182 -164
303 -225 185 -94 349 -133 558 -133 329 1 611 119 846 353 236 236 353 519
353 851 0 268 -82 515 -238 721 -255 337 -642 510 -1076 482z m398 -107 c412
-116 703 -412 815 -829 19 -70 22 -108 22 -267 0 -159 -3 -197 -22 -267 -114
-424 -412 -722 -836 -836 -70 -19 -108 -22 -267 -22 -159 0 -197 3 -267 22
-417 112 -714 403 -829 815 -35 126 -45 363 -19 489 95 472 426 809 900 913
52 12 113 15 240 12 146 -3 183 -7 263 -30z"/>
<path d="M4785 3839 c-165 -21 -361 -99 -495 -199 -74 -55 -188 -171 -242
-245 -20 -28 -57 -91 -82 -140 -123 -245 -146 -528 -65 -791 l20 -64 999 0
999 0 21 68 c114 366 16 775 -254 1050 -241 247 -565 363 -901 321z m449 -195
c9 -3 16 -14 16 -23 0 -25 -299 -763 -316 -781 -19 -20 -27 -9 -69 95 -271
672 -277 686 -265 700 10 13 62 15 315 15 167 0 310 -3 319 -6z m-635 -181
c43 -94 251 -572 251 -577 0 -3 -5 -6 -10 -6 -16 0 -531 392 -524 399 15 16
260 210 265 210 3 1 11 -11 18 -26z m814 -87 c121 -95 127 -102 109 -116 -148
-116 -503 -380 -511 -380 -6 0 -11 3 -11 6 0 6 156 367 240 557 14 31 25 45
33 40 7 -3 70 -52 140 -107z m-887 -318 c101 -73 181 -135 176 -139 -8 -8
-603 -159 -626 -159 -29 0 -17 29 55 133 39 56 101 146 137 200 37 53 68 97
70 97 2 0 86 -59 188 -132z m1124 -65 c74 -109 136 -206 138 -215 2 -11 -3
-18 -13 -18 -25 0 -619 151 -628 159 -6 6 347 269 363 270 3 0 66 -88 140
-196z m214 -49 c31 -30 10 -94 -30 -94 -34 0 -54 20 -54 55 0 50 50 73 84 39z
m-264 -344 c0 -5 -8 -14 -17 -19 -15 -9 -14 -10 10 -11 20 0 27 -5 27 -20 0
-11 -4 -20 -10 -20 -5 0 -10 -9 -10 -19 0 -14 -8 -21 -27 -24 -23 -3 -21 -4
10 -6 30 -1 37 -5 37 -21 0 -18 -7 -20 -55 -20 l-55 0 0 65 c0 48 4 65 13 65
8 0 22 9 32 20 19 21 45 27 45 10z m-1275 -36 c16 -4 20 -14 22 -55 2 -44 -1
-51 -22 -61 -20 -9 -95 -4 -95 7 0 24 15 33 48 29 l37 -4 -34 9 c-52 14 -64
41 -29 65 24 17 40 19 73 10z m155 -14 c0 -13 -7 -20 -20 -20 -17 0 -20 -7
-20 -45 0 -38 -3 -45 -20 -45 -17 0 -20 7 -20 45 0 38 -3 45 -20 45 -13 0 -20
7 -20 20 0 18 7 20 60 20 53 0 60 -2 60 -20z m104 -2 l7 -23 11 23 c7 13 20
22 35 22 22 0 23 -3 23 -65 0 -58 -2 -65 -20 -65 -15 0 -20 7 -20 28 l-1 27
-13 -24 -14 -24 -15 29 -16 29 -1 -32 c0 -23 -5 -33 -15 -33 -12 0 -15 14 -15
65 0 62 1 65 24 65 16 0 26 -7 30 -22z m197 -26 c26 -77 26 -76 2 -80 -16 -2
-23 2 -23 12 0 20 -39 21 -46 1 -4 -8 -14 -15 -24 -15 -17 0 -17 4 3 65 19 58
24 65 47 65 21 0 28 -8 41 -48z m143 32 c9 -8 16 -19 16 -24 0 -5 12 2 26 17
21 21 32 24 61 20 43 -7 45 -9 37 -30 -4 -12 -13 -15 -30 -11 -14 4 -31 1 -39
-6 -23 -19 1 -42 39 -38 43 4 49 -28 7 -37 -43 -9 -69 2 -91 38 -15 25 -20 28
-25 15 -4 -9 -2 -26 5 -37 9 -19 8 -21 -13 -21 -16 0 -28 9 -37 28 l-14 27 -4
-27 c-2 -20 -9 -28 -23 -28 -17 0 -19 7 -19 65 l0 65 44 0 c27 0 51 -6 60 -16z
m298 8 c27 -11 4 -36 -34 -36 -26 -1 -33 -5 -33 -21 0 -16 6 -20 34 -18 22 1
39 -5 46 -14 10 -13 14 -9 28 26 10 23 17 48 17 56 0 10 10 15 28 15 25 0 30
-6 46 -52 9 -29 20 -59 23 -65 3 -9 -4 -13 -21 -13 -16 0 -26 6 -26 15 0 19
-36 20 -43 1 -4 -10 -25 -13 -77 -12 -58 2 -75 6 -86 21 -42 57 27 125 98 97z
m278 -12 c0 -11 -4 -20 -10 -20 -5 0 -10 -11 -10 -25 0 -20 -5 -24 -22 -22
-17 1 -24 -4 -26 -20 -2 -15 -10 -23 -23 -23 -17 0 -19 7 -19 65 l0 65 55 0
c48 0 55 -2 55 -20z m-1000 -84 c0 -8 -5 -18 -11 -22 -14 -8 -33 11 -25 25 10
16 36 13 36 -3z"/>
<path d="M5804 2926 c-15 -39 23 -74 50 -46 8 9 6 11 -11 5 -14 -4 -23 -2 -23
4 0 6 0 14 0 19 0 4 6 8 13 8 6 1 17 2 22 3 13 2 -16 21 -33 21 -7 0 -15 -6
-18 -14z"/>
<path d="M4730 2504 c0 -8 5 -12 10 -9 6 4 8 11 5 16 -9 14 -15 11 -15 -7z"/>
<path d="M4868 2523 c6 -2 18 -2 25 0 6 3 1 5 -13 5 -14 0 -19 -2 -12 -5z"/>
<path d="M5300 2504 c0 -8 5 -12 10 -9 6 4 8 11 5 16 -9 14 -15 11 -15 -7z"/>
<path d="M5438 2523 c6 -2 18 -2 25 0 6 3 1 5 -13 5 -14 0 -19 -2 -12 -5z"/>
<path d="M3945 2353 c3 -16 18 -47 31 -71 l25 -42 922 2 922 3 27 50 c52 94
158 85 -953 85 l-981 0 7 -27z m135 -24 c0 -6 -7 -9 -15 -5 -9 3 -15 0 -15 -9
0 -8 7 -15 16 -15 8 0 12 -4 9 -10 -17 -28 -54 3 -41 35 6 17 46 21 46 4z m33
-1 c4 -10 8 -9 16 2 8 12 11 7 11 -20 0 -27 -3 -32 -11 -20 -8 11 -12 12 -16
3 -9 -24 -23 -13 -23 17 0 30 14 41 23 18z m97 -13 c0 -32 -28 -45 -46 -21
-17 24 -7 46 22 46 19 0 24 -5 24 -25z m65 14 c4 -6 0 -9 -10 -7 -10 2 -20 -2
-22 -9 -2 -6 6 -13 19 -15 21 -4 21 -5 5 -13 -23 -10 -50 15 -41 38 7 19 39
23 49 6z m71 -4 c7 -18 -13 -45 -33 -45 -17 0 -27 24 -19 45 7 20 45 19 52 0z
m64 4 c0 -6 -7 -9 -15 -5 -9 3 -15 0 -15 -9 0 -8 8 -15 17 -15 13 0 14 -3 6
-11 -18 -18 -43 -2 -43 26 0 20 5 25 25 25 14 0 25 -5 25 -11z m60 -19 c0 -28
-19 -44 -21 -17 0 10 -2 10 -6 0 -9 -24 -23 -13 -23 17 0 25 4 30 25 30 21 0
25 -5 25 -30z m68 3 c3 -22 -28 -40 -48 -28 -12 7 -13 38 -3 49 15 14 48 1 51
-21z m117 -3 c0 -18 -6 -26 -22 -28 -20 -3 -23 1 -23 28 0 27 3 31 22 28 17
-2 23 -10 23 -28z m61 -2 c1 -16 -2 -28 -7 -28 -5 0 -9 5 -9 11 0 8 -5 8 -15
-1 -13 -11 -15 -8 -15 19 0 27 3 32 21 29 15 -2 23 -11 25 -30z m44 22 c-8 -5
-10 -10 -5 -10 6 0 11 -9 12 -20 1 -14 -4 -20 -18 -20 -14 0 -19 7 -19 30 0
24 4 30 23 30 18 0 19 -2 7 -10z m70 -9 c16 -30 12 -36 -20 -37 -34 -1 -34 -3
-18 31 13 30 24 32 38 6z m78 -5 c4 -20 -13 -36 -40 -36 -13 0 -18 8 -18 31 0
27 3 30 27 27 18 -2 29 -10 31 -22z m117 -6 c0 -38 -39 -35 -43 3 -3 25 0 28
20 25 17 -2 23 -10 23 -28z m85 4 c0 -27 -19 -42 -30 -24 -5 9 -9 9 -14 1 -11
-17 -26 -3 -26 23 0 19 5 23 35 23 30 0 35 -4 35 -23z m40 16 c-10 -6 -11 -10
-2 -10 6 0 12 -9 12 -20 0 -13 -7 -20 -20 -20 -16 0 -20 7 -20 30 0 24 4 30
23 30 18 0 19 -2 7 -10z m60 0 c-8 -5 -10 -10 -5 -10 6 0 11 -9 12 -20 2 -24
-34 -28 -43 -5 -10 24 4 45 28 45 19 0 20 -2 8 -10z m63 3 c-7 -2 -13 -16 -13
-29 0 -31 -16 -23 -22 11 -5 22 -2 25 21 24 14 0 20 -3 14 -6z m60 -12 c6 -26
-7 -45 -27 -38 -23 9 -21 57 3 57 10 0 21 -9 24 -19z m101 3 c13 -33 7 -45
-21 -42 -26 3 -38 26 -26 51 7 13 41 7 47 -9z m106 5 c0 -6 -7 -9 -15 -5 -9 3
-15 0 -15 -9 0 -8 8 -15 17 -15 13 0 14 -3 6 -11 -18 -18 -43 -2 -43 26 0 20
5 25 25 25 14 0 25 -5 25 -11z m68 -16 c3 -22 -28 -40 -48 -28 -12 7 -13 38
-3 49 15 14 48 1 51 -21z m43 20 c-11 -4 -11 -7 -1 -13 11 -6 10 -12 -3 -24
-22 -23 -27 -20 -27 14 0 25 4 30 23 29 12 0 16 -3 8 -6z m50 0 c-11 -4 -11
-7 -1 -13 11 -6 10 -12 -3 -24 -22 -23 -27 -20 -27 14 0 25 4 30 23 29 12 0
16 -3 8 -6z m57 0 c-16 -4 -16 -6 -3 -20 18 -18 11 -33 -16 -33 -14 0 -19 7
-19 30 0 26 3 30 28 29 16 -1 20 -3 10 -6z m52 -3 c-8 -5 -10 -10 -5 -10 6 0
11 -9 12 -20 1 -14 -4 -20 -18 -20 -14 0 -19 7 -19 30 0 24 4 30 23 30 18 0
19 -2 7 -10z m-1240 -39 c0 -6 -4 -13 -10 -16 -5 -3 -10 1 -10 9 0 9 5 16 10
16 6 0 10 -4 10 -9z m370 0 c0 -6 -4 -13 -10 -16 -5 -3 -10 1 -10 9 0 9 5 16
10 16 6 0 10 -4 10 -9z"/>
<path d="M4175 2321 c-3 -5 -1 -12 5 -16 5 -3 10 1 10 9 0 18 -6 21 -15 7z"/>
<path d="M4310 2316 c0 -9 5 -16 10 -16 6 0 10 4 10 9 0 6 -4 13 -10 16 -5 3
-10 -1 -10 -9z"/>
<path d="M4500 2315 c0 -8 5 -15 10 -15 6 0 10 7 10 15 0 8 -4 15 -10 15 -5 0
-10 -7 -10 -15z"/>
<path d="M4870 2316 c0 -9 5 -16 10 -16 6 0 10 4 10 9 0 6 -4 13 -10 16 -5 3
-10 -1 -10 -9z"/>
<path d="M5570 2315 c0 -8 5 -15 10 -15 6 0 10 7 10 15 0 8 -4 15 -10 15 -5 0
-10 -7 -10 -15z"/>
<path d="M4042 2173 c18 -26 65 -81 103 -122 359 -383 935 -448 1371 -155 85
57 223 193 282 277 l33 47 -911 0 -911 0 33 -47z m575 -7 c-3 -7 -1 -18 5 -24
16 -16 0 -32 -33 -32 -34 0 -40 19 -6 21 l22 2 -22 4 c-15 3 -23 12 -23 24 0
15 7 19 31 19 22 0 30 -4 26 -14z m53 -21 c0 -19 -4 -35 -10 -35 -5 0 -10 16
-10 35 0 19 5 35 10 35 6 0 10 -16 10 -35z m62 18 c17 -15 18 -15 18 0 0 10 5
17 10 17 6 0 10 -16 10 -35 0 -36 -22 -50 -34 -20 -3 8 -10 15 -16 15 -5 0
-10 -7 -10 -15 0 -31 -15 -13 -17 20 -2 38 10 44 39 18z m128 7 c0 -5 -11 -10
-25 -10 -16 0 -25 -6 -25 -15 0 -9 9 -15 25 -15 14 0 25 -5 25 -11 0 -6 -14
-9 -32 -7 -33 3 -46 23 -34 54 6 16 66 20 66 4z m90 4 c0 -4 -10 -15 -22 -25
l-21 -19 21 0 c12 0 22 -4 22 -10 0 -5 -16 -10 -35 -10 -33 0 -35 2 -35 35 0
33 2 35 35 35 19 0 35 -3 35 -6z m90 -29 c0 -19 -4 -35 -9 -35 -10 0 -22 51
-14 62 11 19 23 5 23 -27z m89 21 c18 -21 -3 -56 -33 -56 -19 0 -24 5 -24 28
0 15 2 30 5 35 7 12 40 8 52 -7z m86 -21 c0 -24 -5 -31 -24 -33 -31 -5 -41 7
-34 41 5 23 10 28 32 25 22 -2 26 -8 26 -33z m85 30 c0 -14 -32 -65 -40 -65
-13 0 -13 7 0 31 9 16 7 19 -10 19 -11 0 -20 5 -20 10 0 6 16 10 35 10 19 0
35 -2 35 -5z m-260 -225 c0 -73 -2 -80 -20 -80 -11 -1 -64 -1 -117 -1 l-98 -1
-3 81 -3 81 121 0 120 0 0 -80z"/>
<path d="M4820 1945 l0 -65 30 0 30 0 0 65 0 65 -30 0 -30 0 0 -65z"/>
<path d="M4960 1945 l0 -65 30 0 30 0 0 65 0 65 -30 0 -30 0 0 -65z"/>
</g>
</svg>
