<svg xmlns="http://www.w3.org/2000/svg" width="305.083" height="30.053" viewBox="0 0 305.083 30.053">
  <g id="logo" transform="translate(-31.156 -112.112)">
    <g id="logo-2" data-name="logo" transform="translate(31.156 112.112)">
      <path id="パス_334" data-name="パス 334" d="M302.124,291.763c-.044,0-.087,0-.131-.009l-.126-.009-18.657.017V278.246l0-.069c0-.042-.343-3.595-4.808-3.595-3.939,0-5.469,2.842-5.508,4.634-.018.8-.01,7.362-.006,10.149l.006.331.813.009v2.043l-14.893,0-.014-.007a4.507,4.507,0,0,1-3.791-2.333l-.235-.479-.094-.285-.4.632c-.016.023-1.817,2.489-6.454,2.489-.044,0-.088,0-.13-.009l-.127-.009-18.657,0v-13.5l0-.069c0-.042-.344-3.595-4.809-3.595-3.939,0-5.469,2.842-5.508,4.634-.017.8-.011,10.472-.011,10.472l.824.014v2.022l-53.992.019V278.228l0-.076c0-.042-.376-3.587-4.809-3.587-3.94,0-5.469,2.843-5.508,4.635-.02.92,0,10.48,0,10.48l.812,0v2.06H139.6l-.012-.007a3.555,3.555,0,0,1-3.084-2.683l-.048-.215-.187.146a14.743,14.743,0,0,1-2.581,1.709,9.256,9.256,0,0,1-2.371.878,8.111,8.111,0,0,1-1.627.171c-.175,0-.35-.007-.524-.019a8.93,8.93,0,0,1-1.933-.344,4.858,4.858,0,0,1-3.144-2.727,12.041,12.041,0,0,1-.444-4.04V275l0-.454-2.414.023v-2.05h4.436v11.825a5.987,5.987,0,0,0,.671,3.466,3.793,3.793,0,0,0,1.9,1.6,4.82,4.82,0,0,0,1.658.273c.2,0,.407-.01.614-.028a7.986,7.986,0,0,0,3.994-1.784,5.813,5.813,0,0,0,1.475-2.34,12.013,12.013,0,0,0,.465-3.806V275l-.03-.431h-2.338v-2.05h4.4v14.94a2.084,2.084,0,0,0,2.21,2.238l12.459-.008-.032-12.447-2.355-2.563,1.347-1.348,1.759,1.941.343.369.108-.133.193-.244a7.7,7.7,0,0,1,6.321-2.753h.134c3.672.055,6.442,2.364,6.442,5.371V289.7l14.594.016-.473-.264-.819-.529a7.024,7.024,0,0,1-1.275-1.277c-.641-.857-2.631-4.066-1.355-9.341a7.012,7.012,0,0,1,4.082-5.142,7.987,7.987,0,0,1,3.424-.577,7.529,7.529,0,0,1,3.861,1.118,7.321,7.321,0,0,1,2.981,5.149,17.381,17.381,0,0,1,.148,3.086H179.814l0,.146.007.315.008.084a7.628,7.628,0,0,0,.516,2.355,6.1,6.1,0,0,0,6.117,3.923l.274.006a11.3,11.3,0,0,0,4.382-1.036l.861,1.885,24.669.08-.024-12.412-2.36-2.586,1.348-1.348,1.758,1.942.34.351.3-.351a7.705,7.705,0,0,1,6.328-2.761h.133c3.672.054,6.441,2.364,6.441,5.369l0,11.829,12.612-.03-.221-.229-.328-.443-.07-.1a6.089,6.089,0,0,1-.327-5.857c1.519-2.868,5.087-3.3,7.078-3.3a15.426,15.426,0,0,1,4.264.718l.576.155a3.435,3.435,0,0,0,.077-1.327c-.259-3.3-2.328-4.937-5.814-4.937h-.192a7.448,7.448,0,0,0-3.893.8l-.188.126v2.162h-2v-3.627a12.171,12.171,0,0,1,5.729-1.323c4.389-.028,5.731,1.133,7.008,2.724,1.732,2.157,1.463,5.014,1.239,7.524-.035.4-.067.754-.092,1.1-.019.261-.037.479-.053.674-.028.336-.05.606-.061.9-.1,2.524.912,4.073,2.768,4.252l11.929.044-.022-12.457-.12-.12-2.24-2.466,1.349-1.349,1.758,1.942.354.391.294-.4a7.7,7.7,0,0,1,6.317-2.75h.135c3.671.054,6.441,2.364,6.441,5.369v11.636l0,.144,12.565.017-.188-.226s-.34-.488-.362-.517a6.119,6.119,0,0,1-.346-5.884c1.519-2.868,5.086-3.3,7.078-3.3a15.423,15.423,0,0,1,4.264.718l.568.163a2.664,2.664,0,0,0,.116-.5,3.355,3.355,0,0,0-.033-.85c-.371-3.269-2.327-4.92-5.811-4.92h-.193a8.221,8.221,0,0,0-4.085.893l0,.256v1.937h-2v-3.627a12.2,12.2,0,0,1,5.729-1.323c4.446-.033,5.726,1.14,7.008,2.724,1.741,2.15,1.463,5.014,1.238,7.524-.035.4-.067.754-.092,1.1-.019.261-.037.479-.052.674-.029.336-.05.606-.061.9-.1,2.524.913,4.073,2.768,4.252H337.5l-.625-.268-.9-.517c-.136-.1-.287-.221-.434-.342a9.179,9.179,0,0,1-2.1-3.15,9.578,9.578,0,0,1-.766-3.827,10.868,10.868,0,0,1,.521-3.707,8.844,8.844,0,0,1,1.818-3.1,6.759,6.759,0,0,1,2.438-1.7,9.078,9.078,0,0,1,3.27-.577,11.316,11.316,0,0,1,2.385.262,10.976,10.976,0,0,1,2.352.817v3.44H343.41V275.2l.007-.316-.107-.044-.233-.061a9.541,9.541,0,0,0-2.076-.245,7.029,7.029,0,0,0-2.329.386,4.984,4.984,0,0,0-2,1.127,6.254,6.254,0,0,0-1.4,2.215,8.956,8.956,0,0,0-.533,3.257,9.087,9.087,0,0,0,.4,2.761,6.448,6.448,0,0,0,1.2,2.213,5.908,5.908,0,0,0,2.153,1.519,6.584,6.584,0,0,0,2.735.462,11.285,11.285,0,0,0,2-.2,17.672,17.672,0,0,0,1.8-.481l.924,1.907h13.811l-.516-.264-.79-.517a9.13,9.13,0,1,1,11.015.006l-.727.513-.431.261h17.89a8.388,8.388,0,0,1-1.279-.786,9.13,9.13,0,1,1,11.025.012l-1.365.774H400.7c.041,0,.3-.012,2.389-.012a13.549,13.549,0,0,0,8.378-2.692l.335-.275-.255-.322c-2.375-3.254-3.685-7.945-3.685-13.206,0-10.361,3.919-11.479,5.6-11.479,5.459,0,5.459,8.364,5.459,11.114,0,5.852-1.343,10.452-3.992,13.675l-.258.287.312.316a11.47,11.47,0,0,0,7.671,2.592h1.176l.286.006.146,0v-3.561h2.054v5.6h-3.662a13.375,13.375,0,0,1-9.2-3.235l-.245-.229-.311.213a16.207,16.207,0,0,1-9.813,3.241c-.888,0-1.436,0-1.776,0l-.01,0-.5,0-.006-.022H313.033l-.024.007a4.5,4.5,0,0,1-3.68-2.393l-.237-.448-.117-.232-.4.613c-.015.021-1.676,2.3-5.934,2.471l-.126.005C302.374,291.757,302.252,291.763,302.124,291.763ZM249.5,281.807a7.18,7.18,0,0,0-2.438.431,3.705,3.705,0,0,0-2.6,4.275,3.4,3.4,0,0,0,3.582,3.186h.529a5.355,5.355,0,0,0,4.042-1.557,7.583,7.583,0,0,0,1.713-4.991l-.059-.111-.142-.1a8.551,8.551,0,0,0-3.858-1.092C250,281.82,249.751,281.807,249.5,281.807Zm54.3,0a7.18,7.18,0,0,0-2.438.431,3.7,3.7,0,0,0-2.6,4.275,3.4,3.4,0,0,0,3.559,3.185h.551a5.356,5.356,0,0,0,4.043-1.557,7.521,7.521,0,0,0,1.688-5.023l-.07-.117-.116-.071a8.576,8.576,0,0,0-3.848-1.086C304.3,281.82,304.053,281.807,303.8,281.807Zm86.637-7.256a7.1,7.1,0,1,0,7.1,7.1A7.109,7.109,0,0,0,390.436,274.55Zm-26.478,0a7.1,7.1,0,1,0,7.1,7.1A7.108,7.108,0,0,0,363.958,274.55Zm49.507-10.786c-1.637,0-3.548,2.469-3.548,9.426,0,2.141.292,7.555,3.006,11.58l.339.441.361-.418c2.155-2.862,3.247-6.888,3.247-11.968C416.869,266.727,415.755,263.764,413.465,263.764Zm-228.041,10.75a5.341,5.341,0,0,0-5.518,4.94l-.012.058-.022.362-.01.152H190.5l.012-.146-.006-.328a5.538,5.538,0,0,0-1.577-3.654A4.768,4.768,0,0,0,185.424,274.514Z" transform="translate(-121.235 -261.71)" fill="#1a1311"/>
    </g>
  </g>
</svg>
