<?xml version="1.0" encoding="UTF-8"?>
<svg version="1.1" xmlns="http://www.w3.org/2000/svg" width="408" height="98">
<path d="M0 0 C5.61 0 11.22 0 17 0 C17.01458252 1.53857666 17.02916504 3.07715332 17.04418945 4.66235352 C17.10228368 10.3858939 17.17951679 16.10904548 17.26245117 21.83227539 C17.29564804 24.30649492 17.32369618 26.78078922 17.34643555 29.25512695 C17.38007701 32.81754334 17.43239987 36.37927772 17.48828125 39.94140625 C17.49467117 41.04271378 17.5010611 42.1440213 17.50764465 43.27870178 C17.62118214 49.24720344 17.99100311 53.78118088 21 59 C24.7205836 61.48038907 26.59796571 61.46337203 31 61 C34.82945998 58.30902813 35.85911002 55.44432633 37 51 C37.32927623 47.08802311 37.37226762 43.18212211 37.4140625 39.2578125 C37.43342865 38.13430389 37.4527948 37.01079529 37.4727478 35.85324097 C37.53235875 32.27723702 37.57885548 28.70120057 37.625 25.125 C37.66319674 22.69529874 37.70224946 20.26561077 37.7421875 17.8359375 C37.83804531 11.89073343 37.92214497 5.94546598 38 0 C43.61 0 49.22 0 55 0 C55.07486377 6.57956533 55.12893589 13.15887579 55.16479492 19.73876953 C55.17976387 21.97123542 55.20014629 24.2036725 55.22631836 26.43603516 C55.60002686 59.16117593 55.60002686 59.16117593 47.5390625 68.453125 C42.0159719 74.0042516 37.11655582 76.21430818 29.18920898 76.33007812 C14.62616901 76.20606406 14.62616901 76.20606406 9.078125 71.30078125 C2.45830547 64.3390289 -0.136742 56.2009616 -0.11352539 46.65893555 C-0.11344986 45.6182341 -0.11337433 44.57753265 -0.11329651 43.5052948 C-0.10813522 42.3936647 -0.10297394 41.28203461 -0.09765625 40.13671875 C-0.0962413 38.98959915 -0.09482635 37.84247955 -0.09336853 36.66059875 C-0.08777861 33.00287246 -0.07522789 29.34520775 -0.0625 25.6875 C-0.0574837 23.20507901 -0.05292102 20.72265706 -0.04882812 18.24023438 C-0.03781246 12.16013258 -0.02055469 6.08007673 0 0 Z " fill="#0B308D" transform="translate(59,11)"/>
<path d="M0 0 C13.86 0 27.72 0 42 0 C42 4.62 42 9.24 42 14 C33.75 14 25.5 14 17 14 C17 18.95 17 23.9 17 29 C24.59 29 32.18 29 40 29 C40 33.62 40 38.24 40 43 C32.41 43 24.82 43 17 43 C17 48.61 17 54.22 17 60 C25.58 60 34.16 60 43 60 C43 64.62 43 69.24 43 74 C28.81 74 14.62 74 0 74 C0 49.58 0 25.16 0 0 Z " fill="#00A6E8" transform="translate(295,12)"/>
<path d="M0 0 C13.53 0 27.06 0 41 0 C41 4.62 41 9.24 41 14 C32.75 14 24.5 14 16 14 C16 19.28 16 24.56 16 30 C23.59 30 31.18 30 39 30 C39 34.62 39 39.24 39 44 C31.41 44 23.82 44 16 44 C16 53.9 16 63.8 16 74 C10.72 74 5.44 74 0 74 C0 49.58 0 25.16 0 0 Z " fill="#0A308D" transform="translate(0,12)"/>
<path d="M0 0 C5.94 0 11.88 0 18 0 C22.5 9 22.5 9 23.921875 12.71875 C24.37626953 13.89824219 24.37626953 13.89824219 24.83984375 15.1015625 C25.14019531 15.89304687 25.44054687 16.68453125 25.75 17.5 C26.06582031 18.32242187 26.38164062 19.14484375 26.70703125 19.9921875 C27.47494507 21.99341746 28.23799052 23.99651441 29 26 C30.86176614 23.20735078 31.96026071 20.78846874 33.1640625 17.67578125 C33.56367188 16.64775391 33.96328125 15.61972656 34.375 14.56054688 C34.99375 12.95276367 34.99375 12.95276367 35.625 11.3125 C36.04523438 10.22904297 36.46546875 9.14558594 36.8984375 8.02929688 C37.93551379 5.35411146 38.96817826 2.67721649 40 0 C46.27 0 52.54 0 59 0 C57.51358351 4.45924947 56.06977399 8.04407202 53.91796875 12.140625 C53.31533203 13.29433594 52.71269531 14.44804687 52.09179688 15.63671875 C51.45722454 16.84124768 50.82245792 18.04567428 50.1875 19.25 C48.34491231 22.76265741 46.50669647 26.27722856 44.68969727 29.80322266 C43.66714603 31.737811 42.60282687 33.65212429 41.46459961 35.52099609 C37.06088859 43.05060838 37.21957107 50.66212465 37.1875 59.125 C37.16430809 60.57295355 37.13893316 62.02087386 37.11132812 63.46875 C37.04504175 66.97991925 37.02347521 70.48725527 37 74 C31.72 74 26.44 74 21 74 C21.13664062 72.26363281 21.27328125 70.52726562 21.4140625 68.73828125 C22.30915861 46.91937017 15.48645764 31.46186894 4.94517517 12.66790771 C4.58823074 12.02347717 4.23128632 11.37904663 3.86352539 10.71508789 C3.55121475 10.16381729 3.23890411 9.61254669 2.91712952 9.04457092 C1.62062372 6.15425063 0.8702582 3.04590369 0 0 Z " fill="#00A5E9" transform="translate(349,12)"/>
<path d="M0 0 C5.28 0 10.56 0 16 0 C16.06800516 7.42407057 16.1229475 14.84796852 16.15543652 22.27228546 C16.17103628 25.72037914 16.19216893 29.16824712 16.22631836 32.61621094 C16.26540455 36.58786235 16.27975629 40.55942505 16.29296875 44.53125 C16.30845261 45.75863892 16.32393646 46.98602783 16.33988953 48.25061035 C16.3414436 56.21049108 15.53181558 61.87407832 11.3125 68.75 C4.66425816 75.21855963 -1.32610787 75.37004896 -10.09643555 75.29223633 C-13.29540397 75.21281019 -15.94839566 75.01720145 -19 74 C-18.67 69.38 -18.34 64.76 -18 60 C-13.5078125 60.1953125 -13.5078125 60.1953125 -9.015625 60.390625 C-5.92085942 60.24368724 -5.92085942 60.24368724 -3.671875 58.234375 C-0.9528496 54.60053731 -0.87032061 51.22458462 -0.79467773 46.77246094 C-0.77473251 45.73168396 -0.75478729 44.69090698 -0.73423767 43.61859131 C-0.70916893 41.94340424 -0.70916893 41.94340424 -0.68359375 40.234375 C-0.66281265 39.08584045 -0.64203156 37.93730591 -0.62062073 36.75396729 C-0.55525007 33.08603889 -0.49629806 29.41803907 -0.4375 25.75 C-0.39430293 23.26301346 -0.35068825 20.77603413 -0.30664062 18.2890625 C-0.19958138 12.19278148 -0.09827853 6.09642864 0 0 Z " fill="#0B308E" transform="translate(146,12)"/>
<path d="M0 0 C5.61 0 11.22 0 17 0 C17 25.08 17 50.16 17 76 C11.39 76 5.78 76 0 76 C0 50.92 0 25.84 0 0 Z " fill="#0A308E" transform="translate(182,11)"/>
<path d="M0 0 C7.2646603 0.45404127 12.59699901 6.3647802 17.3125 11.375 C23.55941911 18.77557411 24.59825159 24.91896032 24.33984375 34.59375 C23.65762539 41.4316168 21.3500646 46.03107162 16.4375 50.8125 C6.59345726 58.55096138 -4.92321623 59.39059512 -17 58 C-21.4819945 57.11622644 -25.75555345 55.67978097 -30 54 C-28.7315625 52.7315625 -28.7315625 52.7315625 -27.4375 51.4375 C-25.11666492 48.67211059 -24.99191481 48.23447046 -25.125 44.375 C-25.41375 43.26125 -25.7025 42.1475 -26 41 C-26.33444156 39.66694421 -26.66803717 38.33367521 -27 37 C-26.40832031 37.20496094 -25.81664062 37.40992188 -25.20703125 37.62109375 C-16.14595504 40.71043295 -7.9752001 42.7614299 1.17578125 38.9140625 C4.76765126 37.11428181 7.27942018 35.23527969 9.3125 31.75 C11.71362189 22.14551243 8.22129161 13.82444347 3.5546875 5.38671875 C2.41888342 3.55969676 1.21729283 1.77376955 0 0 Z " fill="#00A5E9" transform="translate(250,40)"/>
<path d="M0 0 C1.21913086 -0.0309375 1.21913086 -0.0309375 2.46289062 -0.0625 C8.42063448 -0.10041722 13.28729708 1.04689699 18.8125 3.25 C18.008125 4.013125 17.20375 4.77625 16.375 5.5625 C13.64450976 8.04430898 13.64450976 8.04430898 12.8125 11.25 C13.12056453 13.32647876 13.12056453 13.32647876 13.75 15.4375 C14.100625 16.695625 14.45125 17.95375 14.8125 19.25 C13.554375 18.92 12.29625 18.59 11 18.25 C3.13192535 16.54277626 -4.42358262 15.89110201 -11.59765625 20.04296875 C-14.99723988 22.62397942 -16.59558645 26.10660514 -17.1875 30.25 C-17.90579666 38.43858193 -15.68592695 45.71056182 -10.9375 52.4375 C-10.36 53.035625 -9.7825 53.63375 -9.1875 54.25 C-9.5175 54.91 -9.8475 55.57 -10.1875 56.25 C-19.30159526 52.22387054 -25.00093681 48.74407446 -30 40.125 C-32.93188818 32.3124836 -33.08730724 23.28010521 -30.25 15.46484375 C-26.59635415 7.84860406 -20.8898038 4.32583749 -13.1875 1.25 C-8.79287134 -0.02481257 -4.54599992 0.02817041 0 0 Z " fill="#0B308E" transform="translate(253.1875,-0.25)"/>
</svg>
