<?xml version="1.0" encoding="UTF-8"?>
<svg id="_レイヤー_1" data-name="レイヤー 1" xmlns="http://www.w3.org/2000/svg" viewBox="0 0 579.7 58.14">
  <defs>
    <style>
      .cls-1 {
        fill: #e60012;
      }
    </style>
  </defs>
  <polygon class="cls-1" points="149.91 14.24 152.38 5.28 103.93 5.28 89.69 53.05 139.3 53.05 141.77 44.09 111.34 44.09 114.1 32.98 140.68 32.98 143.13 24.19 116.65 24.19 119.87 14.24 149.91 14.24"/>
  <polygon class="cls-1" points="204.89 5.28 195.65 37.41 185.86 5.33 159.03 5.33 145.95 53.05 159.95 53.05 169.66 18.85 180.15 53.05 191.22 53.05 200.46 53.05 205.25 53.05 218.87 5.28 204.89 5.28"/>
  <polygon class="cls-1" points="279.67 5.28 223.45 5.28 221.1 14.05 240.21 14.05 229.15 53.05 247.37 53.05 258.46 14.05 277.3 14.05 279.67 5.28"/>
  <path class="cls-1" d="M302.62,53.05h18.5l-3.13-47.77h-18.44v.04h-7.98l-33.61,47.73h14.69l6.73-8.96h22.47l.78,8.96ZM284.6,36.09l15.48-21.97,1.49,21.97h-16.97Z"/>
  <polygon class="cls-1" points="346.05 44.44 356.63 5.28 338.29 5.28 325.4 53.05 330.95 53.05 343.73 53.05 373.39 53.05 375.41 44.44 346.05 44.44"/>
  <path class="cls-1" d="M423.3,5.28c-6.37-.22-30.54,0-30.54,0l-14.01,47.77h18.93l5.14-17.38h19.97c7.45,0,20.35-3.77,21.32-15.98.99-11.67-10.42-14-20.81-14.41ZM427.87,19.53c-.99,7.58-9.02,7.96-9.02,7.96h-13.29l4.18-14.61s9.26.24,12.05.24,7.05-1.21,6.08,6.42Z"/>
  <path class="cls-1" d="M485.33,5.28c-6.33-.22-31.51,0-31.51,0l-13.97,47.77h18.93l5.06-17.2,15.56,17.2h18.96l-15.72-17.38h2.16c7.46,0,21.69-3.77,22.77-15.98.94-11.67-11.85-14-22.24-14.41ZM489.92,19.53c-.99,7.58-8.99,7.96-8.99,7.96h-14.23l4.19-14.61s10.23.24,12.94.24,7.08-1.21,6.09,6.42Z"/>
  <path class="cls-1" d="M552.67,3.74c-23.12,0-34.2,4.86-39.27,22.62-5.09,17.73-4.5,27.55,24.27,27.55,32.67,0,34.37-4.12,41.11-27.51,6.77-23.34-26.11-22.66-26.11-22.66ZM558.83,28.27c-5.9,16.28-8.2,17.75-19.1,17.75-13.07,0-10.88-10.35-8.12-17.75,2.74-7.39,4.03-17.59,17.91-17.59,3.96,0,15.81-.35,9.32,17.59Z"/>
  <g>
    <path class="cls-1" d="M58.94,36.01l-4.81,16.2h-22.37l4.74-16.2H7.06L0,58.13h35.48c14.84,0,44.84.91,52.82-22.12h-29.36Z"/>
    <path class="cls-1" d="M40.25,22.25l5.31-16.85h22.4l-5.28,16.85h30.17C97.75-2.24,66.6.06,66.6.06H18.28l-7.3,22.19h29.27Z"/>
  </g>
</svg>