<?xml version="1.0" encoding="UTF-8"?>
<svg version="1.1" xmlns="http://www.w3.org/2000/svg" width="2223" height="606">
<path d="M0 0 C660 0 1320 0 2000 0 C1998.87499792 11.2500208 1998.87499792 11.2500208 1997.76774597 16.57945251 C1997.51972733 17.78579346 1997.27170868 18.9921344 1997.01617432 20.23503113 C1996.61021027 22.17011284 1996.61021027 22.17011284 1996.19604492 24.14428711 C1995.90638497 25.54339657 1995.61717767 26.94259981 1995.3283844 28.34188843 C1994.54767428 32.11821049 1993.76066528 35.89319439 1992.97245955 39.66795802 C1992.14319201 43.64478442 1991.31977021 47.62282105 1990.49568176 51.60072327 C1988.93215232 59.14347025 1987.36335453 66.68511135 1985.79267055 74.22637135 C1984.02017018 82.73796889 1982.25380284 91.25083534 1980.48785245 99.76379383 C1976.91044189 117.00766048 1973.32806003 134.25048415 1969.73077011 151.4902153 C1969.05627958 154.72969721 1968.38605729 157.97002605 1967.71743774 161.21072388 C1967.3550413 162.95762966 1966.9926081 164.70452781 1966.63012695 166.45141602 C1966.47413371 167.21406989 1966.31814047 167.97672377 1966.15742016 168.76248837 C1965.11331199 173.77337601 1965.11331199 173.77337601 1964 176 C1304 176 644 176 -36 176 C-34.87499792 164.7499792 -34.87499792 164.7499792 -33.76774597 159.42054749 C-33.395718 157.61103607 -33.395718 157.61103607 -33.01617432 155.76496887 C-32.74553162 154.4749144 -32.47488892 153.18485992 -32.19604492 151.85571289 C-31.90638497 150.45660343 -31.61717767 149.05740019 -31.3283844 147.65811157 C-30.54767428 143.88178951 -29.76066528 140.10680561 -28.97245955 136.33204198 C-28.14319201 132.35521558 -27.31977021 128.37717895 -26.49568176 124.39927673 C-24.93215232 116.85652975 -23.36335453 109.31488865 -21.79267055 101.77362865 C-20.02017018 93.26203111 -18.25380284 84.74916466 -16.48785245 76.23620617 C-12.91044189 58.99233952 -9.32806003 41.74951585 -5.73077011 24.5097847 C-5.05627958 21.27030279 -4.38605729 18.02997395 -3.71743774 14.78927612 C-3.3550413 13.04237034 -2.9926081 11.29547219 -2.63012695 9.54858398 C-2.47413371 8.78593011 -2.31814047 8.02327623 -2.15742016 7.23751163 C-1.11331199 2.22662399 -1.11331199 2.22662399 0 0 Z " fill="#CCFC04" transform="translate(100,364)"/>
<path d="M0 0 C1.8284079 0.02053392 3.6568766 0.03618374 5.48536682 0.04716492 C10.28251244 0.08903252 15.07595439 0.19695139 19.87164307 0.31890869 C24.77134085 0.43173569 29.67164137 0.48173741 34.57226562 0.53710938 C44.17617258 0.65484487 53.77705196 0.84682185 63.37890625 1.07421875 C66.17496053 15.38600343 68.70927698 29.7218004 71.04589844 44.11523438 C71.39108364 46.22845624 71.73650404 48.3416397 72.08213806 50.45478821 C73.00808442 56.12062372 73.93050158 61.7870281 74.85200024 67.45358849 C75.62399703 72.19884877 76.39772011 76.94382695 77.17141366 81.68881083 C78.99495264 92.87268713 80.81555556 104.05703861 82.63427734 115.24169922 C84.50928366 126.77216774 86.38930202 138.30181129 88.27172923 149.83107042 C89.89249587 159.75883716 91.51020194 169.68709927 93.12543416 179.61576796 C94.08830339 185.5342387 95.05233277 191.45251447 96.01931 197.37031555 C96.92575162 202.91848328 97.82837459 208.46725882 98.72802925 214.01653099 C99.05883329 216.05294668 99.39099396 218.08914252 99.72459984 220.12510109 C100.17909312 222.90016252 100.62871001 225.67597121 101.0770874 228.45202637 C101.21054211 229.25969153 101.34399683 230.06735669 101.48149562 230.89949656 C102.09304456 234.7183973 102.37890625 238.18267834 102.37890625 242.07421875 C80.59890625 242.07421875 58.81890625 242.07421875 36.37890625 242.07421875 C35.38890625 234.40171875 34.39890625 226.72921875 33.37890625 218.82421875 C33.06566406 216.4069043 32.75242187 213.98958984 32.4296875 211.49902344 C32.18339379 209.58140588 31.93728728 207.66376427 31.69140625 205.74609375 C31.56185547 204.75174316 31.43230469 203.75739258 31.29882812 202.73291016 C31.17701172 201.77916504 31.05519531 200.82541992 30.9296875 199.84277344 C30.82309814 199.01670593 30.71650879 198.19063843 30.60668945 197.33953857 C30.37890625 195.07421875 30.37890625 195.07421875 30.37890625 191.07421875 C-0.31109375 191.07421875 -31.00109375 191.07421875 -62.62109375 191.07421875 C-63.61109375 194.04421875 -63.61109375 194.04421875 -64.62109375 197.07421875 C-65.44663067 198.724801 -66.32038771 200.35206148 -67.23828125 201.953125 C-67.75745117 202.86497559 -68.27662109 203.77682617 -68.81152344 204.71630859 C-69.36743164 205.68004395 -69.92333984 206.6437793 -70.49609375 207.63671875 C-71.0674707 208.63654785 -71.63884766 209.63637695 -72.22753906 210.66650391 C-73.42068271 212.75335741 -74.61602859 214.83895321 -75.81347656 216.92333984 C-77.58836515 220.01716914 -79.35258218 223.11682719 -81.11328125 226.21875 C-82.19905888 228.12899713 -83.28498999 230.03915703 -84.37109375 231.94921875 C-84.88397949 232.8522876 -85.39686523 233.75535645 -85.92529297 234.68579102 C-86.39725098 235.51264404 -86.86920898 236.33949707 -87.35546875 237.19140625 C-87.97760254 238.28364502 -87.97760254 238.28364502 -88.61230469 239.39794922 C-89.62109375 241.07421875 -89.62109375 241.07421875 -90.62109375 242.07421875 C-92.79915094 242.16851217 -94.98030655 242.19164413 -97.16040039 242.18774414 C-97.84329636 242.18789017 -98.52619232 242.18803619 -99.2297821 242.18818665 C-101.49696989 242.18748751 -103.76407649 242.17969515 -106.03125 242.171875 C-107.59923762 242.17001082 -109.16722582 242.16858692 -110.73521423 242.16758728 C-114.86985878 242.16376209 -119.00446841 242.15393181 -123.13909912 242.1428833 C-127.35509773 242.13266919 -131.57110197 242.12808966 -135.78710938 242.12304688 C-144.06512022 242.11230954 -152.34310265 242.09523311 -160.62109375 242.07421875 C-159.12192897 237.34210966 -157.16578545 233.33289453 -154.55078125 229.1328125 C-153.73496009 227.79825355 -152.91954116 226.46344865 -152.10449219 225.12841797 C-151.48253967 224.11554718 -151.48253967 224.11554718 -150.84802246 223.08221436 C-148.95451471 219.98329329 -147.10382049 216.85944794 -145.25390625 213.734375 C-144.51634933 212.49149297 -143.778718 211.24865508 -143.04101562 210.00585938 C-142.27603871 208.71614759 -141.51106483 207.426434 -140.74609375 206.13671875 C-139.92126234 204.74672202 -139.09639158 203.35674863 -138.27148438 201.96679688 C-136.56658132 199.09400201 -134.86184337 196.22110926 -133.15722656 193.34814453 C-129.53902489 187.25031799 -125.91874053 181.15372824 -122.29852295 175.05709839 C-120.32261934 171.72952758 -118.3468644 168.40186851 -116.37109375 165.07421875 C-115.57942779 163.740885 -114.78776112 162.40755166 -113.99609375 161.07421875 C-113.40828125 160.08421875 -113.40828125 160.08421875 -112.80859375 159.07421875 C-90.24609375 121.07421875 -90.24609375 121.07421875 -89.05862427 119.07427979 C-88.26684459 117.7407497 -87.47507621 116.40721291 -86.68331909 115.07366943 C-84.70597383 111.74329142 -82.72843356 108.41302951 -80.75048828 105.08300781 C-77.16606195 99.04791485 -73.58312327 93.01196231 -70.00737 86.97172546 C-68.00456832 83.58865594 -66.00060087 80.20627802 -63.99609375 76.82421875 C-63.4069368 75.83003433 -63.4069368 75.83003433 -62.80587769 74.81576538 C-56.81537056 64.71238658 -50.73857094 54.66440299 -44.61694336 44.64004517 C-39.46976148 36.2051322 -34.45999614 27.70592537 -29.63696289 19.08129883 C-28.79653625 17.58488343 -27.93610392 16.09944189 -27.05160522 14.62864685 C-25.55564447 12.08348023 -25.55564447 12.08348023 -24.47975159 9.24835205 C-19.31923128 -1.72017055 -10.59518106 -0.34916758 0 0 Z M13.37890625 52.07421875 C6.67221903 64.43893572 -0.02155026 76.81038375 -6.68359375 89.19921875 C-11.06059878 97.33451523 -15.45009786 105.46273333 -19.87109375 113.57421875 C-20.35489502 114.46222168 -20.83869629 115.35022461 -21.3371582 116.26513672 C-23.73047831 120.64768355 -26.14372418 125.01777541 -28.58984375 129.37109375 C-29.05874023 130.20705078 -29.52763672 131.04300781 -30.01074219 131.90429688 C-30.89547035 133.47813492 -31.78394553 135.04987445 -32.67675781 136.61914062 C-34.85369493 140.12831963 -34.85369493 140.12831963 -35.62109375 144.07421875 C-15.82109375 144.07421875 3.97890625 144.07421875 24.37890625 144.07421875 C19.42890625 98.53421875 19.42890625 98.53421875 14.37890625 52.07421875 C14.04890625 52.07421875 13.71890625 52.07421875 13.37890625 52.07421875 Z " fill="#000000" transform="translate(1609.62109375,68.92578125)"/>
<path d="M0 0 C56.1 0 112.2 0 170 0 C169.36424159 6.35758408 168.672048 12.384551 167.40625 18.59765625 C167.17887146 19.73816689 167.17887146 19.73816689 166.94689941 20.90171814 C166.6298547 22.4859726 166.31046444 24.06975942 165.98876953 25.65307617 C165.49500984 28.08709935 165.01071164 30.5228785 164.52734375 32.95898438 C164.21669939 34.50531964 163.90552145 36.05154783 163.59375 37.59765625 C163.44893188 38.3267067 163.30411377 39.05575714 163.15490723 39.80690002 C162.1152808 44.8847192 162.1152808 44.8847192 161 46 C159.62123975 46.0953919 158.23763084 46.12188622 156.85557556 46.12025452 C155.96230057 46.12162918 155.06902557 46.12300385 154.14868164 46.12442017 C152.66730713 46.11902725 152.66730713 46.11902725 151.15600586 46.11352539 C149.6049691 46.11374443 149.6049691 46.11374443 148.02259827 46.1139679 C144.58665914 46.11326827 141.15077347 46.10547358 137.71484375 46.09765625 C135.33972707 46.09579225 132.96461 46.09436826 130.5894928 46.09336853 C124.32423856 46.08954197 118.05900733 46.0797105 111.79376221 46.06866455 C105.4061311 46.0584534 99.01849629 46.05387155 92.63085938 46.04882812 C80.08722974 46.03808836 67.54361609 46.02120127 55 46 C54.93746536 46.59898165 54.87493073 47.19796329 54.8105011 47.8150959 C54.72519638 48.61097052 54.63989166 49.40684513 54.55200195 50.22683716 C54.4272625 51.40374713 54.4272625 51.40374713 54.30000305 52.60443306 C53.82354935 56.40898345 53.01517733 60.12598796 52.1875 63.8671875 C52.01371826 64.66859161 51.83993652 65.46999573 51.66088867 66.29568481 C51.29656659 67.97167684 50.93008931 69.64720173 50.56152344 71.32226562 C49.99707785 73.88828433 49.43939933 76.45570387 48.8828125 79.0234375 C48.52643114 80.65893908 48.16967382 82.2943588 47.8125 83.9296875 C47.64580811 84.69529999 47.47911621 85.46091248 47.30737305 86.24972534 C46.6517615 89.22342207 45.96376471 92.10870588 45 95 C78 95 111 95 145 95 C141.9226496 110.38675199 138.52837614 125.71037005 135 141 C102 141 69 141 35 141 C33.35 149.25 31.7 157.5 30 166 C28.02 175.24 26.04 184.48 24 194 C59.97 194.33 95.94 194.66 133 195 C130.62425011 210.44237429 127.24205727 225.71601571 124 241 C66.25 241 8.5 241 -51 241 C-48.74999964 226.37499769 -48.74999964 226.37499769 -47.52496338 220.68597412 C-47.39020812 220.05510934 -47.25545286 219.42424456 -47.1166141 218.77426267 C-46.67538339 216.71298215 -46.22885059 214.65289145 -45.78222656 212.59277344 C-45.45949875 211.09049842 -45.13710596 209.5881514 -44.8150177 208.08573914 C-43.94364974 204.02575321 -43.06762566 199.96678489 -42.19073582 195.90798855 C-41.25630137 191.57883844 -40.32625576 187.24874542 -39.39569092 182.91876221 C-37.61989671 174.65905284 -35.84023066 166.40018276 -34.05915713 158.14161038 C-32.0884865 149.00304259 -30.1220262 139.86357081 -28.15600252 130.72400236 C-25.03031432 116.19397614 -21.9017203 101.66457903 -18.77050781 87.13574219 C-12.51104394 58.09106102 -6.25594096 29.04544017 0 0 Z " fill="#000000" transform="translate(1988,70)"/>
<path d="M0 0 C11.85881285 -0.07012595 23.71757478 -0.12312423 35.5765543 -0.15543652 C41.08569835 -0.17096029 46.5946985 -0.1919493 52.10375977 -0.22631836 C57.44009206 -0.25939389 62.77628772 -0.27695228 68.11271477 -0.28463173 C70.12842899 -0.29009023 72.14413744 -0.30074284 74.15979195 -0.31719017 C102.1090371 -0.53576303 134.80422284 1.33946974 156 22 C167.96387448 35.80606276 172.00749417 52.99766997 171 71 C169.17389432 94.76546111 160.83683907 115.86007101 142.7421875 131.98046875 C121.21250807 150.20409254 92.93336621 157.2512357 65.1796875 157.09765625 C64.19501495 157.0962413 63.21034241 157.09482635 62.1958313 157.09336853 C59.088855 157.08782615 55.98195407 157.07528483 52.875 157.0625 C50.75260522 157.05747754 48.63020929 157.05291595 46.5078125 157.04882812 C41.33851317 157.03787567 36.16926931 157.02065166 31 157 C30.86730713 158.15959732 30.73461426 159.31919464 30.59790039 160.51393127 C30.07959102 164.64705947 29.30995894 168.70624491 28.43359375 172.77709961 C28.27899689 173.50817932 28.12440002 174.23925903 27.96511841 174.99249268 C27.45930113 177.37984422 26.94860294 179.76611868 26.4375 182.15234375 C26.08241463 183.8199931 25.72751851 185.48768276 25.37280273 187.15541077 C24.6319378 190.63476508 23.88861164 194.11358204 23.14355469 197.59204102 C22.18700919 202.05898784 21.23695843 206.52728756 20.28874207 210.99600887 C19.55882248 214.43224676 18.82537502 217.86772415 18.09085083 221.30298042 C17.73885481 222.95144202 17.38800266 224.60014829 17.03829956 226.24909782 C16.55127907 228.54307634 16.05949819 230.83598216 15.56640625 233.12866211 C15.42196075 233.81380386 15.27751526 234.49894562 15.12869263 235.20484924 C14.11424767 239.88575233 14.11424767 239.88575233 13 241 C10.97505769 241.09409479 8.9468013 241.11743122 6.91967773 241.11352539 C4.96776772 241.11341209 4.96776772 241.11341209 2.97642517 241.11329651 C1.54548098 241.10818909 0.11453718 241.10297308 -1.31640625 241.09765625 C-2.7722926 241.09579203 -4.22817957 241.09436815 -5.68406677 241.09336853 C-9.52279379 241.08954365 -13.36148319 241.07971364 -17.20019531 241.06866455 C-21.11457816 241.05844978 -25.02896706 241.05387077 -28.94335938 241.04882812 C-36.62892343 241.03809134 -44.31445645 241.02101529 -52 241 C-47.95981045 220.25683396 -43.52932824 199.60112355 -39.08317733 178.94217014 C-38.0553533 174.16457858 -37.02955092 169.38655292 -36.00349426 164.60858154 C-34.27911983 156.58011428 -32.553481 148.55191971 -30.8269043 140.52392578 C-28.42073165 129.33603594 -26.01682669 118.14765979 -23.61340177 106.9591794 C-21.7153565 98.12373503 -19.8167393 89.28841353 -17.91796875 80.453125 C-17.72057279 79.5346066 -17.52317684 78.6160882 -17.31979918 77.66973591 C-15.08838236 67.28703625 -12.85521691 56.90471692 -10.61862332 46.52313113 C-9.50075294 41.33219711 -8.38711809 36.14037084 -7.27603859 30.94797921 C-6.5316981 27.47145117 -5.78521843 23.99538456 -5.03833067 20.51940298 C-4.68568745 18.87575888 -4.33399845 17.23190974 -3.98331106 15.58784723 C-3.50271844 13.33526937 -3.01882287 11.08342549 -2.53413391 8.83172607 C-2.26097508 7.55594067 -1.98781626 6.28015526 -1.70637989 4.96570969 C-1 2 -1 2 0 0 Z M55 46 C53.62979737 49.93353541 52.52783383 53.80657408 51.67138672 57.88183594 C51.43128876 59.01611023 51.1911908 60.15038452 50.94381714 61.31903076 C50.69165436 62.52859436 50.43949158 63.73815796 50.1796875 64.984375 C49.91616486 66.23631653 49.65264221 67.48825806 49.38113403 68.77813721 C48.82645995 71.41702185 48.2731368 74.05614457 47.72216797 76.69580078 C47.01534323 80.08167314 46.3035853 83.46648493 45.59019279 86.85097885 C44.90951064 90.08248716 44.23216408 93.31469337 43.5546875 96.546875 C43.29847626 97.76453552 43.04226501 98.98219604 42.77828979 100.23675537 C42.54449615 101.35842102 42.31070251 102.48008667 42.06982422 103.63574219 C41.86267792 104.62580261 41.65553162 105.61586304 41.44210815 106.63592529 C40.93872525 108.92680987 40.93872525 108.92680987 41 111 C70.31628995 111.68129304 70.31628995 111.68129304 96 99 C103.66037011 90.92057245 106 81.97938287 106 71 C105.28951637 63.09586966 102.99385667 57.92581447 97.25 52.3125 C90.15805393 47.2663076 82.5807116 45.85783138 73.9453125 45.90234375 C72.83671875 45.90556641 71.728125 45.90878906 70.5859375 45.91210938 C68.87277344 45.92467773 68.87277344 45.92467773 67.125 45.9375 C65.37703125 45.94426758 65.37703125 45.94426758 63.59375 45.95117188 C60.72911355 45.96291219 57.86458367 45.9793343 55 46 Z " fill="#000000" transform="translate(1132,70)"/>
<path d="M0 0 C1.48016602 -0.01058945 1.48016602 -0.01058945 2.99023438 -0.02139282 C34.49824576 -0.19550953 65.85758371 0.32124108 95.59765625 12.203125 C94.30941711 18.42609283 92.69999804 24.47667868 90.8125 30.54296875 C90.55134903 31.39113663 90.29019806 32.2393045 90.02113342 33.11317444 C89.47401247 34.88757072 88.92520073 36.66144649 88.37475586 38.43481445 C87.53024101 41.15646555 86.6914756 43.87984005 85.85351562 46.60351562 C85.3193438 48.33343631 84.78485025 50.06325769 84.25 51.79296875 C83.99895004 52.60749008 83.74790009 53.42201141 83.48924255 54.26121521 C81.71378785 59.9708618 81.71378785 59.9708618 80.59765625 62.203125 C76.85783805 61.66886526 73.78282793 60.44925278 70.38305664 58.82861328 C44.22239497 46.39088749 12.17454408 45.75136113 -15.21484375 54.453125 C-35.81409021 61.77730152 -50.18573541 75.69942062 -59.72192383 95.13012695 C-62.75287474 101.61619194 -64.81559509 108.22143089 -66.40234375 115.203125 C-66.62664062 116.11578125 -66.8509375 117.0284375 -67.08203125 117.96875 C-71.2454953 137.93056393 -69.23663513 159.69553821 -58.40234375 177.203125 C-50.25878487 189.09108407 -35.51158715 196.21602104 -21.60546875 198.8671875 C4.36673656 202.82748831 29.47574481 197.78701402 53.59765625 188.203125 C54.58765625 187.873125 55.57765625 187.543125 56.59765625 187.203125 C56.73946167 193.84729983 56.22679859 200.13493568 55.28515625 206.70703125 C55.15197998 207.6709227 55.01880371 208.63481415 54.8815918 209.62791443 C54.45931657 212.67464444 54.0286315 215.72011478 53.59765625 218.765625 C53.30803477 220.84432324 53.01896684 222.92309868 52.73046875 225.00195312 C52.02592664 230.06992531 51.31384526 235.13678615 50.59765625 240.203125 C41.88912596 242.84395853 33.35180211 244.99037397 24.34765625 246.390625 C23.34992188 246.55498047 22.3521875 246.71933594 21.32421875 246.88867188 C9.76116709 248.75294979 -1.56975531 249.44336426 -13.27734375 249.453125 C-14.00711426 249.45379974 -14.73688477 249.45447449 -15.48876953 249.45516968 C-50.08763822 249.40450624 -82.50455165 240.15847749 -107.96484375 215.74609375 C-132.31684351 190.366744 -137.21023803 158.62931045 -136.53417969 124.83056641 C-135.42674624 94.35974019 -122.68421736 64.03068768 -101.40234375 42.203125 C-100.19578125 40.9346875 -100.19578125 40.9346875 -98.96484375 39.640625 C-98.11921875 38.83625 -97.27359375 38.031875 -96.40234375 37.203125 C-95.73203125 36.54957031 -95.06171875 35.89601562 -94.37109375 35.22265625 C-69.49660097 11.76148692 -33.78962053 0.1600137 0 0 Z " fill="#000000" transform="translate(1862.40234375,65.796875)"/>
<path d="M0 0 C53.46 0 106.92 0 162 0 C159.74530162 14.65553949 159.74530162 14.65553949 158.52734375 20.98046875 C158.39936905 21.64540848 158.27139435 22.31034821 158.13954163 22.99543762 C157.87444825 24.36902224 157.60813656 25.74237232 157.34057617 27.11547852 C156.93065189 29.22270287 156.52667673 31.33101503 156.12304688 33.43945312 C155.86232981 34.78652625 155.60127528 36.13353411 155.33984375 37.48046875 C154.98974243 39.28874146 154.98974243 39.28874146 154.63256836 41.13354492 C154 44 154 44 153 46 C120.66 46 88.32 46 55 46 C54.34 49.96 53.68 53.92 53 58 C50.03 71.2 47.06 84.4 44 98 C75.02 98 106.04 98 138 98 C129 143 129 143 128 144 C125.10856849 144.09523905 122.24107936 144.12553027 119.34936523 144.11352539 C117.9885231 144.11374443 117.9885231 144.11374443 116.60018921 144.1139679 C113.58630015 144.11326841 110.57247207 144.10547434 107.55859375 144.09765625 C105.47494033 144.0957922 103.39128646 144.09436824 101.30763245 144.09336853 C95.81176554 144.08954234 90.31592487 144.0797112 84.82006836 144.06866455 C79.21663773 144.0584526 73.61320287 144.05387137 68.00976562 144.04882812 C57.00649886 144.03808902 46.00325161 144.02101139 35 144 C34.80664062 145.95263512 34.80664062 145.95263512 34.609375 147.94471741 C34.08339217 152.65908348 33.23427939 157.24710738 32.25 161.88452148 C32.075896 162.72143021 31.90179199 163.55833893 31.72241211 164.42060852 C31.15242635 167.15499035 30.57638463 169.88805422 30 172.62109375 C29.59997071 174.53151997 29.20023575 176.44200784 28.80078125 178.35255432 C27.96620422 182.33968561 27.12873466 186.32619455 26.2890625 190.31225586 C25.21153331 195.42816904 24.14028643 200.54537297 23.07104492 205.66302395 C22.24791981 209.60014838 21.42202054 213.53668664 20.59521484 217.47303963 C20.19895379 219.36079442 19.80344382 221.24870703 19.40869141 223.13677788 C18.85854258 225.76551922 18.3047912 228.39347531 17.75 231.02124023 C17.58685303 231.80407379 17.42370605 232.58690735 17.25561523 233.39346313 C16.11438209 238.77123581 16.11438209 238.77123581 15 241 C-6.78 241 -28.56 241 -51 241 C-45.2559195 212.27959749 -45.2559195 212.27959749 -43.23950195 202.76074219 C-43.00400446 201.64359738 -42.76850697 200.52645258 -42.52587318 199.3754549 C-41.76459103 195.76566348 -41.00146344 192.15626515 -40.23828125 188.546875 C-39.68849403 185.94187183 -39.13881017 183.33684704 -38.58924866 180.73179626 C-37.28126161 174.53284051 -35.9718707 168.33418219 -34.66188937 162.13564759 C-33.60749685 157.14640434 -32.55360652 152.15705524 -31.50006104 147.16763306 C-31.34983789 146.45620547 -31.19961474 145.74477788 -31.04483938 145.01179188 C-30.74081701 143.57199533 -30.43679533 142.13219862 -30.13277435 140.69240177 C-27.41502075 127.82185086 -24.69568648 114.95163442 -21.97559166 102.08157814 C-19.74389539 91.52220555 -17.51406691 80.96243971 -15.28547955 70.40241051 C-13.56570828 62.25363417 -11.84473478 54.1051126 -10.1224947 45.95685768 C-9.15655736 41.38680349 -8.19110393 36.81664858 -7.22695923 32.24621582 C-6.34287408 28.05557877 -5.45714377 23.86529307 -4.57003593 19.67529488 C-4.25190668 18.17133832 -3.93436983 16.66725631 -3.61747932 15.16303825 C-3.19239908 13.14570054 -2.76519038 11.1288255 -2.33740234 9.11206055 C-2.10129242 7.99478073 -1.8651825 6.87750092 -1.62191772 5.72636414 C-1 3 -1 3 0 0 Z " fill="#000000" transform="translate(587,70)"/>
<path d="M0 0 C61.38 0 122.76 0 186 0 C182.79476923 16.02615384 179.47185116 32.02948465 176 48 C156.2 48.33 136.4 48.66 116 49 C114.11796875 57.8790625 112.2359375 66.758125 110.296875 75.90625 C109.07558766 81.66668085 107.85426836 87.42710489 106.6328125 93.1875 C104.71091141 102.25122759 102.78911416 111.31497706 100.86816406 120.37890625 C94.31711589 151.28916128 87.75688454 182.19737729 81.140625 213.09375 C80.88282005 214.29856522 80.62501511 215.50338043 80.35939789 216.7447052 C79.64175526 220.09755138 78.92312922 223.45018498 78.20410156 226.80273438 C77.99364952 227.78616318 77.78319748 228.76959198 77.5663681 229.78282166 C77.37320259 230.68218948 77.18003708 231.58155731 76.98101807 232.50817871 C76.81454899 233.28450401 76.64807991 234.06082932 76.47656631 234.86067963 C76.01890879 236.91511789 75.51048806 238.95804777 75 241 C53.22 241 31.44 241 9 241 C10.12500516 230.87495358 10.12500516 230.87495358 10.88575745 227.28433228 C11.14337435 226.0528724 11.14337435 226.0528724 11.40619564 224.79653454 C11.59256368 223.92733537 11.77893171 223.0581362 11.97094727 222.16259766 C12.17002213 221.21722547 12.369097 220.27185328 12.57420444 219.29783344 C13.23415951 216.16902472 13.9002496 213.04155619 14.56640625 209.9140625 C15.03786768 207.68534359 15.50895929 205.45654642 15.97970581 203.22767639 C17.241435 197.2591664 18.5085356 191.29180868 19.77674484 185.3246727 C21.08667773 179.15694617 22.39174863 172.98819087 23.69750977 166.81958008 C26.79100498 152.21149335 29.89383662 137.60539774 33 123 C33.22856186 121.92521645 33.45712372 120.85043289 33.69261169 119.74308014 C38.77930052 95.82534081 43.88203641 71.91106645 49 48 C29.53 48 10.06 48 -10 48 C-9.31897773 41.87079955 -8.50539849 36.07951563 -7.1875 30.09765625 C-7.01371826 29.29388046 -6.83993652 28.49010468 -6.66088867 27.66197205 C-6.29659774 25.98177826 -5.9301205 24.3020571 -5.56152344 22.62280273 C-4.9963682 20.04594055 -4.43909416 17.46746265 -3.8828125 14.88867188 C-3.52650081 13.2499001 -3.16974609 11.61122458 -2.8125 9.97265625 C-2.64580811 9.20188248 -2.47911621 8.4311087 -2.30737305 7.63697815 C-1.11575471 2.23150942 -1.11575471 2.23150942 0 0 Z " fill="#000000" transform="translate(867,70)"/>
<path d="M0 0 C1.17280014 0.00539291 1.17280014 0.00539291 2.36929321 0.01089478 C3.18873917 0.01074875 4.00818512 0.01060272 4.85246277 0.01045227 C7.57416385 0.01115164 10.29579737 0.01894515 13.01748657 0.02676392 C14.89935773 0.02862801 16.78122938 0.03005195 18.6631012 0.03105164 C23.62631561 0.0348775 28.58950096 0.04470836 33.55270386 0.05575562 C38.61322639 0.06596827 43.67375359 0.07054894 48.73428345 0.07559204 C58.67114521 0.08633057 68.60798535 0.10340781 78.54483032 0.12442017 C77.28155957 8.84404786 75.74438125 17.46383696 73.9413147 26.08706665 C73.68675381 27.31788153 73.43219292 28.5486964 73.16991806 29.8168087 C72.47540577 33.17431529 71.77679772 36.53095745 71.07740116 39.8874495 C70.32983707 43.47869476 69.58611453 47.07073576 68.84188843 50.66267395 C67.40794944 57.58032577 65.97042937 64.49722843 64.53151059 71.41384596 C63.37519275 76.97237249 62.22022361 82.53117769 61.06619263 88.09017944 C60.9026643 88.87788821 60.73913598 89.66559698 60.57065225 90.47717571 C60.24006502 92.06961257 59.90947898 93.66204968 59.57889414 95.25448704 C56.01406645 112.42518859 52.44230915 129.59444488 48.86865115 146.76331043 C47.3879388 153.87744467 45.90877439 160.99190044 44.42959595 168.10635376 C42.07879801 179.41178476 39.72320106 190.71620798 37.36413574 202.01991653 C36.79486344 204.74926139 36.22649546 207.47879321 35.65835571 210.20837402 C34.78692036 214.39423689 33.91274355 218.57951702 33.03617096 222.76430702 C32.72362789 224.25843034 32.41200971 225.75274749 32.10140228 227.2472744 C31.68702471 229.24022951 31.26888051 231.23240038 30.85049438 233.22451782 C30.62041687 234.32558868 30.39033936 235.42665955 30.15328979 236.56109619 C29.54483032 239.12442017 29.54483032 239.12442017 28.54483032 241.12442017 C0.82483032 241.12442017 -26.89516968 241.12442017 -55.45516968 241.12442017 C-53.20517169 226.49943327 -53.20517169 226.49943327 -52.19013977 221.60813904 C-51.95956721 220.48888031 -51.72899466 219.36962158 -51.49143505 218.21644592 C-51.12144878 216.445765 -51.12144878 216.445765 -50.74398804 214.63931274 C-50.34514514 212.71046234 -50.34514514 212.71046234 -49.93824482 210.74264526 C-49.21278736 207.23464454 -48.48326551 203.72750045 -47.75299358 200.22049928 C-46.97376412 196.47467988 -46.19843388 192.72805333 -45.42263794 188.98152161 C-43.93036743 181.77791336 -42.43467334 174.57502046 -40.93767083 167.37239426 C-39.22112493 159.11294864 -37.50769326 150.85285806 -35.79455531 142.59270501 C-34.93959906 138.47043534 -34.08453154 134.34818876 -33.22941589 130.22595215 C-33.06083649 129.41328506 -32.89225709 128.60061798 -32.71856922 127.76332462 C-31.53138514 122.04071703 -30.34343806 116.31826813 -29.15516663 110.59588623 C-25.54432383 93.20612935 -21.94167573 75.81475008 -18.35854912 58.41925621 C-17.15957703 52.59952608 -15.95876049 46.78017619 -14.75810337 40.9607935 C-13.8649253 36.63066851 -12.97305961 32.30028125 -12.08404541 27.96929932 C-11.27746296 24.04003176 -10.46755551 20.11146595 -9.6548233 16.18346596 C-9.36723241 14.79025137 -9.0809607 13.3967637 -8.79613495 12.00298119 C-8.41858756 10.15603522 -8.03604852 8.31011162 -7.65316772 6.46426392 C-7.44387131 5.44711304 -7.23457489 4.42996216 -7.01893616 3.38198853 C-5.96692752 -0.83071567 -3.98745147 0.00774031 0 0 Z " fill="#CDFD05" transform="translate(166.45516967773438,69.87557983398438)"/>
<path d="M0 0 C1.1702623 0.00222061 2.3405246 0.00444122 3.54624939 0.00672913 C4.19013107 0.0065831 4.83401276 0.00643707 5.49740601 0.00628662 C7.63473327 0.00698567 9.77197438 0.01477761 11.9092865 0.02259827 C13.3875931 0.02446248 14.86590032 0.02588637 16.34420776 0.02688599 C20.24211827 0.03071093 24.13999174 0.040541 28.03788757 0.05158997 C32.01259358 0.0618046 35.98730554 0.06638372 39.96202087 0.07142639 C47.76607425 0.0821633 55.57009707 0.09923942 63.37413025 0.12025452 C59.99843161 18.86229334 56.30086352 37.52163359 52.41073537 56.1633029 C51.65600447 59.78331956 50.90473855 63.4040555 50.15304565 67.02470398 C48.73187554 73.86752171 47.30780044 80.7097312 45.88257354 87.551705 C44.28106661 95.24058322 42.68269202 102.93011143 41.08465588 110.61971164 C39.12248555 120.06148688 37.15999936 129.50319574 35.19470215 138.94432068 C35.05676737 139.60709326 34.91883258 140.26986583 34.77671796 140.95272243 C34.10119367 144.19853292 33.4252732 147.44425946 32.74871922 150.68985558 C31.37717224 157.27478455 30.01574202 163.86162346 28.66877747 170.45161438 C28.25493225 172.47112007 27.84088171 174.49058355 27.42676628 176.51003385 C27.03665175 178.41723119 26.64959036 180.32505223 26.26259708 182.23288536 C26.02893657 183.37227877 25.79527605 184.51167217 25.55453491 185.68559265 C25.34999915 186.69011789 25.14546339 187.69464314 24.93472958 188.72960854 C24.37413025 191.12025452 24.37413025 191.12025452 23.37413025 193.12025452 C52.41413025 193.12025452 81.45413025 193.12025452 111.37413025 193.12025452 C109.90975525 200.29775452 108.44538025 207.47525452 106.93663025 214.87025452 C106.24549133 218.26129456 106.24549133 218.26129456 105.54039001 221.72084045 C105.17384168 223.51545101 104.80722826 225.31004827 104.4405365 227.10462952 C104.25132629 228.03420471 104.06211609 228.96377991 103.86717224 229.92152405 C103.68456848 230.81436096 103.50196472 231.70719788 103.31382751 232.62709045 C103.15616409 233.39986328 102.99850067 234.17263611 102.83605957 234.96882629 C102.39362642 237.02945141 101.88529518 239.0755948 101.37413025 241.12025452 C50.55413025 241.12025452 -0.26586975 241.12025452 -52.62586975 241.12025452 C-51.50086531 232.12021899 -51.50086531 232.12021899 -50.66659546 228.08805847 C-50.47829383 227.17029223 -50.2899922 226.252526 -50.09598446 225.30694866 C-49.78847177 223.83225723 -49.78847177 223.83225723 -49.4747467 222.32777405 C-49.25591859 221.26587514 -49.03709047 220.20397623 -48.8116312 219.10989857 C-48.08211437 215.57366592 -47.34813608 212.0383747 -46.614151 208.50306702 C-46.0920048 205.97663762 -45.57013003 203.45015211 -45.04850769 200.9236145 C-43.78686732 194.81534625 -42.52188552 188.70777479 -41.25565243 182.60045713 C-40.23167041 177.66128463 -39.20887101 172.72186865 -38.18693542 167.78227234 C-38.04176674 167.08059053 -37.89659805 166.37890873 -37.74703032 165.65596384 C-37.45272562 164.23338603 -37.15842509 162.81080735 -36.86412871 161.38822782 C-34.91654074 151.97428505 -32.9680258 142.5605348 -31.01727295 133.14724731 C-30.8670488 132.42234028 -30.71682465 131.69743324 -30.56204826 130.95055932 C-30.41194193 130.22622431 -30.2618356 129.5018893 -30.1071806 128.75560474 C-27.07585863 114.12796912 -24.05069897 99.49907764 -21.03176111 84.86888123 C-19.10349285 75.52427657 -17.17257416 66.1802215 -15.24005795 56.83649445 C-14.03206111 50.99549501 -12.82521504 45.15426339 -11.62113953 39.31245422 C-10.49896268 33.8685716 -9.3732082 28.42544152 -8.24457932 22.98289299 C-7.83318933 20.99592208 -7.42311296 19.00867869 -7.01442337 17.02115059 C-6.46187432 14.33494381 -5.90472782 11.64973271 -5.34632874 8.96473694 C-5.18499608 8.1748192 -5.02366343 7.38490147 -4.8574419 6.57104683 C-3.51525693 0.16098495 -3.51525693 0.16098495 0 0 Z " fill="#000000" transform="translate(1337.6258697509766,69.87974548339844)"/>
<path d="M0 0 C21.78 0 43.56 0 66 0 C64.66630142 8.00219148 63.25788132 15.92881635 61.61181641 23.86425781 C61.37992426 24.99133368 61.14803211 26.11840956 60.90911293 27.27963924 C60.14211707 31.00458917 59.37187049 34.72885873 58.6015625 38.453125 C58.05269884 41.113708 57.5044946 43.77442678 56.95623779 46.43513489 C55.63787732 52.83092811 54.31697723 59.22619416 52.99503851 65.62124866 C51.92914401 70.77776931 50.86410319 75.93446558 49.79962158 81.09127808 C45.6820262 101.03795751 41.55766937 120.98323269 37.42898178 140.92761898 C37.0082002 142.96038542 36.58747746 144.99316402 36.16677856 147.02594757 C32.7914187 163.33535871 29.41050261 179.64360313 26.02147675 195.95018005 C25.37453459 199.06474063 24.72855346 202.17949917 24.08282471 205.29431152 C23.08275276 210.11755635 22.07990793 214.94021581 21.07471466 219.76239586 C20.7114495 221.50714274 20.34911698 223.2520841 19.98778534 224.99723244 C19.50145849 227.34514194 19.01171043 229.69231085 18.52099609 232.03930664 C18.3799325 232.72428349 18.2388689 233.40926033 18.09353065 234.11499405 C17.11423866 238.77152267 17.11423866 238.77152267 16 241 C-5.78 241 -27.56 241 -50 241 C-44.25670075 211.13484393 -44.25670075 211.13484393 -42.22363281 201.41601562 C-41.98655169 200.27447242 -41.74947056 199.13292921 -41.50520515 197.95679379 C-40.73966137 194.27289867 -39.97141691 190.58957286 -39.203125 186.90625 C-38.65028315 184.24951907 -38.09805279 181.59266113 -37.54580688 178.93580627 C-36.38217371 173.33903729 -35.2172116 167.74254646 -34.0512085 162.14627075 C-32.23442812 153.42656129 -30.41996271 144.70637105 -28.60595703 135.98608398 C-28.14936086 133.79119489 -27.69276101 131.59630657 -27.23615873 129.40141875 C-26.9323294 127.94091059 -26.62850346 126.48040173 -26.32468092 125.01989216 C-25.41644911 120.65403351 -24.50797559 116.28822523 -23.59931195 111.92245644 C-19.88074517 94.0560396 -16.17153258 76.187721 -12.4765625 58.31640625 C-12.06882265 56.34503867 -11.66106745 54.37367426 -11.2532959 52.40231323 C-9.59214871 44.3707348 -7.93179245 36.33899663 -6.2749958 28.30651951 C-5.62368496 25.15065802 -4.97094482 21.99509348 -4.31779099 18.83961296 C-4.02196304 17.40876695 -3.72677863 15.97778772 -3.43230057 14.54666328 C-3.03837614 12.63241439 -2.64206336 10.71865744 -2.24560547 8.80493164 C-2.02726044 7.74697891 -1.80891541 6.68902618 -1.58395386 5.59901428 C-1 3 -1 3 0 0 Z " fill="#000000" transform="translate(778,70)"/>
<path d="M0 0 C20.46 0 40.92 0 62 0 C56.25550387 29.87137988 56.25550387 29.87137988 53.90063477 41.19897461 C53.62689635 42.5226225 53.35331757 43.84630341 53.07987976 45.17001343 C52.35362652 48.68353205 51.62516708 52.19658953 50.89619946 55.70954585 C50.11139917 59.49348192 49.32866707 63.27784592 48.54563904 67.06214905 C47.22313794 73.45224991 45.89928221 79.84206883 44.57446289 86.23168945 C43.24813869 92.6285915 41.92285513 99.02570768 40.59887695 105.4230957 C40.35741784 106.58980681 40.35741784 106.58980681 40.11108077 107.78008783 C39.86989392 108.94549 39.86989392 108.94549 39.62383461 110.13443565 C35.42462159 130.42477153 31.21610691 150.71316792 27 171 C26.83393092 171.79916745 26.66786184 172.5983349 26.49676037 173.42171955 C24.34275493 183.78702368 22.18608661 194.1517685 20.02528191 204.51565742 C19.40532585 207.48936003 18.78616188 210.46322581 18.167696 213.43723869 C17.31820325 217.52182306 16.46579601 221.60579354 15.61303711 225.68969727 C15.361415 226.90124292 15.1097929 228.11278858 14.85054588 229.36104774 C14.50462615 231.01393334 14.50462615 231.01393334 14.15171814 232.70021057 C13.95216994 233.65739266 13.75262175 234.61457476 13.54702663 235.60076237 C13 238 13 238 12 241 C-8.13 241 -28.26 241 -49 241 C-47.87499425 230.87494826 -47.87499425 230.87494826 -46.99603271 226.62408447 C-46.79786862 225.65563252 -46.59970453 224.68718058 -46.39553547 223.6893816 C-46.17960837 222.65525481 -45.96368128 221.62112803 -45.74121094 220.55566406 C-45.51105128 219.4369501 -45.28089163 218.31823614 -45.04375744 217.16562176 C-44.27788647 213.44813451 -43.50615322 209.73188997 -42.734375 206.015625 C-42.18642618 203.36454869 -41.63969905 200.71322079 -41.09291077 198.06190491 C-39.77382263 191.66956975 -38.45035054 185.27815003 -37.12535304 178.88703746 C-35.59560337 171.50739246 -34.0705003 164.12678949 -32.54548752 156.74616444 C-28.70530706 138.16238544 -24.85431004 119.58085297 -21 101 C-20.85732854 100.31218099 -20.71465708 99.62436197 -20.56766224 98.91569996 C-13.72767716 65.94048506 -6.87065573 32.96883786 0 0 Z " fill="#CDFD05" transform="translate(258,70)"/>
<path d="M0 0 C14.52 0 29.04 0 44 0 C42.87499791 10.12501883 42.87499791 10.12501883 42.04072571 14.15245056 C41.85242376 15.07159178 41.66412182 15.99073299 41.47011375 16.93772697 C41.26510561 17.91725901 41.06009747 18.89679104 40.84887695 19.90600586 C40.63005167 20.96804796 40.41122639 22.03009007 40.18577003 23.12431526 C39.45719443 26.65531449 38.7227497 30.18506596 37.98828125 33.71484375 C37.46600329 36.23987187 36.94408492 38.76497438 36.42250061 41.29014587 C35.16156225 47.39149045 33.89628052 53.49192631 32.62953216 59.59206694 C31.16322181 66.6542001 29.70158256 73.7172975 28.24016571 80.78044462 C24.94097769 96.72468565 21.63412382 112.66733254 18.32588243 128.6096971 C16.75429831 136.18346332 15.18399474 143.75749492 13.61376953 151.33154297 C7.41664653 181.22258239 1.21163101 211.11197184 -5 241 C-19.85 241 -34.7 241 -50 241 C-41.64295668 199.69321701 -33.18554566 158.40874419 -24.60375488 117.14808619 C-23.59335947 112.28963011 -22.58428349 107.43090128 -21.57592773 102.57202148 C-14.47611443 68.36142677 -7.30172362 34.16823433 0 0 Z " fill="#CDFD05" transform="translate(333,70)"/>
<path d="M0 0 C10.89 0 21.78 0 33 0 C31.65617108 8.73488801 30.20197474 17.32782481 28.39648438 25.96264648 C28.14192348 27.19346136 27.88736259 28.42427624 27.62508774 29.69238853 C26.93057545 33.04989512 26.2319674 36.40653728 25.53257084 39.76302934 C24.78500675 43.3542746 24.04128421 46.94631559 23.29705811 50.53825378 C21.86311912 57.45590561 20.42559905 64.37280827 18.98668027 71.28942579 C17.83036242 76.84795232 16.67539329 82.40675752 15.5213623 87.96575928 C15.35783398 88.75346805 15.19430565 89.54117682 15.02582192 90.35275555 C14.6952347 91.94519241 14.36464866 93.53762952 14.03406382 95.13006687 C10.46923613 112.30076842 6.89747883 129.47002471 3.32382083 146.63889027 C1.84310848 153.7530245 0.36394407 160.86748027 -1.11523438 167.98193359 C-3.46603231 179.28736459 -5.82162927 190.59178782 -8.18069458 201.89549637 C-8.74996688 204.62484123 -9.31833486 207.35437304 -9.88647461 210.08395386 C-10.75790996 214.26981673 -11.63208678 218.45509685 -12.50865936 222.63988686 C-12.82120243 224.13401018 -13.13282061 225.62832732 -13.44342804 227.12285423 C-13.85780561 229.11580934 -14.27594981 231.10798022 -14.69433594 233.10009766 C-14.92441345 234.20116852 -15.15449097 235.30223938 -15.39154053 236.43667603 C-16 239 -16 239 -17 241 C-27.56 241 -38.12 241 -49 241 C-48.40614173 235.65527556 -47.84843494 230.74670876 -46.77256775 225.55145264 C-46.52506271 224.34616409 -46.27755768 223.14087555 -46.02255249 221.89906311 C-45.74940527 220.58991931 -45.47617872 219.28079205 -45.20288086 217.97167969 C-44.91307445 216.56828457 -44.62363078 215.16481451 -44.33451843 213.76127625 C-43.54797585 209.94813602 -42.75633756 206.13606976 -41.96378016 202.32417583 C-41.11682281 198.24620861 -40.27458554 194.16726644 -39.43177795 190.08843994 C-37.81799061 182.28201651 -36.19994574 174.47648179 -34.58040768 166.67124963 C-32.80196857 158.09915955 -31.02834733 149.52607545 -29.25514483 140.95290089 C-19.53529433 93.96199561 -9.7681171 46.98089101 0 0 Z " fill="#CDFD05" transform="translate(396,70)"/>
<path d="M0 0 C1.37040306 0.00094054 2.74105841 0.03430307 4.11010742 0.09521484 C4.83550217 0.10370453 5.56089691 0.11219421 6.30827332 0.12094116 C8.61225574 0.15437833 10.91266269 0.2296212 13.21557617 0.30615234 C14.7825827 0.33626529 16.34964442 0.36363879 17.91674805 0.38818359 C21.74688973 0.45413535 25.57437808 0.5575744 29.40307617 0.68115234 C28.84966239 8.52634609 27.37402316 16.01697242 25.65307617 23.68115234 C22.65877276 37.30422931 19.97620079 50.97300174 17.40307617 64.68115234 C22.35307617 64.68115234 27.30307617 64.68115234 32.40307617 64.68115234 C31.85220334 71.19981422 30.94115834 77.32374605 29.40307617 83.68115234 C20.98807617 84.17615234 20.98807617 84.17615234 12.40307617 84.68115234 C11.08307617 91.28115234 9.76307617 97.88115234 8.40307617 104.68115234 C-0.50692383 104.68115234 -9.41692383 104.68115234 -18.59692383 104.68115234 C-16.59692383 91.68115234 -16.59692383 91.68115234 -14.59692383 83.68115234 C-30.76692383 83.68115234 -46.93692383 83.68115234 -63.59692383 83.68115234 C-63.26692383 80.71115234 -62.93692383 77.74115234 -62.59692383 74.68115234 C-62.49895508 73.45912109 -62.40098633 72.23708984 -62.30004883 70.97802734 C-60.8897256 59.93860069 -56.20739702 55.14744688 -48.10327148 48.04150391 C-46.24378326 46.36223837 -44.63266892 44.54606454 -43.03442383 42.61865234 C-39.58261091 38.54706254 -35.7932297 34.85061262 -31.99902344 31.1027832 C-28.66894154 27.79774344 -25.54900725 24.39074809 -22.51098633 20.81396484 C-19.46765352 17.42282257 -16.20715509 14.24916927 -12.9465332 11.06787109 C-12.45733398 10.58705078 -11.96813477 10.10623047 -11.46411133 9.61083984 C-11.03211426 9.19044434 -10.60011719 8.77004883 -10.1550293 8.33691406 C-8.37554005 6.52599079 -8.37554005 6.52599079 -6.39941406 3.53466797 C-3.59692383 0.68115234 -3.59692383 0.68115234 0 0 Z " fill="#030300" transform="translate(656.596923828125,401.31884765625)"/>
<path d="M0 0 C0.92772217 0.00491455 1.85544434 0.0098291 2.8112793 0.01489258 C12.7147209 0.18433814 21.92639862 1.70622334 29.6875 8.3125 C35.73540943 14.95307761 38.17712131 20.80796838 38 29.796875 C36.67276428 44.7282769 31.4812662 57.64999406 20.46875 68.08203125 C9.85934116 76.59041952 -1.42389718 78.67168082 -14.625 78.6875 C-16.22118164 78.72423828 -16.22118164 78.72423828 -17.84960938 78.76171875 C-28.16188152 78.79946959 -37.05581216 76.48831424 -44.65625 69.24609375 C-50.75628087 62.12459545 -51.73764602 54.35448104 -51.65234375 45.24609375 C-50.43422913 31.14676701 -43.59228579 19.20045082 -32.8359375 10.1328125 C-22.6682515 2.79822786 -12.34705391 -0.07703651 0 0 Z " fill="#020200" transform="translate(851.3125,428.6875)"/>
<path d="M0 0 C5.12294547 5.17878138 6.17228326 9.21438933 6.5 16.375 C6.40807866 27.41705063 0.95622462 36.97992168 -6.6171875 44.8125 C-20.29862852 57.37251143 -36.30590919 67.19119325 -52 77 C-36.82 77.33 -21.64 77.66 -6 78 C-7.00774776 85.05423435 -8.50692656 92.03232395 -10 99 C-37.72 99 -65.44 99 -94 99 C-93.01 93.06 -93.01 93.06 -92 87 C-91.80083984 84.39738281 -91.80083984 84.39738281 -91.59765625 81.7421875 C-90.65644159 77.20370295 -88.6956444 75.55513405 -84.93359375 72.9453125 C-82.78627625 71.64167359 -80.6195832 70.36957212 -78.4375 69.125 C-77.29219656 68.43850486 -76.14922116 67.74811161 -75.00854492 67.05395508 C-72.73274299 65.66941354 -70.45164432 64.29611309 -68.16503906 62.92919922 C-63.92577429 60.34522281 -59.84941304 57.57490133 -55.8125 54.6875 C-55.1436377 54.20917725 -54.47477539 53.73085449 -53.78564453 53.23803711 C-36.43425649 41.68198806 -36.43425649 41.68198806 -25 25 C-24.67606512 21.9663241 -24.53467485 19.02159189 -25 16 C-27.66484365 13.33515635 -29.09879828 13.67079164 -32.8125 13.625 C-36.65178255 13.69847909 -38.63744582 13.80762431 -42.0625 15.625 C-44.47828383 18.40941476 -44.47828383 18.40941476 -47 24 C-56.57 24 -66.14 24 -76 24 C-74.46077719 14.76466312 -69.54074898 7.3677737 -62.21875 1.49609375 C-46.48011758 -9.11639959 -15.54905538 -12.95754615 0 0 Z " fill="#020300" transform="translate(587,407)"/>
<path d="M0 0 C9.24 0 18.48 0 28 0 C26.54219695 8.01791679 25.03445149 16.01050384 23.4375 24 C23.21642578 25.11761719 22.99535156 26.23523438 22.76757812 27.38671875 C22.44756836 28.98966797 22.44756836 28.98966797 22.12109375 30.625 C21.83383423 32.06746094 21.83383423 32.06746094 21.54077148 33.5390625 C21 36 21 36 20 39 C20.64066406 38.59007812 21.28132812 38.18015625 21.94140625 37.7578125 C22.80636719 37.21898437 23.67132812 36.68015625 24.5625 36.125 C25.40941406 35.59132813 26.25632812 35.05765625 27.12890625 34.5078125 C35.49744011 30.11290901 46.4180998 29.35205797 55.60546875 31.65234375 C61.03981405 34.10147809 65.34415693 38.68831385 68 44 C68.84173241 53.83108898 67.02789896 62.82012316 64.6875 72.3125 C64.1979944 74.36701707 63.71380764 76.42273563 63.23028564 78.47866821 C62.91535276 79.81754658 62.59893113 81.15607572 62.28094482 82.49423218 C60.80573328 88.72870312 59.60574669 94.98722786 58.5078125 101.296875 C58 104 58 104 57 107 C47.76 107 38.52 107 29 107 C29.67262512 101.61899902 30.42622676 96.64604809 31.59375 91.39453125 C31.74533569 90.70743576 31.89692139 90.02034027 32.05310059 89.31242371 C32.53198515 87.14500881 33.01581925 84.97873725 33.5 82.8125 C33.98306788 80.63531645 34.4651155 78.45790928 34.94689941 76.28044128 C35.38285128 74.31264803 35.8212395 72.345395 36.25976562 70.37817383 C38.21125531 62.25921726 38.21125531 62.25921726 38 54 C36.10350449 50.85341334 36.10350449 50.85341334 33 49 C28.91326141 48.33126096 26.65676129 48.71102503 22.875 50.375 C13.75365044 58.70318873 12.6201458 72.41954505 10.25 83.9375 C9.65470302 86.76455909 9.05561893 89.59079339 8.45574951 92.41688538 C8.08601481 94.1656778 7.7197051 95.91519873 7.35723877 97.66551208 C7.19326599 98.45385941 7.02929321 99.24220673 6.86035156 100.05444336 C6.64647797 101.09174843 6.64647797 101.09174843 6.42828369 102.15000916 C6 104 6 104 5 107 C-4.24 107 -13.48 107 -23 107 C-21.6404289 98.8425734 -20.15187641 90.85587479 -18.3125 82.8125 C-15.99161195 72.51423396 -13.74472314 62.20330302 -11.5625 51.875 C-11.27173134 50.50097596 -10.98095985 49.12695253 -10.69018555 47.75292969 C-9.29747082 41.16645395 -7.9110502 34.5786712 -6.52909851 27.9899292 C-5.88471537 24.91999724 -5.23826838 21.8505018 -4.59152222 18.78106689 C-4.13256113 16.5984573 -3.67672513 14.41520976 -3.22094727 12.23193359 C-2.94173468 10.90588958 -2.66236506 9.57987863 -2.3828125 8.25390625 C-2.13934082 7.09189697 -1.89586914 5.9298877 -1.64501953 4.73266602 C-1 2 -1 2 0 0 Z " fill="#020300" transform="translate(719,399)"/>
<path d="M0 0 C6.93 0 13.86 0 21 0 C19.71670687 8.72076639 18.20028937 17.33588517 16.39648438 25.96264648 C16.14192348 27.19346136 15.88736259 28.42427624 15.62508774 29.69238853 C14.93057545 33.04989512 14.2319674 36.40653728 13.53257084 39.76302934 C12.78500675 43.3542746 12.04128421 46.94631559 11.29705811 50.53825378 C9.86311912 57.45590561 8.42559905 64.37280827 6.98668027 71.28942579 C5.83036242 76.84795232 4.67539329 82.40675752 3.5213623 87.96575928 C3.35783398 88.75346805 3.19430565 89.54117682 3.02582192 90.35275555 C2.6952347 91.94519241 2.36464866 93.53762952 2.03406382 95.13006687 C-1.53076387 112.30076842 -5.10252117 129.47002471 -8.67617917 146.63889027 C-10.15689152 153.7530245 -11.63605593 160.86748027 -13.11523438 167.98193359 C-15.46603231 179.28736459 -17.82162927 190.59178782 -20.18069458 201.89549637 C-20.74996688 204.62484123 -21.31833486 207.35437304 -21.88647461 210.08395386 C-22.75790996 214.26981673 -23.63208678 218.45509685 -24.50865936 222.63988686 C-24.82120243 224.13401018 -25.13282061 225.62832732 -25.44342804 227.12285423 C-25.85780561 229.11580934 -26.27594981 231.10798022 -26.69433594 233.10009766 C-26.92441345 234.20116852 -27.15449097 235.30223938 -27.39154053 236.43667603 C-28 239 -28 239 -29 241 C-35.93 241 -42.86 241 -50 241 C-46.40986582 221.99840169 -42.58447179 203.05113129 -38.66133881 184.11615086 C-37.8454319 180.17638045 -37.0315058 176.23620072 -36.21728516 172.29608154 C-34.84350716 165.64960843 -33.46836251 159.0034193 -32.09228516 152.35742188 C-30.71050671 145.68385065 -29.32990153 139.01003838 -27.95068359 132.3359375 C-20.99702519 98.68724416 -14.0279361 65.04177556 -6.99137115 31.41030788 C-6.56544196 29.37344394 -6.1401446 27.33644903 -5.71502686 25.29941559 C-4.93848012 21.57903964 -4.15891911 17.85929933 -3.37890625 14.13964844 C-3.15055588 13.04446144 -2.92220551 11.94927444 -2.68693542 10.82089996 C-2.47772964 9.82601311 -2.26852386 8.83112625 -2.05297852 7.80609131 C-1.78228294 6.51345179 -1.78228294 6.51345179 -1.50611877 5.19469833 C-1 3 -1 3 0 0 Z " fill="#CDFD05" transform="translate(454,70)"/>
<path d="M0 0 C25.08 0 50.16 0 76 0 C74.82851702 7.02889788 73.5458145 14.04383473 72 21 C56.49 21 40.98 21 25 21 C24.67 23.97 24.34 26.94 24 30 C23.01 34.62 22.02 39.24 21 44 C34.86 44.33 48.72 44.66 63 45 C60 61 60 61 59 66 C44.48 66 29.96 66 15 66 C14.67 69.63 14.34 73.26 14 77 C13.5915944 79.38539009 13.1391941 81.76406261 12.625 84.12890625 C12.36203125 85.34771484 12.0990625 86.56652344 11.828125 87.82226562 C11.55484375 89.05654297 11.2815625 90.29082031 11 91.5625 C10.72671875 92.83158203 10.4534375 94.10066406 10.171875 95.40820312 C8.14613884 104.70772233 8.14613884 104.70772233 7 107 C-2.57 107 -12.14 107 -22 107 C-20.87617066 96.8855359 -20.87617066 96.8855359 -19.9140625 92.65234375 C-19.7070874 91.72566895 -19.5001123 90.79899414 -19.28686523 89.84423828 C-19.06844971 88.88501465 -18.85003418 87.92579102 -18.625 86.9375 C-17.11791516 80.18227085 -15.66669759 73.43652036 -14.4375 66.625 C-13.3187396 60.46865743 -11.94693723 54.41256645 -10.47583008 48.33422852 C-9.38148324 43.76329381 -8.45074012 39.19150195 -7.625 34.5625 C-5.42525228 22.97152161 -2.6528626 11.49573791 0 0 Z " fill="#020300" transform="translate(1136,399)"/>
<path d="M0 0 C5.46635441 5.60301327 7.59656069 11.35074174 7.75 19.125 C7.5 25.5625 7.5 25.5625 5.5 38.5625 C-12.32 38.5625 -30.14 38.5625 -48.5 38.5625 C-49.0014931 46.76722427 -49.0014931 46.76722427 -46.5 53.5625 C-42.02608399 56.54511067 -37.74456466 56.1627363 -32.5 55.5625 C-26.92981958 52.9763448 -26.40025989 51.36301978 -23.5 45.5625 C-14.92 45.5625 -6.34 45.5625 2.5 45.5625 C0.92730673 53.42596634 -2.77699337 58.63492428 -9.25 63.375 C-22.87301923 72.20435532 -38.91520952 73.34950996 -54.74609375 71.1015625 C-61.13248179 69.40782464 -67.12902029 66.12927817 -70.84765625 60.53515625 C-76.16362422 50.30334692 -75.73320718 39.11800284 -72.375 28.3125 C-70.23899101 21.84743058 -67.4851081 16.08824268 -63.5 10.5625 C-63.06171875 9.93085938 -62.6234375 9.29921875 -62.171875 8.6484375 C-56.55187288 1.31659565 -47.87806455 -3.93337128 -38.9140625 -6 C-25.68153759 -7.69570113 -11.10909233 -8.45897151 0 0 Z " fill="#020200" transform="translate(1502.5,435.4375)"/>
<path d="M0 0 C0.80759766 -0.01998047 1.61519531 -0.03996094 2.44726562 -0.06054688 C8.26885264 -0.05585583 12.70915723 1.15866024 17.5625 4.4375 C22.86459249 10.14744576 22.91701754 14.56208254 22.79882812 22.10986328 C22.52170349 29.34391974 20.87575614 36.33078615 19.3125 43.375 C19.00778881 44.80896371 18.7044005 46.24320917 18.40234375 47.67773438 C16.34979531 57.32380821 13.99606438 66.88091422 11.5625 76.4375 C2.3225 76.4375 -6.9175 76.4375 -16.4375 76.4375 C-15.27870339 70.06411867 -14.12426547 63.79969756 -12.7109375 57.49609375 C-12.39792257 56.07368093 -12.08543824 54.65115125 -11.7734375 53.22851562 C-11.29345203 51.04674119 -10.81043372 48.86584976 -10.31835938 46.68676758 C-7.32859875 34.67605642 -7.32859875 34.67605642 -7.4375 22.4375 C-9.15976496 19.18900023 -9.15976496 19.18900023 -12.4375 18.4375 C-16.39817327 18.06385158 -18.90254667 18.20212054 -22.5625 19.8125 C-29.18449689 25.85867108 -31.28919188 34.49108282 -32.89453125 43.0390625 C-33.08722092 44.001539 -33.27991058 44.9640155 -33.47843933 45.95565796 C-34.08249557 48.98878418 -34.66656357 52.02534766 -35.25 55.0625 C-35.65948383 57.13698043 -36.07027953 59.21120236 -36.48242188 61.28515625 C-37.48508615 66.33277398 -38.46054407 71.38457323 -39.4375 76.4375 C-48.6775 76.4375 -57.9175 76.4375 -67.4375 76.4375 C-66.7913029 69.97552904 -66.18121382 64.74445435 -64.625 58.625 C-62.59878056 50.40600823 -60.99804956 42.1366033 -59.44921875 33.81640625 C-58.28379013 27.56235788 -57.02246741 21.32827861 -55.74414062 15.09643555 C-55.58751953 14.32468994 -55.43089844 13.55294434 -55.26953125 12.7578125 C-55.13264893 12.09023926 -54.9957666 11.42266602 -54.85473633 10.73486328 C-54.29455051 7.65039953 -53.88084467 4.54091268 -53.4375 1.4375 C-43.8675 1.4375 -34.2975 1.4375 -24.4375 1.4375 C-24.7675 4.4075 -25.0975 7.3775 -25.4375 10.4375 C-24.86902344 9.96699219 -24.30054688 9.49648438 -23.71484375 9.01171875 C-22.94269531 8.38910156 -22.17054687 7.76648438 -21.375 7.125 C-20.62089844 6.51011719 -19.86679688 5.89523437 -19.08984375 5.26171875 C-12.8047278 0.93896596 -7.418121 -0.06481281 0 0 Z " fill="#030300" transform="translate(1395.4375,429.5625)"/>
<path d="M0 0 C8.91 0 17.82 0 27 0 C25.87580551 12.36613943 25.87580551 12.36613943 24.625 17.515625 C24.36203125 18.62164062 24.0990625 19.72765625 23.828125 20.8671875 C23.55484375 21.98351562 23.2815625 23.09984375 23 24.25 C19.95145906 36.60996976 19.95145906 36.60996976 18.75 49.25 C18.72421875 50.08015625 18.6984375 50.9103125 18.671875 51.765625 C18.83294559 54.05498012 18.83294559 54.05498012 20.27734375 55.7734375 C23.24710642 57.8879624 26.54676217 57.46523697 30 57 C34.69497376 55.46510473 36.70297107 53.51380643 39.05419922 49.20581055 C40.93871844 44.810707 41.60814581 40.12394638 42.4375 35.4375 C42.85421309 33.2182682 43.27354231 30.99952625 43.6953125 28.78125 C43.90704102 27.65976562 44.11876953 26.53828125 44.33691406 25.3828125 C46.00460402 16.87489199 48.04264004 8.44461011 50 0 C59.24 0 68.48 0 78 0 C76.37728985 11.35897104 74.17489011 22.50158409 71.48120117 33.64648438 C70.04343528 39.65783904 68.89610481 45.69095246 67.79296875 51.7734375 C66.36253841 59.5482471 64.64841459 67.26950401 63 75 C53.76 75 44.52 75 35 75 C35.33 71.7 35.66 68.4 36 65 C34.906875 66.0725 33.81375 67.145 32.6875 68.25 C24.83092108 75.03335098 16.47954768 76.71176822 6.24609375 76.38671875 C0.37288467 75.68702236 -3.28415784 73.7609959 -7.375 69.5625 C-14.05787559 59.02411926 -11.04050334 46.69602587 -8.512146 35.23934937 C-7.89261129 32.51145582 -7.25901267 29.78706054 -6.625 27.0625 C-6.20700883 25.21058491 -5.79033381 23.35837225 -5.375 21.50585938 C-4.60878468 18.11416204 -3.83990366 14.72319605 -3.05322266 11.33618164 C-2.89777985 10.66559219 -2.74233704 9.99500275 -2.58218384 9.30409241 C-1.79371102 6.18357599 -0.88421427 3.09474995 0 0 Z " fill="#030300" transform="translate(914,431)"/>
<path d="M0 0 C3.59937795 2.95020443 6.68708715 5.71262468 7.5625 10.41796875 C7.5625 13.71796875 7.5625 17.01796875 7.5625 20.41796875 C-1.3475 20.41796875 -10.2575 20.41796875 -19.4375 20.41796875 C-19.4375 17.77796875 -19.4375 15.13796875 -19.4375 12.41796875 C-23.13876859 9.95045636 -25.05973532 10.11075719 -29.4375 10.41796875 C-31.85968117 10.79427987 -31.85968117 10.79427987 -33.4375 12.41796875 C-34.09358979 15.47972111 -34.4375 18.29018259 -34.4375 21.41796875 C-33.86386719 21.56492187 -33.29023437 21.711875 -32.69921875 21.86328125 C-26.28056686 23.55803911 -19.91310114 25.42323223 -13.5625 27.35546875 C-12.74225342 27.59604004 -11.92200684 27.83661133 -11.0769043 28.08447266 C-5.05999296 29.9435163 -1.03024049 32.02885802 2.5625 37.41796875 C3.70997942 45.80339529 2.9767705 52.78860043 -1.53125 60.0078125 C-8.4089228 68.70355864 -17.75606654 72.59448799 -28.4375 74.41796875 C-31.71425823 74.70170668 -34.96214684 74.75246214 -38.25 74.73046875 C-39.55940552 74.72309692 -39.55940552 74.72309692 -40.89526367 74.71557617 C-50.85177826 74.53575582 -59.87673082 73.33526821 -67.4375 66.41796875 C-71.45309611 61.10701905 -70.95414714 54.80650931 -70.4375 48.41796875 C-69.4375 47.41796875 -69.4375 47.41796875 -66.84545898 47.30444336 C-65.71954346 47.30968018 -64.59362793 47.31491699 -63.43359375 47.3203125 C-62.21865234 47.32353516 -61.00371094 47.32675781 -59.75195312 47.33007812 C-58.47255859 47.33845703 -57.19316406 47.34683594 -55.875 47.35546875 C-54.59173828 47.35998047 -53.30847656 47.36449219 -51.98632812 47.36914062 C-48.80333978 47.3809733 -45.62044238 47.39745807 -42.4375 47.41796875 C-42.31632812 48.12824219 -42.19515625 48.83851563 -42.0703125 49.5703125 C-41.90273437 50.48941406 -41.73515625 51.40851563 -41.5625 52.35546875 C-41.40007812 53.27199219 -41.23765625 54.18851562 -41.0703125 55.1328125 C-40.86148437 55.88691406 -40.65265625 56.64101563 -40.4375 57.41796875 C-37.61748673 58.82797539 -35.56742745 58.66345326 -32.4375 58.41796875 C-28.72593126 56.6532332 -28.72593126 56.6532332 -26.4375 53.41796875 C-26.397508 51.41836863 -26.39403201 49.41749633 -26.4375 47.41796875 C-32.43669414 43.97162318 -38.52822232 42.09259239 -45.18139648 40.3449707 C-51.30135632 38.67309145 -56.46594688 36.5411798 -60.875 31.79296875 C-63.40796949 26.32175464 -63.44463362 21.532193 -61.58984375 15.796875 C-57.11958741 5.84108376 -50.18841655 1.28923585 -40.26953125 -2.63671875 C-28.56817196 -6.54255178 -10.54368701 -6.8432584 0 0 Z " fill="#030400" transform="translate(1675.4375,433.58203125)"/>
<path d="M0 0 C5.83304779 5.98261312 5 10.36326907 5 19 C-3.58 19 -12.16 19 -21 19 C-21.495 15.04 -21.495 15.04 -22 11 C-25.75047482 8.49968346 -27.55856266 8.46396446 -32 9 C-35.10614087 11.02208359 -35.10614087 11.02208359 -37 14 C-37.49709519 16.68139216 -37.49709519 16.68139216 -36 19 C-31.00787741 21.44812158 -25.90883943 22.96858741 -20.5625 24.4375 C-4.59799307 29.01105054 -4.59799307 29.01105054 0 36 C2.22188656 40.44377312 1.44219753 45.35416236 0.19921875 49.98046875 C-3.07243759 58.85104213 -7.68668701 64.45470036 -16.26171875 68.5625 C-29.25109895 73.77602546 -46.65283636 76.02980582 -60.09765625 70.90234375 C-66.34678656 67.93817722 -70.30993448 64.41209583 -73 58 C-73.61187698 54.09928423 -73.25482768 50.76448305 -72 47 C-63.09 47 -54.18 47 -45 47 C-44.34 49.64 -43.68 52.28 -43 55 C-41.07857558 57.35601529 -41.07857558 57.35601529 -37.6875 57.25 C-34.27485916 57.01863452 -32.04534065 56.4765288 -29 55 C-28.67 52.03 -28.34 49.06 -28 46 C-31.95744349 44.20066786 -35.87783297 42.67568332 -40.03125 41.38671875 C-40.92457031 41.10763672 -41.81789063 40.82855469 -42.73828125 40.54101562 C-44.57615227 39.9730173 -46.41734923 39.41566879 -48.26171875 38.86914062 C-54.14921992 37.00434047 -58.92224602 34.7771362 -63 30 C-64.92361246 24.22916261 -65.06896568 17.99141384 -63.01171875 12.234375 C-58.51794541 3.98102227 -51.59702527 -1.09990197 -42.6875 -3.875 C-41.13277403 -4.28102761 -39.56983736 -4.65701032 -38 -5 C-36.85724609 -5.27650391 -36.85724609 -5.27650391 -35.69140625 -5.55859375 C-23.78582991 -7.51117739 -10.29003189 -6.77465901 0 0 Z " fill="#020300" transform="translate(1593,435)"/>
<path d="M0 0 C4.95 0 9.9 0 15 0 C13.71764698 8.71589677 12.20167858 17.32538567 10.39648438 25.94677734 C10.14192348 27.17600575 9.88736259 28.40523417 9.62508774 29.67171192 C8.93054783 33.02515795 8.23193003 36.37774244 7.53257084 39.73018622 C6.78491625 43.31792515 6.04121714 46.90648407 5.29705811 50.49494934 C3.86294402 57.40756804 2.42544135 64.31947748 0.98668027 71.2311303 C-0.83211298 79.96905896 -2.64707017 88.70778357 -4.46191406 97.4465332 C-5.12284631 100.6288641 -5.78379995 103.81119055 -6.44476318 106.99351501 C-6.60799835 107.77946094 -6.77123353 108.56540687 -6.93941522 109.37516934 C-7.92802032 114.13486779 -8.91706618 118.89447441 -9.90645909 123.65400916 C-13.69485931 141.87846609 -17.4721595 160.10510426 -21.22305298 178.33732605 C-21.87675871 181.51463474 -22.530946 184.69184388 -23.18530273 187.86901855 C-24.9403302 196.39125551 -26.69436241 204.91368247 -28.44087601 213.4376688 C-29.12781941 216.78643139 -29.81777922 220.13456675 -30.50865936 223.48251915 C-30.82162605 225.00253171 -31.13325313 226.52282082 -31.44342804 228.04340553 C-31.85697169 230.07026949 -32.27503822 232.0961461 -32.69433594 234.12182617 C-32.92441345 235.24288254 -33.15449097 236.3639389 -33.39154053 237.51896667 C-34 240 -34 240 -35 241 C-37.53049402 241.07313567 -40.03304837 241.09247527 -42.5625 241.0625 C-43.27341797 241.05798828 -43.98433594 241.05347656 -44.71679688 241.04882812 C-46.47790013 241.03700864 -48.23896036 241.01907263 -50 241 C-48.73672925 232.28037231 -47.19955093 223.6605832 -45.39648438 215.03735352 C-45.01464304 213.1911312 -45.01464304 213.1911312 -44.62508774 211.30761147 C-43.93057545 207.95010488 -43.2319674 204.59346272 -42.53257084 201.23697066 C-41.78500675 197.6457254 -41.04128421 194.05368441 -40.29705811 190.46174622 C-38.86311912 183.54409439 -37.42559905 176.62719173 -35.98668027 169.71057421 C-34.83036242 164.15204768 -33.67539329 158.59324248 -32.5213623 153.03424072 C-32.35783398 152.24653195 -32.19430565 151.45882318 -32.02582192 150.64724445 C-31.6952347 149.05480759 -31.36464866 147.46237048 -31.03406382 145.86993313 C-27.46923613 128.69923158 -23.89747883 111.52997529 -20.32382083 94.36110973 C-18.84310848 87.2469755 -17.36394407 80.13251973 -15.88476562 73.01806641 C-13.53396769 61.71263541 -11.17837073 50.40821218 -8.81930542 39.10450363 C-8.25003312 36.37515877 -7.68166514 33.64562696 -7.11352539 30.91604614 C-6.24209004 26.73018327 -5.36791322 22.54490315 -4.49134064 18.36011314 C-4.17879757 16.86598982 -3.86717939 15.37167268 -3.55657196 13.87714577 C-3.14219439 11.88419066 -2.72405019 9.89201978 -2.30566406 7.89990234 C-2.07558655 6.79883148 -1.84550903 5.69776062 -1.60845947 4.56332397 C-1 2 -1 2 0 0 Z " fill="#CDFD05" transform="translate(506,70)"/>
<path d="M0 0 C1.37912042 4.13736127 0.15749259 7.40421812 -0.875 11.5 C-1.15537109 12.65822266 -1.15537109 12.65822266 -1.44140625 13.83984375 C-2.19960839 16.94255749 -2.98921266 19.96763798 -4 23 C1.61 23 7.22 23 13 23 C12.49259359 29.17344462 11.73254212 33.9361026 10 40 C4.06 40 -1.88 40 -8 40 C-8.0825 41.134375 -8.165 42.26875 -8.25 43.4375 C-8.75539713 48.21237142 -9.88902575 52.73274608 -11.0625 57.375 C-12.69364859 63.92473316 -13.84823827 70.2140938 -13 77 C-11.12175109 78.87824891 -7.96064724 78.39102397 -5.4375 78.5625 C-3.64119141 78.68818359 -3.64119141 78.68818359 -1.80859375 78.81640625 C-0.88175781 78.87699219 0.04507812 78.93757813 1 79 C1.42765417 85.41481258 -0.14256832 90.88595404 -2 97 C-7.64873711 97.9491103 -13.15129312 98.21546783 -18.875 98.25 C-19.72191406 98.270625 -20.56882812 98.29125 -21.44140625 98.3125 C-28.39383818 98.35508764 -34.49136081 97.10518352 -40.5 93.5 C-43.14805233 90.85194767 -43.23771852 87.81931859 -43.375 84.25 C-43.3179683 74.87398854 -40.75995214 65.80865341 -38.6328125 56.72705078 C-37.77135665 53.01468125 -36.97642793 49.29094304 -36.1875 45.5625 C-35.5996875 42.8090625 -35.5996875 42.8090625 -35 40 C-39.62 40 -44.24 40 -49 40 C-48.52434234 37.54093963 -48.04463948 35.08279007 -47.5625 32.625 C-47.36043945 31.57699219 -47.36043945 31.57699219 -47.15429688 30.5078125 C-46.11328125 25.2265625 -46.11328125 25.2265625 -45 23 C-41.83984375 22.5859375 -41.83984375 22.5859375 -37.9375 22.375 C-36.64714844 22.30023438 -35.35679688 22.22546875 -34.02734375 22.1484375 C-33.02832031 22.09945313 -32.02929688 22.05046875 -31 22 C-30.88398437 20.89591797 -30.88398437 20.89591797 -30.765625 19.76953125 C-29.41040409 11.99754469 -29.41040409 11.99754469 -25.69140625 9.3671875 C-22.50140839 8.0600242 -19.29308042 7.02089038 -16 6 C-13.80471185 5.19712871 -11.6226625 4.36361689 -9.44018555 3.52661133 C-6.30308984 2.32471656 -3.15140662 1.16378087 0 0 Z " fill="#020200" transform="translate(1310,409)"/>
<path d="M0 0 C8.91 0 17.82 0 27 0 C26.67 4.29 26.34 8.58 26 13 C26.94875 11.783125 27.8975 10.56625 28.875 9.3125 C33.61639496 3.95224827 38.83871756 0.40559335 46.0859375 -0.30078125 C48.7457509 -0.3110376 51.3507481 -0.22664703 54 0 C52.33333333 19.66666667 52.33333333 19.66666667 49 23 C47.14770455 23.13336527 45.29281121 23.23122855 43.4375 23.3125 C35.97393803 23.90568939 30.88359234 25.71191125 25.6875 31.1875 C19.5980458 39.18870842 18.7011678 49.86405078 16.875 59.5 C16.4802032 61.56967772 16.08363499 63.63895713 15.68240356 65.70739746 C15.32284551 67.56256249 14.96960358 69.41894838 14.61669922 71.27539062 C14 74 14 74 13 75 C11.00035018 75.08758003 8.9976389 75.10696576 6.99609375 75.09765625 C5.17368164 75.09282227 5.17368164 75.09282227 3.31445312 75.08789062 C2.03505859 75.07951172 0.75566406 75.07113281 -0.5625 75.0625 C-1.84576172 75.05798828 -3.12902344 75.05347656 -4.45117188 75.04882812 C-7.63416022 75.03699545 -10.81705762 75.02051068 -14 75 C-13.52855453 68.52449235 -12.80163482 62.41433805 -11.1875 56.125 C-9.15408645 47.92896545 -7.55787018 39.68252291 -6.01171875 31.3828125 C-4.84058775 25.09931041 -3.57842614 18.83483413 -2.30664062 12.57104492 C-2.15001953 11.79607666 -1.99339844 11.0211084 -1.83203125 10.22265625 C-1.69514893 9.54984619 -1.5582666 8.87703613 -1.41723633 8.18383789 C-0.8976847 5.46447611 -0.45514662 2.7308797 0 0 Z " fill="#030300" transform="translate(1014,431)"/>
<path d="M0 0 C1.16781006 0.00523682 2.33562012 0.01047363 3.53881836 0.01586914 C4.79887695 0.0190918 6.05893555 0.02231445 7.35717773 0.02563477 C8.6976732 0.03399136 10.03816799 0.04245632 11.37866211 0.05102539 C12.72306153 0.05603879 14.06746271 0.06060197 15.41186523 0.06469727 C18.71334151 0.07653051 22.01473014 0.09301568 25.31616211 0.11352539 C20.38407576 25.20427341 15.04137781 50.19199821 9.31616211 75.11352539 C0.07616211 75.11352539 -9.16383789 75.11352539 -18.68383789 75.11352539 C-18.03252744 69.25173136 -17.34256421 64.04748282 -16.04711914 58.37915039 C-15.88705383 57.6705336 -15.72698853 56.96191681 -15.56207275 56.23182678 C-15.22050811 54.72103557 -14.8768673 53.21071243 -14.53128052 51.70083618 C-13.61889554 47.71437643 -12.72120403 43.72462273 -11.82446289 39.73461914 C-11.64343521 38.9301384 -11.46240753 38.12565765 -11.27589417 37.29679871 C-9.22099623 28.12003237 -7.34131976 18.90845176 -5.49951172 9.68676758 C-5.27287842 8.56560547 -5.04624512 7.44444336 -4.81274414 6.28930664 C-4.61753174 5.30873291 -4.42231934 4.32815918 -4.22119141 3.31787109 C-3.44538101 0.13532132 -3.35357825 0.14185517 0 0 Z " fill="#030400" transform="translate(1224.683837890625,430.886474609375)"/>
<path d="M0 0 C2.93423195 1.79646854 4.47205355 2.9441071 6 6 C7.15688725 18.19472952 5.08309534 31.31271065 -2.44140625 41.2578125 C-6.06627922 45.30967552 -9.1566221 47.20449484 -14.5625 47.5625 C-18.20064565 47.40298603 -18.95263803 47.03650818 -22 44.6875 C-26.33703498 38.85960924 -25.50974128 31.96646417 -25 25 C-23.16202907 15.96996891 -20.13205837 7.84377522 -13.3125 1.5 C-8.79406762 -0.54608259 -4.88335489 -0.83017033 0 0 Z " fill="#C9F904" transform="translate(854,445)"/>
<path d="M0 0 C1.35194118 4.41445493 0.35208023 8.08711086 -0.65234375 12.484375 C-0.92081871 13.70776581 -0.92081871 13.70776581 -1.19471741 14.95587158 C-1.7672974 17.55584406 -2.35221895 20.15286036 -2.9375 22.75 C-3.32829098 24.51414213 -3.71827459 26.27846331 -4.10742188 28.04296875 C-5.06076599 32.36452437 -6.03075172 36.68186104 -7 41 C-16.9 41 -26.8 41 -37 41 C-35.35148193 37.70296386 -34.48470368 36.2454581 -31.98828125 33.828125 C-31.10402466 32.96127075 -31.10402466 32.96127075 -30.2019043 32.0769043 C-29.57840088 31.47402588 -28.95489746 30.87114746 -28.3125 30.25 C-23.904478 25.92225562 -19.63635361 21.58272693 -15.64453125 16.86328125 C-12.942523 13.80186098 -9.99578342 10.98729408 -7.08984375 8.12109375 C-4.54300035 5.53616671 -2.25674199 2.83912702 0 0 Z " fill="#C8F704" transform="translate(654,425)"/>
<path d="M0 0 C9.57 0 19.14 0 29 0 C27.68 6.6 26.36 13.2 25 20 C15.43 20 5.86 20 -4 20 C-2.78381288 13.31097084 -1.47484352 6.63679583 0 0 Z " fill="#030300" transform="translate(1228,399)"/>
<path d="M0 0 C3.04201521 1.66556618 3.37557711 2.69313911 5 6 C5 8.97 5 11.94 5 15 C-3.91 15 -12.82 15 -22 15 C-20.83121724 9.15608618 -18.77798297 6.11135478 -15 1.625 C-10.16149014 -0.99585951 -5.36196632 -0.95537798 0 0 Z " fill="#C7F604" transform="translate(1480,444)"/>
</svg>
